<?xml version="1.0" encoding="utf-8"?>
<!-- Generated by IcoMoon.io -->
<!DOCTYPE svg PUBLIC "-//W3C//DTD SVG 1.1//EN" "http://www.w3.org/Graphics/SVG/1.1/DTD/svg11.dtd">
<svg version="1.1" xmlns="http://www.w3.org/2000/svg" xmlns:xlink="http://www.w3.org/1999/xlink" width="47" height="64" viewBox="0 0 47 64">
	<path d="M46.545 26.182q0 5.318-2.261 10.034t-6.227 7.966-8.966 4.545v-17.705h4.977l0.841-5.818h-5.818v-5.114q0-2.636 2.545-2.636h3.705v-5.409q-1.727-0.386-4.182-0.386-4.091 0-6.25 2.080t-2.159 5.648v5.818h-5.295v5.818h5.295v18.432q-4.659-0.091-8.864-1.977t-7.25-4.989-4.841-7.364-1.795-8.943q0-4.727 1.841-9.034t4.966-7.432 7.432-4.966 9.034-1.841 9.034 1.841 7.432 4.966 4.966 7.432 1.841 9.034z" />
</svg>
