<?xml version="1.0" encoding="utf-8"?>
<!-- Generated by IcoMoon.io -->
<!DOCTYPE svg PUBLIC "-//W3C//DTD SVG 1.1//EN" "http://www.w3.org/Graphics/SVG/1.1/DTD/svg11.dtd">
<svg version="1.1" xmlns="http://www.w3.org/2000/svg" xmlns:xlink="http://www.w3.org/1999/xlink" width="47" height="64" viewBox="0 0 47 64">
	<path d="M23.273 2.909q4.75 0 9.057 1.841t7.42 4.955 4.955 7.42 1.841 9.057-1.841 9.057-4.955 7.42-7.42 4.955-9.057 1.841-9.057-1.841-7.42-4.955-4.955-7.42-1.841-9.057 1.841-9.057 4.955-7.42 7.42-4.955 9.057-1.841zM37.432 21.068q1.773-1.25 3.295-3.409-1.841 0.773-3.818 1.045 2.091-1.227 2.841-3.682-1.909 1.136-4.136 1.614-1.932-2.091-4.795-2.091-2.75 0-4.659 1.932t-1.909 4.705q0 0.841 0.159 1.5-4.068-0.205-7.625-2.045t-6.057-4.909q-0.864 1.614-0.864 3.341 0 1.705 0.784 3.148t2.125 2.352q-1.568 0-2.977-0.818v0.068q0 2.386 1.5 4.205t3.795 2.318q-0.705 0.205-1.727 0.205-0.614 0-1.25-0.114 0.614 1.977 2.307 3.205t3.852 1.273q-3.886 3.023-8.205 3.023-0.341 0-1.545-0.114 4.477 2.909 10.114 2.909 3.523 0 6.614-1.114t5.284-2.989 3.773-4.307 2.352-5.080 0.773-5.307v-0.864z" />
</svg>
