<?xml version="1.0" encoding="utf-8"?>
<!-- Generated by IcoMoon.io -->
<!DOCTYPE svg PUBLIC "-//W3C//DTD SVG 1.1//EN" "http://www.w3.org/Graphics/SVG/1.1/DTD/svg11.dtd">
<svg version="1.1" xmlns="http://www.w3.org/2000/svg" xmlns:xlink="http://www.w3.org/1999/xlink" width="47" height="64" viewBox="0 0 47 64">
	<path d="M44.606 26.182q0 8.835-6.249 15.084t-15.084 6.249q-8.242 0-14.33-5.549h-0.054v-0.054q-0.269-0.269-0.269-0.646 0-0.431 0.216-0.646l4.202-4.202q0.646-0.646 1.293 0 3.879 3.34 8.943 3.34 5.603 0 9.589-3.987t3.987-9.589-3.987-9.589-9.589-3.987q-5.118 0-8.889 3.34l5.71 5.657q0.431 0.431 0.215 1.077-0.269 0.593-0.916 0.593h-18.424q-0.431 0-0.7-0.269t-0.269-0.7v-18.424q0-0.646 0.593-0.916 0.646-0.216 1.077 0.216l7.219 7.273q6.141-5.603 14.384-5.603 8.835 0 15.084 6.249t6.249 15.084z" />
</svg>
