<?xml version="1.0" encoding="utf-8"?>
<!-- Generated by IcoMoon.io -->
<!DOCTYPE svg PUBLIC "-//W3C//DTD SVG 1.1//EN" "http://www.w3.org/Graphics/SVG/1.1/DTD/svg11.dtd">
<svg version="1.1" xmlns="http://www.w3.org/2000/svg" xmlns:xlink="http://www.w3.org/1999/xlink" width="47" height="64" viewBox="0 0 47 64">
	<path d="M45.306 15.246l-8.727 8.727q-0.431 0.431-1.077 0.215-0.593-0.269-0.593-0.916v-4.849h-31.030q-0.431 0-0.7-0.269t-0.269-0.7v-5.818q0-0.431 0.269-0.7t0.7-0.269h31.030v-4.848q0-0.646 0.593-0.916 0.646-0.215 1.077 0.215l8.727 8.727q0.7 0.7 0 1.401zM43.636 34.909v5.818q0 0.431-0.269 0.7t-0.7 0.269h-31.030v4.849q0 0.646-0.593 0.916-0.646 0.215-1.077-0.215l-8.727-8.727q-0.7-0.7 0-1.401l8.727-8.727q0.431-0.431 1.077-0.215 0.593 0.269 0.593 0.916v4.849h31.030q0.431 0 0.7 0.269t0.269 0.7z" />
</svg>
