<?xml version="1.0" encoding="utf-8"?>
<!-- Generated by IcoMoon.io -->
<!DOCTYPE svg PUBLIC "-//W3C//DTD SVG 1.1//EN" "http://www.w3.org/Graphics/SVG/1.1/DTD/svg11.dtd">
<svg version="1.1" xmlns="http://www.w3.org/2000/svg" xmlns:xlink="http://www.w3.org/1999/xlink" width="47" height="64" viewBox="0 0 47 64">
	<path d="M45.576 23.273q0.431 0 0.7 0.269t0.269 0.7v3.879q0 0.431-0.269 0.7t-0.7 0.269h-5.118q-0.862 5.495-4.822 9.455t-9.455 4.875v5.064q0 0.431-0.269 0.7t-0.7 0.269h-3.879q-0.431 0-0.7-0.269t-0.269-0.7v-5.064q-5.495-0.916-9.455-4.875t-4.875-9.455h-5.064q-0.431 0-0.7-0.269t-0.269-0.7v-3.879q0-0.431 0.269-0.7t0.7-0.269h5.064q0.916-5.495 4.875-9.455t9.455-4.822v-5.118q0-0.431 0.269-0.7t0.7-0.269h3.879q0.431 0 0.7 0.269t0.269 0.7v5.118q5.495 0.916 9.428 4.848t4.849 9.428h5.118zM23.273 37.818q4.795 0 8.216-3.421t3.421-8.215-3.421-8.215-8.216-3.421-8.216 3.421-3.421 8.215 3.421 8.215 8.216 3.421z" />
</svg>
