<?xml version="1.0" encoding="utf-8"?>
<!-- Generated by IcoMoon.io -->
<!DOCTYPE svg PUBLIC "-//W3C//DTD SVG 1.1//EN" "http://www.w3.org/Graphics/SVG/1.1/DTD/svg11.dtd">
<svg version="1.1" xmlns="http://www.w3.org/2000/svg" xmlns:xlink="http://www.w3.org/1999/xlink" width="47" height="64" viewBox="0 0 47 64">
	<path d="M43.367 14.545l-3.232 3.178q3.502 5.118 3.502 11.367 0 8.458-5.953 14.411t-14.411 5.953-14.411-5.953-5.953-14.411q0-6.842 4.094-12.229t10.451-7.273v-5.71q0-0.431 0.269-0.7t0.7-0.269h9.697q0.431 0 0.7 0.269t0.269 0.7v5.71q3.125 0.916 5.549 2.64l3.232-3.178q0.7-0.646 1.347 0l4.148 4.148q0.7 0.7 0 1.347zM27.151 29.091v-14.545h-3.879l-3.771 13.684q-0.108 0.539-0.108 0.862 0 1.616 1.131 2.747t2.747 1.131 2.747-1.131 1.131-2.747z" />
</svg>
