<?xml version="1.0" encoding="utf-8"?>
<!-- Generated by IcoMoon.io -->
<!DOCTYPE svg PUBLIC "-//W3C//DTD SVG 1.1//EN" "http://www.w3.org/Graphics/SVG/1.1/DTD/svg11.dtd">
<svg version="1.1" xmlns="http://www.w3.org/2000/svg" xmlns:xlink="http://www.w3.org/1999/xlink" width="47" height="64" viewBox="0 0 47 64">
	<path d="M40.512 28.875l4.471 3.879q0.539 0.377 0.269 1.024-1.347 4.148-4.418 7.65-0.431 0.539-1.024 0.269l-5.603-1.939q-2.155 1.724-4.633 2.694l-1.131 5.818q-0.108 0.646-0.754 0.754-2.317 0.431-4.418 0.431t-4.418-0.431q-0.646-0.108-0.754-0.754l-1.131-5.818q-2.64-1.024-4.633-2.694l-5.603 1.939q-0.593 0.269-1.024-0.269-3.071-3.502-4.418-7.65-0.269-0.646 0.269-1.024l4.471-3.879q-0.215-1.131-0.215-2.694t0.215-2.694l-4.471-3.879q-0.539-0.377-0.269-1.024 1.347-4.148 4.418-7.65 0.431-0.539 1.024-0.269l5.603 1.939q1.993-1.67 4.633-2.694l1.131-5.818q0.108-0.646 0.754-0.754 4.418-0.916 8.835 0 0.646 0.108 0.754 0.754l1.131 5.818q2.478 0.97 4.633 2.694l5.603-1.939q0.593-0.269 1.024 0.269 3.071 3.502 4.418 7.65 0.269 0.646-0.269 1.024l-4.471 3.879q0.215 1.131 0.215 2.694t-0.215 2.694zM23.273 34.909q3.609 0 6.168-2.559t2.559-6.168-2.559-6.168-6.168-2.559-6.168 2.559-2.559 6.168q0 3.663 2.532 6.195t6.195 2.532z" />
</svg>
