<?xml version="1.0" encoding="utf-8"?>
<!-- Generated by IcoMoon.io -->
<!DOCTYPE svg PUBLIC "-//W3C//DTD SVG 1.1//EN" "http://www.w3.org/Graphics/SVG/1.1/DTD/svg11.dtd">
<svg version="1.1" xmlns="http://www.w3.org/2000/svg" xmlns:xlink="http://www.w3.org/1999/xlink" width="47" height="64" viewBox="0 0 47 64">
	<path d="M26.182 11.636q1.185 0 2.047 0.862t0.862 2.047v23.273q0 1.185-0.862 2.047t-2.047 0.862h-23.273q-1.185 0-2.047-0.862t-0.862-2.047v-23.273q0-1.185 0.862-2.047t2.047-0.862h23.273zM46.545 12.606v27.151q0 0.646-0.593 0.916-0.108 0.054-0.377 0.054-0.323 0-0.7-0.269l-12.175-12.229q-0.862-0.862-0.862-2.047t0.862-2.047l12.175-12.229q0.431-0.431 1.077-0.216 0.593 0.269 0.593 0.916z" />
</svg>
