<?xml version="1.0" encoding="utf-8"?>
<!-- Generated by IcoMoon.io -->
<!DOCTYPE svg PUBLIC "-//W3C//DTD SVG 1.1//EN" "http://www.w3.org/Graphics/SVG/1.1/DTD/svg11.dtd">
<svg version="1.1" xmlns="http://www.w3.org/2000/svg" xmlns:xlink="http://www.w3.org/1999/xlink" width="47" height="64" viewBox="0 0 47 64">
	<path d="M13.576 44.606q0-2.047 1.401-3.448t3.448-1.401 3.448 1.401 1.401 3.448-1.401 3.448-3.448 1.401-3.448-1.401-1.401-3.448zM29.091 44.606q0-2.047 1.401-3.448t3.448-1.401 3.448 1.401 1.401 3.448-1.401 3.448-3.448 1.401-3.448-1.401-1.401-3.448zM46.492 12.822l-5.926 19.879q-0.269 0.97-1.024 1.589t-1.778 0.62h-23.219q-1.024 0-1.805-0.62t-0.997-1.589l-5.926-23.973h-2.909q-1.185 0-2.047-0.862t-0.862-2.047 0.862-2.047 2.047-0.862h5.172q1.024 0 1.832 0.619t1.024 1.589l1.616 6.519h33.024q0.485 0 0.754 0.377 0.323 0.323 0.162 0.808z" />
</svg>
