<?xml version="1.0" encoding="utf-8"?>
<!-- Generated by IcoMoon.io -->
<!DOCTYPE svg PUBLIC "-//W3C//DTD SVG 1.1//EN" "http://www.w3.org/Graphics/SVG/1.1/DTD/svg11.dtd">
<svg version="1.1" xmlns="http://www.w3.org/2000/svg" xmlns:xlink="http://www.w3.org/1999/xlink" width="47" height="64" viewBox="0 0 47 64">
	<path d="M40.727 35.879v6.788q0 2.532-5.226 4.66t-12.229 2.128-12.229-2.128-5.226-4.66v-6.788q6.088 3.879 17.455 3.879t17.455-3.879zM40.727 22.303v7.758q0 2.424-5.118 4.121t-12.337 1.697-12.337-1.697-5.118-4.121v-7.758q6.088 3.879 17.455 3.879t17.455-3.879zM40.727 8.727v7.758q0 2.424-5.118 4.121t-12.337 1.697-12.337-1.697-5.118-4.121v-7.758q0-2.424 5.118-4.121t12.337-1.697 12.337 1.697 5.118 4.121z" />
</svg>
