<?xml version="1.0" encoding="utf-8"?>
<!-- Generated by IcoMoon.io -->
<!DOCTYPE svg PUBLIC "-//W3C//DTD SVG 1.1//EN" "http://www.w3.org/Graphics/SVG/1.1/DTD/svg11.dtd">
<svg version="1.1" xmlns="http://www.w3.org/2000/svg" xmlns:xlink="http://www.w3.org/1999/xlink" width="47" height="64" viewBox="0 0 47 64">
	<path d="M32 36.525l5.818-3.987v6.249q0 2.37-1.724 4.094t-4.094 1.724h-26.182q-2.37 0-4.094-1.724t-1.724-4.094v-23.273q0-2.37 1.724-4.094t4.094-1.724h16.485v2.37q-5.279 0.808-8.943 3.448h-7.542v23.273h26.182v-2.263zM46.114 20.525q0.431 0.323 0.431 0.808 0 0.539-0.431 0.808l-18.424 12.606q-0.215 0.162-0.539 0.162-0.215 0-0.431-0.108-0.539-0.269-0.539-0.862v-6.842q-3.125 0.054-5.737 0.512t-4.094 0.97-2.694 1.239-1.535 1.024-0.593 0.619l-0.054 0.054q-0.269 0.485-0.808 0.485h-0.216q-0.646-0.162-0.754-0.916 0-6.518 3.879-10.613 4.31-4.633 12.606-4.902v-6.842q0-0.593 0.539-0.862 0.539-0.323 0.97 0.054z" />
</svg>
