<?xml version="1.0" encoding="utf-8"?>
<!-- Generated by IcoMoon.io -->
<!DOCTYPE svg PUBLIC "-//W3C//DTD SVG 1.1//EN" "http://www.w3.org/Graphics/SVG/1.1/DTD/svg11.dtd">
<svg version="1.1" xmlns="http://www.w3.org/2000/svg" xmlns:xlink="http://www.w3.org/1999/xlink" width="47" height="64" viewBox="0 0 47 64">
	<path d="M45.63 41.751q0.916 1.239 0.916 2.855 0 2.047-1.401 3.448t-3.448 1.401h-36.849q-2.909 0-4.31-2.586-1.347-2.586 0.269-4.956l14.707-21.657v-16.377q0-0.431 0.269-0.7t0.7-0.269h13.576q0.431 0 0.7 0.269t0.269 0.7v16.377zM17.455 41.697q1.616 0 2.747-1.131t1.131-2.748-1.131-2.748-2.747-1.131-2.748 1.131-1.131 2.748 1.131 2.748 2.748 1.131zM26.182 32q1.185 0 2.047-0.862t0.862-2.047-0.862-2.047-2.047-0.862-2.047 0.862-0.862 2.047 0.862 2.047 2.047 0.862z" />
</svg>
