<?xml version="1.0" encoding="utf-8"?>
<!-- Generated by IcoMoon.io -->
<!DOCTYPE svg PUBLIC "-//W3C//DTD SVG 1.1//EN" "http://www.w3.org/Graphics/SVG/1.1/DTD/svg11.dtd">
<svg version="1.1" xmlns="http://www.w3.org/2000/svg" xmlns:xlink="http://www.w3.org/1999/xlink" width="47" height="64" viewBox="0 0 47 64">
	<path d="M43.636 2.909q1.185 0 2.047 0.862t0.862 2.047v40.727q0 1.185-0.862 2.047t-2.047 0.862h-40.727q-1.185 0-2.047-0.862t-0.862-2.047v-40.727q0-1.185 0.862-2.047t2.047-0.862h3.879v5.818q0 1.185 0.862 2.047t2.047 0.862 2.047-0.862 0.862-2.047v-5.818h21.333v5.818q0 1.185 0.862 2.047t2.047 0.862 2.047-0.862 0.862-2.047v-5.818h3.879zM14.545 42.667v-7.758h-7.758v7.758h7.758zM14.545 29.091v-7.758h-7.758v7.758h7.758zM27.151 42.667v-7.758h-7.758v7.758h7.758zM27.151 29.091v-7.758h-7.758v7.758h7.758zM39.758 42.667v-7.758h-7.758v7.758h7.758zM39.758 29.091v-7.758h-7.758v7.758h7.758z" />
</svg>
