<?xml version="1.0" encoding="utf-8"?>
<!-- Generated by IcoMoon.io -->
<!DOCTYPE svg PUBLIC "-//W3C//DTD SVG 1.1//EN" "http://www.w3.org/Graphics/SVG/1.1/DTD/svg11.dtd">
<svg version="1.1" xmlns="http://www.w3.org/2000/svg" xmlns:xlink="http://www.w3.org/1999/xlink" width="47" height="64" viewBox="0 0 47 64">
	<path d="M43.636 14.545q1.185 0 2.047 0.862t0.862 2.047v23.273q0 1.185-0.862 2.047t-2.047 0.862h-40.727q-1.185 0-2.047-0.862t-0.862-2.047v-23.273q0-1.185 0.862-2.047t2.047-0.862h8.727l1.401-4.256q0.269-0.646 0.862-1.104t1.293-0.458h16.162q0.646 0 1.266 0.458t0.835 1.104l1.455 4.256h8.727zM23.273 37.818q3.609 0 6.168-2.559t2.559-6.168-2.559-6.168-6.168-2.559-6.168 2.559-2.559 6.168q0 3.663 2.532 6.195t6.195 2.532z" />
</svg>
