<?xml version="1.0" encoding="utf-8"?>
<!-- Generated by IcoMoon.io -->
<!DOCTYPE svg PUBLIC "-//W3C//DTD SVG 1.1//EN" "http://www.w3.org/Graphics/SVG/1.1/DTD/svg11.dtd">
<svg version="1.1" xmlns="http://www.w3.org/2000/svg" xmlns:xlink="http://www.w3.org/1999/xlink" width="47" height="64" viewBox="0 0 47 64">
	<path d="M46.545 10.667q0 2.101-1.050 3.906t-2.828 2.828v8.781q0 1.616-1.131 2.747t-2.748 1.131h-8.781q-1.024 1.778-2.828 2.828t-3.906 1.050-3.906-1.050-2.828-2.828h-4.902v4.902q1.778 1.024 2.828 2.828t1.050 3.906q0 3.232-2.29 5.495t-5.468 2.263q-3.232 0-5.495-2.263t-2.263-5.495q0-2.101 1.050-3.906t2.828-2.828v-8.781q0-1.616 1.131-2.747t2.748-1.131h8.781q1.024-1.778 2.828-2.828t3.906-1.050 3.906 1.050 2.828 2.828h4.902v-4.902q-1.778-1.024-2.828-2.828t-1.050-3.906q0-3.178 2.263-5.468t5.495-2.29q3.178 0 5.468 2.29t2.29 5.468z" />
</svg>
