<?xml version="1.0" encoding="utf-8"?>
<!-- Generator: Adobe Illustrator 17.0.0, SVG Export Plug-In . SVG Version: 6.00 Build 0)  -->
<!DOCTYPE svg PUBLIC "-//W3C//DTD SVG 1.1//EN" "http://www.w3.org/Graphics/SVG/1.1/DTD/svg11.dtd">
<svg version="1.1" id="Layer_1" xmlns="http://www.w3.org/2000/svg" xmlns:xlink="http://www.w3.org/1999/xlink" x="0px" y="0px"
	 width="342px" height="341px" viewBox="0 0 342 341" enable-background="new 0 0 342 341" xml:space="preserve">
<g id="cw15SJ_1_">
	<g>
		<g>
			<path d="M183,342c-7,0-14,0-21,0c-9.326-1.437-18.786-2.292-27.957-4.403C53.533,319.06-16.776,235.403,5.37,135.447
				C26.14,41.7,114.462-16.211,212.397,6.622c62.258,14.515,101.672,54.861,122.405,114.148c4.372,12.503,5.549,26.124,8.198,39.23
				c0,6.333,0,12.667,0,19c-1.678,10.624-2.53,21.458-5.17,31.838c-16.358,64.313-56.655,106.021-120.186,124.878
				C206.46,339.036,194.566,339.966,183,342z M263.926,85.469c12.166-0.847,22.993-1.601,33.919-2.362c0-2.212,0-3.722,0-4.159
				c-10.286,0-20.067,0.063-29.847-0.02c-7.638-0.065-15.28-0.203-22.911-0.53c-3.033-0.13-6.192-0.419-9.034-1.393
				c-10.338-3.543-20.874-1.614-26.92,4.662c-10.614,11.019-21.485,21.792-32.279,32.637c-6.844,6.876-13.744,13.697-20.729,20.653
				c6.568,1.476,12.127,2.977,17.78,3.882c2.56,0.41,5.322-0.293,7.952-0.734c0.221-0.037,0.361-2.766,0.153-2.823
				c-2.334-0.634-4.757-0.929-7.129-1.44c-1.537-0.331-3.459-0.466-4.393-1.457c-0.623-0.662-0.222-2.911,0.43-4.042
				c2.558-4.445,11.55-7.867,16.5-6.923c10.453,1.993,19.485,17.388,7.17,29.993c2.253,3.202,4.596,6.543,6.951,9.875
				c2.445,3.46,1.935,4.904-2.194,5.818c-1.284,0.284-2.653,0.429-3.959,0.328c-4.547-0.353-6.588,2.004-7.411,6.882
				c9.395-1.343,18.352-2.623,27.724-3.963c2.071,5.467,4.227,10.824,6.133,16.268c2.462,7.034,7.083,11.452,14.551,12.602
				c5.382,0.829,10.78,1.56,16.848,2.432c1.215,6.819,2.65,13.936,3.721,21.107c1.47,9.838,2.76,19.705,3.937,29.583
				c0.565,4.744,4.064,3.498,6.813,3.639c2.881,0.148,5.623,0.08,6.322-3.897c3.21-18.259,6.648-36.478,9.835-54.741
				c0.562-3.222,1.162-4.495,5.05-3.737c11.806,2.301,23.703,1.776,35.63,0.07c4.539-24.573-0.036-47.79-6.654-70.246
				c-3.888,1.218-7.366,2.709-10.993,3.334c-3.765,0.649-5.794,2.105-6.648,6.068c-1.153,5.351-9.427,9.816-13.472,6.817
				c-5.39-3.995-10.98-4.794-17.249-4.936c-1.554-0.035-4.019-2.465-4.38-4.154c-0.897-4.195-0.855-8.596-1.098-12.919
				c-0.033-0.593,0.441-1.222,0.708-1.823c1.674-3.78,4.312-6.054,8.306-5.195c-0.854-3.521-1.653-6.817-2.687-11.084
				c-1.656-1.116-5.66-2.421-6.881-5.029C262.244,91.844,263.722,87.899,263.926,85.469z M199.928,243.624
				c-18.676,0-36.209,0-53.756,0c0.549,8.098,1.092,16.115,1.67,24.646c-6.906-3.185-5.559-9.042-5.736-14.036
				c-0.491-13.833-0.197-10.72-11.567-11.166c-0.438-0.017-0.89,0.317-1.736,0.641c1.176,9.628,2.354,19.277,3.532,28.926
				c-0.58,0.286-1.16,0.571-1.74,0.857c-1.184-1.571-3.119-3.01-3.421-4.735c-1.313-7.505-2.027-15.114-3.288-22.63
				c-0.201-1.195-1.998-2.857-3.216-3.005c-3.384-0.413-6.851-0.143-10.932-0.143c2.083,11.683,4.017,22.535,5.952,33.387
				c-0.601,0.313-1.201,0.626-1.802,0.939c-1.295-1.92-3.27-3.681-3.765-5.789c-1.929-8.213-3.284-16.56-5.126-24.796
				c-0.308-1.379-1.895-3.403-3.022-3.494c-3.356-0.271-6.778,0.272-10.654,0.529c4.027,15.459,7.939,29.984,11.522,44.591
				c0.85,3.466,2.041,4.821,5.854,4.783c20.321-0.206,40.646-0.085,60.969-0.077c4.973,0.002,9.956,0.171,14.913-0.118
				c1.22-0.071,3.116-1.437,3.41-2.549C192.008,275.203,195.799,259.962,199.928,243.624z M175.074,129.151
				c1.958,0.331,3.428,0.451,4.823,0.839c3.565,0.992,6.216,3.553,5.827,7.041c-0.239,2.149-2.702,4.768-4.831,5.785
				c-2.062,0.985-5.073,0.632-7.497,0.098c-9.409-2.072-18.734-4.459-28.375-1.193c-1.542,0.522-3.296,0.65-4.939,0.592
				c-3.336-0.119-6.551-0.989-6.827-4.997c-0.238-3.455,3.545-5.894,7.499-5.446c1.333,0.151,2.719-0.157,4.462-0.283
				c-3.921-5.504-10.681-5.904-16.567-1.577c-4.469,3.285-5.488,12.697-1.861,17.182c4.088,5.055,3.912,6.088-1.05,10.24
				c-2.667,2.231-5.086,4.758-7.617,7.151c0.298,0.707,0.596,1.414,0.894,2.12c3.038,0,6.088-0.165,9.108,0.067
				c1.611,0.124,4.355,0.629,4.572,1.478c3.043,11.901,10.791,22.481,9.431,35.683c-0.571,5.543,1.989,11.233,7.767,12.584
				c5.449,1.274,11.447,0.743,17.134,0.23c2.949-0.266,4.575-2.595,5.357-6.148c2.373-10.789,5.491-21.418,8.445-32.075
				c1.33-4.798,2.958-9.514,4.602-14.749c-0.438,0.16-0.136-0.01,0.184-0.058c3.42-0.514,6.843-1.009,10.266-1.509
				c-2.129-2.791-4.156-5.667-6.42-8.344c-1.647-1.948-2.166-3.64-0.123-5.585c1.083-1.032,2.089-2.152,3.059-3.293
				c3.325-3.911,3.747-12.386,0.792-15.308C187.09,123.648,181.258,123.364,175.074,129.151z M30.76,105.813
				c1.7,0.103,2.808,0.228,3.916,0.228c23.288,0.012,46.576,0.026,69.863,0.005c20.314-0.018,40.654-0.708,60.93,0.138
				c10.564,0.441,16.831-4.921,23.149-12.141c-6.611-0.574-13.179-0.602-19.748-0.569c-32.292,0.159-64.584,0.267-96.875,0.539
				c-10.971,0.092-21.942,0.525-32.902,1.043c-1.438,0.068-3.274,1.256-4.11,2.481C33.345,99.94,32.282,102.734,30.76,105.813z
				 M17.187,192.48c39.282,0,77.912,0,116.979,0c-0.813-2.262-1.703-4.057-2.092-5.954c-1.015-4.949-3.802-6.393-8.824-6.181
				c-12.625,0.534-25.275,0.534-37.916,0.584c-20.974,0.082-41.949,0.035-62.924,0.042c-1.779,0.001-3.558,0-5.732,0
				C16.854,184.932,17.005,188.341,17.187,192.48z M108.564,234.144c0.289-0.463,0.579-0.926,0.868-1.389
				c2.217,1.036,4.737,1.692,6.599,3.174c7.605,6.052,15.439,4.073,23.409,1.177c1.477-0.537,3.018-0.894,5.348-1.572
				c-1.388,1.531-2.106,2.323-3.14,3.463c1.256,0.25,2.031,0.546,2.801,0.534c6.602-0.1,13.206-0.43,19.804-0.348
				c7.144,0.088,14.282,0.617,21.426,0.783c1.559,0.036,3.604-0.152,4.609-1.101c2.53-2.39,4.718-1.621,7.191-0.227
				c2.546,1.435,5.128,2.426,7.674-1.132c-2.209-1.247-4.217-2.381-6.492-3.666c2.045-1.801,3.791-3.34,5.537-4.878
				c-0.278-0.498-0.557-0.997-0.835-1.495c-3.679,1.466-7.248,3.506-11.068,4.242c-4.09,0.788-8.573,1.048-12.186-2.454
				c1.033-1.207,1.954-2.282,2.875-3.357c-0.14-0.474-0.28-0.949-0.42-1.423c-1.331,0.279-3.057,0.12-3.928,0.908
				c-5.267,4.759-12.116,4.887-18.255,5.031c-6.489,0.153-13.039-2.284-19.544-3.586c0.282-0.414,1.009-1.483,1.964-2.885
				c-1.877-0.765-3.674-2.164-4.51-1.726c-4.148,2.171-7.27-0.218-10.765-1.587c-1.341-0.526-4.027-0.614-4.507,0.128
				c-3.888,6.006-9.392,4.17-14.808,3.747c-2.528-0.198-5.128,0.728-7.712,0.97c-2.799,0.263-5.618,0.442-8.428,0.434
				c-2.208-0.007-4.414-0.355-6.621-0.551c-0.177,0.512-0.354,1.024-0.531,1.535c2.197,1.638,4.333,3.368,6.61,4.886
				c2.187,1.458,4.802,2.379,6.733,4.095c3.896,3.461,8.534,4.354,13.598,2.022C110.761,236.645,109.662,235.395,108.564,234.144z
				 M118.65,147.05c0.983-10.027,0.983-10.065-8.244-10.071c-27.294-0.02-54.589-0.014-81.883-0.003
				c-8.651,0.004-8.658,0.025-10.125,8.243c-0.077,0.428,0.135,0.908,0.291,1.831C51.928,147.05,85.135,147.05,118.65,147.05z
				 M237.226,205.141c0.551,14.484,1.082,28.472,1.637,43.051c2.349-0.495,4.844-0.271,5.642-1.328
				c2.515-3.332,5.174-6.906,6.367-10.816c3.178-10.417-0.566-20.544-2.135-30.907C244.857,205.141,241.25,205.141,237.226,205.141z
				 M51.203,175.979c3.898,0,7.258,0.286,10.523-0.148c1.22-0.162,3.123-1.965,3.169-3.082c0.29-7.123,0.147-14.263,0.147-21.957
				c-4.856-0.226-9.207-0.428-13.84-0.644C51.203,159.007,51.203,167.245,51.203,175.979z M50.519,133.117c4.533,0,9.074,0,14.007,0
				c0-7.631,0-14.84,0-22.539c-4.716,0-9.093,0-14.007,0C50.519,118.01,50.519,125.279,50.519,133.117z M215.841,191.707
				c-0.721-2.442-1.637-4.572-1.941-6.787c-0.554-4.036-3.052-4.928-6.564-4.871c-4.14,0.068-8.283-0.072-12.424-0.094
				c-7.758-0.043-11.515,3.632-11.967,11.752C193.823,191.707,204.696,191.707,215.841,191.707z M52.037,211.127
				c4.477,0,8.552,0,12.598,0c0.801-16.409,1.644-13.941-11.604-14.002c-0.142-0.001-0.284,0.161-0.994,0.591
				C52.037,201.869,52.037,206.377,52.037,211.127z M50.713,91.013c5.1-1.112,10.109-1.032,13.338-3.39
				c1.678-1.225,1.242-9.361-0.028-9.864c-4.053-1.607-8.944-1.103-14.161-1.459C50.159,81.412,50.384,85.317,50.713,91.013z"/>
			<path d="M208.215,117.363c1.376-0.608,3.161-0.869,4.036-1.902c1.433-1.69,2.999-3.806,3.217-5.878
				c0.48-4.55,3.226-7.01,6.935-8.226c3.446-1.13,6.736-0.549,9.003,3.252c0.729,1.222,3.348,1.381,5.142,1.888
				c2.87,0.813,6.277,0.861,8.439,2.543c1.017,0.791-0.234,4.645-0.653,7.077c-0.218,1.268-1.517,2.669-1.205,3.656
				c1.933,6.125-2.507,7.803-6.503,9.846c-3.941,2.014-7.958,3.888-11.841,6.008c-3.485,1.903-6.776-0.351-8.607-5.554
				c-1.36-3.865-3.283-7.532-4.954-11.288C210.221,118.31,209.218,117.836,208.215,117.363z"/>
			<path d="M290.453,163.993c-1.137,5.156-1.21,8.825-6.314,9.982c-2.252,0.51-4.746,3.24-5.708,5.554
				c-3.06,7.355-10.053,5.829-13.565,0.787c-1.232-1.768-3.626-2.719-4.892-4.474c-0.903-1.251-1.367-3.342-1.041-4.845
				c0.653-3.017,2.089-5.854,3.007-8.826c1.748-5.662,5.248-6.82,10.886-4.638c3.922,1.518,8.454,1.394,12.513,2.651
				C287.409,160.824,289.037,162.89,290.453,163.993z"/>
		</g>
	</g>
</g>
</svg>
