<?xml version="1.0" encoding="utf-8"?>
<!-- Generator: Adobe Illustrator 16.0.0, SVG Export Plug-In . SVG Version: 6.00 Build 0)  -->
<!DOCTYPE svg PUBLIC "-//W3C//DTD SVG 1.1//EN" "http://www.w3.org/Graphics/SVG/1.1/DTD/svg11.dtd">
<svg version="1.1" id="Layer_1" xmlns="http://www.w3.org/2000/svg" xmlns:xlink="http://www.w3.org/1999/xlink" x="0px" y="0px"
	 width="310.914px" height="221.664px" viewBox="0 0 310.914 221.664" enable-background="new 0 0 310.914 221.664"
	 xml:space="preserve">
<path fill="#F28634" d="M260.939,16.529C232.567,5.87,195.106,0,155.457,0c-39.65,0-77.111,5.87-105.482,16.529
	C17.748,28.637,0,46.279,0,66.207c0,85.72,69.737,155.457,155.457,155.457s155.457-69.737,155.457-155.457
	C310.914,46.279,293.166,28.637,260.939,16.529z M58.767,39.932C84.396,30.303,118.735,25,155.457,25
	c36.721,0,71.06,5.303,96.689,14.932c20.513,7.707,33.768,18.021,33.768,26.275s-13.255,18.568-33.768,26.275
	c-25.63,9.629-59.969,14.932-96.689,14.932c-36.722,0-71.061-5.303-96.69-14.932C38.254,84.775,25,74.462,25,66.207
	S38.254,47.639,58.767,39.932z M161.494,196.52c-2.002,0.092-4.014,0.145-6.037,0.145c-2.785,0-5.547-0.098-8.288-0.271
	l-27.167-27.166l34.393-34.393l34.393,34.393L161.494,196.52z M199.395,179.834l6.629,6.629c-6.354,2.682-12.964,4.867-19.78,6.521
	L199.395,179.834z M121.819,192.259c-6.339-1.692-12.487-3.853-18.41-6.439l5.985-5.985L121.819,192.259z M42.355,112.795
	l16.432,16.432l-10.818,10.818c-6.831-9.912-12.33-20.808-16.23-32.432C35.036,109.42,38.578,111.149,42.355,112.795z
	 M83.771,125.458c16.191,3.369,33.874,5.562,52.317,6.468l-26.693,26.693l-29.393-29.393L83.771,125.458z M172.796,132.021
	c18.505-0.812,36.289-2.905,52.595-6.19l3.396,3.396l-29.393,29.393L172.796,132.021z M264.893,114.335
	c5.173-2.096,9.938-4.341,14.283-6.722c-4.065,12.115-9.864,23.442-17.101,33.686l-12.073-12.072L264.893,114.335z M57.247,151.98
	l12.147-12.146l29.393,29.393l-9.417,9.417C77.281,171.511,66.437,162.489,57.247,151.98z M220.206,179.431l-10.204-10.204
	l29.393-29.393l13.273,13.272C243.352,163.518,232.397,172.432,220.206,179.431z"/>
</svg>
