<?xml version="1.0" encoding="utf-8"?>
<!-- Generator: Adobe Illustrator 17.0.0, SVG Export Plug-In . SVG Version: 6.00 Build 0)  -->
<!DOCTYPE svg PUBLIC "-//W3C//DTD SVG 1.1//EN" "http://www.w3.org/Graphics/SVG/1.1/DTD/svg11.dtd">
<svg version="1.1" id="Layer_1" xmlns="http://www.w3.org/2000/svg" xmlns:xlink="http://www.w3.org/1999/xlink" x="0px" y="0px"
	 width="342px" height="341px" viewBox="0 0 342 341" enable-background="new 0 0 342 341" xml:space="preserve">
<g id="LVM16c_1_">
	<g>
		<g>
			<path d="M342.074,172.286c2.082,97.245-83.146,169.493-170.838,169.086C86.392,340.978,0.965,272.397,2.186,169.054
				C3.293,75.363,74.401,1.862,173.435,1.467C265.68,1.1,344.327,79.638,342.074,172.286z M230.087,248.062
				c0.513,0.034,1.026,0.067,1.539,0.101c1.118,3.768,2.331,7.511,3.335,11.309c2.957,11.187,5.359,22.551,8.953,33.527
				c1.592,4.861,2.858,7.987-3.427,9.281c-0.754,0.155-1.637,0.729-2.031,1.371c-0.834,1.363-1.385,2.899-2.052,4.365
				c1.35,0.216,2.694,0.541,4.053,0.625c2.65,0.163,5.309,0.263,7.964,0.261c5.717-0.006,7.135-1.539,6.582-7.148
				c-0.211-2.139-0.678-4.252-0.979-6.384c-2.614-18.551-5.226-37.103-7.816-55.657c-0.755-5.406-2.559-10.954-1.939-16.208
				c1.708-14.466,4.464-28.809,6.762-43.207c0.441-2.764,1.459-3.301,4.371-2.546c5.745,1.49,11.731,2.027,17.521,3.375
				c4.191,0.976,6.011-0.896,7.511-4.382c7.206-16.746,14.586-33.416,21.801-50.159c1.236-2.869,2.332-5.9,2.79-8.962
				c0.251-1.676-0.404-4.334-1.623-5.237c-5.463-4.047-10.935-8.384-17.07-11.128c-4.852-2.17-6.82-5.049-7.382-9.866
				c-0.138-1.181-1.418-2.228-2.173-3.337c-3.121,2.842-9.556,0.805-10.068,7.38c-7.411-4.098-14.715-3.413-22.029-1.162
				c-4.901,1.508-9.835,2.989-14.572,4.927c-3.412,1.396-5.171,0.219-6.859-2.582c-6.689-11.1-13.912-21.903-20.102-33.271
				c-4.191-7.695-8.742-13.351-18.505-12.102c-1.068,0.137-2.43-1.745-3.597-2.759c-0.885-0.768-1.664-2.335-2.509-2.348
				c-2.821-0.045-7.683-0.318-8.131,0.868c-2.176,5.757-6.663,5.479-11.098,5.376c-3.154-0.073-5.094,0.951-7.05,3.502
				c-8.806,11.486-17.818,22.816-26.903,34.084c-5.195,6.444-5.326,6.355-12.928,3.779c-2.505-0.849-4.932-1.971-7.48-2.645
				c-6.838-1.811-13.69-3.598-20.605-5.08c-2.848-0.611-6.714,3.357-8.543-1.983c-0.057-0.165-0.895-0.108-1.364-0.079
				c-2.911,0.184-5.833,0.296-8.723,0.66c-0.643,0.081-1.661,1.063-1.674,1.649c-0.115,5.055-3.722,6.784-7.556,8.585
				c-6.146,2.888-12.096,6.201-18.285,8.986c-3.139,1.412-3.855,3.573-2.963,6.379c7.166,22.533,14.475,45.021,21.594,67.569
				c0.931,2.95,2.463,3.488,5.159,2.923c7.293-1.527,14.621-2.887,21.914-4.415c3.866-0.81,6.738-0.274,7.994,4.131
				c3.083,10.809,6.492,21.528,9.423,32.377c0.779,2.882,0.784,6.175,0.332,9.156c-4.096,27.027-8.364,54.027-12.608,81.031
				c-0.465,2.962,0.453,4.148,3.669,4.115c14.953-0.149,29.909-0.152,44.863-0.051c3.57,0.024,3.75-1.952,3.311-4.504
				c-3.118-18.114-5.741-36.335-9.571-54.298c-3.491-16.373-9.619-32.348-0.317-48.851c1.833-3.253,2.333-4.629,5.984-2.229
				c10.276,6.757,20.907,12.976,31.156,19.772c3.914,2.596,6.537,2.652,10.225-0.581c8.505-7.455,17.564-14.273,26.256-21.52
				c3.322-2.77,4.592-1.849,5.352,1.975c1.128,5.68,2.676,11.28,3.688,16.978c0.952,5.36,2.654,10.971,1.927,16.179
				c-3.165,22.647-7.16,45.177-10.699,67.774c-0.783,5-1.757,9.393-7.975,9.895c-0.898,0.072-1.904,0.73-2.557,1.409
				c-0.757,0.788-1.18,1.897-1.748,2.867c0.975,0.367,1.941,1.023,2.926,1.052c4.162,0.126,8.361-0.244,12.487,0.166
				c3.661,0.364,4.938-1.291,5.779-4.424c3.691-13.75,7.557-27.452,11.285-41.192C226.835,261.062,228.424,254.552,230.087,248.062z
				 M292.044,165.847c-0.353-0.077-0.706-0.153-1.06-0.23c-2.463,5.334-4.855,10.703-7.421,15.987
				c-1.209,2.49-2.322,6.367-4.235,6.901c-4.138,1.154-3.225,3.361-2.696,5.911c3.587,17.304,7.114,34.621,10.885,51.884
				c0.617,2.824,0.141,4.313-2.454,5.481c-2.56,1.152-5.02,2.562-7.399,4.057c-0.659,0.414-0.874,1.534-1.293,2.33
				c0.723,0.249,1.47,0.766,2.166,0.704c5.616-0.501,11.211-1.317,16.835-1.61c3.259-0.17,3.241-1.927,3.104-4.27
				c-0.847-14.414-1.459-28.845-2.521-43.243C294.874,195.098,293.366,180.48,292.044,165.847z M51.453,178.409
				c-0.44,0.339-0.879,0.679-1.319,1.018c-0.433,5.242-1.09,10.477-1.26,15.728c-0.682,21.104-1.174,42.214-1.843,63.319
				c-0.096,3.023,1.182,3.699,3.865,3.471c5.132-0.437,10.291-0.585,15.414-1.103c1.214-0.123,2.326-1.239,3.486-1.899
				c-0.963-1.18-1.7-2.933-2.937-3.425c-2.74-1.089-5.702-1.734-8.63-2.209c-3.193-0.519-3.634-2.309-2.971-4.986
				c1.47-5.94,2.994-11.87,4.328-17.841c3.138-14.043,6.178-28.107,9.256-42.164c0.655-2.992,0.083-4.924-3.616-4.366
				c-1.309,0.198-2.794-0.195-3.961,0.274C55.99,186.345,52.283,185.515,51.453,178.409z M274.615,203.601
				c-1.518-5.154-2.549-10.401-4.725-15.121c-0.801-1.738-4.297-2.254-6.626-3.169c-0.066-0.026-1.179,1.736-1.235,2.698
				c-0.752,12.759-1.463,25.521-2.047,38.288c-0.216,4.725-0.082,9.216-6.127,10.872c-2.798,0.766-3.018,3.569-0.902,5.512
				c1.886,1.731,13.38-1.595,13.943-4.027C269.579,227.076,272.03,215.444,274.615,203.601z M70.493,198.989
				c2.992,13.027,6.137,26.715,9.281,40.403c3.828,0.211,7.659,0.599,11.48,0.515c1.047-0.023,2.166-1.367,3.036-2.305
				c0.302-0.325,0.206-1.577-0.143-1.851c-1.357-1.065-3.008-1.764-4.327-2.867c-1.701-1.422-4.411-2.984-4.573-4.687
				c-1.342-14.05-2.386-28.137-3.08-42.235c-0.215-4.366-1.839-4.907-5.055-3.203c-1.553,0.823-3.394,2.192-3.889,3.71
				C72.002,190.218,71.482,194.196,70.493,198.989z M82.013,65.328c-0.677-4.195-1.151-9.479-6.006-12.602
				c-3.651-2.349-7.678-3.323-11.596-0.524c-5.455,3.897-8.849,8.772-7.498,16.006c1.405,7.519,8.021,14.118,14.075,13.675
				C76.873,81.452,82.032,74.129,82.013,65.328z M283.05,70.996c-0.006-7.585-1.721-10.482-6.946-12.081
				c-4.899-1.5-9.424-0.556-12.738,3.103c-3.82,4.218-5.3,9.619-3.732,15.195c2.728,9.703,10.071,12.892,17.653,7.789
				C282.18,81.709,283.318,76.568,283.05,70.996z M187.051,27.749c0-0.5,0.001-1,0-1.5c-0.025-7.752-4.216-12.61-11.159-12.201
				c-7.261,0.427-12.025,4.043-11.416,12.531c0.143,1.99,0.2,4,0.542,5.958c0.944,5.409,5.476,9.447,10.501,9.513
				C182.604,42.142,187.039,36.643,187.051,27.749z"/>
			<path d="M290.89,122.06c-0.209,1.168-0.27,2.387-0.648,3.498c-5.129,15.051-10.321,30.08-15.445,45.133
				c-0.804,2.363-1.888,2.513-3.988,1.332c-6.658-3.745-13.539-7.104-20.098-11.009c-2.535-1.509-4.595-1.537-7.348-0.998
				c-2.852,0.558-5.717,4.363-9.219,0.048c-0.789-0.972-5.399,1.439-8.313,1.833c-3.241,0.439-4.931,1.776-6.657,4.824
				c-1.472,2.6-5.207,4.821-8.293,5.432c-8.417,1.666-13.425,7.37-18.404,13.436c-5.595,6.817-11.276,13.563-16.909,20.348
				c-2.606,3.139-5.019,3.744-8.035,0.218c-6.053-7.077-12.393-13.908-18.578-20.874c-5.854-6.593-12.658-11.625-21.276-14.172
				c-1.478-0.437-2.84-2.735-3.399-4.452c-0.783-2.405-1.199-3.948-4.338-2.784c-1.515,0.562-3.532-0.411-5.286-0.26
				c-1.87,0.161-3.688,0.868-5.545,1.258c-1.286,0.27-2.781,0.912-3.872,0.521c-7.402-2.657-14.441-3.011-21.875,0.564
				c-5.307,2.552-11.272,3.785-17.02,5.321c-0.878,0.234-2.978-0.908-3.151-1.708c-3.499-16.174-6.818-32.387-10.082-48.611
				c-0.175-0.868,0.446-1.895,0.697-2.849c1.08,1.003,2.861,1.851,3.125,3.036c1.544,6.947,2.414,14.053,4.13,20.951
				c1.835,7.372,4.4,14.56,6.554,21.855c0.765,2.591,1.917,3.659,4.667,2.304c1.608-0.792,3.493-0.998,5.198-1.622
				c3.826-1.401,5.472-2.952,5.061-8.218c-0.603-7.74,1.608-15.712,2.729-23.57c1.194-8.36,2.409-16.721,3.907-25.029
				c0.202-1.12,2.092-2.73,3.234-2.758c8.326-0.205,16.673-0.31,24.989,0.073c4.265,0.196,7.097-1.495,10.06-4.21
				c8.214-7.525,16.719-14.731,25.033-22.148c2.647-2.362,3.37-1.994,4.943,1.425c5.036,10.944,4.844,21.323,1.11,32.861
				c-5.847,18.067-9.973,36.695-14.628,55.135c-0.386,1.529,0.327,3.713,1.251,5.118c2.096,3.188,4.531,6.175,7.031,9.067
				c3.25,3.76,6.976,5.559,12.348,4.103c4.423-1.199,9.207-1.139,13.843-1.466c5.354-0.377,9.847-1.379,13.792-6.098
				c4.547-5.44,5.903-9.942,4.176-17.227c-3.432-14.475-4.968-29.398-7.335-44.128c-0.393-2.447-0.631-5.03-1.617-7.25
				c-3.519-7.923-2.796-15.579,0.339-23.419c1.454-3.636,2.051-7.615,3.156-11.904c5.363,5.268,10.505,10.069,15.352,15.151
				c4.937,5.178,9.394,10.824,14.469,15.854c1.579,1.565,4.504,2.538,6.785,2.49c7.639-0.161,15.271-0.842,22.895-1.465
				c2.608-0.213,3.838,0.68,4.543,3.256c4.25,15.54,8.428,31.104,7.943,47.398c-0.146,4.92,3.707,5.769,6.588,7.655
				c0.242,0.159,2.18-1.473,2.638-2.564c5.129-12.223,10.106-24.511,15.174-36.76c0.634-1.532,1.561-2.944,2.352-4.411
				C290.06,121.75,290.475,121.905,290.89,122.06z M211.95,143.393c-0.005,8.95,4.383,15.287,10.869,14.91
				c6.563-0.381,12.791-4.349,13.196-14.615c0.072-1.827-0.1-3.665-0.019-5.491c0.234-5.267-3.29-8.085-7.343-9.608
				c-4.051-1.522-8.534-1.48-12.042,2.088C213.011,134.335,211.509,138.74,211.95,143.393z M130.653,143.635
				c-0.476-6.383-2.38-9.48-7.392-11.702c-4.872-2.161-9.773-2.282-13.229,1.908c-4.224,5.121-4.784,11.361-3.27,17.885
				c1.42,6.116,5.915,7.952,11.236,8.912c4.785,0.864,7.086-2.584,8.801-5.888C128.587,151.306,129.409,147.361,130.653,143.635z"/>
		</g>
	</g>
</g>
</svg>
