<?xml version="1.0" encoding="utf-8"?>
<!-- Generator: Adobe Illustrator 17.0.0, SVG Export Plug-In . SVG Version: 6.00 Build 0)  -->
<!DOCTYPE svg PUBLIC "-//W3C//DTD SVG 1.1//EN" "http://www.w3.org/Graphics/SVG/1.1/DTD/svg11.dtd">
<svg version="1.1" id="Layer_2" xmlns="http://www.w3.org/2000/svg" xmlns:xlink="http://www.w3.org/1999/xlink" x="0px" y="0px"
	 width="415.666px" height="415.666px" viewBox="0 0 415.666 415.666" enable-background="new 0 0 415.666 415.666"
	 xml:space="preserve">
<path fill="#825A43" d="M207.832,415.666C93.233,415.666,0,322.432,0,207.832C0,93.233,93.233,0,207.832,0
	c114.6,0,207.834,93.233,207.834,207.832C415.666,322.432,322.432,415.666,207.832,415.666z M220.332,377.648v9.983
	c4.552-2.192,9.066-5.549,13.459-9.983H220.332z M181.873,377.648c4.393,4.435,8.908,7.791,13.459,9.983v-9.983H181.873z
	 M279.253,352.648h11.291c4.275-4.448,8.356-9.239,12.207-14.329h-17.629c-1.623,4.354-3.333,8.58-5.129,12.665
	C279.748,351.542,279.501,352.098,279.253,352.648z M220.332,352.648h31.111c1.95-3.669,3.843-7.582,5.663-11.725
	c0.379-0.861,0.754-1.729,1.124-2.604h-37.898V352.648z M164.221,352.648h31.111v-14.329h-37.897
	c0.37,0.875,0.745,1.743,1.123,2.604C160.379,345.066,162.271,348.979,164.221,352.648z M125.121,352.648h11.291
	c-0.248-0.551-0.495-1.106-0.74-1.664c-1.796-4.085-3.506-8.312-5.128-12.665h-17.63C116.764,343.409,120.844,348.2,125.121,352.648
	z M332.998,338.319c-1.385,2.219-2.808,4.406-4.268,6.559c2.404-2.123,4.758-4.313,7.047-6.559H332.998z M79.888,338.319
	c2.29,2.245,4.64,4.433,7.043,6.557c-1.46-2.153-2.881-4.338-4.265-6.557H79.888z M346.387,313.319h10.703
	c6.113-8.625,11.5-17.803,16.067-27.438h-16.316C353.892,295.336,350.399,304.507,346.387,313.319z M293.099,313.319h25.463
	c4.535-8.625,8.531-17.803,11.92-27.438h-31.174C297.557,295.345,295.482,304.518,293.099,313.319z M220.332,313.319h46.798
	c2.593-8.723,4.846-17.896,6.743-27.438h-53.541V313.319z M148.535,313.319h46.797v-27.438h-53.541
	C143.689,295.424,145.942,304.597,148.535,313.319z M97.103,313.319h25.463c-2.383-8.802-4.458-17.975-6.208-27.438H85.182
	C88.571,295.517,92.567,304.694,97.103,313.319z M58.576,313.319h10.702c-4.013-8.812-7.505-17.983-10.454-27.438H42.508
	C47.076,295.517,52.462,304.694,58.576,313.319z M363.233,260.881h19.587c3.939-12.969,6.473-26.547,7.423-40.549h-22.056
	C367.559,234.151,365.892,247.72,363.233,260.881z M303.098,260.881h34.553c2.922-12.969,4.802-26.547,5.507-40.549h-37.125
	C305.66,234.156,304.672,247.725,303.098,260.881z M220.332,260.881h57.592c1.663-13.087,2.708-26.664,3.101-40.549h-60.692V260.881
	z M137.741,260.881h57.591v-40.549h-60.691C135.033,234.217,136.078,247.794,137.741,260.881z M78.014,260.881h34.554
	c-1.574-13.156-2.562-26.725-2.935-40.549H72.507C73.212,234.334,75.092,247.912,78.014,260.881z M32.846,260.881h19.585
	c-2.659-13.161-4.326-26.729-4.955-40.549H25.423C26.373,234.334,28.907,247.912,32.846,260.881z M368.188,195.332h22.056
	c-0.95-14.001-3.483-27.578-7.423-40.547h-19.587C365.891,167.944,367.559,181.516,368.188,195.332z M306.032,195.332h37.125
	c-0.705-14.001-2.584-27.578-5.507-40.547h-34.553C304.672,167.941,305.66,181.508,306.032,195.332z M220.332,195.332h60.692
	c-0.393-13.885-1.438-27.46-3.101-40.547h-57.592V195.332z M134.641,195.332h60.691v-40.547h-57.591
	C136.078,167.872,135.033,181.447,134.641,195.332z M72.507,195.332h37.126c0.372-13.824,1.36-27.391,2.935-40.547H78.014
	C75.091,167.754,73.212,181.331,72.507,195.332z M25.423,195.332h22.054c0.628-13.816,2.297-27.388,4.954-40.547H32.845
	C28.906,167.754,26.373,181.331,25.423,195.332z M356.841,129.785h16.317c-4.567-9.635-9.955-18.815-16.068-27.439h-10.703
	C350.399,111.158,353.893,120.33,356.841,129.785z M299.308,129.785h31.175c-3.389-9.635-7.386-18.815-11.921-27.439h-25.463
	C295.482,111.149,297.557,120.318,299.308,129.785z M220.332,129.785h53.542c-1.898-9.542-4.151-18.717-6.744-27.439h-46.798
	V129.785z M141.791,129.785h53.541v-27.439h-46.797C145.942,111.068,143.689,120.243,141.791,129.785z M85.182,129.785h31.176
	c1.751-9.467,3.825-18.636,6.208-27.439H97.103C92.567,110.97,88.57,120.15,85.182,129.785z M42.508,129.785h16.315
	c2.949-9.455,6.441-18.627,10.454-27.439H58.576C52.462,110.97,47.075,120.15,42.508,129.785z M332.998,77.346h2.779
	c-2.289-2.245-4.643-4.435-7.046-6.558C330.191,72.94,331.613,75.127,332.998,77.346z M285.122,77.346h17.628
	c-3.851-5.09-7.93-9.88-12.206-14.328h-11.29c0.247,0.551,0.494,1.106,0.739,1.664C281.789,68.766,283.499,72.992,285.122,77.346z
	 M220.332,77.346h37.897c-0.37-0.875-0.744-1.743-1.123-2.604c-1.82-4.142-3.712-8.055-5.662-11.724h-31.112V77.346z
	 M157.435,77.346h37.897V63.018h-31.111c-1.95,3.669-3.842,7.582-5.663,11.724C158.179,75.603,157.805,76.471,157.435,77.346z
	 M112.914,77.346h17.629c1.622-4.354,3.333-8.58,5.128-12.665c0.245-0.558,0.492-1.113,0.74-1.664H125.12
	C120.844,67.466,116.764,72.255,112.914,77.346z M79.888,77.346h2.778c1.384-2.219,2.805-4.402,4.265-6.556
	C84.527,72.914,82.178,75.101,79.888,77.346z M220.332,38.018h13.459c-4.393-4.435-8.907-7.791-13.459-9.983V38.018z
	 M181.873,38.018h13.459v-9.983C190.781,30.227,186.266,33.583,181.873,38.018z"/>
</svg>
