<?xml version="1.0" encoding="utf-8"?>
<!-- Generator: Adobe Illustrator 17.0.0, SVG Export Plug-In . SVG Version: 6.00 Build 0)  -->
<!DOCTYPE svg PUBLIC "-//W3C//DTD SVG 1.1//EN" "http://www.w3.org/Graphics/SVG/1.1/DTD/svg11.dtd">
<svg version="1.1" id="Layer_1" xmlns="http://www.w3.org/2000/svg" xmlns:xlink="http://www.w3.org/1999/xlink" x="0px" y="0px"
	 width="145.445px" height="138.219px" viewBox="27.277 30.891 145.445 138.219"
	 enable-background="new 27.277 30.891 145.445 138.219" xml:space="preserve">
<g>
	<path d="M153.417,97.311c-0.753,1.016-1.522,2.014-2.327,2.973c-8.994,10.709-20.47,16.607-32.312,16.607
		s-23.318-5.898-32.311-16.605c-0.806-0.959-1.575-1.959-2.329-2.975c-11.791,9.893-19.306,24.713-19.306,41.309
		c0,29.793,24.153,30.49,53.945,30.49c29.793,0,53.945-0.697,53.945-30.49C172.723,122.023,165.208,107.203,153.417,97.311z"/>
	<path d="M118.777,96.891c6.394,0,12.283-3.857,16.996-9.469c6.688-7.963,11.004-19.461,11.004-28.531c0-15.463-12.536-28-28-28
		s-28,12.537-28,28c0,9.07,4.316,20.568,11.004,28.531C106.494,93.033,112.384,96.891,118.777,96.891z"/>
	<path d="M75.777,72.891c0,2.209-1.791,4-4,4h-40.5c-2.209,0-4-1.791-4-4v-10.5c0-2.209,1.791-4,4-4h40.5c2.209,0,4,1.791,4,4
		V72.891z"/>
	<path d="M46.277,91.891c-2.209,0-4-1.791-4-4v-40.5c0-2.209,1.791-4,4-4h10.5c2.209,0,4,1.791,4,4v40.5c0,2.209-1.791,4-4,4H46.277
		z"/>
</g>
</svg>
