<?xml version="1.0" encoding="utf-8"?>
<!-- Generator: Adobe Illustrator 17.0.0, SVG Export Plug-In . SVG Version: 6.00 Build 0)  -->
<!DOCTYPE svg PUBLIC "-//W3C//DTD SVG 1.1//EN" "http://www.w3.org/Graphics/SVG/1.1/DTD/svg11.dtd">
<svg version="1.1" id="Layer_1" xmlns="http://www.w3.org/2000/svg" xmlns:xlink="http://www.w3.org/1999/xlink" x="0px" y="0px"
	 width="341px" height="341px" viewBox="0 0 341 341" enable-background="new 0 0 341 341" xml:space="preserve">
<g id="X6jK2l_1_">
	<g>
		<g>
			<path d="M185,342c-8.667,0-17.333,0-26,0c-7.21-1.075-14.478-1.86-21.622-3.271C67.669,324.954,11.107,260.777,4.12,200.905
				c-2.15-18.426-3.722-36.755-0.931-55.1C8.836,108.683,25.163,76.6,51.793,50.297C96.978,5.667,151.707-7.505,212.373,7.044
				c53.53,12.837,91.167,46.786,114.449,96.424c15.049,32.085,17.684,66.08,10.788,100.311
				c-13.655,67.787-54.65,111.601-120.493,132.013C206.765,339.001,195.723,339.986,185,342z M263.345,195.693
				c0.527-0.301,1.054-0.601,1.581-0.902c0-1.823,0.015-3.646-0.002-5.469c-0.293-30.459-0.618-60.918-0.873-91.378
				c-0.113-13.491-0.24-26.985-0.027-40.473c0.06-3.806-1.393-5.78-4.623-7.248c-11.756-5.343-24.156-7.96-36.929-9.28
				c-17.999-1.861-35.857-0.358-53.665,2.078c-9.094,1.244-18.002,3.41-25.167,9.649c-1.391,1.212-2.569,3.527-2.578,5.34
				c-0.133,28.294-0.07,56.589-0.01,84.883c0.006,2.657,0.01,5.375,0.572,7.943c0.266,1.214,1.854,3.058,2.834,3.053
				c10.127-0.056,20.388,0.481,30.338-0.992c8.706-1.289,17.062-4.939,26.018-7.682c3.579,4.78,7.609,9.654,11.037,14.919
				c2.262,3.473,4.746,4.1,8.292,2.644c4.552-1.869,9.138-3.657,13.462-5.381C243.698,170.394,253.521,183.043,263.345,195.693z
				 M242.902,212.852c-14.145-18.697-28.153-37.033-41.901-55.562c-2.329-3.139-4.3-3.505-7.829-2.347
				c-23.452,7.694-47.002,7.467-70.365-0.287c-18.861-6.26-37.986-9.083-57.708-5.65c-17.969,3.128-33.186,11.196-44.733,25.669
				c-1.807,2.265-2.037,4.042-0.65,6.639c6.329,11.851,12.42,23.829,18.657,35.73c4.348,8.297,8.793,16.544,12.758,23.994
				c8.214-4.535,15.657-9.682,23.846-12.969c23.568-9.458,47.787-7.618,71.98-2.463c21.085,4.493,42.239,6.971,63.645,2.417
				C222.403,225.513,233.255,220.929,242.902,212.852z M79.133,256.319c8.296-8.687,17.9-13.398,28.64-15.761
				c5.165-1.136,10.474-1.956,15.749-2.184c12.802-0.553,25.581,0.04,37.85,4.189c27.47,9.288,55.152,11.182,83.054,2.371
				c12.452-3.932,23.637-10.253,32.775-19.783c-0.381-0.795-0.521-1.284-0.809-1.659c-14.576-19.002-29.141-38.012-43.821-56.934
				c-0.723-0.932-2.64-1.766-3.674-1.477c-3.186,0.891-6.213,2.349-9.78,3.779c11.739,14.996,22.769,29.086,33.944,43.363
				c-8.644,8.175-18.544,14.056-29.715,17.695c-24.621,8.022-49.609,6.135-74.388,1.458c-19.267-3.637-38.352-5.894-57.674-1.339
				c-7.675,1.809-15.152,4.265-21.642,9.42C72.854,245.159,75.842,250.47,79.133,256.319z M143.195,292.054
				c10.7,0.297,20.818-1.842,29.975-7.549c9.526-5.937,9.189-18.101-0.686-23.144c-13.965-7.132-28.717-8.768-44.055-5.79
				c-8.11,1.574-15.755,4.211-21.693,10.234c-5.005,5.076-5.152,9.269-0.298,14.221c2.499,2.549,5.506,4.889,8.718,6.396
				C123.985,290.564,133.417,292.318,143.195,292.054z M178.292,301.486c13.022,7.058,26.684,7.658,40.506,5.978
				c8.448-1.027,16.537-3.548,22.734-10.076c6.638-6.992,6.274-14.35-2.146-18.961c-17.206-9.422-35.391-10.965-54.491-4.892
				C185.502,283.66,186.294,293.591,178.292,301.486z M246.865,297.625c-17.183,16.883-37.937,14.269-58.398,12.213
				c-0.242,8.327-0.289,8.833,6.594,9.472c7.737,0.719,15.76,1.517,23.308,0.226c7.63-1.306,15.033-4.69,22.151-7.992
				C245.72,309.134,247.852,304.23,246.865,297.625z M129.922,294.794c-2.056,6.646-1.121,9.294,3.869,9.815
				c13.777,1.439,27.167,0.094,39.517-6.826c5.642-3.162,7.042-6.406,6.105-13.637C164.575,295.766,147.602,297.312,129.922,294.794
				z M121.358,292.987c-0.771,8.74-0.446,9.415,4.317,9.364C126.601,293.648,126.41,293.198,121.358,292.987z M183.613,316.032
				c1.025-7.936,0.87-8.324-3.475-8.7C177.888,313.562,178.722,315.65,183.613,316.032z M104.353,281.944
				c-0.505,0.128-1.01,0.256-1.516,0.384c0.759,2.957,1.518,5.913,2.278,8.87c0.652-0.165,1.303-0.331,1.955-0.496
				C109.09,287.047,106.623,284.521,104.353,281.944z M170.634,301.812c1.632,3.385-0.41,7.257,4.908,9.635
				C174.14,307.646,177.057,303.456,170.634,301.812z M114.516,289.9c-0.613,0.149-1.225,0.299-1.838,0.448
				c0.523,2.866,1.046,5.733,1.569,8.599c0.516-0.1,1.033-0.201,1.549-0.301C115.705,295.671,118.084,292.253,114.516,289.9z"/>
			<path d="M202.144,75.129c-15.271-1.178-30.348-0.904-44.417-7.03c-2.275-0.99-4.535-2.067-6.657-3.344
				c-4.474-2.692-5.148-6.805-0.649-9.334c5.496-3.089,11.701-5.4,17.883-6.7c25.702-5.403,51.385-6.01,76.742,2.205
				c2.832,0.918,5.637,1.983,8.337,3.232c4.866,2.252,5.229,7.248,0.913,10.469c-6.743,5.032-14.628,7.139-22.709,8.121
				C221.693,73.949,211.708,74.389,202.144,75.129z"/>
			<path d="M226.857,80.053c0,3.536,0,6.469,0,9.929c-27.139-1.761-54.285-4.686-79.169,9.363c0-7.993,0-16.481,0-25.86
				C174,81.022,200.008,83.355,226.857,80.053z"/>
			<path d="M186.652,115.004c11.088,0,21.57,0.748,31.893-0.213c10.112-0.941,20.061-3.624,30.71-5.662
				c0.196,0.326,0.941,1.561,1.765,2.926c-0.472,0.41-0.76,0.797-1.144,0.973c-10.093,4.618-20.881,6.194-31.799,6.863
				c-6.622,0.406-13.295-0.056-19.927,0.256C193.808,120.351,190.031,119.815,186.652,115.004z"/>
			<path d="M257.342,100.702c-4.588-0.203-6.943-2.088-6.519-7.343c0.465-5.767,0.106-11.601,0.106-17.809
				c1.895-0.861,3.745-1.701,6.413-2.913C257.342,82.472,257.342,91.556,257.342,100.702z"/>
			<path d="M235.941,79.091c0,4.432,0,8.617,0,12.871c-4.814,0.423-4.573-3.05-4.198-5.574
				C232.128,83.795,229.963,79.295,235.941,79.091z"/>
			<path d="M243.734,77.246c0,6.222,0,11.609,0,17.26C240.31,90.13,240.018,80.955,243.734,77.246z"/>
			<path d="M63.855,198.326c-0.675-2.539-0.95-5.278-2.098-7.581c-4.204-8.436-8.7-16.727-13.759-26.353
				c6.354-1.919,11.978-4.123,17.81-5.278c13.958-2.763,27.751-0.43,41.469,2.288c2.755,0.546,5.51,1.109,8.239,1.774
				c3.376,0.823,3.68,3.106,2.204,5.689c-7.96,13.937-5.144,29.804,7.16,39.909c1.118,0.918,2.152,1.94,4.295,3.885
				c-26.923-2.684-52.295-3.361-73.686,14.999c-6.148-11.493-12.288-22.975-18.435-34.455c-1.331-2.485-2.473-5.106-4.074-7.405
				c-2.78-3.992-2.162-7.003,2.678-9.743c6.963,12.385,13.934,24.785,20.906,37.184c0.721-0.394,1.441-0.789,2.162-1.183
				c-6.9-12.805-13.8-25.611-21.009-38.99c2.119-1.927,4.28-3.891,6.772-6.157c5.97,10.872,11.752,21.402,17.534,31.931
				C62.633,198.668,63.244,198.497,63.855,198.326z"/>
		</g>
	</g>
</g>
</svg>
