<?xml version="1.0" encoding="utf-8"?>
<!-- Generator: Adobe Illustrator 16.0.0, SVG Export Plug-In . SVG Version: 6.00 Build 0)  -->
<!DOCTYPE svg PUBLIC "-//W3C//DTD SVG 1.1//EN" "http://www.w3.org/Graphics/SVG/1.1/DTD/svg11.dtd">
<svg version="1.1" id="Calque_1" xmlns="http://www.w3.org/2000/svg" xmlns:xlink="http://www.w3.org/1999/xlink" x="0px" y="0px"
	 width="88.727px" height="99.707px" viewBox="-3 2 88.727 99.707" enable-background="new -3 2 88.727 99.707"
	 xml:space="preserve">
<g>
	<rect x="52.349" y="50.5" width="11.279" height="11.706"/>
</g>
<g>
	<rect x="35.858" y="50.5" width="11.276" height="11.706"/>
</g>
<g>
	<rect x="52.349" y="66.816" width="11.279" height="11.704"/>
</g>
<g>
	<rect x="35.858" y="66.816" width="11.276" height="11.704"/>
</g>
<g>
	<rect x="19.364" y="66.816" width="11.273" height="11.704"/>
</g>
<rect x="10.646" y="38.281" fill="none" width="61.438" height="50.466"/>
<path d="M73.063,13.079v6.777c0,5.754-4.682,10.435-10.437,10.435c-5.753,0-10.433-4.682-10.433-10.436v-6.776H30.682v6.777
	c0,5.754-4.681,10.435-10.435,10.435c-2.789,0-5.409-1.086-7.38-3.058c-1.972-1.972-3.056-4.595-3.054-7.379v-6.775H-3v88.628
	h88.727V13.079H73.063z M75.083,90.747H7.646V38.281h67.438V90.747z"/>
<path d="M62.626,24.292c2.446,0,4.437-1.99,4.437-4.435V6.435C67.063,3.99,65.073,2,62.626,2c-2.444,0-4.433,1.99-4.433,4.435v13.42
	C58.194,22.301,60.182,24.292,62.626,24.292z"/>
<path d="M20.247,24.292c2.445,0,4.435-1.99,4.435-4.435V6.435C24.682,3.99,22.693,2,20.247,2c-2.445,0-4.434,1.99-4.434,4.435
	v13.419c-0.001,1.186,0.46,2.3,1.297,3.138S19.062,24.292,20.247,24.292z"/>
</svg>
