<?xml version="1.0" encoding="utf-8"?>
<!-- Generator: Adobe Illustrator 16.0.0, SVG Export Plug-In . SVG Version: 6.00 Build 0)  -->
<!DOCTYPE svg PUBLIC "-//W3C//DTD SVG 1.1//EN" "http://www.w3.org/Graphics/SVG/1.1/DTD/svg11.dtd">
<svg version="1.1" id="Layer_1" xmlns="http://www.w3.org/2000/svg" xmlns:xlink="http://www.w3.org/1999/xlink" x="0px" y="0px"
	 width="158.333px" height="158.333px" viewBox="0 0 158.333 158.333" enable-background="new 0 0 158.333 158.333"
	 xml:space="preserve">
<g>
	<defs>
		<rect id="SVGID_1_" width="158.333" height="158.333"/>
	</defs>
	<clipPath id="SVGID_2_">
		<use xlink:href="#SVGID_1_"  overflow="visible"/>
	</clipPath>
	<path clip-path="url(#SVGID_2_)" d="M79.166,158.334C35.514,158.334,0,122.819,0,79.167S35.514,0,79.166,0
		c43.653,0,79.167,35.514,79.167,79.167S122.819,158.334,79.166,158.334z M79.166,16C44.336,16,16,44.336,16,79.167
		s28.336,63.167,63.166,63.167s63.167-28.337,63.167-63.167S113.996,16,79.166,16z"/>
	<path clip-path="url(#SVGID_2_)" d="M75.207,104.108c-4.095,4.095-10.736,4.095-14.832,0c-4.094-4.097-4.095-10.737,0-14.833
		c4.096-4.096,35.33-24.171,37.167-22.333S79.302,100.012,75.207,104.108"/>
	<path clip-path="url(#SVGID_2_)" d="M39.438,142.114c10.413-10.93,25.109-17.741,41.396-17.741
		c15.785,0,30.076,6.397,40.421,16.741c5.09,5.09-16.997,9.896-39.589,10.213C58.338,151.653,34.474,147.325,39.438,142.114z"/>
	<path clip-path="url(#SVGID_2_)" d="M28.238,75.57c-1.631-0.25-2.761-1.789-2.512-3.419l0.364-2.373
		c0.249-1.631,1.788-2.761,3.419-2.511l13.971,2.139c1.631,0.25,2.761,1.789,2.511,3.42l-0.363,2.372
		c-0.25,1.631-1.789,2.761-3.42,2.512L28.238,75.57z"/>
	<path clip-path="url(#SVGID_2_)" d="M38.265,48.591c-1.236-1.093-1.353-2.999-0.259-4.235l1.59-1.798
		c1.093-1.236,2.999-1.352,4.234-0.259l10.587,9.364c1.236,1.093,1.352,2.999,0.259,4.235l-1.59,1.797
		c-1.093,1.236-2.999,1.353-4.235,0.259L38.265,48.591z"/>
	<path clip-path="url(#SVGID_2_)" d="M61.298,31.334c-0.447-1.588,0.486-3.254,2.075-3.701l2.309-0.651
		c1.589-0.447,3.254,0.486,3.701,2.075l3.831,13.604c0.447,1.589-0.486,3.254-2.075,3.701l-2.309,0.651
		c-1.589,0.447-3.254-0.486-3.701-2.075L61.298,31.334z"/>
	<path clip-path="url(#SVGID_2_)" d="M87.856,46.553c-1.578-0.481-2.476-2.167-1.995-3.745l4.121-13.519
		c0.481-1.578,2.166-2.476,3.744-1.995l2.296,0.7c1.578,0.481,2.476,2.166,1.995,3.745l-4.121,13.519
		c-0.481,1.578-2.166,2.476-3.744,1.995L87.856,46.553z"/>
	<path clip-path="url(#SVGID_2_)" d="M104.11,56.436c-1.068-1.257-0.914-3.16,0.343-4.229l10.768-9.154
		c1.258-1.068,3.16-0.914,4.229,0.343l1.555,1.828c1.068,1.257,0.914,3.16-0.343,4.229l-10.77,9.154
		c-1.257,1.069-3.16,0.914-4.228-0.342L104.11,56.436z"/>
	<path clip-path="url(#SVGID_2_)" d="M112.443,73.508c-0.217-1.636,0.944-3.151,2.58-3.368l14.011-1.858
		c1.636-0.216,3.151,0.945,3.367,2.58l0.316,2.379c0.217,1.636-0.944,3.152-2.58,3.369l-14.01,1.857
		c-1.636,0.217-3.152-0.944-3.369-2.58L112.443,73.508z"/>
</g>
</svg>
