<?xml version="1.0" encoding="utf-8"?>
<!-- Generator: Adobe Illustrator 16.0.0, SVG Export Plug-In . SVG Version: 6.00 Build 0)  -->
<!DOCTYPE svg PUBLIC "-//W3C//DTD SVG 1.1//EN" "http://www.w3.org/Graphics/SVG/1.1/DTD/svg11.dtd">
<svg version="1.1" id="Layer_1" xmlns="http://www.w3.org/2000/svg" xmlns:xlink="http://www.w3.org/1999/xlink" x="0px" y="0px"
	 width="56.25px" height="92px" viewBox="0 0 56.25 92" enable-background="new 0 0 56.25 92" xml:space="preserve">
<path fill="#231F20" d="M28.125,0C12.592,0,0,6.492,0,14.5c0,1.757,0,11.243,0,13c0,0.03,0.004,0.06,0.004,0.09
	c0.025,2.107,0.926,4.106,2.519,5.91C6.949,38.513,16.744,42,28.125,42s21.176-3.487,25.603-8.5c1.593-1.804,2.493-3.803,2.519-5.91
	c0-0.03,0.004-0.06,0.004-0.09c0-1.757,0-11.243,0-13C56.25,6.492,43.658,0,28.125,0z M28.125,23.75C17.01,23.75,8,19.608,8,14.5
	s9.01-9.25,20.125-9.25S48.25,9.392,48.25,14.5S39.24,23.75,28.125,23.75z"/>
<path fill="#231F20" d="M0.004,64.41C0.004,64.44,0,64.47,0,64.5c0,1.757,0,11.243,0,13C0,85.508,12.592,92,28.125,92
	S56.25,85.508,56.25,77.5c0-1.757,0-11.243,0-13c0-0.03-0.004-0.06-0.004-0.09C50.195,69.677,40.064,73,28.125,73
	S6.055,69.677,0.004,64.41z"/>
<path fill="#231F20" d="M56.246,39.41c-3.25,2.829-7.673,5.098-12.926,6.59c-4.528,1.287-9.668,2-15.195,2s-10.667-0.713-15.195-2
	c-5.253-1.492-9.676-3.761-12.926-6.59C0.004,39.44,0,39.47,0,39.5c0,1.757,0,11.243,0,13c0,0.03,0.004,0.06,0.004,0.09
	c0.025,2.107,0.926,4.106,2.519,5.91C6.949,63.513,16.744,67,28.125,67s21.176-3.487,25.603-8.5c1.593-1.804,2.493-3.803,2.519-5.91
	c0-0.03,0.004-0.06,0.004-0.09c0-1.757,0-11.243,0-13C56.25,39.47,56.246,39.44,56.246,39.41z"/>
</svg>
