<?xml version="1.0" encoding="utf-8"?>
<!-- Generator: Adobe Illustrator 16.0.0, SVG Export Plug-In . SVG Version: 6.00 Build 0)  -->
<!DOCTYPE svg PUBLIC "-//W3C//DTD SVG 1.1//EN" "http://www.w3.org/Graphics/SVG/1.1/DTD/svg11.dtd">
<svg version="1.1" id="Layer_1" xmlns="http://www.w3.org/2000/svg" xmlns:xlink="http://www.w3.org/1999/xlink" x="0px" y="0px"
	 width="49.333px" height="49.333px" viewBox="0 0 49.333 49.333" enable-background="new 0 0 49.333 49.333" xml:space="preserve">
<path fill="#231F20" d="M24.666,49.333C11.065,49.333,0,38.268,0,24.666C0,11.065,11.065,0,24.666,0
	c13.602,0,24.667,11.065,24.667,24.666C49.333,38.268,38.268,49.333,24.666,49.333z M28.412,35.482
	c0.941,0.941,2.196,1.46,3.535,1.46s2.594-0.519,3.535-1.46c1.949-1.949,1.949-5.121,0-7.07l-3.746-3.746l3.746-3.746
	c1.949-1.949,1.949-5.121,0-7.07c-0.941-0.941-2.196-1.46-3.535-1.46s-2.594,0.519-3.535,1.46l-3.746,3.746L20.92,13.85
	c-0.941-0.941-2.196-1.46-3.535-1.46s-2.594,0.519-3.535,1.46s-1.46,2.196-1.46,3.535s0.519,2.594,1.46,3.535l3.746,3.746
	l-3.746,3.746c-0.941,0.941-1.46,2.196-1.46,3.535s0.519,2.594,1.46,3.535s2.196,1.46,3.535,1.46s2.594-0.519,3.535-1.46
	l3.746-3.746L28.412,35.482z"/>
</svg>
