<?xml version="1.0" encoding="utf-8"?>
<!-- Generator: Adobe Illustrator 16.0.0, SVG Export Plug-In . SVG Version: 6.00 Build 0)  -->
<!DOCTYPE svg PUBLIC "-//W3C//DTD SVG 1.1//EN" "http://www.w3.org/Graphics/SVG/1.1/DTD/svg11.dtd">
<svg version="1.1" id="Layer_1" xmlns="http://www.w3.org/2000/svg" xmlns:xlink="http://www.w3.org/1999/xlink" x="0px" y="0px"
	 width="30.523px" height="48.165px" viewBox="0 0 30.523 48.165" enable-background="new 0 0 30.523 48.165" xml:space="preserve">
<g>
	<path d="M10.151,26.953c0-8.331,10.221-9.311,10.221-14.142c0-2.17-1.61-3.991-5.46-3.991c-3.5,0-6.441,1.75-8.611,4.341
		L0.63,6.791C4.34,2.45,9.941,0,15.962,0c9.031,0,14.562,4.551,14.562,11.061c0,10.221-11.691,10.991-11.691,16.872
		c0,1.12,0.56,2.31,1.26,2.94l-7.631,2.24C10.991,31.503,10.151,29.403,10.151,26.953z M10.151,42.495
		c0-3.081,2.59-5.671,5.671-5.671c3.08,0,5.67,2.59,5.67,5.671c0,3.08-2.59,5.67-5.67,5.67
		C12.741,48.165,10.151,45.575,10.151,42.495z"/>
</g>
</svg>
