<?xml version="1.0" encoding="utf-8"?>
<!-- Generator: Adobe Illustrator 16.0.0, SVG Export Plug-In . SVG Version: 6.00 Build 0)  -->
<!DOCTYPE svg PUBLIC "-//W3C//DTD SVG 1.1//EN" "http://www.w3.org/Graphics/SVG/1.1/DTD/svg11.dtd">
<svg version="1.1" id="Layer_1" xmlns="http://www.w3.org/2000/svg" xmlns:xlink="http://www.w3.org/1999/xlink" x="0px" y="0px"
	 width="70.168px" height="70.166px" viewBox="97.083 14.917 70.168 70.166" enable-background="new 97.083 14.917 70.168 70.166"
	 xml:space="preserve">
<path d="M132.167,14.917c-19.376,0-35.084,15.707-35.084,35.083s15.708,35.083,35.084,35.083c19.377,0,35.084-15.707,35.084-35.083
	S151.544,14.917,132.167,14.917z M130.699,68.199c0.361,0.679,2.028,1.118,4.245,1.118c0.565,0,0.951-0.029,0.969-0.031l1.106-0.087
	l-0.064,2.57l-0.176,0.248c-0.101,0.143-2.522,3.493-7.252,3.493c-0.628,0-1.275-0.061-1.924-0.181
	c-3.437-0.503-5.652-1.905-6.548-4.161c-1.978-4.978,3.604-12.122,3.843-12.424c4.825-6.569,4.576-8.807,4.245-9.462
	c-0.29-0.573-1.114-0.863-2.452-0.863c-0.789,0-1.574,0.104-2.148,0.179l-0.186,0.025l-0.578-2.753
	c2.979-2.457,5.707-3.703,8.109-3.703c4.201,0,5.796,3.677,5.861,3.833c3.237,6.517-2.756,14.989-6.336,20.051l-0.146,0.205
	C130.943,66.742,130.416,67.668,130.699,68.199z M139.847,36.344c-1.2,1.202-2.798,1.864-4.496,1.864
	c-3.508,0-6.36-2.852-6.36-6.357c0-3.507,2.853-6.361,6.36-6.361c3.505,0,6.356,2.854,6.356,6.361
	C141.708,33.547,141.047,35.143,139.847,36.344z"/>
</svg>
