<?xml version="1.0" encoding="utf-8"?>
<!-- Generator: Adobe Illustrator 16.0.0, SVG Export Plug-In . SVG Version: 6.00 Build 0)  -->
<!DOCTYPE svg PUBLIC "-//W3C//DTD SVG 1.1//EN" "http://www.w3.org/Graphics/SVG/1.1/DTD/svg11.dtd">
<svg version="1.1" id="Layer_1" xmlns="http://www.w3.org/2000/svg" xmlns:xlink="http://www.w3.org/1999/xlink" x="0px" y="0px"
	 width="148px" height="144px" viewBox="0 0 148 144" enable-background="new 0 0 148 144" xml:space="preserve">
<path fill="#231F20" d="M13,144c-7.168,0-13-5.832-13-13V13C0,5.832,5.832,0,13,0h122c7.168,0,13,5.832,13,13v118
	c0,7.168-5.832,13-13,13H13z M130,126V18H18v108H130z"/>
<path fill="#231F20" d="M43,87.5V37.75c0-3.309,2.691-6,6-6h5.5c3.309,0,6,2.691,6,6V87.5H43z"/>
<path fill="#231F20" d="M94,113.5c-3.309,0-6-2.691-6-6V56.75h17.5v50.75c0,3.309-2.691,6-6,6H94z"/>
<path fill="#231F20" d="M64.75,85.5h-26c-3.309,0-6,2.691-6,6v16c0,3.309,2.691,6,6,6h26c3.309,0,6-2.691,6-6v-16
	C70.75,88.191,68.059,85.5,64.75,85.5z M59.751,104.167H43.749v-9.334h16.002V104.167z"/>
<path fill="#231F20" d="M109.75,30.75h-26c-3.309,0-6,2.691-6,6v16c0,3.309,2.691,6,6,6h26c3.309,0,6-2.691,6-6v-16
	C115.75,33.441,113.059,30.75,109.75,30.75z M104.751,49.417H88.749v-9.334h16.002V49.417z"/>
</svg>
