<?xml version="1.0" encoding="utf-8"?>
<!-- Generator: Adobe Illustrator 16.0.0, SVG Export Plug-In . SVG Version: 6.00 Build 0)  -->
<!DOCTYPE svg PUBLIC "-//W3C//DTD SVG 1.1//EN" "http://www.w3.org/Graphics/SVG/1.1/DTD/svg11.dtd">
<svg version="1.1" id="Layer_1" xmlns="http://www.w3.org/2000/svg" xmlns:xlink="http://www.w3.org/1999/xlink" x="0px" y="0px"
	 width="200.666px" height="246px" viewBox="0 0 200.666 246" enable-background="new 0 0 200.666 246" xml:space="preserve">
<path fill="#231F20" d="M0,246V0h145.549l55.117,50.233V246H0z M172.666,218V64L132,28H28v190H172.666z"/>
<g>
	<path fill="#231F20" d="M114.333,168c0,3.3-2.7,6-6,6h-16c-3.3,0-6-2.7-6-6V78c0-3.3,2.7-6,6-6h16c3.3,0,6,2.7,6,6V168z"/>
</g>
<g>
	<path fill="#231F20" d="M55.333,137c-3.3,0-6-2.7-6-6v-16c0-3.3,2.7-6,6-6h90c3.3,0,6,2.7,6,6v16c0,3.3-2.7,6-6,6H55.333z"/>
</g>
</svg>
