<?xml version="1.0" encoding="utf-8"?>
<!-- Generator: Adobe Illustrator 16.0.0, SVG Export Plug-In . SVG Version: 6.00 Build 0)  -->
<!DOCTYPE svg PUBLIC "-//W3C//DTD SVG 1.1//EN" "http://www.w3.org/Graphics/SVG/1.1/DTD/svg11.dtd">
<svg version="1.1" id="Layer_1" xmlns="http://www.w3.org/2000/svg" xmlns:xlink="http://www.w3.org/1999/xlink" x="0px" y="0px"
	 width="49.31px" height="49.31px" viewBox="0 0 49.31 49.31" enable-background="new 0 0 49.31 49.31" xml:space="preserve">
<path fill="#231F20" d="M42.097,42.097c-9.617,9.617-25.267,9.617-34.884,0s-9.617-25.267,0-34.884s25.267-9.617,34.884,0
	S51.714,32.479,42.097,42.097z M34.951,29.654c1.331,0,2.586-0.521,3.532-1.468c0.947-0.946,1.468-2.2,1.468-3.532
	c0-2.756-2.243-4.999-5-4.999h-5.298v-5.298c0-2.757-2.242-4.999-4.999-4.999c-1.331,0-2.586,0.521-3.532,1.467
	c-0.947,0.947-1.468,2.201-1.468,3.532v5.298h-5.298c-1.331,0-2.585,0.521-3.531,1.468c-0.947,0.946-1.468,2.2-1.468,3.531
	c0,1.332,0.521,2.586,1.468,3.532c0.946,0.947,2.2,1.468,3.531,1.468h5.298v5.298c0,1.331,0.521,2.585,1.468,3.532
	c0.946,0.946,2.201,1.467,3.532,1.467s2.585-0.521,3.532-1.467c0.946-0.947,1.467-2.201,1.467-3.532v-5.298H34.951z"/>
</svg>
