<?xml version="1.0" encoding="utf-8"?>
<!-- Generator: Adobe Illustrator 16.0.0, SVG Export Plug-In . SVG Version: 6.00 Build 0)  -->
<!DOCTYPE svg PUBLIC "-//W3C//DTD SVG 1.1//EN" "http://www.w3.org/Graphics/SVG/1.1/DTD/svg11.dtd">
<svg version="1.1" id="Layer_1" xmlns="http://www.w3.org/2000/svg" xmlns:xlink="http://www.w3.org/1999/xlink" x="0px" y="0px"
	 width="185.956px" height="227.509px" viewBox="0 0 185.956 227.509" enable-background="new 0 0 185.956 227.509"
	 xml:space="preserve">
<polygon fill="#231F20" points="105.457,189.825 103.354,187.722 23.93,187.722 23.93,25.339 102.557,25.339 102.557,66.362 
	147.568,66.362 147.568,146.305 148.739,147.476 160.548,159.284 171.498,170.235 171.498,44.341 124.393,1.409 0,1.409 0,211.652 
	127.283,211.652 116.423,200.792 "/>
<path fill="#231F20" d="M170.415,194.608l-22.596-22.597l-11.808-11.808c-4.607,6.868-10.706,12.651-17.827,16.894l10.966,10.966
	l22.598,22.597l13.543,13.544c1.46,1.46,3.229,2.425,5.101,2.918c0.953,0.25,1.932,0.387,2.912,0.387
	c0.979,0,1.958-0.137,2.912-0.387c1.871-0.493,3.641-1.458,5.101-2.918l1.335-1.335c4.406-4.407,4.406-11.618,0-16.025
	L170.415,194.608z"/>
<path fill="#231F20" d="M86.168,81.193c-24.447,0-44.338,19.89-44.338,44.337c0,24.449,19.891,44.338,44.338,44.338
	c2.79,0,5.517-0.271,8.166-0.767c1.167-0.218,2.312-0.492,3.445-0.8c2.946-0.802,5.775-1.89,8.446-3.25
	c7.462-3.802,13.712-9.648,18.001-16.807c1.641-2.74,2.982-5.676,4.006-8.756c0.278-0.834,0.544-1.674,0.772-2.53
	c0.974-3.648,1.501-7.478,1.501-11.429C130.506,101.083,110.615,81.193,86.168,81.193z M90.029,147.139
	c-1.255,0.224-2.543,0.347-3.861,0.347c-12.106,0-21.955-9.849-21.955-21.955s9.849-21.954,21.955-21.954
	s21.955,9.848,21.955,21.954c0,1.861-0.234,3.67-0.673,5.396C105.35,139.209,98.527,145.624,90.029,147.139z"/>
</svg>
