<?xml version="1.0" encoding="utf-8"?>
<!-- Generator: Adobe Illustrator 16.0.0, SVG Export Plug-In . SVG Version: 6.00 Build 0)  -->
<!DOCTYPE svg PUBLIC "-//W3C//DTD SVG 1.1//EN" "http://www.w3.org/Graphics/SVG/1.1/DTD/svg11.dtd">
<svg version="1.1" id="Layer_1" xmlns="http://www.w3.org/2000/svg" xmlns:xlink="http://www.w3.org/1999/xlink" x="0px" y="0px"
	 width="77.332px" height="94.803px" viewBox="0 0 77.332 94.803" enable-background="new 0 0 77.332 94.803" xml:space="preserve">
<path fill="none" d="M49.983,75.35c-0.004-0.003-0.007-0.007-0.011-0.009C49.977,75.343,49.979,75.347,49.983,75.35z"/>
<path fill="none" d="M50.733,75.32c-0.036,0.016-0.07,0.025-0.105,0.037C50.663,75.346,50.697,75.336,50.733,75.32z"/>
<path fill="none" d="M50.306,75.424c0.02,0,0.043-0.012,0.063-0.013c-0.032,0.002-0.064,0.007-0.096,0.005
	C50.285,75.417,50.294,75.424,50.306,75.424z"/>
<path fill="none" d="M50.305,35.661c-0.012,0-0.021,0.007-0.031,0.008c0.03-0.002,0.062,0.003,0.095,0.005
	C50.348,35.673,50.324,35.661,50.305,35.661z"/>
<path fill="none" d="M49.973,35.743c0.004-0.002,0.006-0.006,0.01-0.008C49.979,35.737,49.977,35.741,49.973,35.743z"/>
<path fill="none" d="M49.563,36.358c0.009-0.038,0.021-0.071,0.033-0.107C49.585,36.287,49.572,36.32,49.563,36.358z"/>
<path fill="none" d="M49.758,75.152c-0.02-0.024-0.036-0.055-0.055-0.083C49.722,75.098,49.737,75.127,49.758,75.152z"/>
<path fill="none" d="M49.704,36.014c0.018-0.027,0.033-0.057,0.053-0.081C49.737,35.958,49.722,35.986,49.704,36.014z"/>
<path fill="none" d="M50.626,35.728c0.036,0.012,0.071,0.021,0.107,0.037C50.696,35.749,50.662,35.739,50.626,35.728z"/>
<path fill="none" d="M49.598,74.834c-0.012-0.036-0.025-0.07-0.034-0.109C49.572,74.765,49.586,74.798,49.598,74.834z"/>
<polygon fill="#ACACAC" points="66.542,84.013 10.79,84.013 10.79,10.79 46.245,10.79 46.245,29.289 66.542,29.289 66.542,34.91 
	77.332,42.874 77.332,19.359 56.091,0 0,0 0,94.803 77.332,94.803 77.332,68.257 66.542,76.199 "/>
<path fill="#00A4D8" d="M76.045,54.382l-9.503-7.015L51.121,35.985c-0.134-0.099-0.263-0.167-0.388-0.221
	c-0.036-0.016-0.071-0.025-0.107-0.037c-0.09-0.029-0.176-0.048-0.258-0.054c-0.032-0.002-0.064-0.007-0.095-0.005
	c-0.105,0.004-0.204,0.022-0.291,0.066c-0.004,0.002-0.006,0.006-0.01,0.008c-0.082,0.044-0.153,0.11-0.216,0.189
	c-0.02,0.024-0.035,0.054-0.053,0.081c-0.043,0.069-0.079,0.149-0.107,0.237c-0.012,0.036-0.024,0.069-0.033,0.107
	c-0.03,0.132-0.052,0.274-0.052,0.439v7.511c0,1.1-0.9,2-2,2H25.678c-1.1,0-2,0.9-2,2v14.468c0,1.1,0.9,2,2,2h21.834
	c1.1,0,2,0.9,2,2v7.51c0,0.165,0.021,0.308,0.052,0.438c0.009,0.039,0.022,0.073,0.034,0.109c0.028,0.088,0.063,0.167,0.105,0.235
	c0.019,0.028,0.035,0.059,0.055,0.083c0.062,0.079,0.133,0.145,0.215,0.188c0.004,0.002,0.007,0.006,0.011,0.009
	c0.087,0.044,0.186,0.062,0.29,0.066c0.031,0.002,0.063-0.003,0.096-0.005c0.082-0.006,0.169-0.023,0.259-0.054
	c0.035-0.012,0.069-0.021,0.105-0.037c0.125-0.053,0.254-0.121,0.389-0.22l15.42-11.352l9.502-6.994
	C76.93,56.103,76.93,55.035,76.045,54.382z"/>
<path fill="#FFFFFF" d="M49.563,74.725c-0.03-0.131-0.052-0.273-0.052-0.438C49.512,74.451,49.533,74.594,49.563,74.725z"/>
<path fill="#FFFFFF" d="M50.368,35.674c0.082,0.006,0.168,0.024,0.258,0.054C50.536,35.698,50.45,35.68,50.368,35.674z"/>
<path fill="#FFFFFF" d="M50.273,75.416c-0.104-0.004-0.203-0.022-0.29-0.066C50.07,75.394,50.169,75.412,50.273,75.416z"/>
<path fill="#FFFFFF" d="M49.982,35.735c0.087-0.044,0.186-0.062,0.291-0.066C50.168,35.673,50.069,35.691,49.982,35.735z"/>
<path fill="#FFFFFF" d="M51.122,75.101c-0.135,0.099-0.264,0.167-0.389,0.22C50.858,75.268,50.987,75.2,51.122,75.101z"/>
<path fill="#FFFFFF" d="M50.733,35.765c0.125,0.054,0.254,0.122,0.388,0.221C50.986,35.886,50.858,35.818,50.733,35.765z"/>
<path fill="#FFFFFF" d="M50.628,75.357c-0.09,0.03-0.177,0.048-0.259,0.054C50.451,75.405,50.538,75.388,50.628,75.357z"/>
<path fill="#FFFFFF" d="M49.512,36.798c0-0.165,0.021-0.308,0.052-0.439C49.533,36.49,49.512,36.633,49.512,36.798z"/>
<path fill="#FFFFFF" d="M49.703,75.069c-0.042-0.068-0.077-0.147-0.105-0.235C49.626,74.922,49.661,75.001,49.703,75.069z"/>
<path fill="#FFFFFF" d="M49.973,75.341c-0.082-0.044-0.152-0.109-0.215-0.188C49.82,75.231,49.891,75.297,49.973,75.341z"/>
<path fill="#FFFFFF" d="M49.597,36.251c0.028-0.088,0.064-0.168,0.107-0.237C49.661,36.083,49.625,36.162,49.597,36.251z"/>
<path fill="#FFFFFF" d="M49.757,35.933c0.062-0.079,0.134-0.146,0.216-0.189C49.89,35.787,49.819,35.854,49.757,35.933z"/>
</svg>
