<?xml version="1.0" encoding="utf-8"?>
<!-- Generator: Adobe Illustrator 16.0.0, SVG Export Plug-In . SVG Version: 6.00 Build 0)  -->
<!DOCTYPE svg PUBLIC "-//W3C//DTD SVG 1.1//EN" "http://www.w3.org/Graphics/SVG/1.1/DTD/svg11.dtd">
<svg version="1.1" id="Layer_1" xmlns="http://www.w3.org/2000/svg" xmlns:xlink="http://www.w3.org/1999/xlink" x="0px" y="0px"
	 width="46.95px" height="51.805px" viewBox="0 0 46.95 51.805" enable-background="new 0 0 46.95 51.805" xml:space="preserve">
<path fill="#231F20" d="M23.013,8.279c-0.499,0-0.991,0.025-1.481,0.055V1.138c0-1.1-0.725-1.467-1.61-0.814L0.665,14.499
	c-0.886,0.652-0.887,1.72-0.001,2.373l19.258,14.215c0.886,0.653,1.609,0.287,1.609-0.812V23.46
	c8.264,0.738,12.387,7.128,12.387,14.007c0,5.827-3.821,10.84-9.304,13.073c-1.49,0.606-0.021,1.329,0.754,1.26
	C37.483,50.722,46.95,41.414,46.95,30.092C46.95,18.045,36.233,8.279,23.013,8.279z"/>
</svg>
