<?xml version="1.0" encoding="utf-8"?>
<!-- Generator: Adobe Illustrator 16.0.0, SVG Export Plug-In . SVG Version: 6.00 Build 0)  -->
<!DOCTYPE svg PUBLIC "-//W3C//DTD SVG 1.1//EN" "http://www.w3.org/Graphics/SVG/1.1/DTD/svg11.dtd">
<svg version="1.1" id="Layer_1" xmlns="http://www.w3.org/2000/svg" xmlns:xlink="http://www.w3.org/1999/xlink" x="0px" y="0px"
	 width="77.332px" height="94.803px" viewBox="0 0 77.332 94.803" enable-background="new 0 0 77.332 94.803" xml:space="preserve">
<polygon fill="#ACACAC" points="77.332,19.359 56.091,0 0,0 0,94.803 25.169,94.803 17.226,84.013 10.79,84.013 10.79,10.79 
	46.245,10.79 46.245,29.289 66.542,29.289 66.542,84.013 60.083,84.013 52.118,94.803 77.332,94.803 "/>
<path fill="#231F20" d="M39.419,94.313c0.146-0.104,0.285-0.228,0.407-0.393C39.704,94.086,39.564,94.21,39.419,94.313z"/>
<path fill="#231F20" d="M37.453,93.92c0.183,0.248,0.399,0.419,0.629,0.528C37.853,94.339,37.636,94.168,37.453,93.92z"/>
<path fill="#A6CE39" d="M57.41,67.389h-7.511c-1.1,0-2-0.9-2-2V43.555c0-1.1-0.9-2-2-2H31.432c-1.1,0-2,0.9-2,2v21.834
	c0,1.1-0.9,2-2,2h-7.51c-1.1,0-1.467,0.725-0.814,1.61L30.16,84.013l7.293,9.907c0.183,0.248,0.399,0.419,0.629,0.528
	c0.181,0.086,0.368,0.136,0.558,0.136c0.27,0,0.536-0.097,0.779-0.271c0.146-0.104,0.285-0.228,0.407-0.393l7.313-9.908
	l11.083-15.015C58.876,68.112,58.51,67.389,57.41,67.389z"/>
<path fill="#FFFFFF" d="M38.082,94.448c0.438,0.208,0.922,0.161,1.337-0.135c-0.243,0.174-0.51,0.271-0.779,0.271
	C38.45,94.584,38.263,94.534,38.082,94.448z"/>
</svg>
