<?xml version="1.0" encoding="utf-8"?>
<!-- Generator: Adobe Illustrator 16.0.0, SVG Export Plug-In . SVG Version: 6.00 Build 0)  -->
<!DOCTYPE svg PUBLIC "-//W3C//DTD SVG 1.1//EN" "http://www.w3.org/Graphics/SVG/1.1/DTD/svg11.dtd">
<svg version="1.1" id="Layer_1" xmlns="http://www.w3.org/2000/svg" xmlns:xlink="http://www.w3.org/1999/xlink" x="0px" y="0px"
	 width="55.841px" height="54.319px" viewBox="0 0 55.841 54.319" enable-background="new 0 0 55.841 54.319" xml:space="preserve">
<path fill="#231F20" d="M20.533,0C10.64,0,2.59,8.05,2.59,17.943c0,9.895,8.05,17.943,17.943,17.943c1.129,0,2.233-0.109,3.305-0.31
	c1.701-0.318,3.316-0.877,4.812-1.64c3.021-1.538,5.55-3.904,7.285-6.801c0.845-1.41,1.5-2.943,1.934-4.568
	c0.395-1.477,0.607-3.026,0.607-4.625C38.477,8.05,30.428,0,20.533,0z M22.096,26.688c-0.507,0.09-1.029,0.141-1.562,0.141
	c-4.899,0-8.885-3.986-8.885-8.886s3.985-8.885,8.885-8.885s8.886,3.985,8.886,8.885c0,0.754-0.095,1.485-0.272,2.185
	C28.296,23.479,25.535,26.075,22.096,26.688z"/>
<path fill="#231F20" d="M54.5,45.936l-15.234-15.47c-1.869,2.787-4.344,5.133-7.232,6.854l15.424,15.658
	c0.592,0.592,1.311,0.983,2.069,1.184c0.387,0.102,0.783,0.157,1.182,0.157c0.397,0,0.794-0.056,1.181-0.157
	c0.76-0.2,1.478-0.592,2.069-1.184l0.542-0.542C56.288,50.648,56.288,47.723,54.5,45.936z"/>
</svg>
