<?xml version="1.0" encoding="utf-8"?>
<!-- Generator: Adobe Illustrator 16.0.0, SVG Export Plug-In . SVG Version: 6.00 Build 0)  -->
<!DOCTYPE svg PUBLIC "-//W3C//DTD SVG 1.1//EN" "http://www.w3.org/Graphics/SVG/1.1/DTD/svg11.dtd">
<svg version="1.1" id="svg3177" xmlns="http://www.w3.org/2000/svg" xmlns:xlink="http://www.w3.org/1999/xlink" x="0px" y="0px"
	 width="76.11px" height="59.333px" viewBox="11.645 17 76.11 59.333" enable-background="new 11.645 17 76.11 59.333"
	 xml:space="preserve">
<path fill="none" d="M11.835,76.323c-0.121,0-0.191,0-0.191,0S11.716,76.323,11.835,76.323z"/>
<path fill="none" d="M51.529,54.765c-0.027,0-0.054,0-0.081,0c0.169-0.001,0.337,0.007,0.505,0.011
	C51.812,54.773,51.67,54.765,51.529,54.765z"/>
<path fill="none" d="M13.596,76.324c-0.438,0-0.804,0-1.1,0C12.792,76.324,13.158,76.324,13.596,76.324z"/>
<path fill="none" d="M14.572,76.325c-0.353,0-0.679-0.001-0.973-0.001C13.891,76.324,14.223,76.325,14.572,76.325z"/>
<path fill="none" d="M51.478,54.765c-0.01,0-0.02,0-0.029,0c0.169-0.001,0.337,0.007,0.505,0.011
	C51.795,54.772,51.637,54.765,51.478,54.765z"/>
<path fill="#FFFFFF" d="M12.151,76.323c-0.134,0-0.234,0-0.315,0C11.917,76.323,12.018,76.323,12.151,76.323z"/>
<path fill="#FFFFFF" d="M13.6,76.324c-0.001,0-0.002,0-0.003,0C13.598,76.324,13.599,76.324,13.6,76.324z"/>
<path fill="#FFFFFF" d="M12.496,76.324c-0.127,0-0.246-0.001-0.345-0.001C12.25,76.323,12.369,76.324,12.496,76.324z"/>
<path fill="#FFFFFF" d="M16.715,76.326c-0.8,0-1.514-0.001-2.143-0.001C15.2,76.325,15.918,76.326,16.715,76.326z"/>
<path id="path17" inkscape:connector-curvature="0" stroke="#FFFFFF" stroke-width="4" stroke-miterlimit="10" d="M42.045,36.889"/>
<path id="path5_1_" inkscape:connector-curvature="0" stroke="#FFFFFF" stroke-width="4" stroke-miterlimit="10" d="M55.534,34.734"
	/>
<path fill="none" d="M73.862,44.976c-0.021,0-0.039,0-0.06,0c0.123,0,0.244,0.005,0.366,0.008
	C74.066,44.982,73.964,44.976,73.862,44.976z"/>
<path fill="none" d="M73.824,44.976c-0.007,0-0.014,0-0.021,0c0.123,0,0.244,0.005,0.366,0.008
	C74.054,44.981,73.939,44.976,73.824,44.976z"/>
<path id="path17_1_" inkscape:connector-curvature="0" stroke="#FFFFFF" stroke-width="4" stroke-miterlimit="10" d="M68.999,32.041
	"/>
<path fill="none" d="M51.55,44.021c2.388-2.521,3.87-5.958,3.886-9.759C55.403,26.555,49.25,20.28,41.7,20.25
	c-7.627,0.03-13.781,6.305-13.731,14.01c-0.05,7.758,6.066,14.017,13.661,14.017c0.024,0,0.047,0,0.071,0c0.024,0,0.049,0,0.074,0
	c2.412,0,4.675-0.65,6.644-1.782C49.366,45.52,50.424,44.694,51.55,44.021z"/>
<path d="M51.55,44.021c-1.126,0.673-2.184,1.499-3.132,2.474C49.577,45.828,50.63,44.993,51.55,44.021z"/>
<path d="M72.11,76.323c0-0.398-0.01-0.794-0.029-1.185c-0.01-0.192-0.028-0.381-0.042-0.571c-0.015-0.196-0.025-0.395-0.044-0.589
	c-0.02-0.191-0.048-0.378-0.071-0.566c-0.023-0.189-0.043-0.382-0.071-0.57c-0.027-0.186-0.064-0.368-0.097-0.553
	c-0.033-0.186-0.062-0.373-0.099-0.557c-0.042-0.209-0.093-0.412-0.141-0.618c-0.036-0.154-0.067-0.312-0.106-0.464
	c-0.055-0.216-0.119-0.427-0.18-0.64c-0.04-0.138-0.075-0.279-0.118-0.416c-0.065-0.213-0.14-0.42-0.211-0.629
	c-0.007-0.018-0.012-0.036-0.019-0.054c-0.039-0.114-0.074-0.231-0.116-0.345c-0.076-0.209-0.16-0.412-0.243-0.618
	c-0.05-0.126-0.097-0.255-0.149-0.379c-0.089-0.21-0.185-0.414-0.279-0.619c-0.054-0.115-0.103-0.233-0.157-0.348
	c-0.1-0.206-0.207-0.407-0.312-0.608c-0.057-0.109-0.11-0.221-0.169-0.328c-0.109-0.201-0.226-0.396-0.342-0.592
	c-0.061-0.104-0.117-0.21-0.18-0.312c-0.12-0.197-0.248-0.389-0.374-0.58c-0.062-0.097-0.123-0.196-0.188-0.291
	c-0.131-0.192-0.268-0.378-0.404-0.564c-0.065-0.091-0.128-0.184-0.195-0.272c-0.141-0.188-0.288-0.368-0.435-0.55
	c-0.067-0.084-0.132-0.17-0.201-0.253c-0.149-0.18-0.306-0.354-0.461-0.528c-0.07-0.079-0.138-0.161-0.209-0.238
	c-0.154-0.168-0.313-0.33-0.473-0.492c-0.077-0.079-0.152-0.161-0.23-0.239c-0.16-0.158-0.326-0.311-0.49-0.464
	c-0.082-0.075-0.161-0.154-0.243-0.229c-0.165-0.148-0.334-0.289-0.502-0.431c-0.088-0.074-0.173-0.152-0.262-0.225
	c-0.166-0.136-0.337-0.265-0.506-0.395c-0.096-0.073-0.189-0.15-0.285-0.222c-0.17-0.125-0.343-0.243-0.516-0.363
	c-0.101-0.07-0.199-0.144-0.301-0.212c-0.173-0.115-0.349-0.224-0.524-0.334c-0.105-0.066-0.21-0.136-0.316-0.201
	c-0.056-0.033-0.112-0.064-0.169-0.097c-0.119-0.068-0.238-0.138-0.358-0.205c-0.112-0.062-0.223-0.129-0.336-0.19
	c-0.176-0.095-0.354-0.183-0.533-0.272c-0.117-0.059-0.232-0.121-0.35-0.178c-0.176-0.084-0.354-0.161-0.532-0.24
	c-0.124-0.055-0.246-0.113-0.37-0.166c-0.176-0.074-0.354-0.141-0.532-0.21c-0.129-0.05-0.257-0.104-0.387-0.151
	c-0.176-0.063-0.354-0.121-0.531-0.18c-0.135-0.045-0.268-0.094-0.403-0.136c-0.175-0.055-0.353-0.102-0.53-0.151
	c-0.139-0.039-0.277-0.082-0.418-0.118c-0.176-0.046-0.354-0.083-0.531-0.124c-0.111-0.025-0.223-0.053-0.334-0.076
	c-0.031-0.007-0.062-0.016-0.093-0.021c-0.176-0.036-0.354-0.065-0.53-0.097c-0.146-0.025-0.293-0.055-0.439-0.077
	c-0.175-0.027-0.35-0.047-0.525-0.068c-0.15-0.02-0.301-0.041-0.452-0.057c-0.174-0.018-0.349-0.028-0.522-0.041
	c-0.154-0.012-0.307-0.026-0.461-0.034c-0.176-0.009-0.352-0.01-0.527-0.014c-0.158-0.004-0.316-0.011-0.476-0.011
	c-0.01,0-0.02,0-0.029,0h-7.197H31.753c-9.656,0.038-20.108,8.479-20.108,21.558c0,0,0.07,0,0.191,0c0.082,0,0.181,0,0.315,0
	c0.1,0,0.218,0.001,0.345,0.001c0.296,0,0.662,0,1.1,0c0.001,0,0.002,0,0.003,0c0.293,0,0.62,0.001,0.973,0.001
	c0.629,0,1.342,0.001,2.143,0.001c7.099,0.004,20.534,0.01,32.971,0.01h0.001c0.001,0,0.001,0,0.002,0
	C58.557,76.335,66.916,76.333,72.11,76.323z"/>
<path id="path15_3_" inkscape:connector-curvature="0" d="M41.7,48.277c7.55,0.041,13.703-6.234,13.735-14.015
	C55.403,26.555,49.25,20.28,41.7,20.25c-7.627,0.03-13.781,6.305-13.731,14.01C27.919,42.042,34.073,48.316,41.7,48.277L41.7,48.277
	L41.7,48.277z"/>
<path d="M57.06,48.36c0.087,0.019,0.174,0.039,0.261,0.06l0.092,0.021l0.116,0.026c0.204,0.045,0.407,0.093,0.584,0.139
	c0.164,0.042,0.327,0.088,0.489,0.136l0.074,0.021l0.109,0.03c0.209,0.058,0.417,0.116,0.601,0.174
	c0.159,0.05,0.317,0.103,0.475,0.157l0.052,0.018l0.065,0.021c0.218,0.072,0.436,0.145,0.694,0.238
	c0.138,0.051,0.275,0.104,0.413,0.159l0.098,0.039l0.114,0.045c0.2,0.076,0.399,0.154,0.612,0.244
	c0.13,0.056,0.259,0.113,0.388,0.173l0.091,0.04l0.104,0.047c0.2,0.089,0.4,0.178,0.627,0.286c0.126,0.061,0.25,0.124,0.375,0.188
	l0.073,0.038l0.091,0.046c0.208,0.104,0.414,0.208,0.639,0.329c0.115,0.062,0.229,0.128,0.344,0.193l0.075,0.043l0.327,0.187
	l0.094,0.054c0.09,0.051,0.18,0.102,0.268,0.154l0.04,0.024l0.04,0.024c0.104,0.064,0.207,0.13,0.311,0.196l0.062,0.04l0.089,0.056
	c0.2,0.125,0.399,0.251,0.622,0.399c0.118,0.08,0.234,0.162,0.351,0.245l0.037,0.026l0.086,0.06c0.195,0.136,0.39,0.271,0.616,0.438
	c0.107,0.08,0.214,0.163,0.32,0.246l0.05,0.039l0.086,0.066c0.196,0.15,0.393,0.302,0.569,0.446
	c0.117,0.096,0.232,0.194,0.357,0.304l0.065,0.056c0.203,0.171,0.406,0.344,0.62,0.536c0.09,0.081,0.18,0.165,0.277,0.26
	l0.025,0.022l0.024,0.023l0.089,0.083c0.183,0.17,0.364,0.34,0.572,0.545c0.087,0.088,0.173,0.178,0.259,0.268l0.018,0.019
	c0.213,0.218,0.425,0.436,0.617,0.645c0.098,0.105,0.193,0.215,0.302,0.341l0.058,0.064c0.134,0.149,0.26,0.298,0.387,0.445
	c6.106-0.001,11.803-0.003,15.4-0.009c0-0.289-0.007-0.575-0.021-0.857c-0.007-0.14-0.021-0.275-0.03-0.414
	c-0.01-0.142-0.018-0.285-0.031-0.426c-0.015-0.139-0.035-0.273-0.052-0.41s-0.031-0.276-0.052-0.412
	c-0.02-0.135-0.047-0.267-0.07-0.4s-0.044-0.27-0.071-0.402c-0.03-0.151-0.066-0.299-0.102-0.447
	c-0.026-0.112-0.049-0.226-0.077-0.336c-0.039-0.156-0.086-0.309-0.13-0.463c-0.028-0.1-0.055-0.202-0.085-0.301
	c-0.048-0.154-0.102-0.304-0.153-0.455c-0.005-0.013-0.008-0.026-0.013-0.039c-0.028-0.083-0.054-0.168-0.085-0.25
	c-0.055-0.15-0.115-0.298-0.176-0.447c-0.036-0.091-0.069-0.185-0.108-0.273c-0.063-0.152-0.133-0.3-0.201-0.448
	c-0.039-0.084-0.074-0.169-0.114-0.252c-0.072-0.148-0.149-0.295-0.226-0.44c-0.041-0.079-0.08-0.159-0.123-0.237
	c-0.079-0.146-0.163-0.286-0.247-0.428c-0.044-0.075-0.085-0.152-0.13-0.226c-0.087-0.143-0.18-0.281-0.271-0.42
	c-0.046-0.07-0.089-0.142-0.136-0.211c-0.095-0.139-0.193-0.273-0.293-0.408c-0.047-0.065-0.093-0.133-0.141-0.197
	c-0.103-0.136-0.209-0.267-0.314-0.397c-0.049-0.061-0.096-0.123-0.146-0.184c-0.107-0.13-0.221-0.256-0.333-0.382
	c-0.051-0.058-0.1-0.116-0.151-0.173c-0.111-0.121-0.227-0.238-0.342-0.355c-0.056-0.058-0.11-0.117-0.167-0.174
	c-0.116-0.114-0.236-0.225-0.354-0.335c-0.06-0.055-0.117-0.112-0.176-0.166c-0.12-0.107-0.242-0.209-0.363-0.312
	c-0.064-0.054-0.125-0.11-0.189-0.162c-0.12-0.099-0.244-0.191-0.366-0.286c-0.069-0.053-0.138-0.108-0.206-0.16
	c-0.123-0.091-0.248-0.176-0.374-0.263c-0.072-0.051-0.144-0.104-0.218-0.153c-0.125-0.083-0.252-0.162-0.379-0.242
	c-0.076-0.048-0.152-0.098-0.229-0.146c-0.126-0.075-0.255-0.146-0.382-0.218c-0.081-0.046-0.161-0.094-0.243-0.138
	c-0.127-0.069-0.257-0.133-0.386-0.197c-0.085-0.043-0.169-0.088-0.253-0.129c-0.128-0.061-0.257-0.116-0.386-0.174
	c-0.09-0.039-0.178-0.082-0.268-0.12c-0.127-0.054-0.257-0.102-0.385-0.152c-0.094-0.036-0.187-0.074-0.28-0.109
	c-0.127-0.046-0.256-0.087-0.385-0.13c-0.098-0.032-0.193-0.067-0.291-0.098c-0.127-0.04-0.256-0.074-0.384-0.11
	c-0.101-0.028-0.201-0.059-0.303-0.085c-0.127-0.033-0.256-0.061-0.385-0.09c-0.08-0.019-0.161-0.038-0.241-0.056
	c-0.022-0.005-0.045-0.011-0.067-0.015c-0.127-0.026-0.256-0.048-0.384-0.07c-0.105-0.019-0.212-0.04-0.318-0.056
	c-0.126-0.021-0.253-0.034-0.38-0.05c-0.108-0.014-0.218-0.029-0.327-0.041c-0.126-0.013-0.252-0.021-0.378-0.029
	c-0.111-0.009-0.222-0.02-0.334-0.025c-0.127-0.006-0.254-0.007-0.381-0.01c-0.122-0.003-0.243-0.008-0.366-0.008H60.955
	c-0.928,2.369-2.267,4.521-3.925,6.377C57.04,48.356,57.05,48.358,57.06,48.36z"/>
<path d="M62.436,34.262v0.029c-0.003,0.794-0.059,1.575-0.146,2.347c1.079,0.406,2.237,0.65,3.46,0.643
	c5.464,0.03,9.916-4.511,9.939-10.141c-0.023-5.577-4.476-10.118-9.939-10.14c-3.271,0.013-6.162,1.617-7.97,4.081
	c2.888,3.604,4.636,8.178,4.656,13.152V34.262z"/>
</svg>
