<?xml version="1.0" encoding="utf-8"?>
<!-- Generator: Adobe Illustrator 16.0.0, SVG Export Plug-In . SVG Version: 6.00 Build 0)  -->
<!DOCTYPE svg PUBLIC "-//W3C//DTD SVG 1.1//EN" "http://www.w3.org/Graphics/SVG/1.1/DTD/svg11.dtd">
<svg version="1.1" id="svg3177" xmlns="http://www.w3.org/2000/svg" xmlns:xlink="http://www.w3.org/1999/xlink" x="0px" y="0px"
	 width="92px" height="85.335px" viewBox="4 -4 92 85.335" enable-background="new 4 -4 92 85.335" xml:space="preserve">
<g id="layer1" transform="matrix(1.0488323,0,0,1,-5.6511307,-963.98203)">
	<path id="path5" inkscape:connector-curvature="0" d="M10.273,990.964"/>
	<path id="path13" inkscape:connector-curvature="0" d="M38.373,1012.497c-14.008,0.059-29.171,12.902-29.171,32.801
		c0,0,64.903,0.043,87.717,0c0-24.148-14.633-32.719-29.974-32.65L38.373,1012.497z"/>
	<path id="path15" inkscape:connector-curvature="0" d="M52.804,1002.625c10.951,0.063,19.878-9.486,19.926-21.323
		c-0.047-11.727-8.975-21.275-19.926-21.32c-11.066,0.045-19.992,9.594-19.921,21.317
		C32.811,993.139,41.738,1002.685,52.804,1002.625L52.804,1002.625L52.804,1002.625z"/>
	<path id="path17" inkscape:connector-curvature="0" d="M53.304,985.299"/>
</g>
</svg>
