<?xml version="1.0" encoding="utf-8"?>
<!-- Generator: Adobe Illustrator 19.2.1, SVG Export Plug-In . SVG Version: 6.00 Build 0)  -->
<svg version="1.1" id="Layer_1" xmlns="http://www.w3.org/2000/svg" xmlns:xlink="http://www.w3.org/1999/xlink" x="0px" y="0px"
	 viewBox="0 0 128 129" style="enable-background:new 0 0 128 129;" xml:space="preserve">
<g id="Layer_3">
</g>
<g id="Layer_2">
	<g>
		<path d="M64,14c-27.9,0-50.5,22.6-50.5,50.5C13.5,92.4,36.1,115,64,115c27.9,0,50.5-22.6,50.5-50.5C114.5,36.6,91.9,14,64,14z
			 M58.3,35.1h11.6v37.1H58.3V35.1z M64.1,93.9c-4.2,0-7.4-3.4-7.4-7.3c0-4.2,3.6-7.3,7.4-7.3c3.7,0,7.3,3,7.3,7.3
			C71.4,90.8,68,93.9,64.1,93.9z"/>
	</g>
</g>
</svg>
