<?xml version="1.0" encoding="utf-8"?>
<!-- Generator: Adobe Illustrator 19.2.1, SVG Export Plug-In . SVG Version: 6.00 Build 0)  -->
<svg version="1.1" id="Layer_1" xmlns="http://www.w3.org/2000/svg" xmlns:xlink="http://www.w3.org/1999/xlink" x="0px" y="0px"
	 viewBox="0 0 128 129" style="enable-background:new 0 0 128 129;" xml:space="preserve">
<g id="Layer_3">
</g>
<g id="Layer_2">
	<g>
		<g>
			<path d="M49.3,85.7c0,1.4-1.2,2.6-2.6,2.6h-6.3c-1.4,0-2.6-1.2-2.6-2.6v-5.9c0-1.4,1.1-2.6,2.6-2.6h6.3c1.4,0,2.6,1.2,2.6,2.6
				V85.7z M49.3,65.7c0,1.4-1.2,2.6-2.6,2.6h-6.3c-1.4,0-2.6-1.2-2.6-2.6v-6c0-1.4,1.1-2.6,2.6-2.6h6.3c1.4,0,2.6,1.2,2.6,2.6V65.7z
				"/>
			<path d="M69.7,85.7c0,1.4-1.2,2.6-2.6,2.6h-6.3c-1.4,0-2.6-1.2-2.6-2.6v-5.9c0-1.4,1.1-2.6,2.6-2.6h6.3c1.4,0,2.6,1.2,2.6,2.6
				V85.7z M69.7,65.7c0,1.4-1.2,2.6-2.6,2.6h-6.3c-1.4,0-2.6-1.2-2.6-2.6v-6c0-1.4,1.1-2.6,2.6-2.6h6.3c1.4,0,2.6,1.2,2.6,2.6V65.7z
				"/>
			<path d="M90.1,86.1c0,1.4-1.2,2.6-2.6,2.6h-6.3c-1.4,0-2.6-1.2-2.6-2.6v-6c0-1.4,1.1-2.6,2.6-2.6h6.3c1.4,0,2.6,1.2,2.6,2.6V86.1
				z M90.1,66.1c0,1.4-1.2,2.6-2.6,2.6h-6.3c-1.4,0-2.6-1.2-2.6-2.6v-6c0-1.4,1.1-2.6,2.6-2.6h6.3c1.4,0,2.6,1.1,2.6,2.6V66.1z"/>
		</g>
		<g>
			<path d="M101.5,22.5h-6.6v8.7h6.6l0,70.1h-75V31.1h6.6v-8.7h-6.6c-4.8,0-8.7,3.9-8.7,8.7v70.1c0,4.8,3.9,8.7,8.7,8.7h75
				c4.8,0,8.7-3.9,8.7-8.7V31.1C110.2,26.3,106.3,22.5,101.5,22.5z"/>
			<rect x="52.3" y="22.5" width="23.4" height="8.7"/>
			<g>
				<path d="M45.6,15.1h-5.7c-1.1,0-2,0.9-2,2.1v5.3v8.7v5.3c0,1.1,0.9,2.1,2,2.1h5.7c1.1,0,2-0.9,2-2.1v-5.3v-8.7v-5.3
					C47.5,16,46.7,15.1,45.6,15.1z"/>
				<path d="M88.2,15.1h-5.7c-1.1,0-2,0.9-2,2.1v5.3v8.7v5.3c0,1.1,0.9,2.1,2,2.1h5.7c1.1,0,2-0.9,2-2.1v-5.3v-8.7v-5.3
					C90.1,16,89.3,15.1,88.2,15.1z"/>
			</g>
		</g>
	</g>
</g>
</svg>
