<?xml version="1.0" encoding="utf-8"?>
<!-- Generator: Adobe Illustrator 19.2.1, SVG Export Plug-In . SVG Version: 6.00 Build 0)  -->
<svg version="1.1" id="Layer_1" xmlns="http://www.w3.org/2000/svg" xmlns:xlink="http://www.w3.org/1999/xlink" x="0px" y="0px"
	 viewBox="0 0 128 129" style="enable-background:new 0 0 128 129;" xml:space="preserve">
<g id="Layer_3">
</g>
<g id="Layer_2">
	<path d="M95.8,40.8l-4.4-4.4c-1.6-1.5-4.3-1.5-5.8,0L46.9,75.1L34.8,63c-1.6-1.6-4.2-1.6-5.8,0l-4.4,4.4c-0.8,0.8-1.2,1.8-1.2,2.9
		c0,1.1,0.4,2.1,1.2,2.9L44,92.6c0.7,0.7,1.6,1.1,2.4,1.1c0.1,0,0.4,0.1,0.5,0.1l0.2,0c1.1,0,2-0.4,2.7-1.2l45.9-45.9
		C97.4,45,97.4,42.4,95.8,40.8z"/>
</g>
</svg>
