<?xml version="1.0" encoding="utf-8"?>
<!-- Generator: Adobe Illustrator 16.2.1, SVG Export Plug-In . SVG Version: 6.00 Build 0)  -->
<!DOCTYPE svg PUBLIC "-//W3C//DTD SVG 1.1//EN" "http://www.w3.org/Graphics/SVG/1.1/DTD/svg11.dtd">
<svg version="1.1" xmlns="http://www.w3.org/2000/svg" xmlns:xlink="http://www.w3.org/1999/xlink" x="0px" y="0px" width="128px"
	 height="129px" viewBox="0 0 128 129" enable-background="new 0 0 128 129" xml:space="preserve">
<g id="Layer_3">
</g>
<g id="Layer_2">
	<path d="M95.824,30.104l-4.374-4.359c-1.558-1.55-4.263-1.539-5.798,0.007L46.94,64.449L34.823,52.344
		c-1.557-1.554-4.24-1.558-5.79-0.011l-4.382,4.385c-0.774,0.757-1.17,1.781-1.17,2.888c0,1.088,0.418,2.116,1.178,2.888
		l19.383,19.386c0.729,0.712,1.646,1.11,2.398,1.122c0.135,0.03,0.388,0.056,0.5,0.056l0.209-0.022
		c1.058-0.045,1.951-0.443,2.712-1.188L95.786,35.92C97.411,34.318,97.411,31.721,95.824,30.104z"/>
</g>
</svg>
