<?xml version="1.0" encoding="utf-8"?>
<!-- Generator: Adobe Illustrator 19.2.1, SVG Export Plug-In . SVG Version: 6.00 Build 0)  -->
<svg version="1.1" id="Layer_1" xmlns="http://www.w3.org/2000/svg" xmlns:xlink="http://www.w3.org/1999/xlink" x="0px" y="0px"
	 viewBox="0 0 128 129" style="enable-background:new 0 0 128 129;" xml:space="preserve">
<g id="Layer_3">
</g>
<g id="Layer_2">
	<g>
		<path d="M100.3,26.2c-9.7-9.7-22.6-15-36.3-15c-13.7,0-26.6,5.3-36.3,15c-9.7,9.7-15,22.6-15,36.3c0,13.7,5.3,26.6,15,36.3
			c9.7,9.7,22.6,15,36.3,15c13.7,0,26.6-5.3,36.3-15c9.7-9.7,15-22.6,15-36.3C115.3,48.8,110,35.9,100.3,26.2z M64,104.1
			c-11.1,0-21.6-4.3-29.4-12.2c-7.9-7.9-12.2-18.3-12.2-29.5c0-11.1,4.3-21.6,12.2-29.4c7.9-7.9,18.3-12.2,29.4-12.2
			c11.1,0,21.6,4.3,29.4,12.2c7.9,7.9,12.2,18.3,12.2,29.4c0,11.1-4.3,21.6-12.2,29.5C85.6,99.8,75.1,104.1,64,104.1z"/>
		<path d="M85.7,52.7c-0.9-1.6-2.9-2.2-4.5-1.4l-13.5,6.1l-1.3-19.9c-0.1-2-1.7-3.5-3.7-3.6c0,0,0,0,0,0c-2,0-3.6,1.5-3.7,3.5
			L57.7,68c0,0.8,0.2,1.6,0.7,2.2c0.1,0.2,0.3,0.3,0.5,0.4c0.1,0.1,0.2,0.2,0.3,0.3c0.1,0.1,0.2,0.1,0.3,0.2
			c0.6,0.4,1.3,0.7,2.1,0.7c0.1,0,0.1,0,0.2,0c0.1,0,0.2,0,0.3,0c0.6,0,1.3-0.2,1.8-0.5l20.6-14C86,56.3,86.5,54.3,85.7,52.7z"/>
	</g>
</g>
</svg>
