<?xml version="1.0" encoding="utf-8"?>
<!-- Generator: Adobe Illustrator 19.2.1, SVG Export Plug-In . SVG Version: 6.00 Build 0)  -->
<svg version="1.1" id="Layer_1" xmlns="http://www.w3.org/2000/svg" xmlns:xlink="http://www.w3.org/1999/xlink" x="0px" y="0px"
	 viewBox="0 0 128 129" style="enable-background:new 0 0 128 129;" xml:space="preserve">
<g id="Layer_3">
</g>
<g id="Layer_2">
	<path d="M91.7,82.3L74.7,64.5l17.8-17.8c1.6-1.6,1.2-4.2-0.4-5.8l-4.6-4.3c-1.5-1.5-4.3-1.5-5.8,0L67.4,50.8v0l-3.9,3.5l-3.9-3.5v0
		L45.7,36.5c-1.6-1.5-4.1-1.5-5.6,0l-4.3,4.3c-1.6,1.6-1.6,4.2,0,5.8l14.2,14.2l0,0l3.7,3.6L35.7,82.3c-1.6,1.6-1.6,4.2,0,5.8
		l4.4,4.3c1.5,1.5,4.2,1.5,5.8,0l17.9-17.9l17.9,17.9c1.6,1.6,4.3,1.6,5.8,0l4.4-4.3C93.3,86.5,93.3,83.9,91.7,82.3z"/>
</g>
</svg>
