<?xml version="1.0" encoding="utf-8"?>
<!-- Generator: Adobe Illustrator 17.1.0, SVG Export Plug-In . SVG Version: 6.00 Build 0)  -->
<!DOCTYPE svg PUBLIC "-//W3C//DTD SVG 1.1//EN" "http://www.w3.org/Graphics/SVG/1.1/DTD/svg11.dtd">
<svg version="1.1" id="All_glyphs" xmlns="http://www.w3.org/2000/svg" xmlns:xlink="http://www.w3.org/1999/xlink" x="0px" y="0px"
	 viewBox="0 0 128 129" enable-background="new 0 0 128 129" xml:space="preserve">
<path d="M17.4,38.8c0,8.7,2.9,15,8.6,18.7c4.7,3,10.1,3.5,13,3.5c0.7,0,1.2,0,1.6-0.1c0,0-0.9,5.8,3.4,11.6l-0.2,0
	c-7.5,0-32,1.6-32,21.7c0,20.5,22.5,21.5,27,21.5c0.4,0,0.6,0,0.6,0c0.1,0,0.4,0,0.9,0c2.9,0,10.4-0.4,17.3-3.7
	c9-4.4,13.6-12,13.6-22.6c0-10.3-7-16.4-12-20.8c-3.1-2.7-5.8-5.1-5.8-7.4c0-2.3,2-4.1,4.4-6.3c4-3.6,7.8-8.7,7.8-18.3
	c0-8.5-1.1-14.2-7.9-17.8c0.7-0.4,3.2-0.6,4.4-0.8c3.7-0.5,9-1.1,9-4.1v-0.6H44.5C44.2,13.3,17.4,14.3,17.4,38.8z M60.6,91.3
	c0.5,8.2-6.5,14.2-17,15c-10.7,0.8-19.5-4-20-12.2c-0.2-3.9,1.5-7.8,4.9-10.8c3.4-3.1,8.1-5,13.3-5.4c0.6,0,1.2-0.1,1.8-0.1
	C53.4,77.8,60.1,83.6,60.6,91.3z M53.6,33.2c2.6,9.2-1.3,18.9-7.7,20.7c-0.7,0.2-1.5,0.3-2.2,0.3c-5.8,0-11.5-5.9-13.6-13.9
	c-1.2-4.5-1.1-8.5,0.3-12.3c1.3-3.7,3.7-6.3,6.8-7.1c0.7-0.2,1.5-0.3,2.2-0.3C46.3,20.6,50.8,23.5,53.6,33.2z M98.7,53.3V35.9H87.6
	v17.5H70.2v11.1h17.5v17.5h11.1V64.4h17.5V53.3H98.7z"/>
</svg>
