<?xml version="1.0" encoding="utf-8"?>
<!-- Generator: Adobe Illustrator 19.2.1, SVG Export Plug-In . SVG Version: 6.00 Build 0)  -->
<svg version="1.1" id="Layer_1" xmlns="http://www.w3.org/2000/svg" xmlns:xlink="http://www.w3.org/1999/xlink" x="0px" y="0px"
	 viewBox="0 0 128 129" style="enable-background:new 0 0 128 129;" xml:space="preserve">
<g id="Layer_3">
</g>
<g id="Layer_2">
	<path d="M117.7,65.1l-0.5-0.8l-11-10.5L88.4,36.7l-5.1-4.9L71.8,20.9C70,19,67.5,18.1,65,18.2c-2.5-0.1-5,0.9-6.8,2.7L12.8,64.3
		l-0.5,0.8c-0.8,1.2-1.6,3.1-1.6,5.1c0,5.4,4.4,9.7,9.7,9.7h2.5v25.3c0,4.5,3.6,8.1,8.1,8.1h23.6H65h9.4h24.7c4.5,0,8.1-3.6,8.1-8.1
		V79.9h2.5c5.3,0,9.7-4.3,9.7-9.7C119.3,68.2,118.5,66.3,117.7,65.1z M104.1,70.2h-2.5h-4.4v33.2H74.4h-2.2V84.8
		c0-2.2-1.8-4.1-4.1-4.1l-6.2,0c-2.2,0-4.1,1.9-4.1,4.1l0,18.6h-3.2H32.8V70.2h-4.4h-2.5h-5.2L65,27.9h0l14.1,13.5l8.1,7.8
		l10.8,10.3l8.1,7.8l3.1,3C109.3,70.2,104.1,70.2,104.1,70.2z"/>
</g>
</svg>
