<?xml version="1.0" encoding="utf-8"?>
<!-- Generator: Adobe Illustrator 16.2.1, SVG Export Plug-In . SVG Version: 6.00 Build 0)  -->
<!DOCTYPE svg PUBLIC "-//W3C//DTD SVG 1.1//EN" "http://www.w3.org/Graphics/SVG/1.1/DTD/svg11.dtd">
<svg version="1.1" xmlns="http://www.w3.org/2000/svg" xmlns:xlink="http://www.w3.org/1999/xlink" x="0px" y="0px" width="128px"
	 height="129px" viewBox="0 0 128 129" enable-background="new 0 0 128 129" xml:space="preserve">
<g id="Layer_3">
</g>
<g id="Layer_2">
	<path d="M116.741,46.925l-0.51-0.792l-11.028-10.544L87.346,18.515l-5.119-4.895L70.839,2.732
		c-1.882-1.874-4.372-2.787-6.832-2.729c-2.476-0.058-4.965,0.855-6.84,2.729l-45.4,43.4l-0.497,0.792
		c-0.769,1.245-1.606,3.073-1.61,5.123c0.006,5.352,4.357,9.692,9.696,9.692h2.503v25.338c0,4.463,3.634,8.102,8.099,8.102h23.64
		h10.409h9.385h24.661c4.464,0,8.089-3.638,8.089-8.102V61.74h2.502c5.335,0,9.691-4.34,9.694-9.692
		C118.336,49.998,117.497,48.169,116.741,46.925z M103.097,52.04h-2.481H96.23v33.173H73.393h-2.204v-18.59
		c0-2.245-1.829-4.085-4.09-4.093l-6.177,0.008c-2.195-0.008-4.096,1.909-4.114,4.085l0.016,18.59h-3.226H31.77V52.04h-4.384h-2.481
		h-5.205L64.005,9.74h0.003L78.13,23.226l8.12,7.754l10.836,10.348l8.117,7.751l3.101,2.961H103.097z"/>
</g>
</svg>
