<?xml version="1.0" encoding="utf-8"?>
<!-- Generator: Adobe Illustrator 19.2.1, SVG Export Plug-In . SVG Version: 6.00 Build 0)  -->
<svg version="1.1" id="Layer_1" xmlns="http://www.w3.org/2000/svg" xmlns:xlink="http://www.w3.org/1999/xlink" x="0px" y="0px"
	 viewBox="0 0 128 129" style="enable-background:new 0 0 128 129;" xml:space="preserve">
<g id="Layer_3">
</g>
<g id="Layer_2">
	<g>
		<path d="M99.7,28.8C90.2,19.3,77.5,14,64,14c-13.5,0-26.2,5.3-35.7,14.8C18.8,38.3,13.5,51,13.5,64.5c0,13.5,5.3,26.2,14.8,35.7
			C37.9,109.7,50.5,115,64,115c13.5,0,26.2-5.2,35.7-14.8c9.5-9.5,14.8-22.2,14.8-35.7C114.5,51,109.2,38.3,99.7,28.8z M64,105.5
			c-10.9,0-21.2-4.3-29-12c-7.7-7.7-12-18-12-29c0-10.9,4.3-21.2,12-29c7.7-7.7,18-12,29-12s21.2,4.3,29,12c7.7,7.7,12,18,12,29
			c0,10.9-4.3,21.2-12,29C85.2,101.2,74.9,105.5,64,105.5z"/>
		<g>
			<path d="M73.3,85l-0.7,3c-2.2,0.9-4,1.5-5.3,2c-1.3,0.5-2.8,0.7-4.6,0.7c-2.7,0-4.8-0.6-6.2-2c-1.5-1.3-2.2-3-2.2-5
				c0-0.8,0.1-1.6,0.2-2.4c0.1-0.8,0.3-1.7,0.5-2.8l2.8-9.8c0.3-0.9,0.5-1.8,0.6-2.7c0.2-0.8,0.2-1.6,0.2-2.3c0-1.3-0.3-2.1-0.8-2.6
				c-0.5-0.5-1.5-0.7-3-0.7c-0.7,0-1.4,0.1-2.2,0.3c-0.7,0.2-1.4,0.4-1.9,0.6l0.7-3c1.8-0.7,3.5-1.4,5.2-1.9
				c1.7-0.5,3.2-0.8,4.7-0.8c2.7,0,4.7,0.6,6.1,1.9c1.4,1.3,2.2,3,2.2,5c0,0.4-0.1,1.2-0.1,2.2c-0.1,1.1-0.3,2.1-0.6,2.9l-2.8,9.7
				c-0.2,0.8-0.4,1.7-0.6,2.7c-0.2,1-0.3,1.8-0.3,2.3c0,1.3,0.3,2.2,0.9,2.7c0.6,0.5,1.6,0.7,3,0.7c0.7,0,1.4-0.1,2.3-0.4
				C72.3,85.4,72.9,85.2,73.3,85z M74,44.1c0,1.7-0.6,3.1-1.9,4.3c-1.3,1.2-2.8,1.8-4.6,1.8c-1.8,0-3.4-0.6-4.7-1.8
				c-1.3-1.2-1.9-2.6-1.9-4.3c0-1.7,0.6-3.1,1.9-4.3c1.3-1.2,2.8-1.8,4.7-1.8c1.8,0,3.3,0.6,4.6,1.8C73.3,41,74,42.4,74,44.1z"/>
		</g>
	</g>
</g>
</svg>
