<?xml version="1.0" encoding="utf-8"?>
<!-- Generator: Adobe Illustrator 16.2.1, SVG Export Plug-In . SVG Version: 6.00 Build 0)  -->
<!DOCTYPE svg PUBLIC "-//W3C//DTD SVG 1.1//EN" "http://www.w3.org/Graphics/SVG/1.1/DTD/svg11.dtd">
<svg version="1.1" xmlns="http://www.w3.org/2000/svg" xmlns:xlink="http://www.w3.org/1999/xlink" x="0px" y="0px" width="128px"
	 height="129px" viewBox="0 0 128 129" enable-background="new 0 0 128 129" xml:space="preserve">
<g id="Layer_3">
</g>
<g id="Layer_2">
	<g>
		<path d="M101.477,14.788C91.943,5.252,79.275-0.001,65.788-0.001c-13.486,0-26.153,5.251-35.68,14.786
			c-9.527,9.52-14.778,22.197-14.778,35.67c0.003,13.487,5.254,26.155,14.778,35.688c9.532,9.535,22.197,14.776,35.681,14.776
			c13.487,0,26.155-5.242,35.688-14.776c9.521-9.533,14.772-22.199,14.772-35.688C116.249,36.979,110.998,24.304,101.477,14.788z
			 M65.788,91.423c-10.939,0-21.226-4.262-28.952-11.991c-7.744-7.746-12.003-18.032-12.003-28.976
			c0-10.939,4.259-21.219,12.004-28.953C44.562,13.772,54.849,9.51,65.788,9.51s21.228,4.262,28.961,11.993
			c7.743,7.733,12.003,18.013,12.003,28.953c0,10.944-4.26,21.23-12.003,28.976C87.016,87.161,76.729,91.423,65.788,91.423z"/>
		<g>
			<path d="M75.07,70.953l-0.735,3.015c-2.211,0.866-3.979,1.537-5.295,1.989c-1.322,0.462-2.845,0.684-4.591,0.684
				c-2.676,0-4.759-0.646-6.242-1.956c-1.486-1.299-2.224-2.961-2.224-4.971c0-0.779,0.055-1.577,0.168-2.391
				c0.106-0.821,0.282-1.74,0.531-2.768l2.761-9.776c0.25-0.936,0.459-1.823,0.63-2.658c0.162-0.843,0.246-1.607,0.246-2.297
				c0-1.25-0.251-2.122-0.773-2.619c-0.51-0.48-1.493-0.731-2.953-0.731c-0.714,0-1.446,0.114-2.202,0.335
				c-0.749,0.23-1.388,0.433-1.93,0.636l0.74-3.016c1.815-0.731,3.543-1.362,5.191-1.892c1.665-0.517,3.222-0.785,4.704-0.785
				c2.655,0,4.703,0.642,6.149,1.923c1.438,1.291,2.159,2.957,2.159,5.009c0,0.428-0.05,1.171-0.148,2.245
				c-0.101,1.076-0.288,2.055-0.556,2.945l-2.753,9.745c-0.226,0.776-0.431,1.678-0.603,2.683c-0.176,1.004-0.267,1.759-0.267,2.266
				c0,1.301,0.288,2.183,0.865,2.658c0.578,0.459,1.581,0.701,3.012,0.701c0.664,0,1.426-0.122,2.278-0.359
				C74.078,71.343,74.685,71.136,75.07,70.953z M75.769,30.063c0,1.705-0.64,3.144-1.926,4.34c-1.288,1.197-2.826,1.785-4.631,1.785
				c-1.814,0-3.365-0.588-4.663-1.785c-1.292-1.196-1.94-2.635-1.94-4.34c0-1.693,0.648-3.14,1.94-4.347
				c1.297-1.208,2.848-1.812,4.663-1.812c1.805,0,3.343,0.604,4.631,1.812C75.129,26.924,75.769,28.37,75.769,30.063z"/>
		</g>
	</g>
</g>
</svg>
