<?xml version="1.0" encoding="utf-8"?>
<!-- Generator: Adobe Illustrator 25.3.1, SVG Export Plug-In . SVG Version: 6.00 Build 0)  -->
<svg version="1.1" id="Layer_1" xmlns="http://www.w3.org/2000/svg" xmlns:xlink="http://www.w3.org/1999/xlink" x="0px" y="0px"
	 viewBox="0 0 32 32" style="enable-background:new 0 0 32 32;" xml:space="preserve">
<g>
	<path d="M16,0C7.2,0,0,7.2,0,16s7.2,16,16,16s16-7.2,16-16S24.8,0,16,0z M18,7c1.1,0,2,0.9,2,2s-0.9,2-2,2s-2-0.9-2-2S16.9,7,18,7z
		 M19.8,24c-1.8,0.7-2.4,1-3.5,1c-1,0-1.7-0.2-2.2-0.7c-1-0.9-0.9-2.2-0.5-3.6l1-3.5c0.2-0.7,0.6-2.2,0-2.7s-1.8-0.2-2.5,0.1
		l0.3-1.1c1.1-0.4,2.4-1,3.5-1c1.7,0,3,0.9,3,2.5c0,0.2,0,0.4-0.1,0.8c-0.1,0.7-0.1,0.7-1.2,4.5c-0.1,0.4-0.3,1.3-0.3,1.8
		c0,1.7,2,1.3,2.8,0.8L19.8,24z"/>
</g>
</svg>
