<?xml version="1.0" encoding="utf-8"?>
<!-- Generator: Adobe Illustrator 19.2.1, SVG Export Plug-In . SVG Version: 6.00 Build 0)  -->
<svg version="1.1" id="Layer_1" xmlns="http://www.w3.org/2000/svg" xmlns:xlink="http://www.w3.org/1999/xlink" x="0px" y="0px"
	 viewBox="0 0 128 129" style="enable-background:new 0 0 128 129;" xml:space="preserve">
<g id="Layer_3">
</g>
<g id="Layer_2">
	<path d="M100,57.3h-8.2c0.6,2.3,0.9,4.7,0.9,7.2c0,15.9-12.9,28.8-28.8,28.8S35.1,80.4,35.1,64.5c0-2.5,0.3-4.9,0.9-7.2h-8.2V97
		c0,2,1.7,3.6,3.6,3.6h64.9c2,0,3.6-1.6,3.6-3.6C100,97,100,57.3,100,57.3z M100,32c0-2-1.7-3.6-3.6-3.6H85.6c-2,0-3.6,1.7-3.6,3.6
		v10.8c0,2,1.6,3.6,3.6,3.6h10.8c2,0,3.6-1.7,3.6-3.6L100,32L100,32z M64,46.4c-9.9,0-18.1,8-18.1,18.1c0,9.9,8,18.1,18.1,18.1
		c10,0,18.1-8,18.1-18.1C82,54.6,73.9,46.4,64,46.4 M100,111.4H27.9c-6,0-10.8-4.8-10.8-10.8v-72c0-6,4.8-10.8,10.8-10.8h72.1
		c6,0,10.8,4.8,10.8,10.8v72.1C110.8,106.5,106,111.4,100,111.4"/>
</g>
</svg>
