<?xml version="1.0" encoding="utf-8"?>
<!-- Generator: Adobe Illustrator 16.2.1, SVG Export Plug-In . SVG Version: 6.00 Build 0)  -->
<!DOCTYPE svg PUBLIC "-//W3C//DTD SVG 1.1//EN" "http://www.w3.org/Graphics/SVG/1.1/DTD/svg11.dtd">
<svg version="1.1" xmlns="http://www.w3.org/2000/svg" xmlns:xlink="http://www.w3.org/1999/xlink" x="0px" y="0px" width="128px"
	 height="129px" viewBox="0 0 128 129" enable-background="new 0 0 128 129" xml:space="preserve">
<g id="Layer_3">
</g>
<g id="Layer_2">
	<path d="M99.983,39.689h-8.198c0.579,2.319,0.911,4.721,0.911,7.205c0,15.901-12.919,28.82-28.82,28.82s-28.82-12.919-28.82-28.82
		c0-2.484,0.332-4.886,0.912-7.205h-8.199v39.669c0,1.988,1.656,3.561,3.644,3.561H96.34c1.987,0,3.643-1.573,3.643-3.561V39.689z
		 M99.983,14.431c0-1.988-1.656-3.644-3.643-3.644H85.573c-1.987,0-3.643,1.656-3.643,3.644V25.28c0,1.987,1.573,3.643,3.643,3.643
		h10.85c1.988,0,3.644-1.656,3.644-3.643V14.431H99.983z M63.958,28.841c-9.938,0-18.054,8.033-18.054,18.053
		c0,9.938,8.034,18.054,18.054,18.054c10.021,0,18.054-8.033,18.054-18.054C82.013,36.957,73.897,28.841,63.958,28.841
		 M99.983,93.768h-72.05c-5.963,0-10.849-4.804-10.849-10.849V10.87c0-5.963,4.804-10.849,10.849-10.849h72.133
		c5.962,0,10.849,4.803,10.849,10.849v72.133C110.833,88.882,106.029,93.768,99.983,93.768"/>
</g>
</svg>
