<?xml version="1.0" encoding="utf-8"?>
<!-- Generator: Adobe Illustrator 19.2.1, SVG Export Plug-In . SVG Version: 6.00 Build 0)  -->
<svg version="1.1" id="Layer_1" xmlns="http://www.w3.org/2000/svg" xmlns:xlink="http://www.w3.org/1999/xlink" x="0px" y="0px"
	 viewBox="0 0 128 129" style="enable-background:new 0 0 128 129;" xml:space="preserve">
<g id="Layer_3">
</g>
<g id="Layer_2">
	<g>
		<path d="M83.8,41.9c-8,0-13.2,4.3-15.5,8.5h-0.2v-7.2H52.5v52.5h16.3v-26c0-6.9,1.3-13.4,9.7-13.4c8.3,0,8.5,7.8,8.5,13.9v25.5
			h16.3V66.9C103.3,52.8,100.2,41.9,83.8,41.9z"/>
		<rect x="26" y="43.2" width="16.3" height="52.5"/>
		<path d="M34.1,17.1c-5.3,0-9.4,4.2-9.4,9.4c0,5.3,4.2,9.4,9.4,9.4c5.2,0,9.4-4.3,9.4-9.4C43.6,21.4,39.4,17.1,34.1,17.1z"/>
	</g>
</g>
</svg>
