<?xml version="1.0" encoding="utf-8"?>
<!-- Generator: Adobe Illustrator 19.2.1, SVG Export Plug-In . SVG Version: 6.00 Build 0)  -->
<svg version="1.1" id="Layer_1" xmlns="http://www.w3.org/2000/svg" xmlns:xlink="http://www.w3.org/1999/xlink" x="0px" y="0px"
	 viewBox="0 0 128 129" style="enable-background:new 0 0 128 129;" xml:space="preserve">
<g id="Layer_3">
</g>
<g id="Layer_2">
	<path d="M104.7,16.7H23.4c-3.9,0-7.1,3.1-7.1,7v81.7c0,3.8,3.1,6.9,7,6.9h81.5c3.9,0,7-3.1,7-6.9V23.7
		C111.9,19.9,108.6,16.7,104.7,16.7z M44.6,98.2H30.4V52.6h14.2V98.2z M37.5,46.4c-4.5,0-8.2-3.7-8.2-8.3c0-4.5,3.7-8.2,8.2-8.2
		c4.5,0,8.2,3.7,8.2,8.2C45.7,42.6,42,46.4,37.5,46.4z M97.7,98.2H83.5V76c0-5.3-0.1-12.1-7.4-12.1c-7.4,0-8.5,5.7-8.5,11.7v22.5
		H53.5V52.6h13.6v6.3h0.2c1.9-3.6,6.5-7.4,13.4-7.4c14.3,0,17,9.5,17,21.7L97.7,98.2L97.7,98.2z"/>
</g>
</svg>
