<?xml version="1.0" encoding="utf-8"?>
<!-- Generator: Adobe Illustrator 19.2.1, SVG Export Plug-In . SVG Version: 6.00 Build 0)  -->
<svg version="1.1" id="Layer_1" xmlns="http://www.w3.org/2000/svg" xmlns:xlink="http://www.w3.org/1999/xlink" x="0px" y="0px"
	 viewBox="0 0 128 129" style="enable-background:new 0 0 128 129;" xml:space="preserve">
<g id="Layer_3">
</g>
<g id="Layer_2">
	<g>
		<path d="M17.5,104.2c0,2.1-1.8,3.9-3.9,3.9H4c-2.1,0-3.9-1.7-3.9-3.9v-9c0-2.1,1.8-3.9,3.9-3.9h9.6c2.1,0,3.9,1.7,3.9,3.9V104.2z
			 M17.5,69c0,2.1-1.8,3.9-3.9,3.9H4c-2.1,0-3.9-1.8-3.9-3.9v-9c0-2.1,1.8-3.9,3.9-3.9h9.6c2.1,0,3.9,1.7,3.9,3.9V69z M17.5,33.8
			c0,2.2-1.8,3.9-3.9,3.9H4c-2.1,0-3.9-1.7-3.9-3.9v-9c0-2.2,1.8-3.9,3.9-3.9h9.6c2.1,0,3.9,1.7,3.9,3.9V33.8z M127.9,104.2
			c0,2.1-1.8,3.9-3.9,3.9H41c-2.2,0-3.9-1.7-3.9-3.9v-9c0-2.1,1.7-3.9,3.9-3.9h83c2.1,0,3.9,1.7,3.9,3.9
			C127.9,95.2,127.9,104.2,127.9,104.2z M127.9,69c0,2.1-1.8,3.9-3.9,3.9H41c-2.2,0-3.9-1.8-3.9-3.9v-9c0-2.1,1.7-3.9,3.9-3.9h83
			c2.1,0,3.9,1.7,3.9,3.9C127.9,60,127.9,69,127.9,69z M127.9,33.8c0,2.2-1.8,3.9-3.9,3.9H41c-2.2,0-3.9-1.7-3.9-3.9v-9
			c0-2.2,1.7-3.9,3.9-3.9h83c2.1,0,3.9,1.7,3.9,3.9C127.9,24.8,127.9,33.8,127.9,33.8z"/>
	</g>
</g>
</svg>
