<?xml version="1.0" encoding="utf-8"?>
<!-- Generator: Adobe Illustrator 25.3.1, SVG Export Plug-In . SVG Version: 6.00 Build 0)  -->
<svg version="1.1" id="Layer_1" xmlns="http://www.w3.org/2000/svg" xmlns:xlink="http://www.w3.org/1999/xlink" x="0px" y="0px"
	 viewBox="0 0 32 32" style="enable-background:new 0 0 32 32;" xml:space="preserve">
<g>
	<g>
		<path d="M16,31.4l-0.7-0.7C14.8,30.2,4,19.2,4,12C4,4.5,10.1,0,16,0s12,4.5,12,12c0,7.1-10.8,18.2-11.3,18.7L16,31.4z M16,2
			C11.1,2,6,5.7,6,12c0,5.4,7.6,14,10,16.5C18.4,26,26,17.3,26,12C26,5.7,20.9,2,16,2z"/>
	</g>
	<g>
		<path d="M16,16c-2.2,0-4-1.8-4-4s1.8-4,4-4c2.2,0,4,1.8,4,4S18.2,16,16,16z M16,10c-1.1,0-2,0.9-2,2s0.9,2,2,2c1.1,0,2-0.9,2-2
			S17.1,10,16,10z"/>
	</g>
</g>
</svg>
