<?xml version="1.0" encoding="utf-8"?>
<!-- Generator: Adobe Illustrator 16.2.1, SVG Export Plug-In . SVG Version: 6.00 Build 0)  -->
<!DOCTYPE svg PUBLIC "-//W3C//DTD SVG 1.1//EN" "http://www.w3.org/Graphics/SVG/1.1/DTD/svg11.dtd">
<svg version="1.1" xmlns="http://www.w3.org/2000/svg" xmlns:xlink="http://www.w3.org/1999/xlink" x="0px" y="0px" width="128px"
	 height="129px" viewBox="0 0 128 129" enable-background="new 0 0 128 129" xml:space="preserve">
<g id="Layer_3">
</g>
<g id="Layer_2">
	<g>
		<g>
			<path d="M63.998,100.935c-0.812,0-1.623-0.242-2.317-0.732c-11.237-7.811-35.867-33.97-35.867-60.813
				c0-27.236,24.735-39.012,37.356-39.012h1.656c12.627,0,37.361,11.776,37.361,39.012c0,26.851-24.626,53.006-35.872,60.813
				C65.619,100.697,64.809,100.935,63.998,100.935z M63.169,8.517c-7.488,0-29.222,7.6-29.222,30.872
				c0,22.222,20.11,44.319,30.05,52.377c9.942-8.055,30.06-30.148,30.06-52.377c0-23.272-21.738-30.872-29.232-30.872H63.169z"/>
		</g>
		<g>
			<path d="M63.998,58.994c-11.279,0-20.458-9.181-20.458-20.458c0-11.28,9.179-20.452,20.458-20.452
				c11.28,0,20.462,9.172,20.462,20.452C84.459,49.813,75.277,58.994,63.998,58.994z M63.998,26.216
				c-6.792,0-12.324,5.528-12.324,12.321c0,6.788,5.533,12.32,12.324,12.32s12.323-5.532,12.323-12.32
				C76.321,31.744,70.789,26.216,63.998,26.216z"/>
		</g>
	</g>
</g>
</svg>
