<?xml version="1.0" encoding="utf-8"?>
<!-- Generator: Adobe Illustrator 19.2.1, SVG Export Plug-In . SVG Version: 6.00 Build 0)  -->
<svg version="1.1" id="Layer_1" xmlns="http://www.w3.org/2000/svg" xmlns:xlink="http://www.w3.org/1999/xlink" x="0px" y="0px"
	 viewBox="0 0 128 129" style="enable-background:new 0 0 128 129;" xml:space="preserve">
<g id="Layer_3">
</g>
<g id="Layer_2">
	<g>
		<g>
			<path d="M64,114.8c-0.8,0-1.6-0.2-2.3-0.7c-11.2-7.8-35.9-34-35.9-60.8c0-27.2,24.7-39,37.4-39h1.7c12.6,0,37.4,11.8,37.4,39
				c0,26.9-24.6,53-35.9,60.8C65.6,114.5,64.8,114.8,64,114.8z M63.2,22.4C55.7,22.4,34,30,34,53.2c0,22.2,20.1,44.3,30,52.4
				c9.9-8.1,30.1-30.1,30.1-52.4c0-23.3-21.7-30.9-29.2-30.9H63.2z"/>
		</g>
		<g>
			<path d="M64,72.8c-11.3,0-20.5-9.2-20.5-20.5c0-11.3,9.2-20.5,20.5-20.5c11.3,0,20.5,9.2,20.5,20.5C84.5,63.7,75.3,72.8,64,72.8z
				 M64,40.1c-6.8,0-12.3,5.5-12.3,12.3c0,6.8,5.5,12.3,12.3,12.3s12.3-5.5,12.3-12.3C76.3,45.6,70.8,40.1,64,40.1z"/>
		</g>
	</g>
</g>
</svg>
