<?xml version="1.0" encoding="utf-8"?>
<!-- Generator: Adobe Illustrator 19.2.1, SVG Export Plug-In . SVG Version: 6.00 Build 0)  -->
<svg version="1.1" id="Layer_1" xmlns="http://www.w3.org/2000/svg" xmlns:xlink="http://www.w3.org/1999/xlink" x="0px" y="0px"
	 viewBox="0 0 128 129" style="enable-background:new 0 0 128 129;" xml:space="preserve">
<g id="Layer_3">
</g>
<g id="Layer_2">
	<g>
		<g>
			<path d="M64.6,81.4c-0.8,0-1.6-0.3-2.2-0.8l-43-36.3c-1.4-1.2-1.6-3.2-0.5-4.7c1.1-1.4,3.2-1.7,4.6-0.7l40.6,28.6l40.6-27.2
				c1.5-1,3.5-0.7,4.6,0.8c1.1,1.4,0.8,3.5-0.6,4.6L66.7,80.7C66.1,81.2,65.3,81.4,64.6,81.4z"/>
		</g>
		<g>
			<path d="M117.8,110.9H10.5c-5.1,0-9.2-4.1-9.2-9.2V27.3c0-5.1,4.1-9.2,9.2-9.2h107.3c5.1,0,9.2,4.1,9.2,9.2v74.4
				C127,106.8,122.8,110.9,117.8,110.9z M10.5,27.3v74.4h107.3l0-74.4H10.5z"/>
		</g>
	</g>
</g>
</svg>
