<?xml version="1.0" encoding="utf-8"?>
<!-- Generator: Adobe Illustrator 16.2.1, SVG Export Plug-In . SVG Version: 6.00 Build 0)  -->
<!DOCTYPE svg PUBLIC "-//W3C//DTD SVG 1.1//EN" "http://www.w3.org/Graphics/SVG/1.1/DTD/svg11.dtd">
<svg version="1.1" xmlns="http://www.w3.org/2000/svg" xmlns:xlink="http://www.w3.org/1999/xlink" x="0px" y="0px" width="128px"
	 height="129px" viewBox="0 0 128 129" enable-background="new 0 0 128 129" xml:space="preserve">
<g id="Layer_3">
</g>
<g id="Layer_2">
	<path d="M64.44,24.315c0.134,0,0.387,0.045,0.491,0.067c0.775,0.022,1.7,0.432,2.421,1.11l19.352,19.389
		c0.03,0.052,0.053,0.089,0.089,0.119l13.011,13.025c1.602,1.609,1.625,4.203,0.038,5.805l-4.39,4.381
		c-1.534,1.543-4.248,1.528-5.789,0L64.44,42.958L39.336,68.055c-1.558,1.55-4.271,1.558-5.783,0l-4.381-4.366
		c-1.595-1.595-1.58-4.203,0.015-5.812L42.07,45c0.015-0.03,0.037-0.067,0.075-0.119l19.373-19.389
		c0.708-0.679,1.632-1.088,2.399-1.11c0.126-0.022,0.38-0.067,0.499-0.067H64.44L64.44,24.315z"/>
</g>
</svg>
