<?xml version="1.0" encoding="utf-8"?>
<!-- Generator: Adobe Illustrator 19.2.1, SVG Export Plug-In . SVG Version: 6.00 Build 0)  -->
<svg version="1.1" id="Layer_1" xmlns="http://www.w3.org/2000/svg" xmlns:xlink="http://www.w3.org/1999/xlink" x="0px" y="0px"
	 viewBox="0 0 128 129" style="enable-background:new 0 0 128 129;" xml:space="preserve">
<g id="Layer_3">
</g>
<g id="Layer_2">
	<path d="M64.1,87c-0.1,0-0.4,0-0.5-0.1c-0.8,0-1.7-0.4-2.4-1.1L41.8,66.5c0-0.1-0.1-0.1-0.1-0.1l-13-13c-1.6-1.6-1.6-4.2,0-5.8
		l4.4-4.4c1.5-1.5,4.2-1.5,5.8,0l25.2,25.2l25.1-25.1c1.6-1.5,4.3-1.5,5.8,0l4.4,4.4c1.6,1.6,1.6,4.2,0,5.8L86.4,66.3
		c0,0,0,0.1-0.1,0.1L67,85.8c-0.7,0.7-1.6,1.1-2.4,1.1C64.5,87,64.2,87,64.1,87L64.1,87C64.1,87,64.1,87,64.1,87z"/>
</g>
</svg>
