<?xml version="1.0" encoding="utf-8"?>
<!-- Generator: Adobe Illustrator 19.2.1, SVG Export Plug-In . SVG Version: 6.00 Build 0)  -->
<svg version="1.1" id="Layer_1" xmlns="http://www.w3.org/2000/svg" xmlns:xlink="http://www.w3.org/1999/xlink" x="0px" y="0px"
	 viewBox="0 0 128 129" style="enable-background:new 0 0 128 129;" xml:space="preserve">
<g id="Layer_3">
</g>
<g id="Layer_2">
	<path d="M41.5,64.6c0-0.1,0-0.4,0.1-0.5c0-0.8,0.4-1.7,1.1-2.4L62,42.3c0.1,0,0.1,0,0.1-0.1l13-13c1.6-1.6,4.2-1.6,5.8,0l4.4,4.4
		c1.5,1.5,1.5,4.2,0,5.8L60.1,64.6l25.1,25.1c1.5,1.6,1.5,4.3,0,5.8l-4.4,4.4c-1.6,1.6-4.2,1.6-5.8,0L62.2,86.9c0,0-0.1,0-0.1-0.1
		L42.7,67.5c-0.7-0.7-1.1-1.6-1.1-2.4C41.5,65,41.5,64.7,41.5,64.6L41.5,64.6C41.5,64.6,41.5,64.6,41.5,64.6z"/>
</g>
</svg>
