<?xml version="1.0" encoding="utf-8"?>
<!-- Generator: Adobe Illustrator 19.2.1, SVG Export Plug-In . SVG Version: 6.00 Build 0)  -->
<svg version="1.1" id="Layer_1" xmlns="http://www.w3.org/2000/svg" xmlns:xlink="http://www.w3.org/1999/xlink" x="0px" y="0px"
	 viewBox="0 0 128 129" style="enable-background:new 0 0 128 129;" xml:space="preserve">
<g id="Layer_3">
</g>
<g id="Layer_2">
	<path d="M64.4,42c0.1,0,0.4,0,0.5,0.1c0.8,0,1.7,0.4,2.4,1.1l19.4,19.4c0,0.1,0.1,0.1,0.1,0.1l13,13c1.6,1.6,1.6,4.2,0,5.8
		l-4.4,4.4c-1.5,1.5-4.2,1.5-5.8,0L64.4,60.6L39.3,85.7c-1.6,1.6-4.3,1.6-5.8,0l-4.4-4.4c-1.6-1.6-1.6-4.2,0-5.8l12.9-12.9
		c0,0,0-0.1,0.1-0.1l19.4-19.4c0.7-0.7,1.6-1.1,2.4-1.1C64,42,64.3,42,64.4,42L64.4,42L64.4,42z"/>
</g>
</svg>
