<?xml version="1.0" encoding="utf-8"?>
<!-- Generator: Adobe Illustrator 19.2.1, SVG Export Plug-In . SVG Version: 6.00 Build 0)  -->
<svg version="1.1" id="Layer_1" xmlns="http://www.w3.org/2000/svg" xmlns:xlink="http://www.w3.org/1999/xlink" x="0px" y="0px"
	 viewBox="0 0 128 129" style="enable-background:new 0 0 128 129;" xml:space="preserve">
<g id="Layer_3">
</g>
<g id="Layer_2">
	<path d="M57.5,79.8c-2.5,13-5.5,25.6-14.6,32.1c-2.8-19.7,4.1-34.6,7.3-50.3c-5.5-9.1,0.6-27.5,12.1-23c14.1,5.6-12.2,34,5.4,37.6
		c18.5,3.7,26-32,14.6-43.6c-16.5-16.8-48.1-0.4-44.2,23.6c0.9,5.8,7,7.6,2.5,15.8c-10.7-2.4-13.8-10.7-13.4-21.8
		c0.6-18.2,16.3-30.9,32.1-32.7c19.9-2.2,38.6,7.3,41.2,26.1c2.9,21.2-9,44-30.3,42.4C64.4,85.4,61.9,82.5,57.5,79.8z"/>
</g>
</svg>
