<?xml version="1.0" encoding="utf-8"?>
<!-- Generator: Adobe Illustrator 19.2.1, SVG Export Plug-In . SVG Version: 6.00 Build 0)  -->
<svg version="1.1" id="Layer_1" xmlns="http://www.w3.org/2000/svg" xmlns:xlink="http://www.w3.org/1999/xlink" x="0px" y="0px"
	 viewBox="0 0 128 129" style="enable-background:new 0 0 128 129;" xml:space="preserve">
<g id="Layer_3">
</g>
<g id="Layer_2">
	<path d="M100.6,61.4c0-2.2-1.9-4.1-4.1-4.1l-20.2,0h-5h-0.1v-0.1v-5V32c0-2.2-1.8-4.1-4.1-4.1l-6.2,0c-2.2,0-4.1,1.9-4.1,4.1v20.2
		v5v0.1H31.5c-2.2,0-4.1,1.8-4.1,4.1l0,6.2c0,2.2,1.9,4.1,4.1,4.1h25.3V97c0,2.3,1.9,4.1,4.1,4.1l6.2,0c2.2,0,4.1-1.9,4.1-4.1V71.7
		h0.1h5h20.2c2.2,0,4.1-1.8,4.1-4.1L100.6,61.4z"/>
</g>
</svg>
