<?xml version="1.0" encoding="utf-8"?>
<!-- Generator: Adobe Illustrator 25.3.1, SVG Export Plug-In . SVG Version: 6.00 Build 0)  -->
<svg version="1.1" id="Layer_1" xmlns="http://www.w3.org/2000/svg" xmlns:xlink="http://www.w3.org/1999/xlink" x="0px" y="0px"
	 viewBox="0 0 32 32" style="enable-background:new 0 0 32 32;" xml:space="preserve">
<g>
	<path d="M16,0C7.2,0,0,7.2,0,16s7.2,16,16,16s16-7.2,16-16S24.8,0,16,0z M16,26c-1.1,0-2-0.9-2-2s0.9-2,2-2s2,0.9,2,2
		S17.1,26,16,26z M20.9,14.4c-1,1.1-2.7,2.1-3.4,3.1c-0.4,0.6-0.4,1.3-0.4,1.9h-2.4c0-0.7-0.1-1.8,0.5-2.8c0.3-0.6,0.9-1.2,1.7-1.8
		c1.6-1.3,2.3-1.9,2.3-3.3c0-1.5-1.1-2.1-2.6-2.1c-1,0-2.1,0.2-4.1,1.1l-1-2.1C13.2,7.5,15,7,16.8,7c1.6,0,2.8,0.4,3.8,1.2
		S22,10,22,11.4C22,12.5,21.7,13.4,20.9,14.4z"/>
</g>
</svg>
