<?xml version="1.0" encoding="utf-8"?>
<!-- Generator: Adobe Illustrator 19.2.1, SVG Export Plug-In . SVG Version: 6.00 Build 0)  -->
<svg version="1.1" id="Layer_1" xmlns="http://www.w3.org/2000/svg" xmlns:xlink="http://www.w3.org/1999/xlink" x="0px" y="0px"
	 viewBox="0 0 128 129" style="enable-background:new 0 0 128 129;" xml:space="preserve">
<g id="Layer_3">
</g>
<g id="Layer_2">
	<path d="M124,92.1H4c-2.1,0-3.9,1.7-3.9,3.9v9c0,2.1,1.8,3.9,3.9,3.9h120c2.1,0,3.9-1.7,3.9-3.9v-9C127.9,93.8,126.1,92.1,124,92.1
		z"/>
	<path d="M124,53.8H4c-2.1,0-3.9,1.7-3.9,3.9v9c0,2.1,1.8,3.9,3.9,3.9h120c2.1,0,3.9-1.8,3.9-3.9v-9C127.9,55.5,126.1,53.8,124,53.8
		z"/>
	<path d="M124,15.4H4c-2.1,0-3.9,1.7-3.9,3.9v9c0,2.1,1.8,3.9,3.9,3.9h120c2.1,0,3.9-1.7,3.9-3.9v-9C127.9,17.1,126.1,15.4,124,15.4
		z"/>
</g>
</svg>
