<?xml version="1.0" encoding="utf-8"?>
<!-- Generator: Adobe Illustrator 16.2.1, SVG Export Plug-In . SVG Version: 6.00 Build 0)  -->
<!DOCTYPE svg PUBLIC "-//W3C//DTD SVG 1.1//EN" "http://www.w3.org/Graphics/SVG/1.1/DTD/svg11.dtd">
<svg version="1.1" xmlns="http://www.w3.org/2000/svg" xmlns:xlink="http://www.w3.org/1999/xlink" x="0px" y="0px" width="128px"
	 height="129px" viewBox="0 0 128 129" enable-background="new 0 0 128 129" xml:space="preserve">
<g id="Layer_3">
</g>
<g id="Layer_2">
	<path d="M123.977,83.718H4.023c-2.129,0-3.882,1.736-3.882,3.876v9.024c0,2.135,1.753,3.882,3.882,3.882h119.954
		c2.141,0,3.882-1.748,3.882-3.882v-9.024C127.859,85.454,126.118,83.718,123.977,83.718z"/>
	<path d="M123.977,45.381H4.023c-2.129,0-3.882,1.725-3.882,3.877v9.001c0,2.135,1.753,3.888,3.882,3.888h119.954
		c2.141,0,3.882-1.753,3.882-3.888v-9.001C127.859,47.106,126.118,45.381,123.977,45.381z"/>
	<path d="M123.977,7.04H4.023c-2.129,0-3.882,1.73-3.882,3.877v9.001c0,2.135,1.753,3.877,3.882,3.877h119.954
		c2.141,0,3.882-1.742,3.882-3.877v-9.001C127.859,8.77,126.118,7.04,123.977,7.04z"/>
</g>
</svg>
