<?xml version="1.0" encoding="utf-8"?>
<!-- Generator: Adobe Illustrator 19.2.1, SVG Export Plug-In . SVG Version: 6.00 Build 0)  -->
<svg version="1.1" id="Layer_1" xmlns="http://www.w3.org/2000/svg" xmlns:xlink="http://www.w3.org/1999/xlink" x="0px" y="0px"
	 viewBox="0 0 128 129" style="enable-background:new 0 0 128 129;" xml:space="preserve">
<g id="Layer_3">
</g>
<g id="Layer_2">
	<g>
		<g>
			<g>
				<path d="M108.3,105.3H92.5c0-18.6-7.2-36-20.3-49.1C59,43,41.5,35.8,22.9,35.8V19.9c22.8,0,44.3,8.9,60.4,25
					C99.4,61,108.3,82.5,108.3,105.3z"/>
			</g>
		</g>
		<g>
			<g>
				<path d="M79.2,105.3H63.3c0-10.8-4.2-21-11.8-28.5c-7.6-7.6-17.8-11.8-28.6-11.8V49.1c15,0,29.1,5.8,39.8,16.5
					C73.3,76.1,79.2,90.3,79.2,105.3z"/>
			</g>
		</g>
		<path d="M45.8,94.1c0,6.4-5.2,11.6-11.6,11.6c-6.4,0-11.7-5.2-11.7-11.6c0-6.4,5.2-11.6,11.7-11.6C40.6,82.4,45.8,87.6,45.8,94.1z
			"/>
	</g>
</g>
</svg>
