<?xml version="1.0" encoding="utf-8"?>
<!-- Generator: Adobe Illustrator 19.2.1, SVG Export Plug-In . SVG Version: 6.00 Build 0)  -->
<svg version="1.1" id="Layer_1" xmlns="http://www.w3.org/2000/svg" xmlns:xlink="http://www.w3.org/1999/xlink" x="0px" y="0px"
	 viewBox="0 0 128 129" style="enable-background:new 0 0 128 129;" xml:space="preserve">
<g id="Layer_3">
</g>
<g id="Layer_2">
	<path d="M106.6,103.2l-4.2-4.2l-2.9-2.9l-8.3-8.3l-11-11c5-6.3,8-14.3,8-23c0-20.6-16.8-37.4-37.4-37.4
		c-20.6,0-37.4,16.8-37.4,37.4c0,20.6,16.8,37.4,37.4,37.4c7.7,0,14.9-2.4,20.9-6.4l11.3,11.3l8.3,8.3l2.9,2.9l4.1,4.2
		c1.3,1.3,3.4,1.3,4.7,0l3.5-3.6C107.9,106.7,107.9,104.5,106.6,103.2z M23.8,53.9C23.8,39,36,26.8,50.9,26.8
		C65.9,26.8,78,39,78,53.9C78,68.8,65.9,81,50.9,81C36,81,23.8,68.8,23.8,53.9z"/>
</g>
</svg>
