<?xml version="1.0" encoding="utf-8"?>
<!-- Generator: Adobe Illustrator 25.3.1, SVG Export Plug-In . SVG Version: 6.00 Build 0)  -->
<svg version="1.1" id="Layer_1" xmlns="http://www.w3.org/2000/svg" xmlns:xlink="http://www.w3.org/1999/xlink" x="0px" y="0px"
	 viewBox="0 0 32 32" style="enable-background:new 0 0 32 32;" xml:space="preserve">
<g>
	<g>
		<path d="M16,21c-2.8,0-5-2.2-5-5s2.2-5,5-5s5,2.2,5,5S18.8,21,16,21z M16,13c-1.7,0-3,1.3-3,3s1.3,3,3,3s3-1.3,3-3S17.7,13,16,13z
			"/>
	</g>
	<g>
		<path d="M19.9,32h-7.8l-0.5-4.9c-1.1-0.4-2.1-1-3-1.7l-4.5,2l-3.9-6.8l3.9-2.9c-0.2-1.2-0.2-2.3,0-3.5l-3.9-2.9l3.9-6.8l4.5,2
			c0.9-0.7,1.9-1.3,3-1.7L12.1,0h7.8l0.5,4.9c1.1,0.4,2.1,1,3,1.7l4.5-2l3.9,6.8l-3.9,2.9C28,14.8,28,15.4,28,16
			c0,0.6,0,1.2-0.1,1.7l3.9,2.9l-3.9,6.8l-4.5-2c-0.9,0.7-1.9,1.3-3,1.7L19.9,32z M13.9,30h4.2l0.5-4.3l0.6-0.2
			c1.3-0.4,2.4-1.1,3.4-2l0.5-0.4l4,1.8l2.1-3.6l-3.5-2.6l0.1-0.6c0.1-0.7,0.2-1.3,0.2-2s-0.1-1.3-0.2-2l-0.1-0.6l3.5-2.6l-2.1-3.6
			l-4,1.8l-0.5-0.4c-1-0.9-2.1-1.5-3.4-2l-0.6-0.2L18.1,2h-4.2l-0.5,4.3l-0.6,0.2c-1.3,0.4-2.4,1.1-3.4,2L8.9,8.9l-4-1.8l-2.1,3.6
			l3.5,2.6L6.2,14c-0.3,1.3-0.3,2.6,0,4l0.1,0.6l-3.5,2.6l2.1,3.6l4-1.7l0.5,0.4c1,0.9,2.1,1.5,3.4,2l0.6,0.2L13.9,30z"/>
	</g>
</g>
</svg>
