<?xml version="1.0" encoding="utf-8"?>
<!-- Generator: Adobe Illustrator 16.2.1, SVG Export Plug-In . SVG Version: 6.00 Build 0)  -->
<!DOCTYPE svg PUBLIC "-//W3C//DTD SVG 1.1//EN" "http://www.w3.org/Graphics/SVG/1.1/DTD/svg11.dtd">
<svg version="1.1" xmlns="http://www.w3.org/2000/svg" xmlns:xlink="http://www.w3.org/1999/xlink" x="0px" y="0px" width="128px"
	 height="129px" viewBox="0 0 128 129" enable-background="new 0 0 128 129" xml:space="preserve">
<g id="Layer_3">
</g>
<g id="Layer_2">
	<g>
		<g>
			<g>
				<path d="M64.003,75.293c-9.668,0-17.534-7.868-17.534-17.536c0-9.666,7.866-17.535,17.534-17.535
					c9.667,0,17.533,7.87,17.533,17.535C81.536,67.425,73.67,75.293,64.003,75.293z M64.003,47.611
					c-5.602,0-10.147,4.554-10.147,10.146c0,5.602,4.545,10.156,10.147,10.156c5.596,0,10.147-4.554,10.147-10.156
					C74.15,52.165,69.599,47.611,64.003,47.611z"/>
			</g>
		</g>
		<g>
			<path d="M70.046,108.045H57.962c-4.133,0-7.498-3.364-7.498-7.499v-2.902c-5.835-1.973-11.156-5.202-15.573-9.438l-2.574,1.348
				c-3.618,1.873-8.278,0.347-10.112-3.198l-5.589-10.699c-1.905-3.675-0.475-8.212,3.188-10.121l2.679-1.394
				c-0.632-4.217-0.62-8.534,0.039-12.746l-2.714-1.422c-1.768-0.912-3.085-2.473-3.687-4.389c-0.6-1.907-0.433-3.928,0.489-5.707
				l5.604-10.729c1.845-3.536,6.535-5.027,10.096-3.18l2.757,1.431c4.431-4.224,9.673-7.398,15.397-9.36v-3.075
				c0-4.128,3.365-7.486,7.498-7.486h12.084c4.129,0,7.491,3.358,7.491,7.486v2.993c5.824,1.951,11.146,5.142,15.571,9.35
				l2.573-1.335c3.588-1.866,8.259-0.363,10.106,3.181l5.598,10.711c0.923,1.788,1.096,3.812,0.496,5.723
				c-0.604,1.912-1.919,3.472-3.7,4.391l-2.557,1.343c0.655,4.253,0.655,8.618,0,12.874l2.574,1.339
				c3.662,1.915,5.084,6.451,3.19,10.114l-5.596,10.718c-1.83,3.531-6.526,5.045-10.092,3.194l-2.604-1.361
				c-4.541,4.322-9.814,7.504-15.56,9.443v2.902C77.537,104.681,74.175,108.045,70.046,108.045z M58.584,99.926H69.42v-5.305
				c0-1.853,1.253-3.467,3.047-3.937c5.875-1.503,11.212-4.529,15.458-8.753c0.06-0.075,0.126-0.147,0.199-0.217
				c0.256-0.255,0.485-0.524,0.715-0.786l0.392-0.448c1.242-1.383,3.254-1.761,4.909-0.895l4.74,2.474l5.012-9.612L99.195,70
				c-1.646-0.859-2.504-2.718-2.079-4.524c1.18-5.048,1.18-10.387,0-15.438c-0.425-1.806,0.432-3.663,2.077-4.521l4.698-2.452
				l-5.046-9.663l-4.703,2.526c-1.637,0.852-3.644,0.5-4.883-0.875l-0.464-0.521c-0.221-0.256-0.442-0.514-0.687-0.75
				c-4.284-4.286-9.689-7.35-15.625-8.847c-1.801-0.46-3.061-2.083-3.061-3.941v-5.389H58.584v5.444
				c0,1.848-1.242,3.464-3.032,3.934c-5.854,1.524-11.18,4.572-15.405,8.797c-0.037,0.04-0.074,0.076-0.114,0.117l0.006,0.005
				c-0.214,0.209-0.415,0.445-0.616,0.674l-0.525,0.587c-1.246,1.361-3.241,1.713-4.876,0.856l-4.898-2.555l-5.013,9.602
				l4.846,2.528c1.643,0.858,2.497,2.721,2.077,4.528c-1.176,5.006-1.194,10.31-0.05,15.329c0.405,1.799-0.451,3.651-2.087,4.502
				l-4.789,2.498l5.043,9.667l4.718-2.536c1.659-0.86,3.674-0.488,4.914,0.9l0.413,0.481c0.266,0.296,0.53,0.607,0.815,0.894
				c4.269,4.271,9.622,7.317,15.526,8.83c1.796,0.469,3.046,2.083,3.046,3.937V99.926z"/>
		</g>
	</g>
</g>
</svg>
