<?xml version="1.0" encoding="utf-8"?>
<!-- Generator: Adobe Illustrator 19.2.1, SVG Export Plug-In . SVG Version: 6.00 Build 0)  -->
<svg version="1.1" id="Layer_1" xmlns="http://www.w3.org/2000/svg" xmlns:xlink="http://www.w3.org/1999/xlink" x="0px" y="0px"
	 viewBox="0 0 128 129" style="enable-background:new 0 0 128 129;" xml:space="preserve">
<g id="Layer_3">
</g>
<g id="Layer_2">
	<path d="M107,31.4c4-2.8,7.7-6.7,11.1-11.4c-4.1,1.7-8.4,2.9-12.8,3.5c4.7-2.8,7.9-6.8,9.5-12.3c-4.3,2.5-9,4.3-13.9,5.5
		c-4.3-4.7-9.6-7-16-7c-6.1,0-11.4,2.3-15.7,6.5c-4.2,4.2-6.4,9.5-6.4,15.8c0,1.9,0.3,3.6,0.5,5c-9.1-0.5-17.6-2.8-25.6-6.8
		s-14.9-9.6-20.4-16.6c-2,3.6-2.9,7.3-2.9,11.2s0.9,7.3,2.7,10.6c1.8,3.3,4.2,5.9,7.1,7.9c-3.5,0-6.8-0.9-10-2.8v0.3
		c0,5.3,1.6,10,5,14s7.6,6.7,12.8,7.8c-1.6,0.5-3.5,0.7-5.9,0.7c-1.4,0-2.8-0.1-4.2-0.4c1.4,4.4,4,8,7.8,10.8
		c3.9,2.8,8.1,4.2,12.9,4.3c-8.7,6.7-17.9,10.1-27.6,10.1c-0.8,0-2.4-0.1-5.2-0.4c10,6.5,21.4,9.8,33.9,9.8c7.9,0,15.2-1.3,22.2-3.7
		s12.8-5.9,17.8-10c5-4.2,9-9.2,12.6-14.7c3.5-5.5,6.1-11.2,7.9-17.1s2.5-11.9,2.5-17.8V31.4L107,31.4z"/>
</g>
</svg>
