<?xml version="1.0" encoding="utf-8"?>
<!-- Generator: Adobe Illustrator 19.2.1, SVG Export Plug-In . SVG Version: 6.00 Build 0)  -->
<svg version="1.1" id="Layer_1" xmlns="http://www.w3.org/2000/svg" xmlns:xlink="http://www.w3.org/1999/xlink" x="0px" y="0px"
	 viewBox="0 0 128 129" style="enable-background:new 0 0 128 129;" xml:space="preserve">
<g id="Layer_3">
</g>
<g id="Layer_2">
	<path d="M101,45.5c3.4-2.4,6.6-5.7,9.5-9.8c-3.5,1.5-7.2,2.5-11,3c4-2.4,6.8-5.9,8.2-10.6c-3.7,2.2-7.7,3.7-11.9,4.7
		c-3.7-4-8.3-6-13.8-6c-5.3,0-9.8,1.9-13.5,5.6c-3.7,3.7-5.5,8.2-5.5,13.6c0,1.6,0.2,3.1,0.5,4.3c-7.8-0.4-15.2-2.4-22-5.9
		c-6.8-3.5-12.7-8.3-17.5-14.2c-1.7,3.1-2.5,6.3-2.5,9.6c0,3.3,0.8,6.3,2.3,9.1c1.5,2.8,3.6,5,6.1,6.8c-3,0-5.9-0.8-8.6-2.4v0.2
		c0,4.6,1.4,8.6,4.3,12.1c2.9,3.5,6.5,5.7,11,6.7c-1.4,0.4-3,0.6-5,0.6c-1.2,0-2.4-0.1-3.6-0.3c1.2,3.8,3.4,6.9,6.7,9.3
		c3.3,2.4,7,3.6,11.1,3.7c-7.5,5.8-15.4,8.7-23.7,8.7c-0.7,0-2.1-0.1-4.5-0.3c8.6,5.6,18.4,8.4,29.2,8.4c6.8,0,13.1-1.1,19.1-3.2
		s11-5,15.3-8.6S88.9,82.7,92,78c3-4.7,5.3-9.6,6.8-14.7c1.5-5.1,2.2-10.2,2.2-15.3L101,45.5L101,45.5z"/>
</g>
</svg>
