<?xml version="1.0" encoding="utf-8"?>
<!-- Generator: Adobe Illustrator 19.2.1, SVG Export Plug-In . SVG Version: 6.00 Build 0)  -->
<svg version="1.1" id="Layer_1" xmlns="http://www.w3.org/2000/svg" xmlns:xlink="http://www.w3.org/1999/xlink" x="0px" y="0px"
	 viewBox="0 0 128 129" style="enable-background:new 0 0 128 129;" xml:space="preserve">
<g id="Layer_3">
</g>
<g id="Layer_2">
	<path d="M116.7,39.9c-6,34.1-39.2,63-49.2,69.7c-10,6.6-19.1-2.6-22.4-9.7C41.3,92,29.9,48.7,27,45.1c-3-3.6-11.9,3.6-11.9,3.6
		l-4.3-5.8c0,0,18.1-22,31.9-24.8c14.6-2.9,14.6,22.9,18.1,37.2c3.4,13.8,5.7,21.7,8.6,21.7s8.6-7.7,14.9-19.6
		c6.3-11.8-0.3-22.3-12.4-14.9C76.7,12.9,122.6,5.8,116.7,39.9z"/>
</g>
</svg>
