<?xml version="1.0" encoding="utf-8"?>
<!-- Generator: Adobe Illustrator 19.2.1, SVG Export Plug-In . SVG Version: 6.00 Build 0)  -->
<svg version="1.1" id="Layer_1" xmlns="http://www.w3.org/2000/svg" xmlns:xlink="http://www.w3.org/1999/xlink" x="0px" y="0px"
	 viewBox="0 0 128 129" style="enable-background:new 0 0 128 129;" xml:space="preserve">
<g id="Layer_3">
</g>
<g id="Layer_2">
	<path d="M101.3,64.3C99.2,64.8,97,65,95.2,65c-10.6,0-18.8-7.4-18.8-20.3c0-6.3,2.5-9.6,5.9-9.6c3.3,0,5.5,2.9,5.5,8.9
		c0,3.4-0.9,7.1-1.6,9.4c0,0,3.2,5.7,12.2,4c1.9-4.2,2.9-9.7,2.9-14.4c0-12.8-6.6-20.4-18.6-20.4c-12.4,0-19.6,9.5-19.6,22
		c0,12.4,5.8,23.1,15.4,27.9c-4,8.1-9.2,15.2-14.5,20.5c-9.7-11.7-18.5-27.3-22-57.9H27.7c6.6,50.8,26.3,67,31.5,70.1
		c2.9,1.7,5.5,1.7,8.2,0.2c4.2-2.4,16.9-15.1,23.9-30c2.9,0,6.5-0.3,10.1-1.1L101.3,64.3L101.3,64.3z"/>
</g>
</svg>
