<?xml version="1.0" encoding="utf-8"?>
<!-- Generator: Adobe Illustrator 25.3.1, SVG Export Plug-In . SVG Version: 6.00 Build 0)  -->
<svg version="1.1" id="Layer_1" xmlns="http://www.w3.org/2000/svg" xmlns:xlink="http://www.w3.org/1999/xlink" x="0px" y="0px"
	 viewBox="0 0 32 32" style="enable-background:new 0 0 32 32;" xml:space="preserve">
<g>
	<g>
		<path d="M16,28c-2.2,0-4-1.8-4-4s1.8-4,4-4c2.2,0,4,1.8,4,4S18.2,28,16,28z M16,22c-1.1,0-2,0.9-2,2s0.9,2,2,2c1.1,0,2-0.9,2-2
			S17.1,22,16,22z"/>
	</g>
	<g>
		<path d="M23.8,17.6l-0.7-0.7C21.2,15,18.7,14,16,14c-2.7,0-5.2,1.1-7.1,2.9l-0.7,0.7l-1.4-1.4l0.7-0.7C9.7,13.3,12.8,12,16,12
			c3.2,0,6.3,1.2,8.5,3.5l0.7,0.7L23.8,17.6z"/>
	</g>
	<g>
		<path d="M29.6,12l-0.7-0.7C25.4,7.9,20.8,6,16,6S6.6,7.9,3.1,11.3L2.4,12L1,10.6l0.7-0.7C5.6,6.1,10.7,4,16,4
			c5.3,0,10.4,2.1,14.3,5.9l0.7,0.7L29.6,12z"/>
	</g>
</g>
</svg>
