<?xml version="1.0" encoding="utf-8"?>
<!-- Generator: Adobe Illustrator 19.2.1, SVG Export Plug-In . SVG Version: 6.00 Build 0)  -->
<svg version="1.1" id="Layer_1" xmlns="http://www.w3.org/2000/svg" xmlns:xlink="http://www.w3.org/1999/xlink" x="0px" y="0px"
	 viewBox="0 0 128 129" style="enable-background:new 0 0 128 129;" xml:space="preserve">
<g id="Layer_3">
</g>
<g id="Layer_2">
	<path d="M65.2,14.5c-27.6,0-50,22.4-50,50c0,27.6,22.4,50,50,50c27.6,0,50-22.4,50-50C115.1,36.9,92.7,14.5,65.2,14.5z M20.3,64.5
		c0-6.5,1.4-12.7,3.9-18.3l21.4,58.7C30.6,97.7,20.3,82.3,20.3,64.5z M65.2,109.5c-4.4,0-8.7-0.7-12.7-1.8L66,68.5l13.8,37.8
		c0.1,0.3,0.2,0.4,0.3,0.6C75.4,108.6,70.4,109.5,65.2,109.5z M71.3,43.4c2.7-0.2,5.2-0.4,5.2-0.4c2.4-0.3,2.2-3.8-0.3-3.7
		c0,0-7.2,0.6-12,0.6c-4.4,0-11.8-0.6-11.8-0.6c-2.4-0.2-2.7,3.6-0.3,3.7c0,0,2.3,0.3,4.7,0.4l7,19.2L54,92.1L37.7,43.4
		c2.7-0.2,5.2-0.4,5.2-0.4c2.4-0.3,2.2-3.8-0.3-3.7c0,0-7.2,0.6-12,0.6c-0.8,0-1.8,0-2.9-0.1c8-12.2,21.8-20.2,37.5-20.2
		c11.7,0,22.3,4.5,30.3,11.8c-0.2,0-0.4,0-0.6,0c-4.4,0-7.6,3.8-7.6,8c0,3.7,2.2,6.8,4.4,10.6c1.7,3,3.7,6.8,3.7,12.4
		c0,3.8-1.5,8.3-3.4,14.5l-4.5,15L71.3,43.4z M87.7,103.3l13.7-39.6c2.6-6.4,3.4-11.5,3.4-16.1c0-1.7-0.1-3.2-0.3-4.6
		c3.5,6.4,5.5,13.7,5.5,21.6C110.1,81.1,101.1,95.6,87.7,103.3z"/>
</g>
</svg>
