<?xml version="1.0" encoding="utf-8"?>
<!-- Generator: Adobe Illustrator 19.2.1, SVG Export Plug-In . SVG Version: 6.00 Build 0)  -->
<svg version="1.1" id="Layer_1" xmlns="http://www.w3.org/2000/svg" xmlns:xlink="http://www.w3.org/1999/xlink" x="0px" y="0px"
	 viewBox="0 0 128 129" style="enable-background:new 0 0 128 129;" xml:space="preserve">
<style type="text/css">
	.st0{fill:#282928;}
</style>
<g id="Layer_3">
</g>
<g id="Layer_2">
	<g id="Lozenge">
		<g>
			<path class="st0" d="M126.8,38.8c0,0-1.3-8.8-5.1-12.7c-4.9-5.1-10.4-5.1-12.8-5.4c-17.9-1.3-44.8-1.3-44.8-1.3h-0.1
				c0,0-26.9,0-44.8,1.3c-2.5,0.3-7.9,0.3-12.8,5.4C2.7,30,1.4,38.8,1.4,38.8S0,49.2,0,59.6v9.7c0,10.4,1.3,20.7,1.3,20.7
				s1.3,8.8,5.1,12.7c4.9,5.1,11.3,5,14.1,5.5c10.3,1,43.5,1.3,43.5,1.3s26.9,0,44.9-1.4c2.5-0.3,7.9-0.3,12.8-5.4
				c3.8-3.9,5.1-12.7,5.1-12.7s1.3-10.4,1.3-20.7v-9.7C128.1,49.2,126.8,38.8,126.8,38.8z M50.8,81.1v-36l34.6,18.1L50.8,81.1z"/>
		</g>
	</g>
</g>
</svg>
