<?xml version="1.0" encoding="utf-8"?>
<!-- Generated by IcoMoon.io -->
<!DOCTYPE svg PUBLIC "-//W3C//DTD SVG 1.1//EN" "http://www.w3.org/Graphics/SVG/1.1/DTD/svg11.dtd">
<svg version="1.1" xmlns="http://www.w3.org/2000/svg" xmlns:xlink="http://www.w3.org/1999/xlink" width="47" height="64" viewBox="0 0 47 64">
	<path d="M23.273 2.909q4.727 0 9.034 1.841t7.432 4.966 4.966 7.432 1.841 9.034-1.841 9.034-4.966 7.432-7.432 4.966-9.034 1.841-9.034-1.841-7.432-4.966-4.966-7.432-1.841-9.034 1.841-9.034 4.966-7.432 7.432-4.966 9.034-1.841zM13.568 32v-8.727q0-0.795-0.568-1.364t-1.364-0.568-1.364 0.568-0.568 1.364v8.727q0 0.795 0.568 1.364t1.364 0.568 1.364-0.568 0.568-1.364zM32 34.909v-12.614h-17.455v12.614q0 0.795 0.568 1.364t1.364 0.568h0.977v4.864q0 0.795 0.568 1.364t1.364 0.568q0.818 0 1.386-0.568t0.568-1.364v-4.864h3.864v4.864q0 0.795 0.568 1.364t1.386 0.568q0.795 0 1.364-0.568t0.568-1.364v-4.864h0.977q0.795 0 1.364-0.568t0.568-1.364zM14.545 21.341h17.455q0-2.25-1.057-4.182t-2.875-3.114l1.432-2.136q0.25-0.409-0.136-0.682-0.409-0.25-0.682 0.136l-1.455 2.182q-1.864-0.932-3.955-0.932t-3.955 0.932l-1.455-2.182q-0.273-0.386-0.682-0.136-0.386 0.273-0.136 0.682l1.432 2.136q-1.818 1.182-2.875 3.114t-1.057 4.182zM36.841 32v-8.727q0-0.795-0.568-1.364t-1.364-0.568-1.364 0.568-0.568 1.364v8.727q0 0.795 0.568 1.364t1.364 0.568 1.364-0.568 0.568-1.364zM20.364 17.455q0-0.409-0.284-0.693t-0.693-0.284q-0.386 0-0.67 0.284t-0.284 0.693 0.284 0.693 0.67 0.284q0.409 0 0.693-0.284t0.284-0.693zM28.114 17.455q0-0.409-0.284-0.693t-0.67-0.284q-0.409 0-0.693 0.284t-0.284 0.693 0.284 0.693 0.693 0.284q0.386 0 0.67-0.284t0.284-0.693z" />
</svg>
