<?xml version="1.0" encoding="utf-8"?>
<!-- Generated by IcoMoon.io -->
<!DOCTYPE svg PUBLIC "-//W3C//DTD SVG 1.1//EN" "http://www.w3.org/Graphics/SVG/1.1/DTD/svg11.dtd">
<svg version="1.1" xmlns="http://www.w3.org/2000/svg" xmlns:xlink="http://www.w3.org/1999/xlink" width="47" height="64" viewBox="0 0 47 64">
	<path d="M18.424 2.909h9.697q0.431 0 0.7 0.269t0.269 0.7v44.606q0 0.431-0.269 0.7t-0.7 0.269h-9.697q-0.431 0-0.7-0.269t-0.269-0.7v-44.606q0-0.431 0.269-0.7t0.7-0.269zM0.97 26.182h9.697q0.431 0 0.7 0.269t0.269 0.7v21.333q0 0.431-0.269 0.7t-0.7 0.269h-9.697q-0.431 0-0.7-0.269t-0.269-0.7v-21.333q0-0.431 0.269-0.7t0.7-0.269zM35.879 14.545h9.697q0.431 0 0.7 0.269t0.269 0.7v32.97q0 0.431-0.269 0.7t-0.7 0.269h-9.697q-0.431 0-0.7-0.269t-0.269-0.7v-32.97q0-0.431 0.269-0.7t0.7-0.269z" />
</svg>
