<?xml version="1.0" encoding="utf-8"?>
<!-- Generated by IcoMoon.io -->
<!DOCTYPE svg PUBLIC "-//W3C//DTD SVG 1.1//EN" "http://www.w3.org/Graphics/SVG/1.1/DTD/svg11.dtd">
<svg version="1.1" xmlns="http://www.w3.org/2000/svg" xmlns:xlink="http://www.w3.org/1999/xlink" width="47" height="64" viewBox="0 0 47 64">
	<path d="M32.75 24.182q1.364 0 2.273 0.852t0.909 2.125h-6.409q0.136-1.295 0.966-2.136t2.261-0.841zM32.75 24.182q1.364 0 2.273 0.852t0.909 2.125h-6.409q0.136-1.295 0.966-2.136t2.261-0.841zM23.273 2.909q4.75 0 9.057 1.841t7.42 4.955 4.955 7.42 1.841 9.057-1.841 9.057-4.955 7.42-7.42 4.955-9.057 1.841-9.057-1.841-7.42-4.955-4.955-7.42-1.841-9.057 1.841-9.057 4.955-7.42 7.42-4.955 9.057-1.841zM28.545 16.477v1.955h8.568v-1.955h-8.568zM16.636 35.886q2.023 0 3.5-0.5t2.284-1.375 1.182-1.886 0.375-2.216q0-1.068-0.318-1.943t-0.761-1.352-0.898-0.807-0.773-0.443l-0.318-0.091q1.182-0.614 1.705-1.432 0.705-1.045 0.705-2.614 0-2.432-1.636-3.773t-4.386-1.341h-9.545v19.773h8.886zM29.477 29.636h10.273v-0.932q0-3.568-1.818-5.58t-5.182-2.011q-3.136 0-5.091 1.955t-1.955 5.636q0 3.568 1.955 5.511t5.205 1.943q2.545 0 4.386-1.284t2.295-3.352h-3.773q-0.023 0.068-0.080 0.17t-0.284 0.386-0.523 0.5-0.807 0.386-1.102 0.17q-1.5 0-2.5-0.92t-1-2.58zM32.75 24.182q1.364 0 2.273 0.852t0.909 2.125h-6.409q0.136-1.295 0.966-2.136t2.261-0.841zM16.545 27.205q3.227 0 3.227 2.432 0 1.341-0.739 2.068t-2.557 0.727h-4.205v-5.227h4.273zM19.386 21.705q0 2.205-2.909 2.205h-4.205v-4.364h3.727q1.773 0 2.58 0.443t0.807 1.716z" />
</svg>
