<?xml version="1.0" encoding="utf-8"?>
<!-- Generated by IcoMoon.io -->
<!DOCTYPE svg PUBLIC "-//W3C//DTD SVG 1.1//EN" "http://www.w3.org/Graphics/SVG/1.1/DTD/svg11.dtd">
<svg version="1.1" xmlns="http://www.w3.org/2000/svg" xmlns:xlink="http://www.w3.org/1999/xlink" width="47" height="64" viewBox="0 0 47 64">
	<path d="M23.273 2.909q4.75 0 9.057 1.841t7.42 4.955 4.955 7.42 1.841 9.057-1.841 9.057-4.955 7.42-7.42 4.955-9.057 1.841-9.057-1.841-7.42-4.955-4.955-7.42-1.841-9.057 1.841-9.057 4.955-7.42 7.42-4.955 9.057-1.841zM36.841 31.023v-5.818q0-0.795-0.568-1.364t-1.364-0.568h-1.455q-0.614 0-1.034-0.568t-0.42-1.364q0-3.591-2.568-6.159t-6.159-2.568h-4.841q-3.636 0-6.182 2.557t-2.545 6.17v9.682q0 3.659 2.534 6.193t6.193 2.534h9.682q3.614 0 6.17-2.545t2.557-6.182zM28.114 29.091q0.818 0 1.386 0.568t0.568 1.364q0 0.818-0.568 1.386t-1.386 0.568h-9.682q-0.818 0-1.386-0.568t-0.568-1.386q0-0.795 0.568-1.364t1.386-0.568h9.682zM18.432 23.273q-0.818 0-1.386-0.568t-0.568-1.364q0-0.818 0.568-1.386t1.386-0.568h4.841q0.795 0 1.364 0.568t0.568 1.386q0 0.795-0.568 1.364t-1.364 0.568h-4.841z" />
</svg>
