<?xml version="1.0" encoding="utf-8"?>
<!-- Generated by IcoMoon.io -->
<!DOCTYPE svg PUBLIC "-//W3C//DTD SVG 1.1//EN" "http://www.w3.org/Graphics/SVG/1.1/DTD/svg11.dtd">
<svg version="1.1" xmlns="http://www.w3.org/2000/svg" xmlns:xlink="http://www.w3.org/1999/xlink" width="47" height="64" viewBox="0 0 47 64">
	<path d="M43.636 2.909q1.185 0 2.047 0.862t0.862 2.047v40.727q0 1.185-0.862 2.047t-2.047 0.862h-40.727q-1.185 0-2.047-0.862t-0.862-2.047v-40.727q0-1.185 0.862-2.047t2.047-0.862h3.879v5.818q0 1.185 0.862 2.047t2.047 0.862 2.047-0.862 0.862-2.047v-5.818h21.333v5.818q0 1.185 0.862 2.047t2.047 0.862 2.047-0.862 0.862-2.047v-5.818h3.879zM32.97 34.909v-5.818h-6.788v-6.788h-5.818v6.788h-6.788v5.818h6.788v6.788h5.818v-6.788h6.788z" />
</svg>
