<?xml version="1.0" encoding="utf-8"?>
<!-- Generated by IcoMoon.io -->
<!DOCTYPE svg PUBLIC "-//W3C//DTD SVG 1.1//EN" "http://www.w3.org/Graphics/SVG/1.1/DTD/svg11.dtd">
<svg version="1.1" xmlns="http://www.w3.org/2000/svg" xmlns:xlink="http://www.w3.org/1999/xlink" width="47" height="64" viewBox="0 0 47 64">
	<path d="M46.276 9.966l-2.64 2.64-6.788-6.788 2.64-2.64q0.7-0.7 1.347 0l5.441 5.441q0.7 0.646 0 1.347zM32 30.061v13.576h-26.182v-29.091h16.485l5.818-5.818h-22.303q-2.37 0-4.094 1.724t-1.724 4.094v29.091q0 2.37 1.724 4.094t4.094 1.724h26.182q2.37 0 4.094-1.724t1.724-4.094v-19.394zM33.939 8.727l-20.256 20.256q-0.162 0.162-0.162 0.269l-3.879 9.32-0.054 0.054q-0.162 0.539 0.269 0.97 0.269 0.323 0.646 0.323 0.054 0 0.162-0.027t0.162-0.027l0.054-0.054 9.32-3.879q0.108 0 0.269-0.162l20.256-20.256z" />
</svg>
