<?xml version="1.0" encoding="utf-8"?>
<!-- Generated by IcoMoon.io -->
<!DOCTYPE svg PUBLIC "-//W3C//DTD SVG 1.1//EN" "http://www.w3.org/Graphics/SVG/1.1/DTD/svg11.dtd">
<svg version="1.1" xmlns="http://www.w3.org/2000/svg" xmlns:xlink="http://www.w3.org/1999/xlink" width="47" height="64" viewBox="0 0 47 64">
	<path d="M23.273 2.909q9.643 0 16.458 6.815t6.815 16.458-6.815 16.458-16.458 6.815-16.458-6.815-6.815-16.458 6.815-16.458 16.458-6.815zM23.273 20.364l-3.771 19.502q-0.108 0.539-0.108 0.862 0 1.616 1.131 2.748t2.747 1.131 2.747-1.131 1.131-2.748v-20.364h-3.879zM35.879 26.182h5.818q0-7.65-5.387-13.037t-13.037-5.387q-7.488 0-12.875 5.252t-5.549 12.741q0.162-6.249 4.687-10.667t10.828-4.418q6.411 0 10.963 4.552t4.552 10.963z" />
</svg>
