<?xml version="1.0" encoding="utf-8"?>
<!-- Generated by IcoMoon.io -->
<!DOCTYPE svg PUBLIC "-//W3C//DTD SVG 1.1//EN" "http://www.w3.org/Graphics/SVG/1.1/DTD/svg11.dtd">
<svg version="1.1" xmlns="http://www.w3.org/2000/svg" xmlns:xlink="http://www.w3.org/1999/xlink" width="47" height="64" viewBox="0 0 47 64">
	<path d="M23.273 2.909q9.643 0 16.458 6.815t6.815 16.458-6.815 16.458-16.458 6.815-16.458-6.815-6.815-16.458 6.815-16.458 16.458-6.815zM26.182 40.512q3.717-0.593 6.222-2.667t2.505-5.845q0-2.963-1.293-4.822t-3.232-2.505-4.202-1.024-4.202-0.485-3.232-0.781-1.293-2.020q0-1.401 1.724-2.155t4.094-0.754q3.879 0 7.758 1.939l2.909-4.848q-2.801-2.101-7.758-2.748v-3.071h-5.818v3.125q-3.717 0.593-6.222 2.667t-2.505 5.845q0 2.963 1.293 4.822t3.232 2.505 4.202 1.024 4.202 0.485 3.232 0.781 1.293 2.020q0 1.401-1.724 2.155t-4.094 0.754q-3.879 0-7.758-1.939l-2.909 4.849q2.801 2.101 7.758 2.748v3.071h5.818v-3.125z" />
</svg>
