<?xml version="1.0" encoding="utf-8"?>
<!-- Generated by IcoMoon.io -->
<!DOCTYPE svg PUBLIC "-//W3C//DTD SVG 1.1//EN" "http://www.w3.org/Graphics/SVG/1.1/DTD/svg11.dtd">
<svg version="1.1" xmlns="http://www.w3.org/2000/svg" xmlns:xlink="http://www.w3.org/1999/xlink" width="47" height="64" viewBox="0 0 47 64">
	<path d="M42.667 49.455h-38.788q-0.431 0-0.7-0.269t-0.269-0.7v-5.818q0-0.431 0.269-0.7t0.7-0.269h38.788q0.431 0 0.7 0.269t0.269 0.7v5.818q0 0.431-0.269 0.7t-0.7 0.269zM43.367 18.155l-19.394 19.394q-0.377 0.269-0.7 0.269t-0.7-0.269l-19.394-19.394q-0.431-0.431-0.216-1.077 0.269-0.593 0.916-0.593h10.667v-12.606q0-0.431 0.269-0.7t0.7-0.269h15.515q0.431 0 0.7 0.269t0.269 0.7v12.606h10.667q0.646 0 0.916 0.593 0.215 0.646-0.215 1.077z" />
</svg>
