<?xml version="1.0" encoding="utf-8"?>
<!-- Generated by IcoMoon.io -->
<!DOCTYPE svg PUBLIC "-//W3C//DTD SVG 1.1//EN" "http://www.w3.org/Graphics/SVG/1.1/DTD/svg11.dtd">
<svg version="1.1" xmlns="http://www.w3.org/2000/svg" xmlns:xlink="http://www.w3.org/1999/xlink" width="47" height="64" viewBox="0 0 47 64">
	<path d="M22.682 18.636q-9.114 2.682-22.205 2.909 1.091-5.455 4.557-9.807t8.489-6.67q5.25 6.364 9.159 13.568zM6.136 41.977q-2.909-3.182-4.523-7.239t-1.614-8.557v-1.068q14.591-0.273 24.295-3.295 1.068 2.114 2.045 4.477-1.182 0.318-1.773 0.523-11.068 3.932-18.432 15.159zM32.432 47.568q-4.318 1.886-9.159 1.886-4 0-7.716-1.307t-6.716-3.693q7.409-11.705 18.795-14.886 3.136 8.318 4.795 18zM46.273 29.682q-0.727 4.909-3.409 9.045t-6.773 6.841q-1.659-9.114-4.523-16.795 7-1.023 14.705 0.909zM26.5 17.341q-3.909-7.318-9.045-13.682 2.955-0.75 5.818-0.75 4.409 0 8.398 1.568t7.125 4.409q-4.705 5.409-12.295 8.455zM46.545 26.068q-8.727-1.955-16.273-0.705-0.636-1.636-2.159-4.886 8-3.205 13.159-9.045 2.5 3.023 3.875 6.784t1.398 7.852z" />
</svg>
