<?xml version="1.0" encoding="utf-8"?>
<!-- Generated by IcoMoon.io -->
<!DOCTYPE svg PUBLIC "-//W3C//DTD SVG 1.1//EN" "http://www.w3.org/Graphics/SVG/1.1/DTD/svg11.dtd">
<svg version="1.1" xmlns="http://www.w3.org/2000/svg" xmlns:xlink="http://www.w3.org/1999/xlink" width="47" height="64" viewBox="0 0 47 64">
	<path d="M17.455 26.182q0-2.424 1.697-4.121t4.121-1.697 4.121 1.697 1.697 4.121-1.697 4.121-4.121 1.697-4.121-1.697-1.697-4.121zM0 26.182q0-2.424 1.697-4.121t4.121-1.697 4.121 1.697 1.697 4.121-1.697 4.121-4.121 1.697-4.121-1.697-1.697-4.121zM34.909 26.182q0-2.424 1.697-4.121t4.121-1.697 4.121 1.697 1.697 4.121-1.697 4.121-4.121 1.697-4.121-1.697-1.697-4.121z" />
</svg>
