<?xml version="1.0" encoding="utf-8"?>
<!-- Generated by IcoMoon.io -->
<!DOCTYPE svg PUBLIC "-//W3C//DTD SVG 1.1//EN" "http://www.w3.org/Graphics/SVG/1.1/DTD/svg11.dtd">
<svg version="1.1" xmlns="http://www.w3.org/2000/svg" xmlns:xlink="http://www.w3.org/1999/xlink" width="47" height="64" viewBox="0 0 47 64">
	<path d="M46.545 26.182q0 0.539-0.377 0.754l-27.151 22.303q-0.431 0.377-1.024 0.108-0.539-0.269-0.539-0.862v-12.283l-15.892 13.037q-0.431 0.377-1.024 0.108-0.539-0.269-0.539-0.862v-44.606q0-0.593 0.539-0.862 0.323-0.108 0.431-0.108 0.377 0 0.593 0.216l15.892 13.037v-12.283q0-0.593 0.539-0.862 0.323-0.108 0.431-0.108 0.377 0 0.593 0.216l27.151 22.303q0.377 0.323 0.377 0.754z" />
</svg>
