<?xml version="1.0" encoding="utf-8"?>
<!-- Generated by IcoMoon.io -->
<!DOCTYPE svg PUBLIC "-//W3C//DTD SVG 1.1//EN" "http://www.w3.org/Graphics/SVG/1.1/DTD/svg11.dtd">
<svg version="1.1" xmlns="http://www.w3.org/2000/svg" xmlns:xlink="http://www.w3.org/1999/xlink" width="47" height="64" viewBox="0 0 47 64">
	<path d="M46.545 46.545v1.939q0 0.431-0.269 0.7t-0.7 0.269h-44.606q-0.431 0-0.7-0.269t-0.269-0.7v-1.939q0-2.694 1.805-4.552t4.364-2.909 5.118-1.993 4.364-2.451 1.805-3.609q-2.586 0-4.768-0.97t-3.098-1.939l-0.862-0.97q0.108-0.054 0.296-0.269t0.7-1.104 0.889-2.155 0.7-3.69 0.323-5.387q0-4.795 3.421-8.216t8.216-3.421 8.216 3.421 3.421 8.216q0 2.963 0.296 5.36t0.727 3.69 0.862 2.155 0.7 1.131l0.323 0.269q-0.323 0.431-0.97 1.077t-2.909 1.724-4.849 1.077q0 2.101 1.805 3.609t4.364 2.451 5.118 1.993 4.364 2.909 1.805 4.552z" />
</svg>
