<?xml version="1.0" encoding="utf-8"?>
<!-- Generated by IcoMoon.io -->
<!DOCTYPE svg PUBLIC "-//W3C//DTD SVG 1.1//EN" "http://www.w3.org/Graphics/SVG/1.1/DTD/svg11.dtd">
<svg version="1.1" xmlns="http://www.w3.org/2000/svg" xmlns:xlink="http://www.w3.org/1999/xlink" width="47" height="64" viewBox="0 0 47 64">
	<path d="M45.576 2.909q0.431 0 0.7 0.269t0.269 0.7v27.151q0 0.431-0.269 0.7t-0.7 0.269h-12.606v-5.818h7.758v-17.455h-17.455v7.758h-5.818v-12.606q0-0.431 0.269-0.7t0.7-0.269h27.151zM28.121 49.455q0.431 0 0.7-0.269t0.269-0.7v-27.151q0-0.431-0.269-0.7t-0.7-0.269h-27.151q-0.431 0-0.7 0.269t-0.269 0.7v27.151q0 0.431 0.269 0.7t0.7 0.269h27.151z" />
</svg>
