<?xml version="1.0" encoding="utf-8"?>
<!-- Generated by IcoMoon.io -->
<!DOCTYPE svg PUBLIC "-//W3C//DTD SVG 1.1//EN" "http://www.w3.org/Graphics/SVG/1.1/DTD/svg11.dtd">
<svg version="1.1" xmlns="http://www.w3.org/2000/svg" xmlns:xlink="http://www.w3.org/1999/xlink" width="47" height="64" viewBox="0 0 47 64">
	<path d="M40.727 6.465v21.118q0 0.485-0.539 0.862-3.071 1.616-6.734 1.616-3.286 0-10.182-1.939t-10.182-1.939q-0.269 0-0.754 0.027t-0.7 0.027v22.249q0 0.431-0.269 0.7t-0.7 0.269h-3.879q-0.431 0-0.7-0.269t-0.269-0.7v-43.098q0-0.539 0.485-0.808 3.017-1.67 6.788-1.67 3.286 0 10.182 1.939t10.182 1.939q3.232 0 5.926-1.239 0.539-0.215 0.916 0.108 0.431 0.269 0.431 0.808z" />
</svg>
