<?xml version="1.0" encoding="utf-8"?>
<!-- Generated by IcoMoon.io -->
<!DOCTYPE svg PUBLIC "-//W3C//DTD SVG 1.1//EN" "http://www.w3.org/Graphics/SVG/1.1/DTD/svg11.dtd">
<svg version="1.1" xmlns="http://www.w3.org/2000/svg" xmlns:xlink="http://www.w3.org/1999/xlink" width="47" height="64" viewBox="0 0 47 64">
	<path d="M23.273 2.909q4.727 0 9.034 1.841t7.432 4.966 4.966 7.432 1.841 9.034-1.841 9.034-4.966 7.432-7.432 4.966-9.034 1.841-9.034-1.841-7.432-4.966-4.966-7.432-1.841-9.034 1.841-9.034 4.966-7.432 7.432-4.966 9.034-1.841zM36.182 15.159q-0.409 0-0.75 0.341l-12.341 12.318-5.409-5.409q-0.318-0.318-0.75-0.318-0.455 0-0.773 0.318l-2.591 2.591q-0.295 0.318-0.295 0.773t0.295 0.75l8.75 8.75q0.25 0.273 0.636 0.318h0.136q0.432 0.023 0.773-0.318l15.682-15.659q0.318-0.318 0.318-0.773t-0.318-0.773l-2.591-2.568q-0.341-0.341-0.773-0.341zM38.636 28.932q1.136-1.136 1.136-2.75t-1.136-2.75l-0.068-0.045-13.273 13.273q-0.886 0.886-2.136 0.886h-0.591l-0.114-0.091q-0.841-0.205-1.455-0.795l-8.727-8.75q-0.886-0.932-0.886-2.136 0-1.273 0.886-2.159l2.591-2.568q0.886-0.886 2.136-0.886t2.136 0.886l4.023 4.023 8.545-8.545-5.682-5.705q-1.136-1.136-2.75-1.136t-2.75 1.136l-12.614 12.614q-1.136 1.136-1.136 2.75t1.136 2.75l12.614 12.614q1.136 1.136 2.75 1.136t2.75-1.136z" />
</svg>
