<?xml version="1.0" encoding="utf-8"?>
<!-- Generated by IcoMoon.io -->
<!DOCTYPE svg PUBLIC "-//W3C//DTD SVG 1.1//EN" "http://www.w3.org/Graphics/SVG/1.1/DTD/svg11.dtd">
<svg version="1.1" xmlns="http://www.w3.org/2000/svg" xmlns:xlink="http://www.w3.org/1999/xlink" width="47" height="64" viewBox="0 0 47 64">
	<path d="M35.886 2.909v6.795h-3.841q0.932 2.114 0.932 4.636 0 2.341-0.807 4.364t-2.193 3.409-3.261 2.205-3.989 0.886q-1.227 2-0.943 3.295t2.125 2.523q3.318 0.136 6.057 1.364t4.33 3.307 1.591 4.557q0 2.636-1.705 4.761t-4.58 3.284-6.33 1.159-6.341-1.182-4.58-3.295-1.693-4.727q0-2.545 1.614-4.614t4.364-3.25q-1.227-1.205-1.739-2.466t-0.341-2.375 0.75-2.068 1.511-1.727q-2.409-1.364-3.795-3.807t-1.386-5.602q0-4.841 3.080-7.898t7.58-3.057q3.205 0 5.818 1.614 1.614-0.091 3.011-0.352t2.239-0.545 1.443-0.557 0.83-0.455zM23.273 36.841q-2.614 0-4.216 0.977t-1.602 2.432 1.602 2.42 4.216 0.966 4.216-0.966 1.602-2.42-1.602-2.432-4.216-0.977zM22.295 19.386q1.682 0 2.784-1.432t1.102-3.886q0-2.477-1.102-3.909t-2.784-1.432q-1.659 0-2.761 1.432t-1.102 3.909q0 2.455 1.102 3.886t2.761 1.432z" />
</svg>
