<?xml version="1.0" encoding="utf-8"?>
<!-- Generated by IcoMoon.io -->
<!DOCTYPE svg PUBLIC "-//W3C//DTD SVG 1.1//EN" "http://www.w3.org/Graphics/SVG/1.1/DTD/svg11.dtd">
<svg version="1.1" xmlns="http://www.w3.org/2000/svg" xmlns:xlink="http://www.w3.org/1999/xlink" width="47" height="64" viewBox="0 0 47 64">
	<path d="M23.273 2.909q9.643 0 16.458 6.815t6.815 16.458-6.815 16.458-16.458 6.815-16.458-6.815-6.815-16.458 6.815-16.458 16.458-6.815zM26.182 44.606q2.586 0 5.657-3.502t3.071-8.135q0-2.801-1.993-4.795t-4.795-1.993h-3.879q-2.155 0-3.502-0.97t-1.347-2.424q0-1.024 0.7-1.724t1.724-0.7 1.886 0.97 1.508 0.97q0.808 0 1.374-0.566t0.566-1.374q0-1.939-1.832-3.771 1.778-3.394 1.832-7.596 0-0.862-0.808-0.97-1.724-0.269-3.071-0.269-6.249 0.215-9.912 3.017t-3.663 7.65q0 4.364 3.152 7.515t7.515 3.151h0.162q-0.162 0.754-0.162 1.455 0 2.209 1.374 3.933t3.475 2.209v6.95q0 0.431 0.269 0.7t0.7 0.269z" />
</svg>
