<?xml version="1.0" encoding="utf-8"?>
<!-- Generated by IcoMoon.io -->
<!DOCTYPE svg PUBLIC "-//W3C//DTD SVG 1.1//EN" "http://www.w3.org/Graphics/SVG/1.1/DTD/svg11.dtd">
<svg version="1.1" xmlns="http://www.w3.org/2000/svg" xmlns:xlink="http://www.w3.org/1999/xlink" width="47" height="64" viewBox="0 0 47 64">
	<path d="M9.795 37.864h2.273q-1.773-1.864-1.773-3.659 0-1.159 0.636-2.477h-1.182q-3.636 0-6.239-1.875t-3.466-4.92q-0.045 0.432-0.045 1.25 0 6.955 3.818 12.818 2.886-1.136 5.977-1.136zM4.409 22.091q0.432 3.364 2.557 5.784t4.67 2.511 4.045-2.239 1.068-5.693q-0.432-3.341-2.557-5.716t-4.716-2.466q-2.545-0.091-4.023 2.193t-1.045 5.625zM19.932 46.159q0-0.727-0.159-1.341-0.114-0.455-0.295-0.864t-0.534-0.807-0.591-0.67-0.818-0.705-0.864-0.636-1.068-0.727-1.102-0.75q-1.636-0.545-3.295-0.545-3.295-0.068-6.136 1.614 2.659 3.318 6.33 5.5t7.943 2.909q0.591-1.273 0.591-2.977zM23.273 2.909q4.75 0 9.057 1.841t7.42 4.955 4.955 7.42 1.841 9.057-1.841 9.057-4.955 7.42-7.42 4.955-9.057 1.841h-0.909q1.023-2 1.023-3.818 0-2.909-1.034-4.818t-3.648-3.75q-1.182-0.841-2.318-2.080t-1.136-2.080q0-1.068 0.477-1.807t2.045-1.966q1.727-1.341 2.727-3.125t1-3.807q0-2.614-1.114-4.75t-3.136-2.909h4.182l2.977-2.159h-13.25q-2.5 0-4.841 1.023t-4.045 2.75q2.864-6 8.5-9.625t12.5-3.625zM34.909 20.364h5.818v-2.909h-5.818v-5.818h-2.909v5.818h-5.818v2.909h5.818v5.818h2.909v-5.818z" />
</svg>
