<?xml version="1.0" encoding="utf-8"?>
<!-- Generated by IcoMoon.io -->
<!DOCTYPE svg PUBLIC "-//W3C//DTD SVG 1.1//EN" "http://www.w3.org/Graphics/SVG/1.1/DTD/svg11.dtd">
<svg version="1.1" xmlns="http://www.w3.org/2000/svg" xmlns:xlink="http://www.w3.org/1999/xlink" width="47" height="64" viewBox="0 0 47 64">
	<path d="M46.492 31.569q0.054 0.162 0.054 0.431v14.545q0 1.185-0.862 2.047t-2.047 0.862h-40.727q-1.185 0-2.047-0.862t-0.862-2.047v-14.545q0-0.269 0.054-0.431l3.879-26.182q0.108-1.077 0.943-1.778t1.912-0.7h32.97q1.077 0 1.886 0.7t0.97 1.778zM9.32 8.727l-3.448 23.273h9.482q0.646 0 0.916 0.593l1.886 4.633q0.269 0.593 0.916 0.593h8.404q0.646 0 0.916-0.593l1.886-4.633q0.269-0.593 0.916-0.593h9.482l-3.448-23.273h-27.906z" />
</svg>
