<?xml version="1.0" encoding="utf-8"?>
<!-- Generated by IcoMoon.io -->
<!DOCTYPE svg PUBLIC "-//W3C//DTD SVG 1.1//EN" "http://www.w3.org/Graphics/SVG/1.1/DTD/svg11.dtd">
<svg version="1.1" xmlns="http://www.w3.org/2000/svg" xmlns:xlink="http://www.w3.org/1999/xlink" width="47" height="64" viewBox="0 0 47 64">
	<path d="M7.758 49.455h-6.788q-0.431 0-0.7-0.269t-0.269-0.7v-7.327q0-0.431 0.269-0.7l18.047-18.047q-0.862-2.263-0.862-4.956 0-6.034 4.256-10.29t10.29-4.256 10.29 4.256 4.256 10.29-4.256 10.29-10.29 4.256q-2.694 0-4.956-0.862l-6.411 6.411q-0.269 0.269-0.7 0.269h-5.387v4.849q0 0.431-0.269 0.7t-0.7 0.269h-4.848v4.849q0 0.431-0.269 0.7t-0.7 0.269zM34.909 10.182q-1.832 0-3.098 1.266t-1.266 3.098 1.266 3.098 3.098 1.266 3.098-1.266 1.266-3.098-1.266-3.098-3.098-1.266z" />
</svg>
