<?xml version="1.0" encoding="utf-8"?>
<!-- Generated by IcoMoon.io -->
<!DOCTYPE svg PUBLIC "-//W3C//DTD SVG 1.1//EN" "http://www.w3.org/Graphics/SVG/1.1/DTD/svg11.dtd">
<svg version="1.1" xmlns="http://www.w3.org/2000/svg" xmlns:xlink="http://www.w3.org/1999/xlink" width="47" height="64" viewBox="0 0 47 64">
	<path d="M35.545 34.909q5.568 0 5.568-2.909 0-0.932-0.455-1.58t-1.239-1.023-1.795-0.648-2.114-0.511-2.216-0.534-2.125-0.818-1.795-1.25-1.239-1.932-0.455-2.795q0-3.886 2.614-5.773t6.886-1.886q8.477 0 9.159 6.795l-5.341 0.636q-0.205-1.682-1.193-2.455t-2.966-0.773q-1.795 0-2.807 0.761t-1.011 2.102q0 0.955 0.466 1.614t1.25 1.023 1.795 0.614 2.125 0.477 2.239 0.511 2.136 0.83 1.795 1.307 1.25 2.045 0.466 2.989q0 1.727-0.602 3.034t-1.932 2.307-3.614 1.523-5.489 0.523q-1.682 0-3.182-0.239t-2.636-0.625-2.148-0.989-1.716-1.205-1.341-1.42-1.045-1.5-0.795-1.568-0.602-1.477-0.489-1.386q-0.114-0.318-0.159-0.477-0.205-0.636-0.545-1.705t-0.534-1.67-0.523-1.511-0.58-1.432-0.648-1.239-0.784-1.114-0.92-0.864-1.125-0.693-1.341-0.386-1.614-0.159q-3.023 0-4.795 2.352t-1.773 6.375q0 4.114 1.784 6.42t4.239 2.307q1.273 0 2.477-0.33t2.011-0.807 1.443-0.955 0.932-0.818l0.295-0.318 1.727 4.636q-0.136 0.114-0.375 0.307t-1.080 0.67-1.795 0.841-2.477 0.67-3.159 0.307q-1.841 0-3.455-0.352t-3.148-1.239-2.625-2.261-1.75-3.58-0.659-5.023q0-3.545 0.955-6.205t2.648-4.193 3.795-2.273 4.625-0.739q1.932 0 3.5 0.273t2.784 0.75 2.216 1.33 1.727 1.773 1.398 2.318 1.159 2.75 1.057 3.261q0.386 1.273 0.693 2.148t0.784 1.92 0.977 1.739 1.216 1.386 1.568 1.102 1.977 0.659 2.466 0.25z" />
</svg>
