<?xml version="1.0" encoding="utf-8"?>
<!-- Generated by IcoMoon.io -->
<!DOCTYPE svg PUBLIC "-//W3C//DTD SVG 1.1//EN" "http://www.w3.org/Graphics/SVG/1.1/DTD/svg11.dtd">
<svg version="1.1" xmlns="http://www.w3.org/2000/svg" xmlns:xlink="http://www.w3.org/1999/xlink" width="47" height="64" viewBox="0 0 47 64">
	<path d="M0.977 19.386h9.682v30.068h-9.682v-30.068zM26.182 49.455v-17.455q0-2.795 1.534-4.307t3.852-1.511q2.341 0 3.807 1.67t1.466 5.125v16.477h9.705v-17.455q0-6.409-3.205-9.989t-8.432-3.58q-2.773 0-4.977 1.386t-3.75 3.727l-0.318-4.159h-9.545l0.159 6.795v23.273h9.705zM5.773 14.545h-0.068q-2.523 0-4.114-1.534t-1.591-3.807q0-2.295 1.625-3.807t4.239-1.511q2.568 0 4.148 1.511t1.625 3.807q0 2.295-1.614 3.818t-4.25 1.523z" />
</svg>
