<?xml version="1.0" encoding="utf-8"?>
<!-- Generated by IcoMoon.io -->
<!DOCTYPE svg PUBLIC "-//W3C//DTD SVG 1.1//EN" "http://www.w3.org/Graphics/SVG/1.1/DTD/svg11.dtd">
<svg version="1.1" xmlns="http://www.w3.org/2000/svg" xmlns:xlink="http://www.w3.org/1999/xlink" width="47" height="64" viewBox="0 0 47 64">
	<path d="M46.276 26.882l-8.727 8.727q-0.377 0.269-0.7 0.269-0.269 0-0.377-0.054-0.593-0.269-0.593-0.916v-4.849h-7.273q-1.455 0-2.317 1.185l-4.687 6.249q-3.178 4.202-8.458 4.202h-12.175q-0.431 0-0.7-0.269t-0.269-0.7v-5.818q0-0.431 0.269-0.7t0.7-0.269h12.121q1.455 0 2.316-1.185l4.687-6.249q0.054-0.054 0.135-0.162t0.135-0.162q-0.054-0.054-0.135-0.162t-0.135-0.162l-4.687-6.249q-0.862-1.185-2.316-1.185h-12.121q-0.431 0-0.7-0.269t-0.269-0.7v-5.818q0-0.431 0.269-0.7t0.7-0.269h12.175q5.279 0 8.458 4.202l4.687 6.249q0.862 1.185 2.317 1.185h7.273v-4.848q0-0.646 0.593-0.916 0.646-0.215 1.077 0.215l8.727 8.727q0.7 0.7 0 1.401z" />
</svg>
