<?xml version="1.0" encoding="utf-8"?>
<!-- Generated by IcoMoon.io -->
<!DOCTYPE svg PUBLIC "-//W3C//DTD SVG 1.1//EN" "http://www.w3.org/Graphics/SVG/1.1/DTD/svg11.dtd">
<svg version="1.1" xmlns="http://www.w3.org/2000/svg" xmlns:xlink="http://www.w3.org/1999/xlink" width="47" height="64" viewBox="0 0 47 64">
	<path d="M40.727 2.909q1.185 0 2.047 0.862t0.862 2.047v40.727q0 1.185-0.862 2.047t-2.047 0.862h-29.091q-1.185 0-2.047-0.862t-0.862-2.047v-2.909h-4.848q-0.431 0-0.7-0.269t-0.269-0.7v-3.879q0-0.431 0.269-0.7t0.7-0.269h4.848v-8.727h-4.848q-0.431 0-0.7-0.269t-0.269-0.7v-3.879q0-0.431 0.269-0.7t0.7-0.269h4.848v-8.727h-4.848q-0.431 0-0.7-0.269t-0.269-0.7v-3.879q0-0.431 0.269-0.7t0.7-0.269h4.848v-2.909q0-1.185 0.862-2.047t2.047-0.862h29.091zM34.909 23.273v-8.727h-17.455v8.727h17.455z" />
</svg>
