<?xml version="1.0" encoding="utf-8"?>
<!-- Generated by IcoMoon.io -->
<!DOCTYPE svg PUBLIC "-//W3C//DTD SVG 1.1//EN" "http://www.w3.org/Graphics/SVG/1.1/DTD/svg11.dtd">
<svg version="1.1" xmlns="http://www.w3.org/2000/svg" xmlns:xlink="http://www.w3.org/1999/xlink" width="47" height="64" viewBox="0 0 47 64">
	<path d="M26.236 41.751q-9.212 6.303-20.31 7.65-0.162 0.054-0.377 0.054-0.269 0-0.377-0.054-0.323-0.162-0.539-0.539l-4.579-11.529q-0.269-0.862 0.485-1.239l12.714-6.357q0.539-0.323 1.131 0.162zM46.545 8.458q0 0.216-0.054 0.377-1.939 15.515-12.822 26.721l9.158 9.104q0.808 0.862 0.808 2.020t-0.808 1.966-1.993 0.808-1.993-0.808l-35.178-35.178q-0.808-0.808-0.808-1.966t0.808-2.020q0.808-0.808 1.966-0.808t2.020 0.808l20.471 20.525q2.855-2.963 5.064-6.518l-6.195-6.195q-0.485-0.593-0.162-1.131l6.357-12.714q0.377-0.754 1.239-0.485l11.529 4.579q0.377 0.215 0.485 0.539 0.108 0.216 0.108 0.377z" />
</svg>
