<?xml version="1.0" encoding="utf-8"?>
<!-- Generated by IcoMoon.io -->
<!DOCTYPE svg PUBLIC "-//W3C//DTD SVG 1.1//EN" "http://www.w3.org/Graphics/SVG/1.1/DTD/svg11.dtd">
<svg version="1.1" xmlns="http://www.w3.org/2000/svg" xmlns:xlink="http://www.w3.org/1999/xlink" width="47" height="64" viewBox="0 0 47 64">
	<path d="M43.636 8.727q1.185 0 2.047 0.862t0.862 2.047v29.091q0 1.185-0.862 2.047t-2.047 0.862h-40.727q-1.185 0-2.047-0.862t-0.862-2.047v-29.091q0-1.185 0.862-2.047t2.047-0.862h40.727zM10.182 14.545q-1.832 0-3.098 1.266t-1.266 3.098 1.266 3.098 3.098 1.266 3.098-1.266 1.266-3.098-1.266-3.098-3.098-1.266zM40.727 37.818l-11.636-17.455-10.667 13.576-6.788-4.849-5.818 8.727h34.909z" />
</svg>
