<?xml version="1.0" encoding="utf-8"?>
<!-- Generated by IcoMoon.io -->
<!DOCTYPE svg PUBLIC "-//W3C//DTD SVG 1.1//EN" "http://www.w3.org/Graphics/SVG/1.1/DTD/svg11.dtd">
<svg version="1.1" xmlns="http://www.w3.org/2000/svg" xmlns:xlink="http://www.w3.org/1999/xlink" width="47" height="64" viewBox="0 0 47 64">
	<path d="M24.341 2.909q3.727 0 6.943 1.273t5.375 3.398 3.386 4.898 1.227 5.727q0 5.205-1.795 9.375t-5.091 6.557-7.5 2.386q-2.136 0-3.989-0.955t-2.58-2.318q-1.523 6.136-1.886 7.318-0.5 1.886-1.716 4.068t-1.943 3.182-1.136 1.477q-0.182 0.205-0.398 0.148t-0.261-0.261q0-0.023-0.080-0.636t-0.148-1.284-0.114-1.75-0.034-2.080 0.125-2.205 0.364-2.227l3.386-14.545q-0.795-1.727-0.795-4.25 0-2.977 1.477-4.943t3.636-1.966q1.75 0 2.682 1.125t0.932 2.875q0 1.068-0.398 2.614t-1.045 3.602-0.943 3.261q-0.477 2.114 0.83 3.648t3.443 1.534q2.477 0 4.42-1.955t2.989-5.182 1.045-7.091q0-4.545-2.932-7.398t-8.159-2.852q-2.955 0-5.477 1.045t-4.193 2.818-2.602 4.080-0.932 4.83q0 3.136 1.773 5.295 0.364 0.455 0.432 0.705t-0.045 0.75q-0.068 0.364-0.545 2.136-0.114 0.523-0.477 0.705t-0.864 0q-2.682-1.136-4.068-3.886t-1.386-6.341q0-2.318 0.75-4.648t2.318-4.511 3.773-3.852 5.375-2.682 6.852-1.011z" />
</svg>
