<?xml version="1.0" encoding="utf-8"?>
<!-- Generated by IcoMoon.io -->
<!DOCTYPE svg PUBLIC "-//W3C//DTD SVG 1.1//EN" "http://www.w3.org/Graphics/SVG/1.1/DTD/svg11.dtd">
<svg version="1.1" xmlns="http://www.w3.org/2000/svg" xmlns:xlink="http://www.w3.org/1999/xlink" width="47" height="64" viewBox="0 0 47 64">
	<path d="M25.205 2.909q4.295 0 7.614 2.091t5.125 5.841 1.807 8.545q0 5.045-1.818 9t-5.261 6.205-7.989 2.25q-3.25 0-5.705-1.466t-4-3.852h-0.432v17.932h-5.818v-37.818l-0.318-7.75h5.159l0.932 5.386h0.364q1.659-2.818 4.33-4.591t6.011-1.773zM23.75 32.545q2.045 0 3.852-0.841t3.239-2.443 2.261-4.159 0.83-5.716q0-2.818-0.83-5.159t-2.239-3.841-3.205-2.33-3.75-0.83q-1.614 0-3.261 0.716t-3.011 1.977-2.227 3.25-0.864 4.284v5.818q0 2.091 0.818 3.886t2.148 2.943 2.955 1.795 3.284 0.648z" />
</svg>
