<?xml version="1.0" encoding="utf-8"?>
<!-- Generated by IcoMoon.io -->
<!DOCTYPE svg PUBLIC "-//W3C//DTD SVG 1.1//EN" "http://www.w3.org/Graphics/SVG/1.1/DTD/svg11.dtd">
<svg version="1.1" xmlns="http://www.w3.org/2000/svg" xmlns:xlink="http://www.w3.org/1999/xlink" width="47" height="64" viewBox="0 0 47 64">
	<path d="M46.276 32.7l-4.849 4.849q-0.377 0.269-0.7 0.269h-36.849q-0.431 0-0.7-0.269t-0.269-0.7v-9.697q0-0.431 0.269-0.7t0.7-0.269h15.515v-4.848h7.758v4.849h13.576q0.323 0 0.7 0.269l4.849 4.848q0.7 0.7 0 1.401zM43.636 6.788v9.697q0 0.431-0.269 0.7t-0.7 0.269h-36.849q-0.323 0-0.7-0.269l-4.848-4.848q-0.7-0.7 0-1.401l4.848-4.848q0.377-0.269 0.7-0.269h13.576v-1.939q0-0.431 0.269-0.7t0.7-0.269h5.818q0.431 0 0.7 0.269t0.269 0.7v1.939h15.515q0.431 0 0.7 0.269t0.269 0.7zM27.151 41.697v6.788q0 0.431-0.269 0.7t-0.7 0.269h-5.818q-0.431 0-0.7-0.269t-0.269-0.7v-6.788h7.758z" />
</svg>
