<?xml version="1.0" encoding="utf-8"?>
<!-- Generated by IcoMoon.io -->
<!DOCTYPE svg PUBLIC "-//W3C//DTD SVG 1.1//EN" "http://www.w3.org/Graphics/SVG/1.1/DTD/svg11.dtd">
<svg version="1.1" xmlns="http://www.w3.org/2000/svg" xmlns:xlink="http://www.w3.org/1999/xlink" width="47" height="64" viewBox="0 0 47 64">
	<path d="M23.273 2.909q4.727 0 9.034 1.841t7.432 4.966 4.966 7.432 1.841 9.034-1.841 9.034-4.966 7.432-7.432 4.966-9.034 1.841-9.034-1.841-7.432-4.966-4.966-7.432-1.841-9.034 1.841-9.034 4.966-7.432 7.432-4.966 9.034-1.841zM3.182 30.477l0.364-2.227-0.364-2.295q0-0.159-0.159-0.159-0.114 0-0.159 0.159l-0.295 2.295 0.295 2.227q0.023 0.159 0.159 0.159 0.159 0 0.159-0.159zM4.727 31.841l0.455-3.591-0.455-3.705q-0.045-0.159-0.182-0.159-0.159 0-0.159 0.159l-0.409 3.705 0.409 3.591q0 0.182 0.159 0.182 0.136 0 0.182-0.182zM6.364 32.455l0.432-4.205-0.432-4.386q0-0.205-0.205-0.205-0.159 0-0.205 0.205l-0.386 4.386 0.386 4.205q0.045 0.205 0.205 0.205 0.205 0 0.205-0.205zM8.023 32.591l0.409-4.341-0.409-4.5q0-0.25-0.227-0.25-0.205 0-0.25 0.25l-0.364 4.5 0.364 4.341q0.045 0.227 0.25 0.227 0.227 0 0.227-0.227zM9.705 32.636l0.386-4.386-0.386-4.182q-0.045-0.273-0.273-0.273-0.273 0-0.273 0.273l-0.341 4.182 0.341 4.386q0 0.273 0.273 0.273 0.227 0 0.273-0.273zM11.386 32.636l0.364-4.386-0.364-6.795q0-0.295-0.295-0.295-0.318 0-0.318 0.295l-0.318 6.795 0.318 4.386q0 0.295 0.318 0.295 0.295 0 0.295-0.295zM13.091 32.614l0.341-4.364-0.341-8.341q0-0.136-0.102-0.239t-0.239-0.102-0.239 0.102-0.102 0.239l-0.318 8.341 0.318 4.364q0 0.136 0.102 0.239t0.239 0.102 0.239-0.102 0.102-0.239zM14.795 32.568l0.318-4.318-0.318-9.045q0-0.364-0.364-0.364-0.159 0-0.273 0.102t-0.114 0.261l-0.273 9.045 0.273 4.318q0 0.159 0.114 0.261t0.273 0.102q0.364 0 0.364-0.364zM16.545 32.545l0.273-4.295-0.273-9.341q-0.045-0.409-0.432-0.409-0.159 0-0.284 0.114t-0.125 0.295l-0.25 9.341 0.25 4.295q0 0.182 0.125 0.295t0.284 0.114q0.386 0 0.432-0.409zM18.273 32.5l0.273-4.25-0.273-9.091q0-0.205-0.136-0.33t-0.318-0.125-0.307 0.125-0.125 0.33l-0.25 9.091 0.25 4.25q0 0.182 0.125 0.307t0.307 0.125 0.318-0.125 0.136-0.307zM20.023 32.455l0.25-4.205-0.25-8.773q0-0.205-0.136-0.341t-0.341-0.136-0.341 0.136-0.136 0.341l-0.227 8.773 0.227 4.227q0 0.205 0.136 0.341t0.341 0.136 0.341-0.136 0.136-0.364zM21.795 32.432l0.227-4.182-0.227-10.432q0-0.227-0.148-0.375t-0.375-0.148q-0.205 0-0.364 0.148t-0.159 0.375l-0.182 10.432 0.182 4.182q0 0.227 0.159 0.375t0.364 0.148q0.227 0 0.375-0.148t0.148-0.375zM23.568 32.386l0.25-4.136-0.25-11.386q-0.023-0.227-0.182-0.386t-0.386-0.159-0.386 0.159-0.159 0.386l-0.227 11.386 0.227 4.136q0 0.227 0.159 0.386t0.386 0.159 0.386-0.159 0.182-0.386zM38.591 32.977q2.091 0 3.568-1.489t1.477-3.58-1.477-3.568-3.568-1.477q-1.045 0-1.955 0.386-0.318-3.432-2.864-5.773t-6.023-2.341q-1.636 0-3.227 0.591-0.477 0.205-0.477 0.614v16.023q0 0.545 0.545 0.591 13.909 0.023 14 0.023z" />
</svg>
