<?xml version="1.0" encoding="utf-8"?>
<!-- Generated by IcoMoon.io -->
<!DOCTYPE svg PUBLIC "-//W3C//DTD SVG 1.1//EN" "http://www.w3.org/Graphics/SVG/1.1/DTD/svg11.dtd">
<svg version="1.1" xmlns="http://www.w3.org/2000/svg" xmlns:xlink="http://www.w3.org/1999/xlink" width="47" height="64" viewBox="0 0 47 64">
	<path d="M27.205 49.136q-0.545-3.386-2.33-5.148t-4.398-1.761q-2.227 0-3.886 1.42t-2.432 3.966q4.318 1.841 9.114 1.841 1.909 0 3.932-0.318zM23.273 2.909q4.727 0 9.034 1.852t7.42 4.966 4.966 7.42 1.852 9.034q0 6.523-3.33 12t-8.852 8.477q-1.318-5.068-5.045-7.92t-8.841-2.852q-4.114 0-7.477 2.011t-5.25 5.693q-3.636-3.318-5.693-7.83t-2.057-9.58q0-4.727 1.841-9.034t4.955-7.42 7.42-4.966 9.057-1.852zM34.432 34.318q0.318-0.5 0.17-1.057t-0.67-0.875q-9.068-5.614-22.341-2.591-0.591 0.159-0.898 0.659t-0.193 1.068 0.636 0.875 1.091 0.193q12.023-2.75 20.205 2.205 0.523 0.318 1.102 0.182t0.898-0.659zM37.227 28.068q0.409-0.614 0.239-1.33t-0.83-1.102q-5.341-3.273-12.443-4.114t-13.42 1.045q-0.682 0.205-1.034 0.864t-0.148 1.341q0.205 0.727 0.864 1.091t1.386 0.159q5.523-1.705 11.909-0.955t11 3.591q0.659 0.409 1.386 0.239t1.091-0.83zM37.5 21.5q0.773 0.455 1.625 0.239t1.284-0.989q0.477-0.773 0.25-1.648t-1-1.33q-3.091-1.841-7.148-2.955t-8.114-1.409-7.955 0.034-6.966 1.261q-0.841 0.227-1.261 1.034t-0.125 1.67q0.25 0.841 1.023 1.261t1.614 0.125q3.636-1.114 8.386-1.273t9.795 0.852 8.591 3.125z" />
</svg>
