<?xml version="1.0" encoding="utf-8"?>
<!-- Generated by IcoMoon.io -->
<!DOCTYPE svg PUBLIC "-//W3C//DTD SVG 1.1//EN" "http://www.w3.org/Graphics/SVG/1.1/DTD/svg11.dtd">
<svg version="1.1" xmlns="http://www.w3.org/2000/svg" xmlns:xlink="http://www.w3.org/1999/xlink" width="47" height="64" viewBox="0 0 47 64">
	<path d="M40.25 16q2.614 0 4.455 1.841t1.841 4.455q0 2.523-1.727 4.341t-4.205 1.955l-6.182 4.432q-0.045 2-1.455 3.398t-3.409 1.398q-1.682 0-3-1.057t-1.705-2.648l-17.614-7.591q-1.159 0.636-2.409 0.636-2 0-3.42-1.42t-1.42-3.443 1.409-3.432 3.432-1.409q1.705 0 3.023 1.045t1.705 2.659l17.591 7.591q1.205-0.636 2.409-0.636h0.023l4.341-5.818q0.023-2.614 1.864-4.455t4.455-1.841zM7.886 20.705q0.159-0.114 0.182-0.318t-0.091-0.364q-1.159-1.591-3.136-1.591-1.614 0-2.739 1.125t-1.125 2.739 1.136 2.75 2.727 1.136q0.227 0 0.545-0.045 0.205-0.023 0.33-0.182t0.080-0.364q-0.023-0.182-0.182-0.307t-0.364-0.102q-0.136 0.023-0.409 0.023-1.205 0-2.057-0.852t-0.852-2.057 0.852-2.057 2.057-0.852q1.477 0 2.364 1.205 0.295 0.386 0.682 0.114zM29.568 36.841q1.614 0 2.75-1.125t1.136-2.739-1.136-2.75-2.75-1.136q-0.182 0-0.545 0.045-0.182 0.023-0.307 0.182t-0.102 0.364q0.045 0.182 0.205 0.307t0.341 0.102q0.136-0.023 0.409-0.023 1.205 0 2.057 0.852t0.852 2.057-0.852 2.057-2.057 0.852q-1.455 0-2.341-1.205-0.295-0.386-0.682-0.114-0.364 0.295-0.114 0.682 1.159 1.591 3.136 1.591zM40.25 26.659q1.795 0 3.080-1.284t1.284-3.080-1.284-3.080-3.080-1.284-3.080 1.284-1.284 3.080 1.284 3.080 3.080 1.284zM43.636 22.295q0-1.386-1-2.386t-2.386-1q-1.409 0-2.409 0.989t-1 2.398 1 2.409 2.409 1 2.398-1 0.989-2.409z" />
</svg>
