<?xml version="1.0" encoding="utf-8"?>
<!-- Generated by IcoMoon.io -->
<!DOCTYPE svg PUBLIC "-//W3C//DTD SVG 1.1//EN" "http://www.w3.org/Graphics/SVG/1.1/DTD/svg11.dtd">
<svg version="1.1" xmlns="http://www.w3.org/2000/svg" xmlns:xlink="http://www.w3.org/1999/xlink" width="47" height="64" viewBox="0 0 47 64">
	<path d="M23.273 2.909q9.643 0 16.458 6.815t6.815 16.458-6.815 16.458-16.458 6.815-16.458-6.815-6.815-16.458 6.815-16.458 16.458-6.815zM23.273 41.697q6.411 0 10.963-4.552t4.552-10.963-4.552-10.963-10.963-4.552-10.963 4.552-4.552 10.963 4.552 10.963 10.963 4.552zM15.515 26.182q0 3.232 2.263 5.495t5.495 2.263q3.178 0 5.468-2.263t2.29-5.495q0-3.178-2.29-5.468t-5.468-2.29q-3.232 0-5.495 2.29t-2.263 5.468z" />
</svg>
