<?xml version="1.0" encoding="utf-8"?>
<!-- Generated by IcoMoon.io -->
<!DOCTYPE svg PUBLIC "-//W3C//DTD SVG 1.1//EN" "http://www.w3.org/Graphics/SVG/1.1/DTD/svg11.dtd">
<svg version="1.1" xmlns="http://www.w3.org/2000/svg" xmlns:xlink="http://www.w3.org/1999/xlink" width="47" height="64" viewBox="0 0 47 64">
	<path d="M46.545 34.909v1.939q0 0.431-0.269 0.7t-0.7 0.269h-18.64q-1.024-0.323-1.832-0.727t-1.077-0.673l-0.323-0.215q0.377-0.593 0.943-1.67t1.535-4.444 0.97-6.815q0-1.562-0.377-3.071t-0.916-2.505-1.104-1.778-0.943-1.158l-0.377-0.377v-0.054q-0.162-1.293-0.162-2.694 0-3.609 2.559-6.168t6.168-2.559 6.168 2.559 2.559 6.168q0 3.556-0.97 6.653t-1.939 4.444l-0.97 1.293q0 1.67 0.997 2.774t2.424 1.751 2.855 1.32 2.424 1.912 0.997 3.125zM29.091 46.545v1.939q0 0.431-0.269 0.7t-0.7 0.269h-27.151q-0.431 0-0.7-0.269t-0.269-0.7v-1.939q0-1.832 0.997-3.098t2.424-1.939 2.855-1.32 2.424-1.751 0.997-2.774q-0.431-0.485-1.077-1.428t-1.724-4.175-1.077-6.788q0-3.609 2.559-6.168t6.168-2.559 6.168 2.559 2.559 6.168q0 3.556-0.97 6.653t-1.939 4.444l-0.97 1.293q0 1.67 0.997 2.774t2.424 1.751 2.855 1.32 2.424 1.912 0.997 3.125z" />
</svg>
