<?xml version="1.0" encoding="utf-8"?>
<!-- Generated by IcoMoon.io -->
<!DOCTYPE svg PUBLIC "-//W3C//DTD SVG 1.1//EN" "http://www.w3.org/Graphics/SVG/1.1/DTD/svg11.dtd">
<svg version="1.1" xmlns="http://www.w3.org/2000/svg" xmlns:xlink="http://www.w3.org/1999/xlink" width="47" height="64" viewBox="0 0 47 64">
	<path d="M27.159 16.477q0.545-2.227 1.682-4.080t2.477-3.034 2.886-2.011 2.932-1.182 2.614-0.352q2.955 0 4.875 2.17t1.92 5.693q0 3-1.398 6.761t-3.614 7.33-4.989 7.023-5.5 6.023-5.193 4.148-3.989 1.58q-1.114 0-2.114-0.352t-1.727-0.864-1.398-1.33-1.091-1.511-0.852-1.682-0.636-1.568-0.477-1.42l-5.818-18.432q-0.409-1.25-0.989-1.705t-1.75-0.091-3.080 1.795l-1.932-2.364q0.182-0.227 0.511-0.636t1.352-1.568 2.045-2.216 2.466-2.352 2.75-2.227 2.773-1.568 2.648-0.636q1.068 0 1.932 0.398t1.466 1.023 1.102 1.614 0.795 1.909 0.545 2.216 0.375 2.227 0.295 2.227 0.284 1.955q0.341 2.159 0.716 4.091t0.92 4 1.216 3.295 1.352 1.227q0.932 0 2.727-2.318t3.25-5.386 1.455-4.909q0-1.5-0.648-2.477t-1.943-1.182-3.227 0.75z" />
</svg>
