<?xml version="1.0" encoding="utf-8"?>
<!-- Generated by IcoMoon.io -->
<!DOCTYPE svg PUBLIC "-//W3C//DTD SVG 1.1//EN" "http://www.w3.org/Graphics/SVG/1.1/DTD/svg11.dtd">
<svg version="1.1" xmlns="http://www.w3.org/2000/svg" xmlns:xlink="http://www.w3.org/1999/xlink" width="47" height="64" viewBox="0 0 47 64">
	<path d="M23.273 2.909q4.75 0 9.057 1.841t7.42 4.955 4.955 7.42 1.841 9.057-1.841 9.057-4.955 7.42-7.42 4.955-9.057 1.841-9.057-1.841-7.42-4.955-4.955-7.42-1.841-9.057 1.841-9.057 4.955-7.42 7.42-4.955 9.057-1.841zM23.273 46.545q4.136 0 7.909-1.614t6.5-4.341 4.341-6.5 1.614-7.909-1.614-7.909-4.341-6.5-6.5-4.341-7.909-1.614-7.909 1.614-6.5 4.341-4.341 6.5-1.614 7.909 1.614 7.909 4.341 6.5 6.5 4.341 7.909 1.614zM7.273 19.182q-1.455 3.455-1.455 7 0 5.091 2.67 9.295t7.080 6.386zM28.977 42.659l-5.5-14.977-5.159 15.25q2.568 0.705 4.955 0.705 3.068 0 5.705-0.977zM33.5 20.477q-0.068-0.114-0.284-0.466t-0.284-0.477-0.239-0.432-0.239-0.455-0.193-0.42-0.182-0.466-0.125-0.432-0.091-0.477-0.023-0.466q0-1.273 0.83-2.205t2.080-0.932h0.205q-2.364-2.136-5.364-3.33t-6.318-1.193q-4.5 0-8.364 2.125t-6.227 5.739h1.068q0.795 0 1.955-0.045t1.932-0.091l0.75-0.068q0.432-0.023 0.636 0.318t0.057 0.716-0.58 0.42q-0.977 0.091-2 0.159l6.364 18.909 3.818-11.477-2.75-7.432-1.841-0.159q-0.432-0.023-0.58-0.409t0.057-0.727 0.636-0.318q2.909 0.205 4.636 0.205 0.818 0 1.977-0.045t1.909-0.091l0.75-0.068q0.455-0.023 0.67 0.318t0.057 0.716-0.614 0.42q-0.932 0.091-2 0.159l6.295 18.75 1.727-5.818q0.068-0.227 0.273-0.864t0.261-0.852 0.216-0.739 0.216-0.75 0.148-0.636 0.125-0.659 0.068-0.568 0.034-0.591q0-2.455-1.455-4.795zM40.727 26.182q0-4.545-2.159-8.341 0.114 0.523 0.114 1.773 0 2.977-1.295 6.25l-5.341 15.409q3.955-2.318 6.318-6.33t2.364-8.761z" />
</svg>
