<?xml version="1.0" encoding="utf-8"?>
<!-- Generated by IcoMoon.io -->
<!DOCTYPE svg PUBLIC "-//W3C//DTD SVG 1.1//EN" "http://www.w3.org/Graphics/SVG/1.1/DTD/svg11.dtd">
<svg version="1.1" xmlns="http://www.w3.org/2000/svg" xmlns:xlink="http://www.w3.org/1999/xlink" width="47" height="64" viewBox="0 0 47 64">
	<path d="M23.273 2.909q4.75 0 9.057 1.841t7.42 4.955 4.955 7.42 1.841 9.057-1.841 9.057-4.955 7.42-7.42 4.955-9.057 1.841-9.057-1.841-7.42-4.955-4.955-7.42-1.841-9.057 1.841-9.057 4.955-7.42 7.42-4.955 9.057-1.841zM23.273 36.841q7.318 0 9.455-0.273 2.886-0.364 3.909-1.682 0.977-1.227 1.114-4.409 0.068-1.205 0.068-4.295 0-4.977-0.295-6.523-0.409-2.182-1.864-3.023-1.545-0.909-5.932-1.045-1.727-0.068-6.455-0.068-7.318 0-9.455 0.273-2.886 0.364-3.909 1.682-0.977 1.227-1.114 4.409-0.068 1.205-0.068 4.295 0 4.977 0.295 6.523 0.409 2.182 1.864 3.023 1.545 0.909 5.932 1.045 1.727 0.068 6.455 0.068zM19.386 32v-11.636l9.705 5.818z" />
</svg>
