<?xml version="1.0" encoding="utf-8"?>
<!-- Generator: Adobe Illustrator 16.2.1, SVG Export Plug-In . SVG Version: 6.00 Build 0)  -->
<!DOCTYPE svg PUBLIC "-//W3C//DTD SVG 1.1//EN" "http://www.w3.org/Graphics/SVG/1.1/DTD/svg11.dtd">
<svg version="1.1" id="Layer_2" xmlns="http://www.w3.org/2000/svg" xmlns:xlink="http://www.w3.org/1999/xlink" x="0px" y="0px"
	 width="128px" height="129px" viewBox="0 0 128 129" enable-background="new 0 0 128 129" xml:space="preserve">
<g>
	<path d="M63.999,0C34.016,0,9.713,24.308,9.713,54.279c0,29.989,24.303,54.286,54.286,54.286c30,0,54.288-24.297,54.288-54.286
		C118.287,24.308,93.999,0,63.999,0z M57.854,22.609H70.32v39.893H57.854V22.609z M64.051,85.957c-4.497,0-8.005-3.686-8.005-7.812
		c0-4.494,3.87-7.833,8.005-7.833c4.039,0,7.897,3.259,7.897,7.833C71.948,82.549,68.257,85.957,64.051,85.957z"/>
</g>
</svg>
