<?xml version="1.0" encoding="utf-8"?>
<!-- Generator: Adobe Illustrator 16.2.1, SVG Export Plug-In . SVG Version: 6.00 Build 0)  -->
<!DOCTYPE svg PUBLIC "-//W3C//DTD SVG 1.1//EN" "http://www.w3.org/Graphics/SVG/1.1/DTD/svg11.dtd">
<svg version="1.1" id="Layer_2" xmlns="http://www.w3.org/2000/svg" xmlns:xlink="http://www.w3.org/1999/xlink" x="0px" y="0px"
	 width="128px" height="129px" viewBox="0 0 128 129" enable-background="new 0 0 128 129" xml:space="preserve">
<g>
	<g>
		<path d="M48.115,89.466c0,1.53-1.252,2.78-2.768,2.78h-6.822c-1.544,0-2.784-1.25-2.784-2.78v-6.423
			c0-1.538,1.24-2.783,2.784-2.783h6.822c1.516,0,2.768,1.245,2.768,2.783V89.466z M48.115,67.839c0,1.525-1.252,2.773-2.768,2.773
			h-6.822c-1.544,0-2.784-1.248-2.784-2.773v-6.441c0-1.518,1.24-2.768,2.784-2.768h6.822c1.516,0,2.768,1.25,2.768,2.768V67.839z"
			/>
		<path d="M70.182,89.466c0,1.53-1.249,2.78-2.769,2.78h-6.82c-1.543,0-2.781-1.25-2.781-2.78v-6.423
			c0-1.538,1.237-2.783,2.781-2.783h6.82c1.52,0,2.769,1.245,2.769,2.783V89.466z M70.182,67.839c0,1.525-1.249,2.773-2.769,2.773
			h-6.82c-1.543,0-2.781-1.248-2.781-2.773v-6.441c0-1.518,1.237-2.768,2.781-2.768h6.82c1.52,0,2.769,1.25,2.769,2.768V67.839z"/>
		<path d="M92.25,89.841c0,1.513-1.248,2.764-2.775,2.764h-6.82c-1.542,0-2.768-1.251-2.768-2.764v-6.429
			c0-1.537,1.226-2.784,2.768-2.784h6.82c1.528,0,2.775,1.247,2.775,2.784V89.841z M92.25,68.202c0,1.533-1.248,2.779-2.775,2.779
			h-6.82c-1.542,0-2.768-1.246-2.768-2.779v-6.431c0-1.531,1.226-2.764,2.768-2.764h6.82c1.528,0,2.775,1.232,2.775,2.764V68.202z"
			/>
	</g>
	<g>
		<path d="M104.529,21.102h-7.118v9.368h7.118l0.011,75.773H23.47V30.47h7.117v-9.368H23.47c-5.171,0-9.375,4.204-9.375,9.368
			v75.773c0,5.161,4.204,9.365,9.375,9.365h81.059c5.178,0,9.377-4.204,9.377-9.365V30.47
			C113.906,25.306,109.707,21.102,104.529,21.102z"/>
		<rect x="51.377" y="21.102" width="25.24" height="9.368"/>
		<g>
			<path d="M44.075,13.124h-6.183c-1.19,0-2.151,1.002-2.151,2.236v5.742v9.368v5.748c0,1.23,0.961,2.227,2.151,2.227h6.183
				c1.19,0,2.153-0.996,2.153-2.227V30.47v-9.368V15.36C46.228,14.125,45.265,13.124,44.075,13.124z"/>
			<path d="M90.097,13.124h-6.176c-1.199,0-2.147,1.002-2.147,2.236v5.742v9.368v5.748c0,1.23,0.948,2.227,2.147,2.227h6.176
				c1.191,0,2.153-0.996,2.153-2.227V30.47v-9.368V15.36C92.25,14.125,91.288,13.124,90.097,13.124z"/>
		</g>
	</g>
</g>
</svg>
