<?xml version="1.0" encoding="utf-8"?>
<!-- Generator: Adobe Illustrator 16.2.1, SVG Export Plug-In . SVG Version: 6.00 Build 0)  -->
<!DOCTYPE svg PUBLIC "-//W3C//DTD SVG 1.1//EN" "http://www.w3.org/Graphics/SVG/1.1/DTD/svg11.dtd">
<svg version="1.1" id="Layer_2" xmlns="http://www.w3.org/2000/svg" xmlns:xlink="http://www.w3.org/1999/xlink" x="0px" y="0px"
	 width="128px" height="129px" viewBox="0 0 128 129" enable-background="new 0 0 128 129" xml:space="preserve">
<path d="M92.935,45.763l-3.549-3.545c-1.273-1.261-3.479-1.25-4.721,0.002l-31.494,31.48l-9.848-9.846
	c-1.271-1.261-3.459-1.267-4.711-0.006l-3.57,3.563c-0.619,0.618-0.951,1.453-0.951,2.35c0,0.893,0.336,1.726,0.963,2.352
	l15.764,15.768c0.584,0.581,1.336,0.9,1.961,0.914c0.098,0.022,0.305,0.051,0.398,0.051l0.174-0.02
	c0.859-0.042,1.59-0.364,2.195-0.968l37.371-37.366C94.231,49.19,94.241,47.079,92.935,45.763z"/>
</svg>
