<?xml version="1.0" encoding="utf-8"?>
<!-- Generator: Adobe Illustrator 16.2.1, SVG Export Plug-In . SVG Version: 6.00 Build 0)  -->
<!DOCTYPE svg PUBLIC "-//W3C//DTD SVG 1.1//EN" "http://www.w3.org/Graphics/SVG/1.1/DTD/svg11.dtd">
<svg version="1.1" id="Layer_2" xmlns="http://www.w3.org/2000/svg" xmlns:xlink="http://www.w3.org/1999/xlink" x="0px" y="0px"
	 width="128px" height="129px" viewBox="0 0 128 129" enable-background="new 0 0 128 129" xml:space="preserve">
<path d="M86.564,79.487L72.695,64.951l14.451-14.462c1.311-1.294,0.98-3.398-0.32-4.712l-3.707-3.534
	c-1.24-1.251-3.486-1.242-4.75,0.004L66.768,53.828v0.001l-3.172,2.884l-3.18-2.884v-0.001L49.102,42.247
	c-1.266-1.247-3.346-1.256-4.582-0.004l-3.502,3.534c-1.279,1.314-1.316,3.418-0.035,4.712l11.531,11.567v-0.003l2.975,2.897
	l-14.51,14.537c-1.287,1.297-1.271,3.402,0.004,4.702l3.576,3.536c1.232,1.263,3.438,1.256,4.693-0.003l14.541-14.542l14.525,14.542
	c1.264,1.26,3.475,1.266,4.705,0.003l3.559-3.536C87.861,82.89,87.854,80.784,86.564,79.487z"/>
</svg>
