<?xml version="1.0" encoding="utf-8"?>
<!-- Generator: Adobe Illustrator 16.2.1, SVG Export Plug-In . SVG Version: 6.00 Build 0)  -->
<!DOCTYPE svg PUBLIC "-//W3C//DTD SVG 1.1//EN" "http://www.w3.org/Graphics/SVG/1.1/DTD/svg11.dtd">
<svg version="1.1" id="Layer_2" xmlns="http://www.w3.org/2000/svg" xmlns:xlink="http://www.w3.org/1999/xlink" x="0px" y="0px"
	 width="128px" height="129px" viewBox="0 0 128 129" enable-background="new 0 0 128 129" xml:space="preserve">
<path d="M114.741,62.835l-0.51-0.792l-43.392-43.4c-1.882-1.874-4.372-2.787-6.832-2.729v0.129l0,0v-0.129
	c-2.476-0.058-4.965,0.855-6.84,2.729l-43.4,43.4l-0.497,0.792c-0.769,1.245-1.606,3.073-1.61,5.123
	c0.006,5.352,4.357,9.692,9.696,9.692h2.503v27.338c0,4.463,3.634,8.102,8.099,8.102h21.64h10.409h7.385h24.661
	c4.464,0,8.089-3.638,8.089-8.102V77.65h2.502c5.335,0,9.691-4.34,9.694-9.692C116.336,65.908,115.497,64.08,114.741,62.835z
	 M101.097,67.95h-2.481H94.23v35.173H71.393h-4.504h-2.881h-0.003H61.11h-7.511H33.77V67.95h-4.384h-2.481h-5.205L64.005,25.65
	h0.003l42.296,42.299H101.097z"/>
</svg>
