<?xml version="1.0" encoding="utf-8"?>
<!-- Generator: Adobe Illustrator 16.2.1, SVG Export Plug-In . SVG Version: 6.00 Build 0)  -->
<!DOCTYPE svg PUBLIC "-//W3C//DTD SVG 1.1//EN" "http://www.w3.org/Graphics/SVG/1.1/DTD/svg11.dtd">
<svg version="1.1" id="Layer_2" xmlns="http://www.w3.org/2000/svg" xmlns:xlink="http://www.w3.org/1999/xlink" x="0px" y="0px"
	 width="128px" height="129px" viewBox="0 0 128 129" enable-background="new 0 0 128 129" xml:space="preserve">
<g>
	<path d="M103.02,16.649C92.596,6.224,78.745,0.48,63.999,0.48c-14.745,0-28.595,5.742-39.011,16.167
		c-10.417,10.409-16.159,24.27-16.159,39c0.004,14.746,5.745,28.596,16.158,39.02c10.422,10.425,24.27,16.156,39.012,16.156
		c14.746,0,28.597-5.731,39.021-16.156c10.41-10.423,16.151-24.272,16.151-39.02C119.171,40.913,113.43,27.054,103.02,16.649z
		 M63.999,100.439c-11.961,0-23.208-4.66-31.655-13.111C23.877,78.86,19.22,67.612,19.22,55.647c0-11.961,4.657-23.2,13.125-31.656
		c8.446-8.453,19.692-13.112,31.653-13.112c11.96,0,23.21,4.66,31.665,13.112c8.466,8.456,13.123,19.695,13.123,31.656
		c0,11.965-4.657,23.213-13.123,31.681C87.209,95.78,75.96,100.439,63.999,100.439z"/>
	<g>
		<path d="M74.147,78.059l-0.804,3.297c-2.417,0.946-4.35,1.68-5.789,2.174c-1.445,0.505-3.111,0.748-5.021,0.748
			c-2.926,0-5.203-0.707-6.824-2.139c-1.625-1.42-2.433-3.237-2.433-5.435c0-0.853,0.06-1.724,0.185-2.614
			c0.116-0.897,0.309-1.903,0.581-3.026l3.02-10.688c0.273-1.023,0.502-1.994,0.689-2.907c0.178-0.921,0.269-1.757,0.269-2.512
			c0-1.367-0.275-2.319-0.846-2.864c-0.558-0.524-1.633-0.799-3.229-0.799c-0.782,0-1.581,0.125-2.407,0.368
			c-0.819,0.251-1.518,0.473-2.11,0.695l0.809-3.296c1.986-0.801,3.875-1.49,5.676-2.069c1.821-0.565,3.523-0.859,5.144-0.859
			c2.903,0,5.142,0.702,6.724,2.104c1.571,1.41,2.361,3.233,2.361,5.477c0,0.468-0.055,1.28-0.163,2.454
			c-0.11,1.176-0.314,2.246-0.608,3.22l-3.01,10.655c-0.246,0.849-0.471,1.834-0.658,2.933c-0.193,1.099-0.292,1.924-0.292,2.478
			c0,1.422,0.314,2.385,0.945,2.905c0.632,0.503,1.728,0.766,3.293,0.766c0.726,0,1.559-0.133,2.491-0.393
			C73.062,78.484,73.727,78.259,74.147,78.059z M74.912,33.351c0,1.864-0.7,3.437-2.106,4.745c-1.409,1.309-3.09,1.952-5.064,1.952
			c-1.983,0-3.679-0.643-5.098-1.952c-1.413-1.308-2.122-2.881-2.122-4.745c0-1.852,0.709-3.433,2.122-4.752
			c1.418-1.32,3.114-1.981,5.098-1.981c1.974,0,3.655,0.661,5.064,1.981C74.212,29.918,74.912,31.5,74.912,33.351z"/>
	</g>
</g>
</svg>
