<?xml version="1.0" encoding="utf-8"?>
<!-- Generator: Adobe Illustrator 16.2.1, SVG Export Plug-In . SVG Version: 6.00 Build 0)  -->
<!DOCTYPE svg PUBLIC "-//W3C//DTD SVG 1.1//EN" "http://www.w3.org/Graphics/SVG/1.1/DTD/svg11.dtd">
<svg version="1.1" id="Layer_2" xmlns="http://www.w3.org/2000/svg" xmlns:xlink="http://www.w3.org/1999/xlink" x="0px" y="0px"
	 width="128px" height="129px" viewBox="0 0 128 129" enable-background="new 0 0 128 129" xml:space="preserve">
<g>
	<path d="M37.926,58.834c0,1.199-0.986,2.173-2.174,2.173h-5.367c-1.195,0-2.176-0.974-2.176-2.173v-5.053
		c0-1.203,0.98-2.177,2.176-2.177h5.367c1.188,0,2.174,0.974,2.174,2.177V58.834z M37.926,39.08c0,1.202-0.986,2.188-2.174,2.188
		h-5.367c-1.195,0-2.176-0.986-2.176-2.188v-5.039c0-1.204,0.98-2.177,2.176-2.177h5.367c1.188,0,2.174,0.974,2.174,2.177V39.08z
		 M37.926,19.34c0,1.204-0.986,2.172-2.174,2.172h-5.367c-1.195,0-2.176-0.969-2.176-2.172v-5.043c0-1.203,0.98-2.177,2.176-2.177
		h5.367c1.188,0,2.174,0.974,2.174,2.177V19.34z M99.791,58.834c0,1.199-0.99,2.173-2.18,2.173H51.098
		c-1.213,0-2.182-0.974-2.182-2.173v-5.053c0-1.203,0.969-2.177,2.182-2.177h46.514c1.189,0,2.18,0.974,2.18,2.177V58.834z
		 M99.791,39.08c0,1.202-0.99,2.188-2.18,2.188H51.098c-1.213,0-2.182-0.986-2.182-2.188v-5.039c0-1.204,0.969-2.177,2.182-2.177
		h46.514c1.189,0,2.18,0.974,2.18,2.177V39.08z M99.791,19.34c0,1.204-0.99,2.172-2.18,2.172H51.098
		c-1.213,0-2.182-0.969-2.182-2.172v-5.043c0-1.203,0.969-2.177,2.182-2.177h46.514c1.189,0,2.18,0.974,2.18,2.177V19.34z"/>
</g>
</svg>
