<?xml version="1.0" encoding="utf-8"?>
<!-- Generator: Adobe Illustrator 16.2.1, SVG Export Plug-In . SVG Version: 6.00 Build 0)  -->
<!DOCTYPE svg PUBLIC "-//W3C//DTD SVG 1.1//EN" "http://www.w3.org/Graphics/SVG/1.1/DTD/svg11.dtd">
<svg version="1.1" id="Layer_2" xmlns="http://www.w3.org/2000/svg" xmlns:xlink="http://www.w3.org/1999/xlink" x="0px" y="0px"
	 width="128px" height="129px" viewBox="0 0 128 129" enable-background="new 0 0 128 129" xml:space="preserve">
<g>
	<g>
		<path d="M63.997,127.834c-1.029,0-2.057-0.306-2.937-0.927c-14.243-9.9-45.462-43.057-45.462-77.082
			c0-34.521,31.352-49.448,47.349-49.448h2.099c16.005,0,47.355,14.927,47.355,49.448c0,34.034-31.214,67.186-45.467,77.082
			C66.052,127.533,65.025,127.834,63.997,127.834z M62.947,10.694c-9.491,0-37.04,9.633-37.04,39.13
			c0,28.167,25.49,56.174,38.089,66.389c12.602-10.209,38.102-38.212,38.102-66.389c0-29.498-27.553-39.13-37.052-39.13H62.947z"/>
	</g>
	<g>
		<path d="M63.997,74.674c-14.296,0-25.931-11.637-25.931-25.93c0-14.298,11.634-25.924,25.931-25.924
			c14.297,0,25.936,11.626,25.936,25.924C89.932,63.038,78.294,74.674,63.997,74.674z M63.997,33.127
			c-8.608,0-15.621,7.007-15.621,15.617c0,8.604,7.013,15.615,15.621,15.615c8.608,0,15.62-7.011,15.62-15.615
			C79.617,40.135,72.605,33.127,63.997,33.127z"/>
	</g>
</g>
</svg>
