<?xml version="1.0" encoding="utf-8"?>
<!-- Generator: Adobe Illustrator 16.2.1, SVG Export Plug-In . SVG Version: 6.00 Build 0)  -->
<!DOCTYPE svg PUBLIC "-//W3C//DTD SVG 1.1//EN" "http://www.w3.org/Graphics/SVG/1.1/DTD/svg11.dtd">
<svg version="1.1" id="Layer_2" xmlns="http://www.w3.org/2000/svg" xmlns:xlink="http://www.w3.org/1999/xlink" x="0px" y="0px"
	 width="128px" height="129px" viewBox="0 0 128 129" enable-background="new 0 0 128 129" xml:space="preserve">
<g>
	<g>
		<path d="M64.398,81.575c-0.794,0-1.587-0.276-2.225-0.815L18.442,43.777c-1.399-1.197-1.626-3.287-0.499-4.75
			c1.125-1.451,3.215-1.77,4.712-0.708l41.352,29.128l41.331-27.723c1.525-1.033,3.578-0.679,4.686,0.8
			c1.092,1.472,0.844,3.549-0.564,4.723L66.592,80.782C65.971,81.303,65.184,81.575,64.398,81.575z"/>
	</g>
	<g>
		<path d="M118.561,111.58H9.369c-5.167,0-9.369-4.203-9.369-9.379V26.439c0-5.171,4.201-9.374,9.369-9.374h109.192
			c5.172,0,9.371,4.203,9.371,9.374v75.762C127.932,107.376,123.732,111.58,118.561,111.58z M9.369,26.439v75.762h109.198
			l-0.006-75.762H9.369z"/>
	</g>
</g>
</svg>
