<?xml version="1.0" encoding="utf-8"?>
<!-- Generator: Adobe Illustrator 16.2.1, SVG Export Plug-In . SVG Version: 6.00 Build 0)  -->
<!DOCTYPE svg PUBLIC "-//W3C//DTD SVG 1.1//EN" "http://www.w3.org/Graphics/SVG/1.1/DTD/svg11.dtd">
<svg version="1.1" id="Layer_2" xmlns="http://www.w3.org/2000/svg" xmlns:xlink="http://www.w3.org/1999/xlink" x="0px" y="0px"
	 width="128px" height="129px" viewBox="0 0 128 129" enable-background="new 0 0 128 129" xml:space="preserve">
<path d="M81.365,84.838L60.854,64.31L81.258,43.9c1.271-1.252,1.277-3.464,0-4.708l-3.533-3.563
	c-1.326-1.298-3.443-1.286-4.727,0.014L62.5,46.12c-0.029,0.032-0.064,0.04-0.092,0.065L46.67,61.934
	c-0.586,0.585-0.918,1.335-0.934,1.973c-0.023,0.092-0.051,0.291-0.051,0.389v0.014v0.013c0,0.097,0.027,0.306,0.051,0.396
	c0.016,0.627,0.348,1.39,0.934,1.961l15.738,15.763c0.027,0.026,0.062,0.034,0.092,0.061L73.107,93.09
	c1.293,1.298,3.402,1.312,4.73,0.013l3.531-3.56C82.635,88.307,82.627,86.097,81.365,84.838z"/>
</svg>
