<?xml version="1.0" encoding="utf-8"?>
<!-- Generator: Adobe Illustrator 16.2.1, SVG Export Plug-In . SVG Version: 6.00 Build 0)  -->
<!DOCTYPE svg PUBLIC "-//W3C//DTD SVG 1.1//EN" "http://www.w3.org/Graphics/SVG/1.1/DTD/svg11.dtd">
<svg version="1.1" id="Layer_2" xmlns="http://www.w3.org/2000/svg" xmlns:xlink="http://www.w3.org/1999/xlink" x="0px" y="0px"
	 width="128px" height="129px" viewBox="0 0 128 129" enable-background="new 0 0 128 129" xml:space="preserve">
<path d="M92.74,50.638l-3.564-3.545c-1.234-1.25-3.445-1.246-4.709,0.005L64.072,67.526L43.541,46.983
	c-1.262-1.251-3.48-1.26-4.717,0l-3.564,3.543c-1.297,1.312-1.279,3.43,0.014,4.741L45.861,65.85c0.035,0.03,0.045,0.072,0.08,0.107
	L61.695,81.72c0.561,0.579,1.328,0.896,1.967,0.909c0.088,0.03,0.297,0.061,0.395,0.061h0.016h0.012c0.1,0,0.295-0.031,0.375-0.061
	c0.637-0.013,1.404-0.33,1.961-0.909l15.758-15.763c0.029-0.035,0.041-0.077,0.07-0.101l10.48-10.472
	C94.025,54.077,94.037,51.958,92.74,50.638z"/>
</svg>
