<?xml version="1.0" encoding="utf-8"?>
<!-- Generator: Adobe Illustrator 16.2.1, SVG Export Plug-In . SVG Version: 6.00 Build 0)  -->
<!DOCTYPE svg PUBLIC "-//W3C//DTD SVG 1.1//EN" "http://www.w3.org/Graphics/SVG/1.1/DTD/svg11.dtd">
<svg version="1.1" id="Layer_2" xmlns="http://www.w3.org/2000/svg" xmlns:xlink="http://www.w3.org/1999/xlink" x="0px" y="0px"
	 width="128px" height="129px" viewBox="0 0 128 129" enable-background="new 0 0 128 129" xml:space="preserve">
<path d="M82.319,35.91c0-0.098-0.031-0.306-0.055-0.391c-0.016-0.636-0.348-1.384-0.904-1.97L65.593,17.8
	c-0.031-0.024-0.072-0.038-0.098-0.069L54.903,7.142c-1.307-1.299-3.416-1.312-4.721-0.014l-3.555,3.563
	c-1.262,1.245-1.256,3.456,0,4.708l20.523,20.523l-20.41,20.416c-1.25,1.259-1.26,3.469-0.002,4.704l3.555,3.56
	c1.305,1.3,3.422,1.286,4.727-0.013l10.475-10.472c0.025-0.025,0.066-0.034,0.098-0.06L81.36,38.293
	c0.557-0.572,0.889-1.333,0.904-1.961c0.023-0.088,0.055-0.297,0.055-0.396l-0.006-0.013L82.319,35.91z"/>
</svg>
