<?xml version="1.0" encoding="utf-8"?>
<!-- Generator: Adobe Illustrator 16.2.1, SVG Export Plug-In . SVG Version: 6.00 Build 0)  -->
<!DOCTYPE svg PUBLIC "-//W3C//DTD SVG 1.1//EN" "http://www.w3.org/Graphics/SVG/1.1/DTD/svg11.dtd">
<svg version="1.1" id="Layer_2" xmlns="http://www.w3.org/2000/svg" xmlns:xlink="http://www.w3.org/1999/xlink" x="0px" y="0px"
	 width="128px" height="129px" viewBox="0 0 128 129" enable-background="new 0 0 128 129" xml:space="preserve">
<path d="M70.388,62.276l-0.004-20.623h4.102l0,0h16.42c1.834,0,3.344-1.484,3.363-3.33l-0.018-5.024
	c0.018-1.776-1.562-3.331-3.342-3.336l-16.426,0.008l0,0h-4.096l-0.006-4.096h0.002l0.008-16.423
	c-0.002-1.783-1.549-3.343-3.322-3.331l-5.031-0.012C60.2,6.121,58.722,7.617,58.72,9.452v16.423h0.002l-0.004,4.096H38.095
	c-1.844,0-3.348,1.494-3.363,3.333l0.014,5.023c-0.016,1.77,1.566,3.337,3.342,3.326h20.635l-0.004,20.627
	c-0.008,1.775,1.547,3.343,3.32,3.331l5.027,0.013C68.903,65.606,70.384,64.108,70.388,62.276z"/>
</svg>
