<?xml version="1.0" encoding="utf-8"?>
<!-- Generator: Adobe Illustrator 16.2.1, SVG Export Plug-In . SVG Version: 6.00 Build 0)  -->
<!DOCTYPE svg PUBLIC "-//W3C//DTD SVG 1.1//EN" "http://www.w3.org/Graphics/SVG/1.1/DTD/svg11.dtd">
<svg version="1.1" id="Layer_2" xmlns="http://www.w3.org/2000/svg" xmlns:xlink="http://www.w3.org/1999/xlink" x="0px" y="0px"
	 width="128px" height="129px" viewBox="0 0 128 129" enable-background="new 0 0 128 129" xml:space="preserve">
<g>
	<path d="M99.791,58.268c0,1.202-0.98,2.176-2.181,2.176H30.391c-1.199,0-2.184-0.974-2.184-2.176v-5.05
		c0-1.204,0.984-2.178,2.184-2.178H97.61c1.201,0,2.181,0.974,2.181,2.178V58.268z M99.791,38.52c0,1.199-0.98,2.18-2.181,2.18
		H30.391c-1.199,0-2.184-0.981-2.184-2.18v-5.045c0-1.201,0.984-2.174,2.184-2.174H97.61c1.201,0,2.181,0.973,2.181,2.174V38.52z
		 M99.791,18.776c0,1.201-0.98,2.173-2.181,2.173H30.391c-1.199,0-2.184-0.972-2.184-2.173v-5.043c0-1.203,0.984-2.177,2.184-2.177
		H97.61c1.201,0,2.181,0.974,2.181,2.177V18.776z"/>
</g>
</svg>
