<?xml version="1.0" encoding="utf-8"?>
<!-- Generator: Adobe Illustrator 16.2.1, SVG Export Plug-In . SVG Version: 6.00 Build 0)  -->
<!DOCTYPE svg PUBLIC "-//W3C//DTD SVG 1.1//EN" "http://www.w3.org/Graphics/SVG/1.1/DTD/svg11.dtd">
<svg version="1.1" id="Layer_2" xmlns="http://www.w3.org/2000/svg" xmlns:xlink="http://www.w3.org/1999/xlink" x="0px" y="0px"
	 width="128px" height="129px" viewBox="0 0 128 129" enable-background="new 0 0 128 129" xml:space="preserve">
<g>
	<g>
		<g>
			<path d="M91.319,91.544H81.24c0-11.832-4.606-22.947-12.958-31.288c-8.373-8.38-19.49-12.989-31.316-12.989V37.188
				c14.519,0,28.172,5.659,38.432,15.931C85.664,63.374,91.319,77.016,91.319,91.544z"/>
		</g>
	</g>
	<g>
		<g>
			<path d="M72.774,91.544h-10.08c0-6.875-2.678-13.339-7.527-18.179c-4.867-4.871-11.326-7.539-18.201-7.539V55.745
				c9.567,0,18.556,3.725,25.317,10.49C69.044,72.981,72.774,81.974,72.774,91.544z"/>
		</g>
	</g>
	<path d="M51.523,84.398c0,4.099-3.322,7.413-7.411,7.413c-4.106,0-7.426-3.313-7.426-7.413c0-4.094,3.319-7.413,7.426-7.413
		C48.201,76.985,51.523,80.304,51.523,84.398z"/>
</g>
</svg>
