<?xml version="1.0" encoding="utf-8"?>
<!-- Generator: Adobe Illustrator 16.2.1, SVG Export Plug-In . SVG Version: 6.00 Build 0)  -->
<!DOCTYPE svg PUBLIC "-//W3C//DTD SVG 1.1//EN" "http://www.w3.org/Graphics/SVG/1.1/DTD/svg11.dtd">
<svg version="1.1" id="Layer_2" xmlns="http://www.w3.org/2000/svg" xmlns:xlink="http://www.w3.org/1999/xlink" x="0px" y="0px"
	 width="128px" height="129px" viewBox="0 0 128 129" enable-background="new 0 0 128 129" xml:space="preserve">
<g>
	<g>
		<g>
			<path d="M92.471,62.757H81.967c0-12.331-4.8-23.916-13.505-32.608c-8.726-8.733-20.312-13.537-32.638-13.537V6.108
				c15.132,0,29.361,5.898,40.053,16.604C86.577,33.398,92.471,47.616,92.471,62.757z"/>
		</g>
	</g>
	<g>
		<g>
			<path d="M73.144,62.757H62.639c0-7.165-2.791-13.902-7.845-18.946c-5.072-5.077-11.804-7.857-18.969-7.857V25.448
				c9.972,0,19.339,3.882,26.386,10.933C69.257,43.411,73.144,52.784,73.144,62.757z"/>
		</g>
	</g>
	<path d="M50.997,55.31c0,4.272-3.463,7.726-7.724,7.726c-4.28,0-7.739-3.453-7.739-7.726c0-4.266,3.459-7.726,7.739-7.726
		C47.534,47.584,50.997,51.043,50.997,55.31z"/>
</g>
</svg>
