<?xml version="1.0" encoding="utf-8"?>
<!-- Generator: Adobe Illustrator 16.2.1, SVG Export Plug-In . SVG Version: 6.00 Build 0)  -->
<!DOCTYPE svg PUBLIC "-//W3C//DTD SVG 1.1//EN" "http://www.w3.org/Graphics/SVG/1.1/DTD/svg11.dtd">
<svg version="1.1" id="Layer_2" xmlns="http://www.w3.org/2000/svg" xmlns:xlink="http://www.w3.org/1999/xlink" x="0px" y="0px"
	 width="128px" height="129px" viewBox="0 0 128 129" enable-background="new 0 0 128 129" xml:space="preserve">
<path d="M106.639,103.229l-4.164-4.15l-2.907-2.895l-8.252-8.262L80.319,76.92c4.98-6.348,7.984-14.33,7.984-23.015
	c0-20.611-16.764-37.382-37.386-37.382c-20.612,0-37.387,16.771-37.387,37.382c0,20.612,16.774,37.382,37.387,37.382
	c7.716,0,14.909-2.354,20.863-6.377l11.277,11.273l8.259,8.251l2.899,2.908l4.145,4.15c1.3,1.3,3.413,1.316,4.73,0.019l3.543-3.562
	C107.903,106.688,107.889,104.485,106.639,103.229z M23.85,53.906c0-14.928,12.146-27.07,27.067-27.07
	C65.852,26.836,78,38.978,78,53.906c0,14.936-12.148,27.078-27.083,27.078C35.996,80.983,23.85,68.841,23.85,53.906z"/>
</svg>
