<?xml version="1.0" encoding="utf-8"?>
<!-- Generated by IcoMoon.io -->
<!DOCTYPE svg PUBLIC "-//W3C//DTD SVG 1.1//EN" "http://www.w3.org/Graphics/SVG/1.1/DTD/svg11.dtd">
<svg version="1.1" xmlns="http://www.w3.org/2000/svg" xmlns:xlink="http://www.w3.org/1999/xlink" width="47" height="64" viewBox="0 0 47 64">
	<path d="M20.409 26.295q-3.864-4.091-6.455-4.091-1.591 0-2.614 1.205t-1.023 2.841q0 1.75 1.023 2.818t2.773 1.068q1.545 0 3.239-1.125t3.057-2.716zM36.25 26.205q0-1.682-1.045-2.841t-2.773-1.159q-0.886 0-1.761 0.364t-1.784 1.125-1.375 1.227-1.33 1.375q1.455 1.705 3 2.773t3.409 1.068q1.705 0 2.682-1.114t0.977-2.818zM23.273 2.909q4.727 0 9.034 1.841t7.432 4.966 4.966 7.432 1.841 9.034-1.841 9.034-4.966 7.432-7.432 4.966-9.034 1.841-9.034-1.841-7.432-4.966-4.966-7.432-1.841-9.034 1.841-9.034 4.966-7.432 7.432-4.966 9.034-1.841zM32.477 34.909q3.705 0 5.977-2.557t2.273-6.284q0-3.75-2.205-6.182t-5.977-2.432q-1.477 0-2.807 0.455t-2.5 1.341-2.034 1.75-1.909 2.114q-1.136-1.341-1.966-2.182t-2.011-1.727-2.511-1.318-2.852-0.432q-3.727 0-5.932 2.489t-2.205 6.216q0 3.818 2.307 6.284t6.034 2.466q1.432 0 2.659-0.375t2.352-1.193 1.864-1.5 1.898-1.909q0.25-0.25 0.364-0.386 2.114 2.455 4.33 3.909t4.852 1.455z" />
</svg>
