<?xml version="1.0" encoding="utf-8"?>
<!-- Generated by IcoMoon.io -->
<!DOCTYPE svg PUBLIC "-//W3C//DTD SVG 1.1//EN" "http://www.w3.org/Graphics/SVG/1.1/DTD/svg11.dtd">
<svg version="1.1" xmlns="http://www.w3.org/2000/svg" xmlns:xlink="http://www.w3.org/1999/xlink" width="47" height="64" viewBox="0 0 47 64">
	<path d="M35.705 31.5q2.273 0 3.58-1.5t1.307-3.795q0-2.273-1.398-3.83t-3.693-1.557q-1.182 0-2.352 0.489t-2.398 1.511-1.852 1.648-1.761 1.852q1.932 2.295 4.011 3.739t4.557 1.443zM11.136 37.909q-4.977 0-8.057-3.318t-3.080-8.432q0-3.25 1.261-5.886t3.761-4.227 5.818-1.591q1.636 0 3.159 0.432t2.682 1.068 2.42 1.727 2.136 2.034 2.057 2.352q1.091-1.318 1.989-2.284t2.136-2.034 2.42-1.739 2.693-1.114 3.080-0.443q5.045 0 7.989 3.273t2.943 8.318q0 3.25-1.33 5.932t-3.864 4.307-5.807 1.625q-1.841 0-3.591-0.58t-3.295-1.648-2.795-2.25-2.568-2.727q-2.75 2.886-3.841 3.818-3.318 2.886-6.864 3.295-0.705 0.091-1.455 0.091zM11.045 31.5q2.091 0 4.352-1.534t4.057-3.648q-0.955-1.045-1.807-1.841t-2.023-1.716-2.409-1.432-2.375-0.511q-2.114 0-3.477 1.636t-1.364 3.841q0 2.318 1.364 3.761t3.682 1.443z" />
</svg>
