<?xml version="1.0" encoding="utf-8"?>
<!-- Generated by IcoMoon.io -->
<!DOCTYPE svg PUBLIC "-//W3C//DTD SVG 1.1//EN" "http://www.w3.org/Graphics/SVG/1.1/DTD/svg11.dtd">
<svg version="1.1" xmlns="http://www.w3.org/2000/svg" xmlns:xlink="http://www.w3.org/1999/xlink" width="47" height="64" viewBox="0 0 47 64">
	<path d="M45.068 36.659q0.705 0 1.091 0.466t0.386 1.261q0 0.909-0.295 1.966t-0.966 2.17-1.602 2-2.352 1.455-3.057 0.568q-3.341 0-5.818-2.193t-4.341-6.33q-6 8.523-13.432 8.523-1.432 0-2.83-0.284t-2.875-0.966-2.773-1.727-2.443-2.67-1.977-3.67-1.307-4.864-0.477-6.114q0-3.614 0.568-6.648t1.591-5.239 2.386-3.875 3.045-2.67 3.466-1.5 3.739-0.5q1.886 0 3.591 0.591t3.068 1.67 2.511 2.398 2.080 2.977 1.614 3.17 1.273 3.216q2.045-5.523 4-12.432 0.295-0.886 0.75-1.239t1.25-0.352h4.409q0.773 0 1.216 0.341t0.261 1q-4.295 14.932-8.591 23.75 1.568 4.477 3.034 6.375t3.011 1.898q1.432 0 1.864-1.205 0.545-1.318 2-1.318h2.932zM14.409 38.955q2.795 0 5.42-2.443t5.216-7.534q-2.091-7.955-4.523-11.761t-5.977-3.807q-1.318 0-2.466 0.352t-2.273 1.239-1.909 2.273-1.273 3.614-0.489 5.091q0 3.205 0.557 5.636t1.386 3.795 1.989 2.193 2.182 1.091 2.159 0.261z" />
</svg>
