<?xml version="1.0" encoding="utf-8"?>
<!-- Generated by IcoMoon.io -->
<!DOCTYPE svg PUBLIC "-//W3C//DTD SVG 1.1//EN" "http://www.w3.org/Graphics/SVG/1.1/DTD/svg11.dtd">
<svg version="1.1" xmlns="http://www.w3.org/2000/svg" xmlns:xlink="http://www.w3.org/1999/xlink" width="47" height="64" viewBox="0 0 47 64">
	<path d="M25.364 27.932q-1.318-4.977-2.841-7.352t-3.75-2.375q-1.045 0-1.92 0.375t-1.659 1.216-1.227 2.443-0.443 3.807q0 2.023 0.352 3.534t0.864 2.364 1.25 1.375 1.375 0.682 1.341 0.159q3.455 0 6.659-6.227zM23.273 2.909q4.727 0 9.034 1.841t7.432 4.966 4.966 7.432 1.841 9.034-1.841 9.034-4.966 7.432-7.432 4.966-9.034 1.841-9.034-1.841-7.432-4.966-4.966-7.432-1.841-9.034 1.841-9.034 4.966-7.432 7.432-4.966 9.034-1.841zM33.614 38.909q1.273 0 2.318-0.534t1.636-1.341 0.909-1.648 0.318-1.568q0-1.091-0.932-1.091h-1.818q-0.932 0-1.25 0.841-0.341 0.75-1.182 0.75-0.955 0-1.875-1.193t-1.898-3.989q2.636-5.432 5.364-14.841 0.114-0.409-0.159-0.625t-0.75-0.216h-2.75q-0.523 0-0.807 0.227t-0.443 0.773q-1.25 4.25-2.523 7.773-0.455-1.295-0.966-2.42t-1.318-2.33-1.716-2.057-2.159-1.409-2.659-0.557q-1.864 0-3.466 0.716t-2.932 2.182-2.091 4-0.761 5.875q0 2.864 0.58 5.114t1.489 3.636 2.148 2.307 2.455 1.273 2.489 0.352q4.682 0 8.409-5.318 2.409 5.318 6.341 5.318z" />
</svg>
