<?xml version="1.0" encoding="utf-8"?>
<!-- Generated by IcoMoon.io -->
<!DOCTYPE svg PUBLIC "-//W3C//DTD SVG 1.1//EN" "http://www.w3.org/Graphics/SVG/1.1/DTD/svg11.dtd">
<svg version="1.1" xmlns="http://www.w3.org/2000/svg" xmlns:xlink="http://www.w3.org/1999/xlink" width="47" height="64" viewBox="0 0 47 64">
	<path d="M23.273 2.909q4.727 0 9.034 1.841t7.432 4.966 4.966 7.432 1.841 9.034-1.841 9.034-4.966 7.432-7.432 4.966-9.034 1.841-9.034-1.841-7.432-4.966-4.966-7.432-1.841-9.034 1.841-9.034 4.966-7.432 7.432-4.966 9.034-1.841zM29.205 8.091q-1.114 0.091-2.261 0.614t-2.125 1.409-1.523 2.239-0.341 2.898q1.795 0.068 3.364-1.011t2.364-2.773 0.523-3.375zM29.409 39.432q1.091 0 2.25-0.852t2.023-2.057 1.568-2.42 1.068-2.057l0.386-0.864q-0.182-0.068-0.489-0.193t-1.080-0.648-1.352-1.182-1.068-1.841-0.489-2.545q0-1.159 0.375-2.193t0.898-1.682 1.045-1.136 0.909-0.716l0.364-0.205q-0.091-0.136-0.25-0.386t-0.727-0.864-1.205-1.091-1.659-0.864-2.114-0.386q-0.909 0-1.807 0.284t-1.5 0.614-1.318 0.614-1.307 0.284q-1.023 0-2.784-0.898t-3.17-0.898q-0.955 0-2.023 0.364t-2.159 1.17-1.966 1.92-1.432 2.795-0.557 3.614q0 3.159 1.409 6.557t3.466 5.58 3.875 2.182q0.909 0 2.5-0.648t2.955-0.648q1.545 0 2.943 0.648t2.42 0.648z" />
</svg>
