<?xml version="1.0" encoding="utf-8"?>
<!-- Generated by IcoMoon.io -->
<!DOCTYPE svg PUBLIC "-//W3C//DTD SVG 1.1//EN" "http://www.w3.org/Graphics/SVG/1.1/DTD/svg11.dtd">
<svg version="1.1" xmlns="http://www.w3.org/2000/svg" xmlns:xlink="http://www.w3.org/1999/xlink" width="47" height="64" viewBox="0 0 47 64">
	<path d="M38.572 20.471l0.162-0.162q1.993-1.993 1.993-4.795t-1.993-4.795-4.795-1.993-4.795 1.993l-21.333 21.333q-1.993 1.993-1.993 4.795t1.993 4.795 4.795 1.993 4.795-1.993l13.091-13.037q0.539-0.593 0.539-1.401t-0.539-1.347-1.347-0.539-1.401 0.539l-8.242 8.189q-0.862 0.862-2.047 0.862t-2.047-0.862-0.862-2.047 0.862-2.047l8.189-8.242q2.317-2.263 5.522-2.263t5.468 2.263q2.263 2.317 2.263 5.522t-2.263 5.468l-13.091 13.091q-3.663 3.663-8.889 3.663t-8.943-3.663q-3.663-3.717-3.663-8.943t3.663-8.889l21.333-21.333q3.717-3.717 8.943-3.717t8.889 3.717q3.717 3.663 3.717 8.889t-3.717 8.943l-2.101 2.101q-0.162-3.286-2.155-6.088z" />
</svg>
