<?xml version="1.0" encoding="utf-8"?>
<!-- Generated by IcoMoon.io -->
<!DOCTYPE svg PUBLIC "-//W3C//DTD SVG 1.1//EN" "http://www.w3.org/Graphics/SVG/1.1/DTD/svg11.dtd">
<svg version="1.1" xmlns="http://www.w3.org/2000/svg" xmlns:xlink="http://www.w3.org/1999/xlink" width="47" height="64" viewBox="0 0 47 64">
	<path d="M19.386 25.114q0.182 0.045 0.489 0.159t1.080 0.625 1.352 1.193 1.068 1.977 0.489 2.886q0 1.75-0.545 3.25t-1.727 2.773-3.352 2.011-5.148 0.739h-13.091v-29.091h14.068q4.068 0 6.477 1.966t2.409 5.58q0 1.136-0.284 2.114t-0.614 1.534-0.92 1.080-0.852 0.693-0.739 0.42q-0.114 0.068-0.159 0.091zM6.682 16.705v6.409h6.205q4.25 0 4.25-3.295 0-1.795-1.193-2.455t-3.83-0.659h-5.432zM12.886 35.659q2.682 0 3.761-1.080t1.080-3.057q0-3.614-4.75-3.614h-6.295v7.75h6.205zM46.545 30.273v1.295h-15.182q0.023 2.432 1.511 3.807t3.648 1.375q0.886 0 1.648-0.25t1.205-0.602 0.75-0.693 0.42-0.591l0.136-0.25h5.591q-0.682 3.045-3.398 4.92t-6.511 1.875q-4.727 0-7.614-2.852t-2.886-8.034q0-2.773 0.784-4.932t2.193-3.511 3.273-2.057 4.091-0.705q4.977 0 7.659 2.955t2.682 8.25zM31.455 27.955h9.432q0-1.886-1.318-3.148t-3.364-1.261q-2.091 0-3.307 1.25t-1.443 3.159zM42.659 15.523v-2.909h-12.591v2.909h12.591z" />
</svg>
