<?xml version="1.0" encoding="utf-8"?>
<!-- Generated by IcoMoon.io -->
<!DOCTYPE svg PUBLIC "-//W3C//DTD SVG 1.1//EN" "http://www.w3.org/Graphics/SVG/1.1/DTD/svg11.dtd">
<svg version="1.1" xmlns="http://www.w3.org/2000/svg" xmlns:xlink="http://www.w3.org/1999/xlink" width="47" height="64" viewBox="0 0 47 64">
	<path d="M14.818 13.227q0 0.886-0.307 1.648t-1.011 1.443-2.011 1.080-3.102 0.398h-6.409l1.727-8.091h6.182q1.432 0 2.443 0.318t1.534 0.864 0.739 1.114 0.216 1.227zM31.409 13.227q0 0.886-0.307 1.648t-1.011 1.443-2.011 1.080-3.102 0.398h-6.409l1.75-8.091h6.136q1.432 0 2.455 0.318t1.534 0.864 0.739 1.114 0.227 1.227zM12.614 25.409q0 0.886-0.318 1.648t-1.011 1.443-2.011 1.080-3.114 0.398h-6.409l1.75-8.091h6.159q1.432 0 2.455 0.318t1.534 0.864 0.739 1.114 0.227 1.227zM29.205 25.409q0 0.886-0.318 1.648t-1.011 1.443-2.011 1.080-3.114 0.398h-6.409l1.75-8.091h6.159q1.432 0 2.455 0.318t1.534 0.864 0.739 1.114 0.227 1.227zM46.545 20.477q0 1.909-1.5 3.239t-4.932 1.33h-6.432l1.75-8.114h6.159q1.432 0 2.455 0.318t1.534 0.875 0.739 1.125 0.227 1.227zM44.159 33.159q0 0.886-0.318 1.648t-1.011 1.443-2.011 1.080-3.114 0.398h-6.409l1.75-8.091h6.159q1.432 0 2.455 0.318t1.534 0.875 0.739 1.125 0.227 1.205zM26.795 38.091q0 0.886-0.307 1.648t-1 1.443-2 1.080-3.102 0.398h-6.432l1.75-8.091h6.159q1.432 0 2.455 0.318t1.534 0.875 0.727 1.125 0.216 1.205z" />
</svg>
