<?xml version="1.0" encoding="utf-8"?>
<!-- Generated by IcoMoon.io -->
<!DOCTYPE svg PUBLIC "-//W3C//DTD SVG 1.1//EN" "http://www.w3.org/Graphics/SVG/1.1/DTD/svg11.dtd">
<svg version="1.1" xmlns="http://www.w3.org/2000/svg" xmlns:xlink="http://www.w3.org/1999/xlink" width="47" height="64" viewBox="0 0 47 64">
	<path d="M43.636 20.364q1.205 0 2.057 0.852t0.852 2.057v11.636q0 2.955-1.159 5.648t-3.102 4.636-4.636 3.102-5.648 1.159h-17.455q-2.955 0-5.648-1.159t-4.636-3.102-3.102-4.636-1.159-5.648v-17.455q0-2.955 1.159-5.648t3.102-4.636 4.636-3.102 5.648-1.159h8.727q2.955 0 5.648 1.159t4.636 3.102 3.102 4.636 1.159 5.648q0 1.205 0.705 2.057t1.727 0.852h3.386zM14.545 14.545q-1.205 0-2.057 0.852t-0.852 2.057 0.852 2.057 2.057 0.852h8.727q1.205 0 2.057-0.852t0.852-2.057-0.852-2.057-2.057-0.852h-8.727zM32 37.818q1.205 0 2.057-0.852t0.852-2.057-0.852-2.057-2.057-0.852h-17.455q-1.205 0-2.057 0.852t-0.852 2.057 0.852 2.057 2.057 0.852h17.455z" />
</svg>
