<?xml version="1.0" encoding="utf-8"?>
<!-- Generated by IcoMoon.io -->
<!DOCTYPE svg PUBLIC "-//W3C//DTD SVG 1.1//EN" "http://www.w3.org/Graphics/SVG/1.1/DTD/svg11.dtd">
<svg version="1.1" xmlns="http://www.w3.org/2000/svg" xmlns:xlink="http://www.w3.org/1999/xlink" width="47" height="64" viewBox="0 0 47 64">
	<path d="M23.273 5.818q9.643 0 16.458 5.522t6.815 13.387-6.815 13.387-16.458 5.522q-1.886 0-3.933-0.269-6.088 6.088-12.552 6.088-0.646 0-0.916-0.593-0.215-0.646 0.215-1.077 0.323-0.323 0.835-0.97t1.455-2.64 1.212-4.148q-4.471-2.64-7.030-6.653t-2.559-8.646q0-7.865 6.815-13.387t16.458-5.522zM11.636 28.121q1.616 0 2.748-1.131t1.131-2.747-1.131-2.747-2.748-1.131-2.748 1.131-1.131 2.747 1.131 2.747 2.748 1.131zM23.273 28.121q1.616 0 2.747-1.131t1.131-2.747-1.131-2.747-2.747-1.131-2.747 1.131-1.131 2.747 1.131 2.747 2.747 1.131zM34.909 28.121q1.616 0 2.748-1.131t1.131-2.747-1.131-2.747-2.748-1.131-2.748 1.131-1.131 2.747 1.131 2.747 2.748 1.131z" />
</svg>
