<?xml version="1.0" encoding="utf-8"?>
<!-- Generated by IcoMoon.io -->
<!DOCTYPE svg PUBLIC "-//W3C//DTD SVG 1.1//EN" "http://www.w3.org/Graphics/SVG/1.1/DTD/svg11.dtd">
<svg version="1.1" xmlns="http://www.w3.org/2000/svg" xmlns:xlink="http://www.w3.org/1999/xlink" width="47" height="64" viewBox="0 0 47 64">
	<path d="M46.545 32q0 4.795-3.421 8.215t-8.215 3.421h-7.758v-8.727h7.273q0.646 0 0.916-0.593 0.215-0.646-0.215-1.077l-11.852-11.798-11.852 11.798q-0.431 0.431-0.216 1.077 0.269 0.593 0.916 0.593h7.273v8.727h-9.212q-4.202 0-7.192-2.99t-2.99-7.192q0-3.825 2.505-6.68t6.222-3.394v-0.108q0-6.034 4.256-10.29t10.29-4.256q5.333 0 9.374 3.421t4.956 8.539q3.879 0.916 6.411 4.067t2.532 7.246z" />
</svg>
