<?xml version="1.0" encoding="utf-8"?>
<!-- Generated by IcoMoon.io -->
<!DOCTYPE svg PUBLIC "-//W3C//DTD SVG 1.1//EN" "http://www.w3.org/Graphics/SVG/1.1/DTD/svg11.dtd">
<svg version="1.1" xmlns="http://www.w3.org/2000/svg" xmlns:xlink="http://www.w3.org/1999/xlink" width="47" height="64" viewBox="0 0 47 64">
	<path d="M23.273 2.909q4.727 0 9.034 1.841t7.432 4.966 4.966 7.432 1.841 9.034-1.841 9.034-4.966 7.432-7.432 4.966-9.034 1.841-9.034-1.841-7.432-4.966-4.966-7.432-1.841-9.034 1.841-9.034 4.966-7.432 7.432-4.966 9.034-1.841zM23.273 10.659q-1.932 0-3.864 0.5 3.432 4.295 6.023 9.114 5.023-1.977 8.205-5.636-2.091-1.886-4.761-2.932t-5.602-1.045zM16.75 12.091q-3.318 1.545-5.625 4.455t-3.057 6.545q8.909-0.182 14.818-1.932-2.636-4.841-6.136-9.068zM7.75 26.182q0 3 1.080 5.693t3.034 4.83q4.932-7.5 12.273-10.091 0.227-0.068 0.636-0.205l0.545-0.182q-0.614-1.432-1.341-2.955-6.591 2.045-16.205 2.182 0 0.136-0.011 0.364t-0.011 0.364zM23.273 41.705q3.159 0 6.091-1.25-1.136-6.568-3.182-12-7.591 2.114-12.545 9.886 4.205 3.364 9.636 3.364zM31.818 39.136q2.727-1.818 4.523-4.58t2.273-6.057q-5.205-1.25-9.795-0.614 1.909 5.25 3 11.25zM27.955 25.636q5.068-0.864 10.841 0.477-0.023-5.523-3.523-9.773-3.386 3.864-8.773 6.045 0.636 1.341 1.455 3.25z" />
</svg>
