<?xml version="1.0" encoding="utf-8"?>
<!-- Generated by IcoMoon.io -->
<!DOCTYPE svg PUBLIC "-//W3C//DTD SVG 1.1//EN" "http://www.w3.org/Graphics/SVG/1.1/DTD/svg11.dtd">
<svg version="1.1" xmlns="http://www.w3.org/2000/svg" xmlns:xlink="http://www.w3.org/1999/xlink" width="47" height="64" viewBox="0 0 47 64">
	<path d="M23.273 16.636l10.341 6.432-10.341 6.409-10.341-6.409zM23.273 2.909q4.75 0 9.057 1.841t7.42 4.955 4.955 7.42 1.841 9.057-1.841 9.057-4.955 7.42-7.42 4.955-9.057 1.841-9.057-1.841-7.42-4.955-4.955-7.42-1.841-9.057 1.841-9.057 4.955-7.42 7.42-4.955 9.057-1.841zM33.568 36.955v-1.932l-3.182 1.977-7.114-5.864-7.068 5.864-3.227-1.977v1.932l10.295 6.136zM30.432 35.455l10.295-6.75-7.114-5.636 7.114-5.727-10.295-6.682-7.159 5.977-7.159-5.977-10.295 6.682 7.114 5.727-7.114 5.636 10.295 6.75 7.159-5.977z" />
</svg>
