<?xml version="1.0" encoding="utf-8"?>
<!-- Generated by IcoMoon.io -->
<!DOCTYPE svg PUBLIC "-//W3C//DTD SVG 1.1//EN" "http://www.w3.org/Graphics/SVG/1.1/DTD/svg11.dtd">
<svg version="1.1" xmlns="http://www.w3.org/2000/svg" xmlns:xlink="http://www.w3.org/1999/xlink" width="47" height="64" viewBox="0 0 47 64">
	<path d="M43.295 35.614l-1.682 13.841q-17-0.318-28.432-0.318-5.955 0-11.25 0.318v-2.75q2.205-0.25 3.455-0.523t1.943-0.784 0.886-1.091 0.239-1.648q0.273-6.068 0.273-16.432 0-9.455-0.318-16.591-0.045-1.091-0.239-1.659t-0.864-1.068-1.92-0.773-3.455-0.523v-2.75q8.727 0.432 20.568 0.432 4.818 0 7.080-0.023t5.341-0.182 6.148-0.5l-0.75 13.364h-2.523q-0.795-3.818-1.636-5.886t-1.932-2.92-2.75-0.852h-14.477q-0.614 0-0.852 0.227t-0.239 0.864v17.341h2.795q1.864 0 2.693 0.011t2.114-0.068 1.727-0.080 1.261-0.261 1-0.341 0.659-0.568 0.534-0.727 0.33-1.045 0.341-1.273 0.273-1.648q0.136-0.818 0.227-1.273h2.591q-0.455 6.659-0.455 8.727 0 2 0.295 8.295h-2.591q-0.091-0.409-0.227-1.159-0.545-2.909-0.977-3.75-0.614-1.182-2.159-1.568-1.455-0.364-6.545-0.364h-3.886v14.227q0 4.205 4.318 4.205h10.227q1.432 0 2.341-0.102t1.886-0.477 1.67-1.045 1.477-1.852 1.5-2.864 1.58-4.114h2.386z" />
</svg>
