<?xml version="1.0" encoding="utf-8"?>
<!-- Generated by IcoMoon.io -->
<!DOCTYPE svg PUBLIC "-//W3C//DTD SVG 1.1//EN" "http://www.w3.org/Graphics/SVG/1.1/DTD/svg11.dtd">
<svg version="1.1" xmlns="http://www.w3.org/2000/svg" xmlns:xlink="http://www.w3.org/1999/xlink" width="47" height="64" viewBox="0 0 47 64">
	<path d="M23.273 2.909q4.727 0 9.034 1.841t7.432 4.966 4.966 7.432 1.841 9.034-1.841 9.034-4.966 7.432-7.432 4.966-9.034 1.841-9.034-1.841-7.432-4.966-4.966-7.432-1.841-9.034 1.841-9.034 4.966-7.432 7.432-4.966 9.034-1.841zM34.205 39.955l0.955-8.205h-1.364q-0.75 2.091-1.341 3.284t-1.318 1.818-1.432 0.795-1.932 0.17h-5.886q-2.5 0-2.5-2.409v-8.386h3.716t1.489 0.080 1.102 0.182 0.648 0.375 0.489 0.591 0.239 0.92 0.295 1.261q0.045 0.341 0.091 0.523h1.545q-0.091-1.932-0.091-4.886 0-2.773 0.182-5.114h-1.545q-0.045 0.205-0.114 0.614-0.205 1.091-0.295 1.523t-0.375 0.966-0.602 0.648-1.057 0.273-1.614 0.159h-4.102v-9.977q0-0.364 0.136-0.489t0.5-0.125h8.341q1.409 0 2.182 1.17t1.455 4.398h1.455l0.477-7.909q-3.682 0.409-10.727 0.409-7.386 0-12.545-0.25v1.795q1.682 0.205 2.466 0.477t1.023 0.659 0.261 1.205q0.136 2.455 0.136 9.614 0 7.636-0.091 9.705-0.045 1.182-0.693 1.625t-3.057 0.693v1.818q2.614-0.182 11.523-0.182 6.727 0 11.977 0.182z" />
</svg>
