<?xml version="1.0" encoding="utf-8"?>
<!-- Generated by IcoMoon.io -->
<!DOCTYPE svg PUBLIC "-//W3C//DTD SVG 1.1//EN" "http://www.w3.org/Graphics/SVG/1.1/DTD/svg11.dtd">
<svg version="1.1" xmlns="http://www.w3.org/2000/svg" xmlns:xlink="http://www.w3.org/1999/xlink" width="47" height="64" viewBox="0 0 47 64">
	<path d="M23.273 2.909q4.75 0 9.057 1.841t7.42 4.955 4.955 7.42 1.841 9.057-1.841 9.057-4.955 7.42-7.42 4.955-9.057 1.841-9.057-1.841-7.42-4.955-4.955-7.42-1.841-9.057 1.841-9.057 4.955-7.42 7.42-4.955 9.057-1.841zM13.568 33.932q3.205 0 5.489-2.261t2.284-5.489q0-3.182-2.284-5.466t-5.489-2.284-5.477 2.273-2.273 5.477q0 3.227 2.261 5.489t5.489 2.261zM32.977 33.932q3.205 0 5.477-2.261t2.273-5.489q0-3.182-2.284-5.466t-5.466-2.284q-3.227 0-5.5 2.273t-2.273 5.477q0 3.227 2.261 5.489t5.511 2.261z" />
</svg>
