<?xml version="1.0" encoding="utf-8"?>
<!-- Generated by IcoMoon.io -->
<!DOCTYPE svg PUBLIC "-//W3C//DTD SVG 1.1//EN" "http://www.w3.org/Graphics/SVG/1.1/DTD/svg11.dtd">
<svg version="1.1" xmlns="http://www.w3.org/2000/svg" xmlns:xlink="http://www.w3.org/1999/xlink" width="47" height="64" viewBox="0 0 47 64">
	<path d="M46.545 13.568v1.955h-7.75v7.75h-1.955v-7.75h-7.75v-1.955h7.75v-7.75h1.955v7.75h7.75zM20.205 29.409q2.364 1.727 3.307 3.5t0.943 4.432q0 1.682-0.807 3.239t-2.273 2.795-3.784 1.989-5.136 0.75q-3.386 0-6.205-0.852t-4.534-2.511-1.716-3.795q0-3.432 3.511-6.114t8.443-2.682h2.114q-1.614-1.568-1.614-3.341 0-1.25 0.591-2.295-0.386 0.045-1.136 0.045-4.091 0-6.682-2.545t-2.591-6.295q0-2.341 1.5-4.42t3.955-3.295 5.159-1.216h12.182l-2.75 1.977h-3.886q1.864 0.705 2.898 2.648t1.034 4.375q0 3.705-3.432 6.341-1.432 1.159-1.875 1.83t-0.443 1.67q0 0.773 1.080 1.92t2.148 1.852zM13.682 23.318q2.341 0.091 3.716-2.045t0.966-5.227q-0.386-3.091-2.341-5.273t-4.341-2.25q-2.341-0.091-3.716 2t-0.966 5.159q0.409 3.091 2.375 5.33t4.307 2.307zM12.455 44.182q4.636 0 6.727-1.739t2.091-4.625q0-0.386-0.091-1.25-0.136-0.477-0.42-0.943t-0.5-0.761-0.83-0.784-0.852-0.67-1.136-0.807-1.17-0.807q-1.318-0.386-3.023-0.5-2.318 0-4.352 0.852t-3.261 2.33-1.227 3.182q0 2.705 2.284 4.614t5.761 1.909z" />
</svg>
