<?xml version="1.0" encoding="utf-8"?>
<!-- Generated by IcoMoon.io -->
<!DOCTYPE svg PUBLIC "-//W3C//DTD SVG 1.1//EN" "http://www.w3.org/Graphics/SVG/1.1/DTD/svg11.dtd">
<svg version="1.1" xmlns="http://www.w3.org/2000/svg" xmlns:xlink="http://www.w3.org/1999/xlink" width="47" height="64" viewBox="0 0 47 64">
	<path d="M0 3.879q0-0.431 0.269-0.7t0.7-0.269h9.697q0.431 0 0.7 0.269t0.269 0.7v9.697q0 0.431-0.269 0.7t-0.7 0.269h-9.697q-0.431 0-0.7-0.269t-0.269-0.7v-9.697zM17.455 3.879q0-0.431 0.269-0.7t0.7-0.269h9.697q0.431 0 0.7 0.269t0.269 0.7v9.697q0 0.431-0.269 0.7t-0.7 0.269h-9.697q-0.431 0-0.7-0.269t-0.269-0.7v-9.697zM34.909 3.879q0-0.431 0.269-0.7t0.7-0.269h9.697q0.431 0 0.7 0.269t0.269 0.7v9.697q0 0.431-0.269 0.7t-0.7 0.269h-9.697q-0.431 0-0.7-0.269t-0.269-0.7v-9.697zM0 21.333q0-0.431 0.269-0.7t0.7-0.269h9.697q0.431 0 0.7 0.269t0.269 0.7v9.697q0 0.431-0.269 0.7t-0.7 0.269h-9.697q-0.431 0-0.7-0.269t-0.269-0.7v-9.697zM17.455 21.333q0-0.431 0.269-0.7t0.7-0.269h9.697q0.431 0 0.7 0.269t0.269 0.7v9.697q0 0.431-0.269 0.7t-0.7 0.269h-9.697q-0.431 0-0.7-0.269t-0.269-0.7v-9.697zM34.909 21.333q0-0.431 0.269-0.7t0.7-0.269h9.697q0.431 0 0.7 0.269t0.269 0.7v9.697q0 0.431-0.269 0.7t-0.7 0.269h-9.697q-0.431 0-0.7-0.269t-0.269-0.7v-9.697zM0 38.788q0-0.431 0.269-0.7t0.7-0.269h9.697q0.431 0 0.7 0.269t0.269 0.7v9.697q0 0.431-0.269 0.7t-0.7 0.269h-9.697q-0.431 0-0.7-0.269t-0.269-0.7v-9.697zM17.455 38.788q0-0.431 0.269-0.7t0.7-0.269h9.697q0.431 0 0.7 0.269t0.269 0.7v9.697q0 0.431-0.269 0.7t-0.7 0.269h-9.697q-0.431 0-0.7-0.269t-0.269-0.7v-9.697zM34.909 38.788q0-0.431 0.269-0.7t0.7-0.269h9.697q0.431 0 0.7 0.269t0.269 0.7v9.697q0 0.431-0.269 0.7t-0.7 0.269h-9.697q-0.431 0-0.7-0.269t-0.269-0.7v-9.697z" />
</svg>
