<?xml version="1.0" encoding="utf-8"?>
<!-- Generated by IcoMoon.io -->
<!DOCTYPE svg PUBLIC "-//W3C//DTD SVG 1.1//EN" "http://www.w3.org/Graphics/SVG/1.1/DTD/svg11.dtd">
<svg version="1.1" xmlns="http://www.w3.org/2000/svg" xmlns:xlink="http://www.w3.org/1999/xlink" width="47" height="64" viewBox="0 0 47 64">
	<path d="M43.636 32q1.185 0 2.047 0.862t0.862 2.047v11.636q0 1.185-0.862 2.047t-2.047 0.862h-40.727q-1.185 0-2.047-0.862t-0.862-2.047v-11.636q0-1.185 0.862-2.047t2.047-0.862h40.727zM26.182 43.636q1.185 0 2.047-0.862t0.862-2.047-0.862-2.047-2.047-0.862-2.047 0.862-0.862 2.047 0.862 2.047 2.047 0.862zM37.818 43.636q1.185 0 2.047-0.862t0.862-2.047-0.862-2.047-2.047-0.862-2.047 0.862-0.862 2.047 0.862 2.047 2.047 0.862zM42.613 5.387l3.448 23.165q-1.185-0.431-2.424-0.431h-40.727q-1.239 0-2.424 0.431l3.448-23.165q0.108-1.077 0.943-1.778t1.912-0.7h12.606v5.926h-7.273q-0.646 0-0.916 0.593-0.216 0.646 0.216 1.077l11.852 11.798 11.852-11.798q0.431-0.431 0.215-1.077-0.269-0.593-0.916-0.593h-7.273v-5.926h12.606q1.077 0 1.886 0.7t0.97 1.778z" />
</svg>
