<?xml version="1.0" encoding="utf-8"?>
<!-- Generated by IcoMoon.io -->
<!DOCTYPE svg PUBLIC "-//W3C//DTD SVG 1.1//EN" "http://www.w3.org/Graphics/SVG/1.1/DTD/svg11.dtd">
<svg version="1.1" xmlns="http://www.w3.org/2000/svg" xmlns:xlink="http://www.w3.org/1999/xlink" width="47" height="64" viewBox="0 0 47 64">
	<path d="M39.75 2.909q2.818 0 4.807 1.989t1.989 4.807v32.955q0 2.818-1.989 4.807t-4.807 1.989h-32.955q-2.818 0-4.807-1.989t-1.989-4.807v-32.955q0-2.818 1.989-4.807t4.807-1.989h32.955zM23.273 17.455q-3.614 0-6.17 2.557t-2.557 6.17 2.557 6.17 6.17 2.557 6.17-2.557 2.557-6.17-2.557-6.17-6.17-2.557zM41.705 43.636v-20.364h-5.159q0.295 1.341 0.295 2.909 0 3.682-1.818 6.807t-4.943 4.943-6.807 1.818-6.807-1.818-4.943-4.943-1.818-6.807q0-1.568 0.295-2.909h-5.159v20.364q0 0.409 0.284 0.693t0.693 0.284h34.909q0.409 0 0.693-0.284t0.284-0.693zM41.705 14.545v-5.818q0-0.409-0.284-0.693t-0.693-0.284h-5.818q-0.409 0-0.693 0.284t-0.284 0.693v5.818q0 0.409 0.284 0.693t0.693 0.284h5.818q0.409 0 0.693-0.284t0.284-0.693z" />
</svg>
