<?xml version="1.0" encoding="utf-8"?>
<!-- Generated by IcoMoon.io -->
<!DOCTYPE svg PUBLIC "-//W3C//DTD SVG 1.1//EN" "http://www.w3.org/Graphics/SVG/1.1/DTD/svg11.dtd">
<svg version="1.1" xmlns="http://www.w3.org/2000/svg" xmlns:xlink="http://www.w3.org/1999/xlink" width="47" height="64" viewBox="0 0 47 64">
	<path d="M18.432 26.182q0 2 1.42 3.42t3.42 1.42 3.42-1.42 1.42-3.42-1.42-3.42-3.42-1.42-3.42 1.42-1.42 3.42zM33.932 16.477q0-0.386-0.284-0.67t-0.67-0.284h-2.909q-0.409 0-0.693 0.284t-0.284 0.67v2.909q0 0.409 0.284 0.693t0.693 0.284h2.909q0.386 0 0.67-0.284t0.284-0.693v-2.909zM30.795 24.25q0.227 0.886 0.227 1.932 0 3.205-2.261 5.477t-5.489 2.273-5.489-2.273-2.261-5.477q0-1.045 0.227-1.932h-3.136v11.636q0 0.386 0.284 0.67t0.67 0.284h19.409q0.386 0 0.67-0.284t0.284-0.67v-11.636h-3.136zM23.273 2.909q4.727 0 9.034 1.841t7.432 4.966 4.966 7.432 1.841 9.034-1.841 9.034-4.966 7.432-7.432 4.966-9.034 1.841-9.034-1.841-7.432-4.966-4.966-7.432-1.841-9.034 1.841-9.034 4.966-7.432 7.432-4.966 9.034-1.841zM36.841 35.886v-19.409q0-1.614-1.125-2.739t-2.739-1.125h-19.409q-1.614 0-2.739 1.125t-1.125 2.739v19.409q0 1.614 1.125 2.739t2.739 1.125h19.409q1.614 0 2.739-1.125t1.125-2.739z" />
</svg>
