<?xml version="1.0" encoding="utf-8"?>
<!-- Generated by IcoMoon.io -->
<!DOCTYPE svg PUBLIC "-//W3C//DTD SVG 1.1//EN" "http://www.w3.org/Graphics/SVG/1.1/DTD/svg11.dtd">
<svg version="1.1" xmlns="http://www.w3.org/2000/svg" xmlns:xlink="http://www.w3.org/1999/xlink" width="47" height="64" viewBox="0 0 47 64">
	<path d="M23.273 2.909q4.75 0 9.057 1.841t7.42 4.955 4.955 7.42 1.841 9.057-1.841 9.057-4.955 7.42-7.42 4.955-9.057 1.841-9.057-1.841-7.42-4.955-4.955-7.42-1.841-9.057 1.841-9.057 4.955-7.42 7.42-4.955 9.057-1.841zM34.205 38.727q1.455-1.159 1.636-3.034t-0.977-3.307l-6.205-6.795 5.341-6.409q1.114-1.5 0.841-3.33t-1.773-2.966q-1.477-1.091-3.318-0.841t-2.932 1.75l-5.477 7.432v-5.227q0-1.818-1.273-3.091t-3.091-1.273-3.091 1.273-1.273 3.091v20.364q0 1.818 1.273 3.091t3.091 1.273 3.091-1.273 1.273-3.091v-5.932l6.568 7.773q1.227 1.364 3.045 1.523t3.25-1z" />
</svg>
