<?xml version="1.0" encoding="utf-8"?>
<!-- Generated by IcoMoon.io -->
<!DOCTYPE svg PUBLIC "-//W3C//DTD SVG 1.1//EN" "http://www.w3.org/Graphics/SVG/1.1/DTD/svg11.dtd">
<svg version="1.1" xmlns="http://www.w3.org/2000/svg" xmlns:xlink="http://www.w3.org/1999/xlink" width="47" height="64" viewBox="0 0 47 64">
	<path d="M40.932 46.864q-2.318 1.841-5.239 1.58t-4.875-2.443l-10.455-12.705v8.886q0 3.023-2.136 5.148t-5.136 2.125q-3.045 0-5.159-2.114t-2.114-5.159v-32q0-3 2.125-5.136t5.148-2.136q2.977 0 5.125 2.148t2.148 5.125v7.818l8.841-11.75q1.773-2.386 4.727-2.83t5.386 1.375q2.386 1.773 2.83 4.727t-1.375 5.409l-8.773 10.273 10.023 11.364q1.886 2.341 1.568 5.375t-2.659 4.92z" />
</svg>
