<?xml version="1.0" encoding="utf-8"?>
<!-- Generated by IcoMoon.io -->
<!DOCTYPE svg PUBLIC "-//W3C//DTD SVG 1.1//EN" "http://www.w3.org/Graphics/SVG/1.1/DTD/svg11.dtd">
<svg version="1.1" xmlns="http://www.w3.org/2000/svg" xmlns:xlink="http://www.w3.org/1999/xlink" width="47" height="64" viewBox="0 0 47 64">
	<path d="M23.273 2.909q4.727 0 9.034 1.852t7.42 4.966 4.966 7.42 1.852 9.034q0 4.75-1.852 9.057t-4.966 7.42-7.42 4.955-9.034 1.841q-4.75 0-9.057-1.841t-7.42-4.955-4.955-7.42-1.841-9.057q0-4.727 1.841-9.034t4.955-7.42 7.42-4.966 9.057-1.852zM32 35.886q4.659 0 6.693-1.443t2.034-4.102q0-1.614-0.557-2.727t-1.455-1.67-1.977-0.898-2.159-0.545-1.977-0.466-1.455-0.818-0.557-1.443q0-1.023 0.739-1.568t2.125-0.545q1.5 0 2.227 0.557t0.886 1.807l4-0.477q-0.477-5.068-6.909-5.068-3.182 0-5.136 1.42t-1.955 4.307q0 1.523 0.557 2.58t1.443 1.591 1.955 0.875 2.148 0.545 1.966 0.477 1.443 0.83 0.557 1.443q0 2.205-4.159 2.205-1.182 0-2.125-0.227t-1.636-0.716-1.216-1.045-0.955-1.432-0.716-1.636-0.625-1.898q-0.5-1.682-0.932-2.818t-1.045-2.284-1.341-1.852-1.727-1.284-2.318-0.83-3.023-0.25q-1.886 0-3.466 0.557t-2.841 1.705-1.977 3.125-0.716 4.636q0 2.136 0.5 3.795t1.307 2.693 1.966 1.705 2.364 0.932 2.591 0.261q1.932 0 3.602-0.534t2.375-1.057l0.705-0.523-1.295-3.5q-0.091 0.091-0.239 0.261t-0.682 0.602-1.114 0.75-1.489 0.591-1.864 0.273q-1.841 0-3.182-1.739t-1.341-4.83q0-3 1.318-4.761t3.591-1.761q0.659 0 1.216 0.114t1 0.284 0.852 0.523 0.705 0.636 0.591 0.83 0.489 0.932 0.443 1.091 0.386 1.136 0.398 1.261 0.42 1.284q0.841 2.545 1.568 3.75 2.659 4.386 9 4.386z" />
</svg>
