<?xml version="1.0" encoding="utf-8"?>
<!-- Generated by IcoMoon.io -->
<!DOCTYPE svg PUBLIC "-//W3C//DTD SVG 1.1//EN" "http://www.w3.org/Graphics/SVG/1.1/DTD/svg11.dtd">
<svg version="1.1" xmlns="http://www.w3.org/2000/svg" xmlns:xlink="http://www.w3.org/1999/xlink" width="47" height="64" viewBox="0 0 47 64">
	<path d="M34.909 11.636v4.848h-21.333q-2.424 0-4.121 1.697t-1.697 4.121v12.606h-4.848q-1.185 0-2.047-0.862t-0.862-2.047v-20.364q0-1.185 0.862-2.047t2.047-0.862h29.091q1.185 0 2.047 0.862t0.862 2.047zM46.545 23.273v17.455q0 1.185-0.862 2.047t-2.047 0.862h-29.091q-1.185 0-2.047-0.862t-0.862-2.047v-18.424q0-0.808 0.566-1.374t1.374-0.566h30.061q1.185 0 2.047 0.862t0.862 2.047z" />
</svg>
