<?xml version="1.0" encoding="utf-8"?>
<!-- Generated by IcoMoon.io -->
<!DOCTYPE svg PUBLIC "-//W3C//DTD SVG 1.1//EN" "http://www.w3.org/Graphics/SVG/1.1/DTD/svg11.dtd">
<svg version="1.1" xmlns="http://www.w3.org/2000/svg" xmlns:xlink="http://www.w3.org/1999/xlink" width="47" height="64" viewBox="0 0 47 64">
	<path d="M13.576 18.424v30.061q0 0.431-0.269 0.7t-0.7 0.269h-11.636q-0.431 0-0.7-0.269t-0.269-0.7v-29.091q0-0.431 0.269-0.7t0.7-0.269h12.606zM46.545 19.394v29.091q0 0.431-0.269 0.7t-0.7 0.269h-27.151q-0.431 0-0.7-0.269t-0.269-0.7v-30.061h28.121q0.431 0 0.7 0.269t0.269 0.7zM46.545 3.879v9.697q0 0.431-0.269 0.7t-0.7 0.269h-44.606q-0.431 0-0.7-0.269t-0.269-0.7v-9.697q0-0.431 0.269-0.7t0.7-0.269h44.606q0.431 0 0.7 0.269t0.269 0.7z" />
</svg>
