<?xml version="1.0" encoding="utf-8"?>
<!-- Generated by IcoMoon.io -->
<!DOCTYPE svg PUBLIC "-//W3C//DTD SVG 1.1//EN" "http://www.w3.org/Graphics/SVG/1.1/DTD/svg11.dtd">
<svg version="1.1" xmlns="http://www.w3.org/2000/svg" xmlns:xlink="http://www.w3.org/1999/xlink" width="47" height="64" viewBox="0 0 47 64">
	<path d="M7.75 48.477v-27.136q0-0.409-0.284-0.693t-0.67-0.284h-5.818q-0.409 0-0.693 0.284t-0.284 0.693v27.136q0 0.409 0.284 0.693t0.693 0.284h5.818q0.386 0 0.67-0.284t0.284-0.693zM44.182 28.614q1.068 0.568 1.716 1.602t0.648 2.261q0 1.523-0.966 2.739t-2.42 1.534q0.477 0.955 0.477 2.045 0 1.614-0.955 2.886t-2.432 1.75q0.477 0.955 0.477 2.136 0 1.614-1.136 2.75t-2.75 1.136h-9.682q-1.205 0-2.818-0.352t-2.727-0.83l-9.977-4.636v-20.364q3.477-2.318 5.886-4.25t3.92-3.545 2.341-3.25 1.125-3.091 0.295-3.318q0-1.205 0.852-2.057t2.057-0.852q0.818 0 1.659 0.58t1.523 1.58q1.682 2.318 1.682 5.591 0 1.636-0.466 3.727t-0.92 3.364-0.5 1.273q-0.159 0.477 0.091 0.909 0.295 0.432 0.818 0.432h10.182q1.818 0 3.091 1.273t1.273 3.091q0 1.227-0.659 2.284t-1.705 1.602z" />
</svg>
