<?xml version="1.0" encoding="utf-8"?>
<!-- Generated by IcoMoon.io -->
<!DOCTYPE svg PUBLIC "-//W3C//DTD SVG 1.1//EN" "http://www.w3.org/Graphics/SVG/1.1/DTD/svg11.dtd">
<svg version="1.1" xmlns="http://www.w3.org/2000/svg" xmlns:xlink="http://www.w3.org/1999/xlink" width="47" height="64" viewBox="0 0 47 64">
	<path d="M23.273 2.909q4.727 0 9.034 1.852t7.42 4.966 4.966 7.42 1.852 9.034q0 4.75-1.852 9.057t-4.966 7.42-7.42 4.955-9.034 1.841q-4.75 0-9.057-1.841t-7.42-4.955-4.955-7.42-1.841-9.057q0-4.727 1.841-9.034t4.955-7.42 7.42-4.966 9.057-1.852zM36.841 27.909q0-1.432-1.114-2.318 1.114-0.886 1.114-2.318 0-1.205-0.852-2.057t-2.057-0.852h-6.182q-0.295 0-0.5-0.273-0.182-0.318-0.045-0.545l0.091-0.318q0.091-0.295 0.227-0.818t0.273-1.136 0.227-1.352 0.091-1.375q0-1.977-1.023-3.5-0.432-0.636-1.023-0.989t-1.136-0.352q-0.705 0-1.182 0.523t-0.477 1.295q0 1.636-0.58 3.182t-1.5 2.693-2.034 2.102-2.205 1.545-1.977 0.92-1.409 0.33h-1.932v13.591h3.886l5.75 2.136q1.659 0.773 3.455 0.773h6.091q1.045 0 1.818-0.761t0.773-1.83q0-0.591-0.273-1.136 0.955-0.25 1.58-1.045t0.625-1.818q0-0.841-0.477-1.545 0.886-0.295 1.432-1.045t0.545-1.705z" />
</svg>
