<?xml version="1.0" encoding="utf-8"?>
<!-- Generated by IcoMoon.io -->
<!DOCTYPE svg PUBLIC "-//W3C//DTD SVG 1.1//EN" "http://www.w3.org/Graphics/SVG/1.1/DTD/svg11.dtd">
<svg version="1.1" xmlns="http://www.w3.org/2000/svg" xmlns:xlink="http://www.w3.org/1999/xlink" width="47" height="64" viewBox="0 0 47 64">
	<path d="M23.273 2.909q4.75 0 9.057 1.841t7.42 4.955 4.955 7.42 1.841 9.057-1.841 9.057-4.955 7.42-7.42 4.955-9.057 1.841-9.057-1.841-7.42-4.955-4.955-7.42-1.841-9.057 1.841-9.057 4.955-7.42 7.42-4.955 9.057-1.841zM16.477 37.818v-16.477h-5.818v16.477h5.818zM13.568 18.432q1.75 0 2.818-0.977t1.068-2.432q-0.045-1.477-1.091-2.432t-2.795-0.955q-1.727 0-2.795 0.955t-1.068 2.432q0 1.455 1.057 2.432t2.761 0.977h0.045zM37.818 37.818v-8.727q0-4-1.841-6.364t-4.955-2.364q-1.727 0-3 0.943t-1.841 2.557l-0.205-2.523h-5.773l0.159 3.864v12.614h5.818v-8.727q0-1.795 0.761-2.841t2.102-1.045q1.432 0 2.193 0.886t0.761 3v8.727h5.818z" />
</svg>
