<?xml version="1.0" encoding="utf-8"?>
<!-- Generated by IcoMoon.io -->
<!DOCTYPE svg PUBLIC "-//W3C//DTD SVG 1.1//EN" "http://www.w3.org/Graphics/SVG/1.1/DTD/svg11.dtd">
<svg version="1.1" xmlns="http://www.w3.org/2000/svg" xmlns:xlink="http://www.w3.org/1999/xlink" width="47" height="64" viewBox="0 0 47 64">
	<path d="M23.273 2.909q4.75 0 9.057 1.841t7.42 4.955 4.955 7.42 1.841 9.057-1.841 9.057-4.955 7.42-7.42 4.955-9.057 1.841-9.057-1.841-7.42-4.955-4.955-7.42-1.841-9.057 1.841-9.057 4.955-7.42 7.42-4.955 9.057-1.841zM26.455 33.318q2.136-2.136 2.136-5.148t-2.136-5.17q-0.5-0.5-1.193-0.5t-1.193 0.5-0.5 1.193 0.5 1.193q1.136 1.159 1.136 2.784t-1.136 2.784l-4.205 4.182q-1.136 1.159-2.761 1.159t-2.784-1.159-1.159-2.784 1.159-2.761l2-2.023q-0.75-2-0.568-4.182l-3.818 3.818q-2.136 2.136-2.136 5.159t2.136 5.159 5.159 2.136 5.159-2.136zM34.614 25.159q2.136-2.136 2.136-5.148t-2.136-5.17q-2.159-2.136-5.17-2.136t-5.148 2.136l-4.205 4.205q-2.136 2.136-2.136 5.148t2.136 5.17q0.5 0.5 1.193 0.5t1.193-0.5 0.5-1.193-0.5-1.193q-1.136-1.159-1.136-2.784t1.136-2.784l4.205-4.182q1.136-1.159 2.761-1.159t2.784 1.159 1.159 2.784-1.159 2.761l-2 2.023q0.75 2 0.568 4.182z" />
</svg>
