<?xml version="1.0" encoding="utf-8"?>
<!-- Generated by IcoMoon.io -->
<!DOCTYPE svg PUBLIC "-//W3C//DTD SVG 1.1//EN" "http://www.w3.org/Graphics/SVG/1.1/DTD/svg11.dtd">
<svg version="1.1" xmlns="http://www.w3.org/2000/svg" xmlns:xlink="http://www.w3.org/1999/xlink" width="47" height="64" viewBox="0 0 47 64">
	<path d="M27.151 6.788v6.788q0 1.616-1.131 2.747t-2.747 1.131-2.747-1.131-1.131-2.748v-6.788q0-1.616 1.131-2.748t2.747-1.131 2.747 1.131 1.131 2.748zM27.151 38.788v6.788q0 1.616-1.131 2.748t-2.747 1.131-2.747-1.131-1.131-2.748v-6.788q0-1.616 1.131-2.748t2.747-1.131 2.747 1.131 1.131 2.748zM14.545 26.182q0 1.616-1.131 2.747t-2.748 1.131h-6.788q-1.616 0-2.748-1.131t-1.131-2.747 1.131-2.747 2.748-1.131h6.788q1.616 0 2.748 1.131t1.131 2.747zM46.545 26.182q0 1.616-1.131 2.747t-2.748 1.131h-6.788q-1.616 0-2.748-1.131t-1.131-2.747 1.131-2.747 2.748-1.131h6.788q1.616 0 2.748 1.131t1.131 2.747zM17.077 19.987q-1.131 1.185-2.721 1.185t-2.721-1.185l-4.848-4.795q-1.131-1.131-1.131-2.721t1.131-2.721q1.185-1.185 2.774-1.185t2.721 1.185l4.795 4.795q1.185 1.131 1.185 2.721t-1.185 2.721zM39.704 42.667q-1.131 1.131-2.721 1.131t-2.721-1.131l-4.795-4.849q-1.185-1.131-1.185-2.721t1.185-2.721q1.131-1.185 2.721-1.185t2.721 1.185l4.795 4.795q1.185 1.131 1.185 2.721t-1.185 2.774zM39.704 15.192l-4.795 4.795q-1.131 1.185-2.721 1.185t-2.721-1.185q-1.185-1.131-1.185-2.721t1.185-2.721l4.795-4.795q1.131-1.185 2.721-1.185t2.721 1.185q1.185 1.131 1.185 2.721t-1.185 2.721zM17.077 37.818l-4.795 4.849q-1.131 1.131-2.721 1.131t-2.774-1.131q-1.131-1.185-1.131-2.774t1.131-2.721l4.848-4.795q1.131-1.185 2.721-1.185t2.721 1.185q1.185 1.131 1.185 2.721t-1.185 2.721z" />
</svg>
