<?xml version="1.0" encoding="utf-8"?>
<!-- Generated by IcoMoon.io -->
<!DOCTYPE svg PUBLIC "-//W3C//DTD SVG 1.1//EN" "http://www.w3.org/Graphics/SVG/1.1/DTD/svg11.dtd">
<svg version="1.1" xmlns="http://www.w3.org/2000/svg" xmlns:xlink="http://www.w3.org/1999/xlink" width="47" height="64" viewBox="0 0 47 64">
	<path d="M14.545 22.303v-10.667q0-3.609 2.559-6.168t6.168-2.559 6.168 2.559 2.559 6.168v10.667q0 3.609-2.559 6.168t-6.168 2.559q-3.663 0-6.195-2.532t-2.532-6.195zM41.697 22.303q0 6.842-4.444 11.987t-11.071 6.222v7.973q0 0.431-0.269 0.7t-0.7 0.269h-3.879q-0.431 0-0.7-0.269t-0.269-0.7v-7.973q-6.626-1.077-11.071-6.222t-4.444-11.987q0-1.185 0.862-2.047t2.047-0.862 2.047 0.862 0.862 2.047q0 5.226 3.69 8.916t8.916 3.69 8.916-3.69 3.69-8.916q0-1.185 0.862-2.047t2.047-0.862 2.047 0.862 0.862 2.047z" />
</svg>
