<?xml version="1.0" encoding="utf-8"?>
<!-- Generated by IcoMoon.io -->
<!DOCTYPE svg PUBLIC "-//W3C//DTD SVG 1.1//EN" "http://www.w3.org/Graphics/SVG/1.1/DTD/svg11.dtd">
<svg version="1.1" xmlns="http://www.w3.org/2000/svg" xmlns:xlink="http://www.w3.org/1999/xlink" width="47" height="64" viewBox="0 0 47 64">
	<path d="M23.273 2.909q4.727 0 9.034 1.841t7.432 4.966 4.966 7.432 1.841 9.034-1.841 9.034-4.966 7.432-7.432 4.966-9.034 1.841-9.034-1.841-7.432-4.966-4.966-7.432-1.841-9.034 1.841-9.034 4.966-7.432 7.432-4.966 9.034-1.841zM22.295 38.795v-11.636h-11.636v11.636h11.636zM22.295 25.205v-11.636h-11.636v11.636h11.636zM35.886 38.795v-11.636h-11.636v11.636h11.636zM35.886 25.205v-11.636h-11.636v11.636h11.636z" />
</svg>
