<?xml version="1.0" encoding="utf-8"?>
<!-- Generated by IcoMoon.io -->
<!DOCTYPE svg PUBLIC "-//W3C//DTD SVG 1.1//EN" "http://www.w3.org/Graphics/SVG/1.1/DTD/svg11.dtd">
<svg version="1.1" xmlns="http://www.w3.org/2000/svg" xmlns:xlink="http://www.w3.org/1999/xlink" width="47" height="64" viewBox="0 0 47 64">
	<path d="M23.273 2.909q4.727 0 9.034 1.852t7.42 4.966 4.966 7.42 1.852 9.034q0 5.318-2.273 10.034t-6.239 7.977-8.943 4.557v-6.091q0-1.727-0.557-3.398t-1.875-2.693q3.182-0.477 5.67-1.807t3.989-3.557 1.5-5.023q0-3.659-2.705-6.682 1-4.432-0.205-6.886-2.932 0.25-6.727 2.568-2.659-0.636-4.909-0.636t-4.909 0.636q-3.795-2.318-6.727-2.568-1.273 2.568-0.205 6.886-2.705 3.023-2.705 6.682 0 2.795 1.5 5.023t3.989 3.557 5.67 1.807q-1.25 0.955-1.886 2.659-1 0.023-2.023-0.182t-1.864-0.534-1.625-0.727-1.375-0.807-1.034-0.75-0.67-0.545l-0.25-0.227q-0.386-0.386-0.75-0.114-0.432 0.25-0.318 0.75 0.114 0.295 0.159 0.409t0.455 0.864 0.807 1.284 1.205 1.409 1.705 1.523 2.216 1.341 2.818 1.148v4.682q-4.977-1.295-8.943-4.557t-6.239-7.977-2.273-10.034q0-4.727 1.841-9.034t4.955-7.42 7.42-4.966 9.057-1.852z" />
</svg>
