<?xml version="1.0" encoding="utf-8"?>
<!-- Generated by IcoMoon.io -->
<!DOCTYPE svg PUBLIC "-//W3C//DTD SVG 1.1//EN" "http://www.w3.org/Graphics/SVG/1.1/DTD/svg11.dtd">
<svg version="1.1" xmlns="http://www.w3.org/2000/svg" xmlns:xlink="http://www.w3.org/1999/xlink" width="47" height="64" viewBox="0 0 47 64">
	<path d="M43.159 17.341q3.386 4.295 3.386 9.75 0 4.045-1.034 7.159t-2.955 5.239-4.818 3.489-6.443 1.977-8.023 0.614q-5.614 0-9.807-0.977t-7.261-3.125-4.636-5.727-1.568-8.58q0-5.568 3.386-9.75-1.205-6.477 0.5-10.614 5.5 0.432 10.114 4.091 4.432-1.182 9.273-1.182 4.864 0 9.205 1.182 4.773-3.659 10.182-4.091 1.705 4.136 0.5 10.545zM23.273 42.659q17.136 0 17.136-9.682 0-1.932-0.602-3.455t-1.511-2.398-2.091-1.443-2.205-0.761-2-0.193q-1.091 0-3.273 0.239t-5.455 0.239-5.455-0.239-3.273-0.239q-0.977 0-2 0.193t-2.205 0.761-2.091 1.443-1.511 2.398-0.602 3.455q0 9.682 17.136 9.682zM32.977 33.455q0-4.364-2.432-4.364t-2.432 4.364 2.432 4.364 2.432-4.364zM18.432 33.455q0-4.364-2.432-4.364t-2.432 4.364 2.432 4.364 2.432-4.364z" />
</svg>
