<?xml version="1.0" encoding="utf-8"?>
<!-- Generated by IcoMoon.io -->
<!DOCTYPE svg PUBLIC "-//W3C//DTD SVG 1.1//EN" "http://www.w3.org/Graphics/SVG/1.1/DTD/svg11.dtd">
<svg version="1.1" xmlns="http://www.w3.org/2000/svg" xmlns:xlink="http://www.w3.org/1999/xlink" width="47" height="64" viewBox="0 0 47 64">
	<path d="M20.364 49.455q-0.323 0-0.7-0.269-2.101-2.101-4.795-3.717t-4.983-2.478-4.498-1.401-3.259-0.7-1.266-0.162q-0.862-0.108-0.862-0.97v-35.879q0-0.431 0.323-0.7 0.215-0.269 0.7-0.269 2.209 0 7.003 1.508 8.027 2.478 13.037 7.488 0.269 0.377 0.269 0.7v35.879q0 0.646-0.593 0.916-0.108 0.054-0.377 0.054zM26.182 49.455q-0.269 0-0.377-0.054-0.593-0.269-0.593-0.916v-35.879q0-0.323 0.269-0.7 5.172-5.064 13.037-7.488 4.795-1.508 6.95-1.508 0.377 0 0.754 0.269 0.323 0.269 0.323 0.7v35.879q0 0.862-0.916 0.97-0.215 0-1.266 0.162t-3.259 0.7-4.471 1.401-4.983 2.478-4.768 3.717q-0.377 0.269-0.7 0.269z" />
</svg>
