<?xml version="1.0" encoding="utf-8"?>
<!-- Generated by IcoMoon.io -->
<!DOCTYPE svg PUBLIC "-//W3C//DTD SVG 1.1//EN" "http://www.w3.org/Graphics/SVG/1.1/DTD/svg11.dtd">
<svg version="1.1" xmlns="http://www.w3.org/2000/svg" xmlns:xlink="http://www.w3.org/1999/xlink" width="47" height="64" viewBox="0 0 47 64">
	<path d="M23.273 2.909q4.75 0 9.057 1.841t7.42 4.955 4.955 7.42 1.841 9.057-1.841 9.057-4.955 7.42-7.42 4.955-9.057 1.841-9.057-1.841-7.42-4.955-4.955-7.42-1.841-9.057 1.841-9.057 4.955-7.42 7.42-4.955 9.057-1.841zM36.568 21.977q0.477-2.364 0.045-4.125t-1.58-2.92-2.568-1.739-2.943-0.58h-13.045l-5.818 27.136h7.545l1.886-8.727h5.386q4.182 0 7.193-2.432t3.898-6.614zM26.614 18.432q1.455 0 2.25 1.102t0.386 2.67q-0.386 1.636-1.636 2.807t-2.932 1.17h-3.568l1.727-7.75h3.773z" />
</svg>
