<?xml version="1.0" encoding="utf-8"?>
<!-- Generated by IcoMoon.io -->
<!DOCTYPE svg PUBLIC "-//W3C//DTD SVG 1.1//EN" "http://www.w3.org/Graphics/SVG/1.1/DTD/svg11.dtd">
<svg version="1.1" xmlns="http://www.w3.org/2000/svg" xmlns:xlink="http://www.w3.org/1999/xlink" width="47" height="64" viewBox="0 0 47 64">
	<path d="M14.061 26.667l-8.943 8.943q-0.108 0.108-0.215 0.323l-4.848 12.175q-0.215 0.646 0.216 1.077 0.377 0.269 0.7 0.269 0.215 0 0.377-0.054l12.175-4.849q0.216-0.108 0.323-0.215l8.943-8.943zM42.828 45.737q0.808-0.808 0.808-1.966t-0.808-2.020l-13.199-13.199 8.189-8.189-8.727-8.727-8.189 8.189-13.252-13.252q-0.862-0.808-2.020-0.808t-1.966 0.808q-0.808 0.862-0.808 2.020t0.808 1.966l35.178 35.178q0.808 0.808 1.993 0.808t1.993-0.808zM45.684 8.35q0.862 0.916 0.862 2.101t-0.862 2.047l-4.956 4.956-8.727-8.727 4.956-4.956q0.862-0.862 2.047-0.862t2.101 0.862z" />
</svg>
