<?xml version="1.0" encoding="utf-8"?>
<!-- Generated by IcoMoon.io -->
<!DOCTYPE svg PUBLIC "-//W3C//DTD SVG 1.1//EN" "http://www.w3.org/Graphics/SVG/1.1/DTD/svg11.dtd">
<svg version="1.1" xmlns="http://www.w3.org/2000/svg" xmlns:xlink="http://www.w3.org/1999/xlink" width="47" height="64" viewBox="0 0 47 64">
	<path d="M23.273 2.909q4.727 0 9.034 1.841t7.432 4.966 4.966 7.432 1.841 9.034-1.841 9.034-4.966 7.432-7.432 4.966-9.034 1.841-9.034-1.841-7.432-4.966-4.966-7.432-1.841-9.034 1.841-9.034 4.966-7.432 7.432-4.966 9.034-1.841zM37.636 40.545q0.409-0.455 0.023-0.864l-9.545-11.614 5.318-5.318q0.364-0.364 0.091-0.773-0.25-0.455-0.727-0.295l-4.818 1.318-9.864-8.477 0.659-0.682q0.386-0.386 0.386-0.909t-0.386-0.909q-0.364-0.386-0.909-0.386t-0.909 0.386l-7.841 7.841q-0.386 0.364-0.386 0.909t0.386 0.909q0.364 0.386 0.909 0.386t0.909-0.386l0.682-0.659 8.477 9.864-1.318 4.818q-0.159 0.477 0.295 0.727 0.159 0.091 0.318 0.091 0.273 0 0.455-0.182l5.318-5.318 11.614 9.545q0.159 0.159 0.409 0.159 0.227 0 0.455-0.182z" />
</svg>
