<?xml version="1.0" encoding="utf-8"?>
<!-- Generated by IcoMoon.io -->
<!DOCTYPE svg PUBLIC "-//W3C//DTD SVG 1.1//EN" "http://www.w3.org/Graphics/SVG/1.1/DTD/svg11.dtd">
<svg version="1.1" xmlns="http://www.w3.org/2000/svg" xmlns:xlink="http://www.w3.org/1999/xlink" width="47" height="64" viewBox="0 0 47 64">
	<path d="M46.273 49.182q-0.318 0.273-0.705 0.273-0.364 0-0.614-0.227l-19.045-15.591-8.727 8.75q-0.318 0.273-0.705 0.273-0.25 0-0.5-0.136-0.636-0.409-0.409-1.159l2.523-7.159-14.227-16.614-1.114 1.114q-0.432 0.477-1.136 0.477-0.659 0-1.136-0.477t-0.477-1.148 0.477-1.125l13.045-13.045q0.455-0.477 1.125-0.477t1.148 0.477 0.477 1.148-0.477 1.125l-1.114 1.114 16.614 14.227 7.159-2.523q0.75-0.227 1.159 0.409 0.386 0.636-0.136 1.205l-8.75 8.727 15.591 19.045q0.227 0.295 0.216 0.67t-0.261 0.648z" />
</svg>
