<?xml version="1.0" encoding="utf-8"?>
<!-- Generated by IcoMoon.io -->
<!DOCTYPE svg PUBLIC "-//W3C//DTD SVG 1.1//EN" "http://www.w3.org/Graphics/SVG/1.1/DTD/svg11.dtd">
<svg version="1.1" xmlns="http://www.w3.org/2000/svg" xmlns:xlink="http://www.w3.org/1999/xlink" width="47" height="64" viewBox="0 0 47 64">
	<path d="M46.545 26.182q0 4.75-1.841 9.057t-4.955 7.42-7.42 4.955-9.057 1.841q-3.5 0-6.636-0.977 1.705-2.545 2.386-4.955l1.614-6.409q0.614 1.205 2.239 2.057t3.466 0.852q3.682 0 6.557-2.080t4.432-5.705 1.557-8.148q0-2.591-1.068-5t-2.955-4.273-4.67-2.977-6.011-1.114q-3.205 0-5.966 0.875t-4.693 2.33-3.307 3.352-2.023 3.932-0.648 4.057q0 3.159 1.193 5.557t3.534 3.33q0.909 0.341 1.205-0.591 0.068-0.25 0.477-1.841 0.091-0.455 0.023-0.682t-0.409-0.614q-1.5-1.886-1.5-4.568 0-2.205 0.807-4.227t2.261-3.557 3.648-2.455 4.761-0.92q4.568 0 7.102 2.489t2.534 6.466q0 3.341-0.909 6.136t-2.614 4.489-3.864 1.693q-1.841 0-2.966-1.318t-0.693-3.136q0.25-1.068 0.807-2.852t0.898-3.125 0.341-2.273q0-1.523-0.807-2.511t-2.307-0.989q-1.864 0-3.17 1.739t-1.307 4.284q0 1 0.182 1.92t0.364 1.33l0.205 0.432q-2.591 10.773-3 12.705-0.591 2.386-0.386 5.341-6.273-2.75-10.114-8.511t-3.841-12.83q0-4.75 1.841-9.057t4.955-7.42 7.42-4.955 9.057-1.841 9.057 1.841 7.42 4.955 4.955 7.42 1.841 9.057z" />
</svg>
