<?xml version="1.0" encoding="utf-8"?>
<!-- Generated by IcoMoon.io -->
<!DOCTYPE svg PUBLIC "-//W3C//DTD SVG 1.1//EN" "http://www.w3.org/Graphics/SVG/1.1/DTD/svg11.dtd">
<svg version="1.1" xmlns="http://www.w3.org/2000/svg" xmlns:xlink="http://www.w3.org/1999/xlink" width="47" height="64" viewBox="0 0 47 64">
	<path d="M15.523 28.114v-4.841q0-2.25 1.057-4.25t2.955-3.239 4.125-1.239q3.5 0 5.92 2.886t2.42 7.773q0 5.136-2.295 8.068t-6.432 2.932q-2.182 0-4-1.216t-2.784-3.068-0.966-3.807zM46.545 26.182q0 4.75-1.841 9.057t-4.955 7.42-7.42 4.955-9.057 1.841q-4 0-7.75-1.341v-12.886h0.364q3.068 4.523 8.364 4.523 3.023 0 5.455-1.17t3.966-3.193 2.352-4.625 0.818-5.557q0-3.886-1.386-7.091t-4.068-5.136-6.182-1.932q-6.636 0-9.841 5.432h-0.386l-0.432-4.841h-4.205l0.318 7.75v26.341q-4.886-3.159-7.773-8.33t-2.886-11.216q0-4.75 1.841-9.057t4.955-7.42 7.42-4.955 9.057-1.841 9.057 1.841 7.42 4.955 4.955 7.42 1.841 9.057z" />
</svg>
