<?xml version="1.0" encoding="utf-8"?>
<!-- Generated by IcoMoon.io -->
<!DOCTYPE svg PUBLIC "-//W3C//DTD SVG 1.1//EN" "http://www.w3.org/Graphics/SVG/1.1/DTD/svg11.dtd">
<svg version="1.1" xmlns="http://www.w3.org/2000/svg" xmlns:xlink="http://www.w3.org/1999/xlink" width="47" height="64" viewBox="0 0 47 64">
	<path d="M43.636 2.909q1.185 0 2.047 0.862t0.862 2.047v23.273q0 1.185-0.862 2.047t-2.047 0.862h-4.849v-9.697h-31.030v9.697h-4.848q-1.185 0-2.047-0.862t-0.862-2.047v-23.273q0-1.185 0.862-2.047t2.047-0.862h40.727zM37.818 14.545q1.185 0 2.047-0.862t0.862-2.047-0.862-2.047-2.047-0.862-2.047 0.862-0.862 2.047 0.862 2.047 2.047 0.862zM11.636 26.182v22.303q0 0.431 0.269 0.7t0.7 0.269h21.333q0.431 0 0.7-0.269t0.269-0.7v-22.303h-23.273z" />
</svg>
