<?xml version="1.0" encoding="utf-8"?>
<!-- Generated by IcoMoon.io -->
<!DOCTYPE svg PUBLIC "-//W3C//DTD SVG 1.1//EN" "http://www.w3.org/Graphics/SVG/1.1/DTD/svg11.dtd">
<svg version="1.1" xmlns="http://www.w3.org/2000/svg" xmlns:xlink="http://www.w3.org/1999/xlink" width="47" height="64" viewBox="0 0 47 64">
	<path d="M30.295 25.477q0-5.205-1.841-7.784t-5.205-2.58q-3.318 0-5.159 2.705t-1.841 7.659q0 5.727 1.784 8.261t5.216 2.534q1.023 0 1.955-0.273-0.614-1.318-1.318-1.898t-1.705-0.58q-0.045 0-0.205 0.023t-0.25 0.023l-0.432-2.364q1.091-0.477 2.159-0.477 1.455 0 2.761 0.739t2.216 2.057q1.864-2.818 1.864-8.045zM23.273 2.909q4.727 0 9.034 1.841t7.432 4.966 4.966 7.432 1.841 9.034-1.841 9.034-4.966 7.432-7.432 4.966-9.034 1.841-9.034-1.841-7.432-4.966-4.966-7.432-1.841-9.034 1.841-9.034 4.966-7.432 7.432-4.966 9.034-1.841zM33.659 39.659q-1.909 0-3.205-2.045 2.977-1.886 4.682-5.080t1.705-7.057q0-6.591-3.534-10.216t-9.625-3.625q-6.045 0-10.011 3.909t-3.966 9.932q0 6.682 3.523 10.477t9.591 3.795q1.932 0 3.75-0.455 0.886 1.591 2.364 2.477t3.159 0.886q1.25 0 2.25-0.409l-0.386-2.591h-0.295z" />
</svg>
