<?xml version="1.0" encoding="utf-8"?>
<!-- Generated by IcoMoon.io -->
<!DOCTYPE svg PUBLIC "-//W3C//DTD SVG 1.1//EN" "http://www.w3.org/Graphics/SVG/1.1/DTD/svg11.dtd">
<svg version="1.1" xmlns="http://www.w3.org/2000/svg" xmlns:xlink="http://www.w3.org/1999/xlink" width="47" height="64" viewBox="0 0 47 64">
	<path d="M37.818 29.091h5.818q1.185 0 2.047 0.862t0.862 2.047v11.636q0 1.185-0.862 2.047t-2.047 0.862h-14.545q-1.185 0-2.047-0.862t-0.862-2.047v-14.545q0-10.236 5.36-16.754t14.034-6.519q0.431 0 0.7 0.269t0.269 0.7v8.781q0 0.862-0.862 0.97-3.771 0.269-5.818 3.502t-2.047 9.050zM11.636 29.091h5.818q1.185 0 2.047 0.862t0.862 2.047v11.636q0 1.185-0.862 2.047t-2.047 0.862h-14.545q-1.185 0-2.047-0.862t-0.862-2.047v-14.545q0-10.236 5.36-16.754t14.034-6.519q0.431 0 0.7 0.269t0.269 0.7v8.781q0 0.862-0.862 0.97-3.771 0.269-5.818 3.502t-2.047 9.050z" />
</svg>
