<?xml version="1.0" encoding="utf-8"?>
<!-- Generated by IcoMoon.io -->
<!DOCTYPE svg PUBLIC "-//W3C//DTD SVG 1.1//EN" "http://www.w3.org/Graphics/SVG/1.1/DTD/svg11.dtd">
<svg version="1.1" xmlns="http://www.w3.org/2000/svg" xmlns:xlink="http://www.w3.org/1999/xlink" width="47" height="64" viewBox="0 0 47 64">
	<path d="M23.273 2.909q4.727 0 9.034 1.852t7.42 4.966 4.966 7.42 1.852 9.034q0 4.75-1.852 9.057t-4.966 7.42-7.42 4.955-9.034 1.841q-4.75 0-9.057-1.841t-7.42-4.955-4.955-7.42-1.841-9.057q0-4.727 1.841-9.034t4.955-7.42 7.42-4.966 9.057-1.852zM27.159 12.182q-1.955-0.545-4.364-0.545-3.045 0-5.841 1.159t-4.807 3.102-3.205 4.636-1.193 5.648 1.193 5.648 3.205 4.636 4.807 3.102 5.841 1.159 5.83-1.148 4.795-3.102 3.205-4.648 1.193-5.648q0-0.659-0.114-1.568 1.159-0.523 2.091-1.216t1.443-1.295 0.841-1.182 0.432-0.886 0.102-0.42q0.159-0.364-0.159-0.818-0.273-0.364-0.75-0.364-1.227 0-2.284-0.216t-2.148-0.727-1.716-0.886-1.898-1.193q-2.068-1.364-3.591-2.114v11.432q0 2.159-1.261 3.966t-3.261 2.795-4.205 0.989q-2.364 0-4.091-1.455t-1.727-3.864q0-1.136 0.58-2.398t1.591-2.352 2.614-1.807 3.443-0.716q1.773 0 3.409 1.068v-8.773z" />
</svg>
