<?xml version="1.0" encoding="utf-8"?>
<!-- Generated by IcoMoon.io -->
<!DOCTYPE svg PUBLIC "-//W3C//DTD SVG 1.1//EN" "http://www.w3.org/Graphics/SVG/1.1/DTD/svg11.dtd">
<svg version="1.1" xmlns="http://www.w3.org/2000/svg" xmlns:xlink="http://www.w3.org/1999/xlink" width="47" height="64" viewBox="0 0 47 64">
	<path d="M23.273 2.909q4.75 0 9.057 1.841t7.42 4.955 4.955 7.42 1.841 9.057-1.841 9.057-4.955 7.42-7.42 4.955-9.057 1.841-9.057-1.841-7.42-4.955-4.955-7.42-1.841-9.057 1.841-9.057 4.955-7.42 7.42-4.955 9.057-1.841zM38.795 34.795v-21.705q0-0.682-0.591-1.136-0.523-0.432-1.25-0.273l-11.159 2.977q-1.386 0.386-2.523 1.614-1.136-1.227-2.523-1.614l-11.159-2.977q-0.705-0.136-1.295 0.273-0.545 0.477-0.545 1.136v21.705q0 0.5 0.295 0.898t0.795 0.511l13.023 3.5q0.205 2.523 0.932 4.227t2.136 3.045q0 0.045 0.114 0.045h0.068q0.091-0.091 0.091-0.159l0.159-2.841 1.886-0.227q0.114 0 0.114-0.114 0.045-0.045 0.023-0.102t-0.068-0.057q-1.114-0.864-1.67-1.739t-0.761-2.125l12.818-3.455q0.5-0.114 0.795-0.511t0.295-0.898zM24.727 19.773q0-0.727 0.557-1.42t1.284-0.852l9.318-2.523v18.682l-11.159 3.023v-16.909zM34.432 30.864v-2.682l-8.25 2.25v2.705zM34.432 25.705v-2.705l-8.25 2.273v2.682zM34.432 20.523v-2.682l-8.25 2.25v2.705zM19.977 17.5q0.727 0.159 1.284 0.852t0.557 1.42v16.909l-11.159-3.023v-18.682zM20.364 33.136v-2.705l-8.25-2.25v2.682zM20.364 27.955v-2.682l-8.25-2.273v2.705zM20.364 22.795v-2.705l-8.25-2.25v2.682z" />
</svg>
