<?xml version="1.0" encoding="utf-8"?>
<!-- Generated by IcoMoon.io -->
<!DOCTYPE svg PUBLIC "-//W3C//DTD SVG 1.1//EN" "http://www.w3.org/Graphics/SVG/1.1/DTD/svg11.dtd">
<svg version="1.1" xmlns="http://www.w3.org/2000/svg" xmlns:xlink="http://www.w3.org/1999/xlink" width="47" height="64" viewBox="0 0 47 64">
	<path d="M8.727 17.455l10.659 2.909v-3.886l-10.659-2.909v3.886zM8.727 24.25l10.659 2.909v-3.886l-10.659-2.909v3.886zM8.727 31.023l10.659 2.909v-3.864l-10.659-2.909v3.864zM37.818 17.455l-10.659 2.909v-3.886l10.659-2.909v3.886zM37.818 24.25l-10.659 2.909v-3.886l10.659-2.909v3.886zM37.818 31.023l-10.659 2.909v-3.864l10.659-2.909v3.864zM42.886 6.25q0.75 0.5 0.75 1.5v29.091q0 0.659-0.409 1.193t-1.045 0.693l-16.705 4.477q0.318 1.409 1.057 2.455t2.125 2.136q0.114 0.045 0.114 0.205-0.091 0.159-0.227 0.159l-2.477 0.318-0.205 3.682q0 0.114-0.159 0.205h-0.068q-0.091 0-0.159-0.045-1.818-1.773-2.761-3.875t-1.216-5.125l-17.136-4.591q-0.636-0.159-1.045-0.693t-0.409-1.193v-29.091q0-1 0.75-1.5 0.795-0.614 1.682-0.386l14.545 3.932q1.977 0.523 3.386 2.114 1.409-1.591 3.386-2.114l14.545-3.932q0.864-0.25 1.682 0.386zM21.341 39.273v-22.682q0-0.955-0.727-1.864t-1.705-1.205l-12.114-3.227v25.045zM39.75 35.341v-25.045l-12.114 3.227q-0.977 0.295-1.705 1.205t-0.727 1.864v22.682z" />
</svg>
