<?xml version="1.0" encoding="utf-8"?>
<!-- Generated by IcoMoon.io -->
<!DOCTYPE svg PUBLIC "-//W3C//DTD SVG 1.1//EN" "http://www.w3.org/Graphics/SVG/1.1/DTD/svg11.dtd">
<svg version="1.1" xmlns="http://www.w3.org/2000/svg" xmlns:xlink="http://www.w3.org/1999/xlink" width="47" height="64" viewBox="0 0 47 64">
	<path d="M47.523 24.727q0 1.341-0.625 2.5t-1.693 1.909q0.364 1.364 0.364 2.864 0 2.523-1.125 4.898t-3.182 4.284-4.807 3.341-6.148 2.216-7.034 0.784-7.034-0.784-6.148-2.216-4.807-3.341-3.182-4.284-1.125-4.898q0-1.5 0.364-2.864-1.068-0.75-1.693-1.909t-0.625-2.5q0-2.227 1.557-3.784t3.784-1.557q2.045 0 3.545 1.364 3.023-1.977 6.909-3.102t8.182-1.17l3.023-9.091q0.136-0.432 0.523-0.659t0.841-0.136l8 1.614q0.545-1.091 1.591-1.739t2.295-0.648q1.818 0 3.091 1.273t1.273 3.091-1.273 3.091-3.091 1.273q-1.727 0-2.977-1.17t-1.364-2.852l-6.977-1.409-2.477 7.455q7.614 0.523 13.159 4.182 1.5-1.364 3.545-1.364 2.227 0 3.784 1.557t1.557 3.784zM12.614 28.614q0 1.386 0.989 2.386t2.398 1 2.398-1 0.989-2.386q0-1.409-0.989-2.409t-2.398-1-2.398 1-0.989 2.409zM31.318 39.159q0.341-0.295 0.398-0.727t-0.216-0.795q-0.273-0.341-0.716-0.398t-0.807 0.216q-2.818 2.205-6.705 2.205t-6.705-2.205q-0.364-0.273-0.807-0.216t-0.716 0.398q-0.273 0.364-0.216 0.795t0.398 0.727q3.364 2.636 8.045 2.636t8.045-2.636zM30.545 32q1.409 0 2.398-1t0.989-2.386q0-1.409-0.989-2.409t-2.398-1-2.398 1-0.989 2.409q0 1.386 0.989 2.386t2.398 1z" />
</svg>
