<?xml version="1.0" encoding="utf-8"?>
<!-- Generated by IcoMoon.io -->
<!DOCTYPE svg PUBLIC "-//W3C//DTD SVG 1.1//EN" "http://www.w3.org/Graphics/SVG/1.1/DTD/svg11.dtd">
<svg version="1.1" xmlns="http://www.w3.org/2000/svg" xmlns:xlink="http://www.w3.org/1999/xlink" width="47" height="64" viewBox="0 0 47 64">
	<path d="M23.273 2.909q4.727 0 9.034 1.841t7.432 4.966 4.966 7.432 1.841 9.034-1.841 9.034-4.966 7.432-7.432 4.966-9.034 1.841-9.034-1.841-7.432-4.966-4.966-7.432-1.841-9.034 1.841-9.034 4.966-7.432 7.432-4.966 9.034-1.841zM38.568 25.773q0.977-0.477 1.568-1.42t0.591-2.057q0-1.614-1.136-2.739t-2.75-1.125q-1.659 0-2.795 1.182-3.864-2.659-9.068-3.068l1.864-5.705 5.182 1.159q0.136 1.091 0.966 1.818t1.92 0.727q1.205 0 2.057-0.852t0.852-2.057-0.852-2.057-2.057-0.852q-1.614 0-2.477 1.364l-6.045-1.341q-0.364-0.091-0.693 0.102t-0.443 0.534l-2.295 7.091q-6.114 0.114-10.455 3.136-1.136-1.182-2.795-1.182-1.614 0-2.75 1.125t-1.136 2.739q0 1.114 0.591 2.057t1.568 1.42q-0.227 0.886-0.227 1.864 0 3.023 2.080 5.602t5.659 4.068 7.784 1.489 7.784-1.489 5.659-4.068 2.080-5.602q0-0.977-0.227-1.864zM23.273 34.909q3.409 0 5.841-1.932 0.318-0.25 0.375-0.648t-0.193-0.716-0.648-0.364-0.716 0.205q-1.955 1.523-4.659 1.523t-4.659-1.523q-0.318-0.25-0.716-0.205t-0.648 0.364-0.193 0.716 0.352 0.648q2.455 1.932 5.864 1.932zM15.523 25.705q0-1 0.705-1.716t1.705-0.716 1.716 0.716 0.716 1.716-0.716 1.705-1.716 0.705q-0.977 0-1.693-0.716t-0.716-1.693zM31.023 25.705q0-1-0.705-1.716t-1.705-0.716-1.716 0.716-0.716 1.716 0.716 1.705 1.716 0.705q0.977 0 1.693-0.716t0.716-1.693z" />
</svg>
