<?xml version="1.0" encoding="utf-8"?>
<!-- Generated by IcoMoon.io -->
<!DOCTYPE svg PUBLIC "-//W3C//DTD SVG 1.1//EN" "http://www.w3.org/Graphics/SVG/1.1/DTD/svg11.dtd">
<svg version="1.1" xmlns="http://www.w3.org/2000/svg" xmlns:xlink="http://www.w3.org/1999/xlink" width="47" height="64" viewBox="0 0 47 64">
	<path d="M46.545 3.879v18.424q0 0.431-0.269 0.7t-0.7 0.269h-18.424q-0.646 0-0.916-0.593-0.215-0.646 0.215-1.077l5.71-5.657q-3.771-3.34-8.889-3.34-5.603 0-9.589 3.987t-3.987 9.589 3.987 9.589 9.589 3.987q5.010 0 8.943-3.34 0.646-0.646 1.293 0l4.148 4.148v0.054q0.269 0.215 0.269 0.646 0 0.377-0.269 0.646 0 0.054-0.054 0.054-6.088 5.549-14.33 5.549-8.835 0-15.084-6.249t-6.249-15.084 6.249-15.084 15.084-6.249q8.242 0 14.384 5.603l7.219-7.273q0.431-0.431 1.077-0.216 0.593 0.269 0.593 0.916z" />
</svg>
