<?xml version="1.0" encoding="utf-8"?>
<!-- Generated by IcoMoon.io -->
<!DOCTYPE svg PUBLIC "-//W3C//DTD SVG 1.1//EN" "http://www.w3.org/Graphics/SVG/1.1/DTD/svg11.dtd">
<svg version="1.1" xmlns="http://www.w3.org/2000/svg" xmlns:xlink="http://www.w3.org/1999/xlink" width="47" height="64" viewBox="0 0 47 64">
	<path d="M36.579 13.845q0.7 0.7 0 1.401l-8.727 8.727q-0.431 0.431-1.077 0.215-0.593-0.269-0.593-0.916v-4.849h-10.667q-3.232 0-5.495 2.29t-2.263 5.468q0 2.694 1.67 4.795 0.485 0.646-0.054 1.293l-4.202 4.148q-0.215 0.269-0.646 0.269t-0.7-0.323q-3.825-4.418-3.825-10.182 0-6.411 4.552-10.963t10.963-4.552h10.667v-4.848q0-0.646 0.593-0.916 0.646-0.215 1.077 0.215zM9.966 38.519q-0.7-0.7 0-1.401l8.727-8.727q0.431-0.431 1.077-0.215 0.593 0.269 0.593 0.916v4.849h10.667q3.178 0 5.468-2.263t2.29-5.495q0-2.694-1.67-4.795-0.539-0.646 0.054-1.239l4.202-4.202q0.215-0.269 0.646-0.269t0.7 0.323q3.825 4.418 3.825 10.182 0 6.411-4.552 10.963t-10.963 4.552h-10.667v4.849q0 0.646-0.593 0.916-0.646 0.215-1.077-0.215z" />
</svg>
