<?xml version="1.0" encoding="utf-8"?>
<!-- Generated by IcoMoon.io -->
<!DOCTYPE svg PUBLIC "-//W3C//DTD SVG 1.1//EN" "http://www.w3.org/Graphics/SVG/1.1/DTD/svg11.dtd">
<svg version="1.1" xmlns="http://www.w3.org/2000/svg" xmlns:xlink="http://www.w3.org/1999/xlink" width="47" height="64" viewBox="0 0 47 64">
	<path d="M36.364 42.667q0 0.431-0.296 0.7t-0.673 0.269h-20.849q-3.663 0-6.195-2.532t-2.532-6.195v-8.727h-4.848q-0.646 0-0.916-0.593-0.215-0.646 0.216-1.077l8.727-8.727q0.7-0.7 1.401 0l8.727 8.727q0.431 0.431 0.215 1.077-0.269 0.593-0.916 0.593h-4.848v8.727q0 0.431 0.269 0.7t0.7 0.269h15.030q0.431 0 0.7 0.269l5.872 5.872q0.215 0.215 0.215 0.646zM46.276 27.852l-8.727 8.727q-0.377 0.269-0.7 0.269t-0.7-0.269l-8.727-8.727q-0.431-0.431-0.215-1.077 0.269-0.593 0.916-0.593h4.849v-8.727q0-0.431-0.269-0.7t-0.7-0.269h-15.030q-0.431 0-0.7-0.269l-5.872-5.872q-0.216-0.216-0.216-0.646t0.296-0.7 0.673-0.269h20.849q3.609 0 6.168 2.559t2.559 6.168v8.727h4.849q0.646 0 0.916 0.593 0.215 0.646-0.215 1.077z" />
</svg>
