<?xml version="1.0" encoding="utf-8"?>
<!-- Generated by IcoMoon.io -->
<!DOCTYPE svg PUBLIC "-//W3C//DTD SVG 1.1//EN" "http://www.w3.org/Graphics/SVG/1.1/DTD/svg11.dtd">
<svg version="1.1" xmlns="http://www.w3.org/2000/svg" xmlns:xlink="http://www.w3.org/1999/xlink" width="47" height="64" viewBox="0 0 47 64">
	<path d="M23.273 2.909q4.727 0 9.034 1.852t7.42 4.966 4.966 7.42 1.852 9.034q0 4.75-1.852 9.057t-4.966 7.42-7.42 4.955-9.034 1.841q-4.75 0-9.057-1.841t-7.42-4.955-4.955-7.42-1.841-9.057q0-4.727 1.841-9.034t4.955-7.42 7.42-4.966 9.057-1.852zM15.523 37.818q1.614 0 2.739-1.136t1.125-2.75-1.125-2.739-2.739-1.125-2.75 1.125-1.136 2.739 1.136 2.75 2.75 1.136zM24.25 37.818h4.841q0-4.75-2.341-8.761t-6.352-6.352-8.761-2.341v4.841q3.409 0 6.318 1.693t4.602 4.602 1.693 6.318zM32.977 37.818h4.841q0-5.318-2.080-10.159t-5.591-8.352-8.352-5.591-10.159-2.080v4.841q4.341 0 8.295 1.693t6.807 4.545 4.545 6.807 1.693 8.295z" />
</svg>
