<?xml version="1.0" encoding="utf-8"?>
<!-- Generated by IcoMoon.io -->
<!DOCTYPE svg PUBLIC "-//W3C//DTD SVG 1.1//EN" "http://www.w3.org/Graphics/SVG/1.1/DTD/svg11.dtd">
<svg version="1.1" xmlns="http://www.w3.org/2000/svg" xmlns:xlink="http://www.w3.org/1999/xlink" width="47" height="64" viewBox="0 0 47 64">
	<path d="M14.545 42.182q0 3.017-2.128 5.145t-5.145 2.128-5.145-2.128-2.128-5.145 2.128-5.145 5.145-2.128 5.145 2.128 2.128 5.145zM46.545 48.485q0 0.431-0.269 0.7t-0.7 0.269h-6.788q-0.431 0-0.7-0.269t-0.269-0.7q0-7.488-2.909-14.33t-7.838-11.771-11.771-7.838-14.33-2.909q-0.431 0-0.7-0.269t-0.269-0.7v-6.788q0-0.431 0.269-0.7t0.7-0.269q12.391 0 22.869 6.114t16.593 16.593 6.114 22.869zM32 48.485q0 0.431-0.269 0.7t-0.7 0.269h-6.788q-0.431 0-0.7-0.269t-0.269-0.7q0-9.266-6.518-15.785t-15.784-6.518q-0.431 0-0.7-0.269t-0.269-0.7v-6.788q0-0.431 0.269-0.7t0.7-0.269q6.303 0 12.040 2.451t9.912 6.626 6.626 9.912 2.451 12.040z" />
</svg>
