<?xml version="1.0" encoding="utf-8"?>
<!-- Generated by IcoMoon.io -->
<!DOCTYPE svg PUBLIC "-//W3C//DTD SVG 1.1//EN" "http://www.w3.org/Graphics/SVG/1.1/DTD/svg11.dtd">
<svg version="1.1" xmlns="http://www.w3.org/2000/svg" xmlns:xlink="http://www.w3.org/1999/xlink" width="47" height="64" viewBox="0 0 47 64">
	<path d="M29.091 2.909q7.219 0 12.337 5.118t5.118 12.337-5.118 12.337-12.337 5.118q-5.118 0-9.32-2.694l-13.145 13.199q-1.131 1.131-2.748 1.131t-2.748-1.131-1.131-2.748 1.131-2.748l13.199-13.145q-2.694-4.202-2.694-9.32 0-7.219 5.118-12.337t12.337-5.118zM29.091 32q4.795 0 8.216-3.421t3.421-8.216-3.421-8.216-8.215-3.421-8.215 3.421-3.421 8.216 3.421 8.215 8.215 3.421z" />
</svg>
