<?xml version="1.0" encoding="utf-8"?>
<!-- Generated by IcoMoon.io -->
<!DOCTYPE svg PUBLIC "-//W3C//DTD SVG 1.1//EN" "http://www.w3.org/Graphics/SVG/1.1/DTD/svg11.dtd">
<svg version="1.1" xmlns="http://www.w3.org/2000/svg" xmlns:xlink="http://www.w3.org/1999/xlink" width="47" height="64" viewBox="0 0 47 64">
	<path d="M46.545 3.987l-5.818 44.606q-0.108 0.539-0.539 0.754-0.431 0.269-0.862 0l-14.815-7.38-5.333 7.111q-0.269 0.377-0.754 0.377-0.215 0-0.323-0.054-0.646-0.162-0.646-0.916v-9.697q0-0.377 0.215-0.593l21.172-27.259-27.529 23.758q-0.269 0.215-0.646 0.215-0.216 0-0.431-0.108l-9.697-4.849q-0.539-0.269-0.539-0.808 0-0.593 0.485-0.916l44.606-25.212q0.539-0.269 1.024 0.054 0.539 0.323 0.431 0.916z" />
</svg>
