<?xml version="1.0" encoding="utf-8"?>
<!-- Generated by IcoMoon.io -->
<!DOCTYPE svg PUBLIC "-//W3C//DTD SVG 1.1//EN" "http://www.w3.org/Graphics/SVG/1.1/DTD/svg11.dtd">
<svg version="1.1" xmlns="http://www.w3.org/2000/svg" xmlns:xlink="http://www.w3.org/1999/xlink" width="47" height="64" viewBox="0 0 47 64">
	<path d="M23.273 2.909q4.727 0 9.034 1.841t7.432 4.966 4.966 7.432 1.841 9.034-1.841 9.034-4.966 7.432-7.432 4.966-9.034 1.841-9.034-1.841-7.432-4.966-4.966-7.432-1.841-9.034 1.841-9.034 4.966-7.432 7.432-4.966 9.034-1.841zM27.227 31.205l-10.045-5.023 10.045-5.023q1.477 1.136 3.318 1.136 2.205 0 3.773-1.557t1.568-3.761-1.557-3.773-3.784-1.568-3.784 1.568-1.557 3.773v0.136l-9.773 4.886q-1.455-1.159-3.318-1.159-2.205 0-3.761 1.568t-1.557 3.773 1.557 3.773 3.761 1.568q1.864 0 3.318-1.159l9.773 4.886v0.136q0 2.205 1.557 3.773t3.784 1.568 3.784-1.568 1.557-3.773-1.568-3.761-3.773-1.557q-1.841 0-3.318 1.136z" />
</svg>
