<?xml version="1.0" encoding="utf-8"?>
<!-- Generated by IcoMoon.io -->
<!DOCTYPE svg PUBLIC "-//W3C//DTD SVG 1.1//EN" "http://www.w3.org/Graphics/SVG/1.1/DTD/svg11.dtd">
<svg version="1.1" xmlns="http://www.w3.org/2000/svg" xmlns:xlink="http://www.w3.org/1999/xlink" width="47" height="64" viewBox="0 0 47 64">
	<path d="M15.838 16.323l-4.848 6.465-2.37-3.178q-0.862-1.185-2.316-1.185h-5.333q-0.431 0-0.7-0.269t-0.269-0.7v-5.818q0-0.431 0.269-0.7t0.7-0.269h5.387q5.279 0 8.458 4.202zM46.276 38.519l-8.727 8.727q-0.377 0.269-0.7 0.269-0.269 0-0.377-0.054-0.593-0.269-0.593-0.916v-4.849h-5.387q-5.279 0-8.458-4.202l-1.077-1.455 4.849-6.465 2.424 3.178q0.862 1.185 2.317 1.185h5.333v-4.849q0-0.646 0.593-0.916 0.646-0.215 1.077 0.215l8.727 8.727q0.7 0.7 0 1.401zM46.276 15.246l-8.727 8.727q-0.377 0.269-0.7 0.269-0.269 0-0.377-0.054-0.593-0.269-0.593-0.916v-4.849h-5.333q-1.455 0-2.317 1.185l-13.414 17.885q-3.178 4.202-8.458 4.202h-5.387q-0.431 0-0.7-0.269t-0.269-0.7v-5.818q0-0.431 0.269-0.7t0.7-0.269h5.333q1.455 0 2.316-1.185l13.414-17.886q3.178-4.202 8.458-4.202h5.387v-4.848q0-0.646 0.593-0.916 0.646-0.215 1.077 0.215l8.727 8.727q0.7 0.7 0 1.401z" />
</svg>
