<?xml version="1.0" encoding="utf-8"?>
<!-- Generated by IcoMoon.io -->
<!DOCTYPE svg PUBLIC "-//W3C//DTD SVG 1.1//EN" "http://www.w3.org/Graphics/SVG/1.1/DTD/svg11.dtd">
<svg version="1.1" xmlns="http://www.w3.org/2000/svg" xmlns:xlink="http://www.w3.org/1999/xlink" width="47" height="64" viewBox="0 0 47 64">
	<path d="M10.667 3.879v44.606q0 0.431-0.269 0.7t-0.7 0.269h-5.818q-0.431 0-0.7-0.269t-0.269-0.7v-44.606q0-0.431 0.269-0.7t0.7-0.269h5.818q0.431 0 0.7 0.269t0.269 0.7zM43.636 3.879v44.606q0 0.593-0.539 0.862-0.323 0.108-0.431 0.108-0.377 0-0.593-0.215l-27.151-22.303q-0.377-0.215-0.377-0.754 0-0.431 0.377-0.754l27.151-22.303q0.431-0.377 1.024-0.108 0.539 0.269 0.539 0.862z" />
</svg>
