<?xml version="1.0" encoding="utf-8"?>
<!-- Generated by IcoMoon.io -->
<!DOCTYPE svg PUBLIC "-//W3C//DTD SVG 1.1//EN" "http://www.w3.org/Graphics/SVG/1.1/DTD/svg11.dtd">
<svg version="1.1" xmlns="http://www.w3.org/2000/svg" xmlns:xlink="http://www.w3.org/1999/xlink" width="47" height="64" viewBox="0 0 47 64">
	<path d="M44.341 29.682q2.205 3.25 2.205 7.159 0 3.409-1.693 6.318t-4.602 4.602-6.318 1.693q-3.909 0-7.159-2.205-1.955 0.273-3.5 0.273-4.341 0-8.295-1.693t-6.807-4.545-4.545-6.807-1.693-8.295q0-1.545 0.273-3.5-2.205-3.25-2.205-7.159 0-3.409 1.693-6.318t4.602-4.602 6.318-1.693q3.909 0 7.159 2.205 1.955-0.273 3.5-0.273 4.341 0 8.295 1.693t6.807 4.545 4.545 6.807 1.693 8.295q0 1.545-0.273 3.5zM23.705 40.727q3.136 0 5.818-1.045t4.409-3.205 1.727-5.023q0-6.068-9.682-8.227l-3.25-0.705q-0.886-0.205-1.352-0.33t-1.102-0.364-0.932-0.489-0.523-0.648-0.227-0.92q0-1.227 1.182-1.83t3.295-0.602q1.364 0 2.409 0.364t1.682 0.898 1.193 1.057 1.239 0.886 1.5 0.364q1.432 0 2.33-0.989t0.898-2.42q0-1.705-1.75-3.080t-4.443-2.080-5.67-0.705q-2.114 0-4.068 0.477t-3.682 1.455-2.773 2.705-1.045 3.977q0 1.886 0.591 3.307t1.75 2.352 2.477 1.5 3.159 1.045l4.568 1.068q2.568 0.659 3.227 1 1.25 0.659 1.25 2.023 0 1.182-1.25 1.989t-3.273 0.807q-1.341 0-2.443-0.352t-1.795-0.886-1.352-1.159-1.159-1.159-1.182-0.886-1.455-0.352q-1.523 0-2.318 0.932t-0.795 2.295q0 1.886 1.727 3.489t4.682 2.534 6.409 0.932z" />
</svg>
