<?xml version="1.0" encoding="utf-8"?>
<!-- Generated by IcoMoon.io -->
<!DOCTYPE svg PUBLIC "-//W3C//DTD SVG 1.1//EN" "http://www.w3.org/Graphics/SVG/1.1/DTD/svg11.dtd">
<svg version="1.1" xmlns="http://www.w3.org/2000/svg" xmlns:xlink="http://www.w3.org/1999/xlink" width="47" height="64" viewBox="0 0 47 64">
	<path d="M23.273 2.909q4.75 0 9.057 1.841t7.42 4.955 4.955 7.42 1.841 9.057-1.841 9.057-4.955 7.42-7.42 4.955-9.057 1.841-9.057-1.841-7.42-4.955-4.955-7.42-1.841-9.057 1.841-9.057 4.955-7.42 7.42-4.955 9.057-1.841zM30.545 42.068q3.568 0 6.091-2.523t2.523-6.091q0-2.773-1.5-4.841 0.159-1.136 0.159-2.432 0-2.955-1.159-5.648t-3.102-4.636-4.636-3.102-5.648-1.159q-1.295 0-2.432 0.159-2.068-1.5-4.841-1.5-3.568 0-6.091 2.523t-2.523 6.091q0 2.75 1.5 4.909-0.159 1.045-0.159 2.364 0 2.955 1.159 5.648t3.102 4.636 4.636 3.102 5.648 1.159q1.318 0 2.364-0.159 2.159 1.5 4.909 1.5zM31.523 29.727q0-1.091-0.5-2t-1.182-1.466-1.659-1-1.659-0.648-1.477-0.364l-2.159-0.545q-0.727-0.159-1.102-0.261t-0.818-0.307-0.625-0.511-0.182-0.761q0-1.545 2.955-1.545 0.909 0 1.602 0.239t1.125 0.591 0.795 0.705 0.818 0.591 1 0.239q0.977 0 1.557-0.659t0.58-1.614q0-1.705-2.386-2.818t-5.477-1.114q-1.409 0-2.716 0.318t-2.455 0.977-1.841 1.818-0.693 2.659q0 2.386 1.375 3.591t3.966 1.841l3.023 0.773q1.909 0.455 2.364 0.75 0.591 0.409 0.591 1.182 0 0.818-0.83 1.352t-2.193 0.534q-1.273 0-2.239-0.5t-1.455-1.091-1.148-1.091-1.409-0.5q-1.023 0-1.534 0.614t-0.511 1.545q0 1.886 2.523 3.261t6 1.375q3.25 0 5.614-1.67t2.364-4.489z" />
</svg>
