<?xml version="1.0" encoding="utf-8"?>
<!-- Generated by IcoMoon.io -->
<!DOCTYPE svg PUBLIC "-//W3C//DTD SVG 1.1//EN" "http://www.w3.org/Graphics/SVG/1.1/DTD/svg11.dtd">
<svg version="1.1" xmlns="http://www.w3.org/2000/svg" xmlns:xlink="http://www.w3.org/1999/xlink" width="47" height="64" viewBox="0 0 47 64">
	<path d="M1.909 33.818q-0.182 0-0.182-0.182l-0.455-4.114 0.455-4.227q0-0.182 0.182-0.182 0.159 0 0.205 0.182l0.523 4.227-0.523 4.114q-0.045 0.182-0.205 0.182zM0.364 32.068zM0.182 32.25q-0.182 0-0.182-0.182l-0.341-2.545 0.341-2.614q0-0.182 0.182-0.182t0.182 0.182l0.409 2.614-0.409 2.545q0 0.182-0.182 0.182zM4 24.523l0.5 5-0.5 4.795q-0.045 0.227-0.25 0.227-0.182 0-0.227-0.227l-0.432-4.795 0.432-5q0.045-0.227 0.227-0.227 0.205 0 0.25 0.227zM5.614 34.75q-0.227 0-0.273-0.273l-0.409-4.955 0.409-5.136q0.045-0.273 0.273-0.273 0.273 0 0.273 0.273l0.477 5.136-0.477 4.955q0 0.273-0.273 0.273zM7.5 34.841q-0.318 0-0.318-0.318l-0.386-5 0.386-4.773q0-0.318 0.318-0.318 0.295 0 0.295 0.318l0.455 4.773-0.455 5q0 0.318-0.295 0.318zM10.136 29.523l-0.409 5q0 0.341-0.341 0.341-0.318 0-0.364-0.341l-0.364-5 0.364-7.75q0.045-0.364 0.364-0.364 0.136 0 0.239 0.102t0.102 0.261zM11.273 34.886q-0.159 0-0.273-0.114t-0.114-0.273l-0.341-4.977 0.341-9.523q0-0.159 0.114-0.273t0.273-0.114q0.364 0 0.409 0.386l0.386 9.523-0.386 4.977q-0.045 0.386-0.409 0.386zM13.205 18.773q0.386 0 0.432 0.432l0.364 10.318-0.364 4.932v-0.023q-0.045 0.432-0.432 0.432-0.182 0-0.307-0.114t-0.125-0.295l-0.318-4.932 0.318-10.318q0-0.432 0.432-0.432zM15.136 34.886q-0.205 0-0.341-0.136t-0.136-0.341l-0.295-4.886 0.295-10.659q0-0.205 0.136-0.341t0.341-0.136q0.432 0 0.477 0.477l0.318 10.659-0.318 4.886q-0.045 0.477-0.477 0.477zM17.068 34.886q-0.205 0-0.352-0.148t-0.148-0.375l-0.273-4.841 0.273-10.386q0-0.227 0.148-0.375t0.352-0.148q0.227 0 0.375 0.148t0.148 0.375l0.318 10.386-0.318 4.841q0 0.227-0.148 0.375t-0.375 0.148zM19.864 29.523l-0.273 4.818q0 0.227-0.159 0.386t-0.386 0.159-0.386-0.159-0.182-0.386l-0.25-4.818 0.25-10q0.023-0.25 0.182-0.409t0.386-0.159 0.386 0.159 0.159 0.386zM21.023 34.886q-0.25 0-0.42-0.17t-0.17-0.398l-0.227-4.795 0.227-11.909q0-0.25 0.17-0.42t0.42-0.17 0.42 0.17 0.17 0.42l0.25 11.909-0.25 4.795v-0.023q0 0.25-0.17 0.42t-0.42 0.17zM23 15.886q0.25 0 0.432 0.193t0.182 0.443l0.295 13-0.295 4.727v-0.023q0 0.273-0.182 0.455t-0.432 0.182q-0.273 0-0.455-0.182t-0.182-0.432l-0.273-4.727 0.273-13q0-0.25 0.182-0.443t0.455-0.193zM24.795 34.909q-0.25-0.023-0.432-0.227t-0.205-0.455v-18.318q0.023-0.455 0.568-0.682 1.75-0.682 3.682-0.682 3.977 0 6.886 2.682t3.25 6.591q1-0.432 2.227-0.432 2.386 0 4.080 1.682t1.693 4.068-1.693 4.080-4.080 1.693h-15.977z" />
</svg>
