<?xml version="1.0" encoding="utf-8"?>
<!-- Generated by IcoMoon.io -->
<!DOCTYPE svg PUBLIC "-//W3C//DTD SVG 1.1//EN" "http://www.w3.org/Graphics/SVG/1.1/DTD/svg11.dtd">
<svg version="1.1" xmlns="http://www.w3.org/2000/svg" xmlns:xlink="http://www.w3.org/1999/xlink" width="47" height="64" viewBox="0 0 47 64">
	<path d="M23.273 2.909q4.75 0 9.057 1.841t7.42 4.955 4.955 7.42 1.841 9.057-1.841 9.057-4.955 7.42-7.42 4.955-9.057 1.841-9.057-1.841-7.42-4.955-4.955-7.42-1.841-9.057 1.841-9.057 4.955-7.42 7.42-4.955 9.057-1.841zM25.795 5l-2.727 2.75 10.977 11 2.75-2.75zM19.545 12.818l-1.659 3.5 14.068 6.568 1.659-3.545zM16.477 20.909l-0.682 3.818 15.295 2.705 0.636-3.841zM15.523 28.114v3.886h15.5v-3.886h-15.5zM36.841 37.818v-11.636h-3.864v7.75h-19.409v-7.75h-3.864v11.636h27.136z" />
</svg>
