<?xml version="1.0" encoding="utf-8"?>
<!-- Generated by IcoMoon.io -->
<!DOCTYPE svg PUBLIC "-//W3C//DTD SVG 1.1//EN" "http://www.w3.org/Graphics/SVG/1.1/DTD/svg11.dtd">
<svg version="1.1" xmlns="http://www.w3.org/2000/svg" xmlns:xlink="http://www.w3.org/1999/xlink" width="47" height="64" viewBox="0 0 47 64">
	<path d="M20.045 34.273q0-1.591-1.136-2.739t-2.75-1.148q-0.182 0-0.545 0.045-0.25 0.045-0.477-0.125t-0.25-0.42q-0.023-0.273 0.136-0.489t0.409-0.261q0.455-0.045 0.727-0.045 2.159 0 3.67 1.523t1.511 3.659-1.523 3.648-3.659 1.511q-1.227 0-2.341-0.568t-1.841-1.568q-0.159-0.205-0.114-0.466t0.25-0.42q0.227-0.159 0.489-0.125t0.42 0.261q1.159 1.591 3.136 1.591 1.614 0 2.75-1.136t1.136-2.727zM30.386 14.227q2.409 0 4.114 1.705t1.705 4.114-1.705 4.114-4.114 1.705-4.114-1.705-1.705-4.114 1.693-4.114 4.125-1.705zM30.386 24.568q1.886 0 3.205-1.33t1.318-3.193-1.318-3.193-3.205-1.33-3.205 1.33-1.318 3.193 1.318 3.193 3.205 1.33zM46.545 26.182q0 4.727-1.841 9.034t-4.966 7.432-7.432 4.966-9.034 1.841q-5.364 0-10.102-2.295t-7.989-6.295-4.5-9.045l9.205 3.955q0.5 2.159 2.25 3.557t4.023 1.398q2.659 0 4.545-1.875t1.932-4.511l8.227-5.909q3.341-0.182 5.636-2.614t2.295-5.773q0-3.5-2.466-5.955t-5.943-2.455-5.932 2.455-2.477 5.932l-5.795 7.773h-0.023q-1.727 0-3.205 0.864l-12.75-5.5q0.727-5.659 3.955-10.284t8.261-7.295 10.852-2.67q4.727 0 9.034 1.841t7.432 4.966 4.966 7.432 1.841 9.034z" />
</svg>
