<?xml version="1.0" encoding="utf-8"?>
<!-- Generated by IcoMoon.io -->
<!DOCTYPE svg PUBLIC "-//W3C//DTD SVG 1.1//EN" "http://www.w3.org/Graphics/SVG/1.1/DTD/svg11.dtd">
<svg version="1.1" xmlns="http://www.w3.org/2000/svg" xmlns:xlink="http://www.w3.org/1999/xlink" width="47" height="64" viewBox="0 0 47 64">
	<path d="M52.364 11.636v1.932h-1.932q-1.455 0-2.625 1.17t-2.17 3.625q-8.568 21.773-8.795 22.364h-1.932l-9.477-25.545q-0.364-0.955-1.011-1.284t-2.125-0.33h-1.932v-1.932h15.523v1.932h-4.864l7 19.295 6.091-15.409q0.682-1.727 0.33-2.807t-1.784-1.080h-1.932v-1.932h11.636zM21.341 32q0 2.5-0.943 4.557t-2.966 3.386-4.818 1.33q-3.068 0-5.534-1.375t-3.966-3.33l-1.182 4.159h-1.932v-11.636h1.932q0.841 2.25 1.886 4.034t2.102 2.92 2.205 1.898 2.193 1.068 2.068 0.307q2.614 0 4.33-1.42t1.716-3.261q0-1.864-0.966-3t-3.67-1.955l-7.159-2.159q-6.909-2.159-6.909-8.614 0-1.932 0.67-3.466t1.795-2.466 2.545-1.409 3.011-0.477q2.682 0 4.67 1.057t3.261 2.602l0.795-3.114h1.955v9.705h-1.955q-0.909-3.886-3.352-6.205t-5.42-2.318q-1.386 0-2.466 0.443t-1.682 1.159-0.898 1.489-0.295 1.545q0 2.591 4.091 3.886 4.273 1.341 7.614 2.318 7.273 2.068 7.273 8.341z" />
</svg>
