<?xml version="1.0" encoding="utf-8"?>
<!-- Generated by IcoMoon.io -->
<!DOCTYPE svg PUBLIC "-//W3C//DTD SVG 1.1//EN" "http://www.w3.org/Graphics/SVG/1.1/DTD/svg11.dtd">
<svg version="1.1" xmlns="http://www.w3.org/2000/svg" xmlns:xlink="http://www.w3.org/1999/xlink" width="47" height="64" viewBox="0 0 47 64">
	<path d="M23.273 2.909q4.75 0 9.057 1.841t7.42 4.955 4.955 7.42 1.841 9.057-1.841 9.057-4.955 7.42-7.42 4.955-9.057 1.841-9.057-1.841-7.42-4.955-4.955-7.42-1.841-9.057 1.841-9.057 4.955-7.42 7.42-4.955 9.057-1.841zM16.045 36.205q2.75 0 4.205-1.761t1.455-4.375q0-4.182-4.795-5.545-0.773-0.227-4.955-1.568-2.636-0.795-2.636-2.591 0-1.182 0.841-2.125t2.614-0.943q1.977 0 3.625 1.545t2.239 4.114h0.977v-6.477h-0.977l-0.432 2.114q-0.795-1.023-2.159-1.727t-3.227-0.705q-2.227 0-3.727 1.33t-1.5 3.852q0 4.364 4.477 5.705l4.636 1.455q1.795 0.568 2.432 1.33t0.636 2.011q0 1.205-1.080 2.136t-2.807 0.932q-1.932 0-3.875-1.614t-3.284-5.182h-0.977v7.773h0.977l0.75-2.864q1.023 1.295 2.761 2.239t3.807 0.943zM41.114 17.455h0.591v-0.977h-6.795v0.977h0.864q0.955 0 1.25 0.784t-0.114 1.966l-4.091 10.386-4.864-13.136h3.068v-0.977h-9.682v0.977h0.432q1.205 0 1.852 0.477t1.057 1.455l6.068 16.5h1.295l5.818-15.091q1.432-3.341 3.25-3.341z" />
</svg>
