<?xml version="1.0" encoding="utf-8"?>
<!-- Generated by IcoMoon.io -->
<!DOCTYPE svg PUBLIC "-//W3C//DTD SVG 1.1//EN" "http://www.w3.org/Graphics/SVG/1.1/DTD/svg11.dtd">
<svg version="1.1" xmlns="http://www.w3.org/2000/svg" xmlns:xlink="http://www.w3.org/1999/xlink" width="47" height="64" viewBox="0 0 47 64">
	<path d="M44.229 30.222v0q-1.455 7.488-7.354 12.391t-13.603 4.902q-8.242 0-14.384-5.603l-7.219 7.273q-0.377 0.269-0.7 0.269-0.269 0-0.377-0.054-0.593-0.269-0.593-0.916v-18.424q0-0.431 0.269-0.7t0.7-0.269h18.424q0.646 0 0.916 0.593 0.215 0.646-0.215 1.077l-5.71 5.657q3.771 3.34 8.889 3.34 4.633 0 8.242-2.801t4.849-7.165q0.162-0.7 0.916-0.7h5.98q0.539 0 0.754 0.377 0.269 0.377 0.215 0.754zM2.317 22.141v0q1.401-7.434 7.3-12.364t13.657-4.929q8.242 0 14.384 5.603l7.219-7.273q0.377-0.269 0.7-0.269 0.269 0 0.377 0.054 0.593 0.269 0.593 0.916v18.424q0 0.431-0.269 0.7t-0.7 0.269h-18.424q-0.646 0-0.916-0.593-0.215-0.646 0.215-1.077l5.71-5.657q-3.771-3.34-8.889-3.34-4.633 0-8.242 2.801t-4.848 7.165q-0.162 0.7-0.916 0.7h-5.98q-0.485 0-0.754-0.323-0.269-0.485-0.216-0.808z" />
</svg>
