<?xml version="1.0" encoding="utf-8"?>
<!-- Generated by IcoMoon.io -->
<!DOCTYPE svg PUBLIC "-//W3C//DTD SVG 1.1//EN" "http://www.w3.org/Graphics/SVG/1.1/DTD/svg11.dtd">
<svg version="1.1" xmlns="http://www.w3.org/2000/svg" xmlns:xlink="http://www.w3.org/1999/xlink" width="47" height="64" viewBox="0 0 47 64">
	<path d="M7.758 48.485q0 0.431-0.269 0.7t-0.7 0.269h-5.818q-0.431 0-0.7-0.269t-0.269-0.7v-27.151q0-0.431 0.269-0.7t0.7-0.269h5.818q0.431 0 0.7 0.269t0.269 0.7v27.151zM46.545 32.485q0 2.801-2.532 3.987 0.593 1.077 0.593 2.316 0 1.562-0.916 2.828t-2.37 1.751q0.377 0.754 0.377 1.724 0 1.832-1.266 3.098t-3.098 1.266h-10.182q-2.909 0-5.549-1.185l-9.966-4.633v-20.364q8.296-5.549 10.936-9.158t2.64-8.296q0-1.185 0.862-2.047t2.047-0.862q1.724 0 3.178 2.155 1.67 2.316 1.67 5.603 0 1.616-0.458 3.717t-0.916 3.367-0.512 1.266q-0.162 0.485 0.108 0.916t0.808 0.431h10.182q1.832 0 3.098 1.266t1.266 3.098q0 2.694-2.37 3.879 2.37 1.293 2.37 3.879z" />
</svg>
