<?xml version="1.0" encoding="utf-8"?>
<!-- Generated by IcoMoon.io -->
<!DOCTYPE svg PUBLIC "-//W3C//DTD SVG 1.1//EN" "http://www.w3.org/Graphics/SVG/1.1/DTD/svg11.dtd">
<svg version="1.1" xmlns="http://www.w3.org/2000/svg" xmlns:xlink="http://www.w3.org/1999/xlink" width="47" height="64" viewBox="0 0 47 64">
	<path d="M7.758 3.879v27.151q0 0.431-0.269 0.7t-0.7 0.269h-5.818q-0.431 0-0.7-0.269t-0.269-0.7v-27.151q0-0.431 0.269-0.7t0.7-0.269h5.818q0.431 0 0.7 0.269t0.269 0.7zM46.545 19.879q0 2.694-2.37 3.879 2.37 1.293 2.37 3.879 0 1.832-1.266 3.098t-3.098 1.266h-10.182q-0.539 0-0.808 0.431t-0.108 0.916q0.054 0.054 0.485 1.293t0.916 3.34 0.485 3.717q0 3.232-1.67 5.657-1.508 2.101-3.178 2.101-1.185 0-2.047-0.862t-0.862-2.047q0-4.687-2.64-8.296t-10.936-9.158v-20.364l9.966-4.633q2.64-1.185 5.549-1.185h10.182q1.832 0 3.098 1.266t1.266 3.098q0 0.97-0.377 1.724 1.455 0.485 2.37 1.751t0.916 2.828q0 1.293-0.593 2.316 2.532 1.185 2.532 3.987z" />
</svg>
