<?xml version="1.0" encoding="utf-8"?>
<!-- Generated by IcoMoon.io -->
<!DOCTYPE svg PUBLIC "-//W3C//DTD SVG 1.1//EN" "http://www.w3.org/Graphics/SVG/1.1/DTD/svg11.dtd">
<svg version="1.1" xmlns="http://www.w3.org/2000/svg" xmlns:xlink="http://www.w3.org/1999/xlink" width="47" height="64" viewBox="0 0 47 64">
	<path d="M37.818 46.932q-0.159 0.114-0.466 0.273t-1.341 0.602-2.182 0.773-2.966 0.602-3.705 0.273q-6.477 0-9.545-2.886t-3.068-8.75v-14.545h-6.795v-6.795q1.864-0.614 3.261-1.318t2.716-1.784 2.216-2.477 1.545-3.409 0.943-4.58h6.773v11.636h10.682v8.727h-10.682v11.636q0 1.932 0.227 3.125t0.864 2.068 1.773 1.239 2.955 0.364q1.295 0 2.989-0.489t2.761-0.989l1.045-0.477v7.182z" />
</svg>
