<?xml version="1.0" encoding="utf-8"?>
<!-- Generated by IcoMoon.io -->
<!DOCTYPE svg PUBLIC "-//W3C//DTD SVG 1.1//EN" "http://www.w3.org/Graphics/SVG/1.1/DTD/svg11.dtd">
<svg version="1.1" xmlns="http://www.w3.org/2000/svg" xmlns:xlink="http://www.w3.org/1999/xlink" width="47" height="64" viewBox="0 0 47 64">
	<path d="M23.273 2.909q4.75 0 9.057 1.841t7.42 4.955 4.955 7.42 1.841 9.057-1.841 9.057-4.955 7.42-7.42 4.955-9.057 1.841-9.057-1.841-7.42-4.955-4.955-7.42-1.841-9.057 1.841-9.057 4.955-7.42 7.42-4.955 9.057-1.841zM32.977 40.727v-5q-2.75 0.795-4.864 0.795-1.068 0-1.75-0.148t-1.114-0.42-0.648-0.864-0.284-1.261-0.068-1.83v-7.75h7.75v-6.795h-7.75v-7.75h-4.864q-0.159 1.545-0.5 2.773t-0.886 2.125-1.148 1.557-1.5 1.182-1.716 0.875-2 0.739v4.909h4.909v10.068q0 4.364 2.034 6.545t6.625 2.182q2.182 0 4.125-0.489t2.807-0.966z" />
</svg>
