<?xml version="1.0" encoding="utf-8"?>
<!-- Generated by IcoMoon.io -->
<!DOCTYPE svg PUBLIC "-//W3C//DTD SVG 1.1//EN" "http://www.w3.org/Graphics/SVG/1.1/DTD/svg11.dtd">
<svg version="1.1" xmlns="http://www.w3.org/2000/svg" xmlns:xlink="http://www.w3.org/1999/xlink" width="47" height="64" viewBox="0 0 47 64">
	<path d="M46.384 25.643q0.377 0.539 0 1.077-0.431 0.593-1.185 1.616t-3.178 3.609-4.983 4.552-6.33 3.583-7.434 1.616-7.38-1.535-6.438-3.744-4.902-4.418-3.259-3.771l-1.131-1.508q-0.377-0.539 0-1.077 0.431-0.593 1.185-1.616t3.178-3.609 4.983-4.552 6.33-3.582 7.434-1.616 7.38 1.535 6.411 3.717 4.849 4.337 3.232 3.663l1.131 1.562zM23.273 34.909q3.609 0 6.168-2.559t2.559-6.168-2.559-6.168-6.168-2.559-6.168 2.559-2.559 6.168q0 3.663 2.532 6.195t6.195 2.532z" />
</svg>
