<?xml version="1.0" encoding="utf-8"?>
<!-- Generated by IcoMoon.io -->
<!DOCTYPE svg PUBLIC "-//W3C//DTD SVG 1.1//EN" "http://www.w3.org/Graphics/SVG/1.1/DTD/svg11.dtd">
<svg version="1.1" xmlns="http://www.w3.org/2000/svg" xmlns:xlink="http://www.w3.org/1999/xlink" width="47" height="64" viewBox="0 0 47 64">
	<path d="M23.273 2.909q4.75 0 9.057 1.841t7.42 4.955 4.955 7.42 1.841 9.057-1.841 9.057-4.955 7.42-7.42 4.955-9.057 1.841-9.057-1.841-7.42-4.955-4.955-7.42-1.841-9.057 1.841-9.057 4.955-7.42 7.42-4.955 9.057-1.841zM21.341 41.705q1.023 0 2.67-1.045t3.466-2.761 3.67-4.011 3.33-4.682 2.409-4.898 0.932-4.534q0-2.364-1.295-3.795t-3.273-1.432q-1.091 0-2.295 0.341t-2.466 1.080-2.295 2.125-1.511 3.25q1.977-0.841 3.193-0.080t1.216 2.33q0 1.25-1.091 3.295t-2.42 3.58-1.989 1.534q-1.523 0-2.841-8.409-0.068-0.409-0.182-1.307t-0.193-1.5-0.261-1.477-0.375-1.477-0.534-1.273-0.739-1.068-1-0.67-1.307-0.273q-1.091 0-2.489 0.761t-2.602 1.864-2.25 2.193-1.636 1.864l-0.614 0.75 1.182 1.295q1.295-0.955 2.080-1.193t1.17 0.057 0.636 1.136l3.886 12.614q0.273 0.932 0.659 1.773t1.068 1.841 1.739 1.602 2.352 0.602z" />
</svg>
