<?xml version="1.0" encoding="utf-8"?>
<!-- Generated by IcoMoon.io -->
<!DOCTYPE svg PUBLIC "-//W3C//DTD SVG 1.1//EN" "http://www.w3.org/Graphics/SVG/1.1/DTD/svg11.dtd">
<svg version="1.1" xmlns="http://www.w3.org/2000/svg" xmlns:xlink="http://www.w3.org/1999/xlink" width="47" height="64" viewBox="0 0 47 64">
	<path d="M23.273 2.909q4.727 0 9.034 1.841t7.432 4.966 4.966 7.432 1.841 9.034-1.841 9.034-4.966 7.432-7.432 4.966-9.034 1.841-9.034-1.841-7.432-4.966-4.966-7.432-1.841-9.034 1.841-9.034 4.966-7.432 7.432-4.966 9.034-1.841zM29.409 15.818q2.159 0 2.159 2.364 0 1.705-0.568 5.909h4.318q0.568-4.159 0.568-6.114 0-2.591-1.761-4.5t-4.716-1.909-4.682 1.864-1.727 4.545q0 3.432 1.534 6.42t4.375 4.67q-2.114 4.477-5.909 7.75-4.023-3.295-6.25-8.75t-2.227-12.114h-4.318q0 8.227 3.102 14.875t8.58 10.443q0.773 0.432 1.182 0.432 0.614 0 1.25-0.5 5.614-4.136 8.636-10.636 1.364 0.25 2.932 0.205v-3.614q-3.886 0-6.227-2.614t-2.341-6.364q0-2.364 2.091-2.364z" />
</svg>
