<?xml version="1.0" encoding="utf-8"?>
<!-- Generated by IcoMoon.io -->
<!DOCTYPE svg PUBLIC "-//W3C//DTD SVG 1.1//EN" "http://www.w3.org/Graphics/SVG/1.1/DTD/svg11.dtd">
<svg version="1.1" xmlns="http://www.w3.org/2000/svg" xmlns:xlink="http://www.w3.org/1999/xlink" width="47" height="64" viewBox="0 0 47 64">
	<path d="M35.663 49.131l-2.748-2.694q-0.646-0.754 0-1.401 5.118-5.118 6.923-11.987t0-13.737-6.923-11.987q-0.7-0.646 0-1.347l2.748-2.748q0.646-0.646 1.347 0 6.249 6.249 8.485 14.599t0 16.7-8.485 14.599q-0.7 0.646-1.347 0zM29.468 41.589q-0.7 0.646-1.347 0l-2.747-2.694q-0.646-0.754 0-1.401 4.687-4.687 4.687-11.313t-4.687-11.313q-0.7-0.646 0-1.347l2.747-2.748q0.646-0.646 1.347 0 4.202 4.202 5.683 9.805t0 11.205-5.684 9.805zM18.909 7.758v36.849q0 0.646-0.593 0.916-0.646 0.215-1.077-0.215l-10.397-10.397h-7.327q-0.377 0-0.673-0.269t-0.296-0.7v-15.515q0-0.431 0.296-0.7t0.673-0.269h7.327l10.397-10.397q0.431-0.431 1.077-0.215 0.593 0.269 0.593 0.916z" />
</svg>
