<?xml version="1.0" encoding="utf-8"?>
<!-- Generated by IcoMoon.io -->
<!DOCTYPE svg PUBLIC "-//W3C//DTD SVG 1.1//EN" "http://www.w3.org/Graphics/SVG/1.1/DTD/svg11.dtd">
<svg version="1.1" xmlns="http://www.w3.org/2000/svg" xmlns:xlink="http://www.w3.org/1999/xlink" width="47" height="64" viewBox="0 0 47 64">
	<path d="M46.222 20.579l-4.094 4.094q-0.108 0.108-0.323 0.215t-0.377 0.108q-0.377 0-0.646-0.323-7.273-7.219-17.508-7.219t-17.508 7.219q-0.215 0.323-0.646 0.323-0.162 0-0.377-0.108t-0.323-0.215l-4.094-4.094q-0.646-0.646 0-1.347 6.249-6.249 14.599-8.485t16.7 0 14.599 8.485q0.646 0.7 0 1.347zM37.333 29.522l-4.094 4.094q-0.108 0.108-0.323 0.215-0.108 0.054-0.377 0.054-0.431 0-0.7-0.269-3.556-3.556-8.566-3.556t-8.566 3.556q-0.377 0.269-0.7 0.269-0.269 0-0.377-0.054-0.216-0.108-0.323-0.215l-4.094-4.094q-0.7-0.7 0-1.401 5.818-5.818 14.061-5.818t14.061 5.818q0.7 0.7 0 1.401zM28.391 38.411l-4.418 4.471q-0.7 0.7-1.401 0l-4.471-4.471q-0.646-0.7 0-1.347 2.155-2.155 5.172-2.155t5.118 2.155q0.7 0.646 0 1.347z" />
</svg>
