<?xml version="1.0" encoding="utf-8"?>
<!-- Generated by IcoMoon.io -->
<!DOCTYPE svg PUBLIC "-//W3C//DTD SVG 1.1//EN" "http://www.w3.org/Graphics/SVG/1.1/DTD/svg11.dtd">
<svg version="1.1" xmlns="http://www.w3.org/2000/svg" xmlns:xlink="http://www.w3.org/1999/xlink" width="47" height="64" viewBox="0 0 47 64">
	<path d="M1.932 16.818l11.045 30.273q-5.864-2.932-9.42-8.534t-3.557-12.375q0-4.795 1.932-9.364zM30.932 48.159q-3.659 1.295-7.659 1.295-3.341 0-6.568-0.909l6.841-20.364zM36.955 18.591q1.886 3.273 1.886 6.409 0 0.932-0.284 2.284t-0.511 2.125-0.932 3.068l-2.364 7.773-8.409-25 2.705-0.227q0.432-0.045 0.659-0.364t0.193-0.67-0.307-0.636-0.705-0.261q-3.773 0.318-6.205 0.318-1.023 0-2.557-0.080t-2.557-0.148l-1.023-0.091q-0.591-0.023-0.875 0.443t-0.080 0.955 0.795 0.534q1.182 0.159 2.477 0.227l3.591 9.909-5.114 15.295-8.455-25.205 2.705-0.227q0.432-0.045 0.659-0.364t0.193-0.67-0.307-0.636-0.705-0.261q-3.773 0.318-6.205 0.318-0.909 0-1.409-0.045 3.227-4.818 8.341-7.636t11.114-2.818q4.409 0 8.432 1.58t7.182 4.443h-0.318q-1.636 0-2.784 1.273t-1.148 2.886q0 0.409 0.057 0.795t0.216 0.83 0.261 0.716 0.398 0.807 0.398 0.727 0.5 0.83 0.489 0.795zM46.545 26.182q0 6.341-3.148 11.705t-8.443 8.455l7.114-20.591q1.773-4.341 1.773-8.341 0-1.409-0.159-2.386 2.864 5.136 2.864 11.159z" />
</svg>
