<?xml version="1.0" encoding="utf-8"?>
<!-- Generated by IcoMoon.io -->
<!DOCTYPE svg PUBLIC "-//W3C//DTD SVG 1.1//EN" "http://www.w3.org/Graphics/SVG/1.1/DTD/svg11.dtd">
<svg version="1.1" xmlns="http://www.w3.org/2000/svg" xmlns:xlink="http://www.w3.org/1999/xlink" width="47" height="64" viewBox="0 0 47 64">
	<path d="M23.432 20.114q0 3-2.045 3-1.182 0-2.386-1.614l-9-12.273q-1.023-1.409-1.023-2.364 0-1.023 1.977-1.773l8.227-3.045q1.295-0.477 1.795-0.477 1.068 0 1.716 0.966t0.648 2.875zM18.045 27.614q0.75 0.386 1.114 0.841t0.364 1.159q0 1.682-1.886 2.114l-10.25 2.273q-1.659 0.364-2.409 0.364-0.727 0-0.943-0.591t-0.125-1.886l0.591-7.477q0.205-2.25 1.864-2.25 0.864 0 2.273 0.705zM21.727 33.864q0.795 0 1.261 0.511t0.443 1.239l-0.182 11.818q0 1.068-0.375 1.545t-1.261 0.477q-0.591 0-1.682-0.341l-6.523-2.068q-1-0.318-1.443-0.773t-0.443-1.227q0-0.864 0.795-1.773l7.614-8.386q0.955-1.023 1.795-1.023zM28.682 27.727q-0.795 0-1.239-0.42t-0.443-1.17q0-0.659 0.523-1.432l6.159-9.727q0.295-0.432 0.443-0.614t0.477-0.386 0.716-0.205q0.5 0 0.864 0.25t0.955 0.955l4.318 5.091q0.659 0.727 0.909 1.216t0.25 1.148q0 0.75-0.625 1.261t-2.034 0.943l-9.591 2.795q-1.023 0.295-1.682 0.295zM27.341 33.25q0-0.636 0.477-1.136t1.182-0.5q0.477 0 1.364 0.273l10.682 3.432q0.841 0.25 1.227 0.602t0.386 0.898q0 0.795-0.591 1.636l-4.386 6.295q-0.795 1.159-1.977 1.159-0.682 0-1.17-0.432t-1.193-1.568l-5.659-9.477q-0.341-0.568-0.341-1.182z" />
</svg>
