<?xml version="1.0" encoding="utf-8"?>
<!-- Generated by IcoMoon.io -->
<!DOCTYPE svg PUBLIC "-//W3C//DTD SVG 1.1//EN" "http://www.w3.org/Graphics/SVG/1.1/DTD/svg11.dtd">
<svg version="1.1" xmlns="http://www.w3.org/2000/svg" xmlns:xlink="http://www.w3.org/1999/xlink" width="47" height="64" viewBox="0 0 47 64">
	<path d="M23.273 9.705q10.545 0 13.864 0.295 4.795 0.409 6.727 1.932 1.795 1.409 2.318 4.659 0.364 2.318 0.364 8.909v0.682q0 6.841-0.295 9.114-0.477 3.455-2.159 4.932-1.795 1.614-6.318 2.068-3.364 0.364-13.545 0.364h-0.955q-10.545 0-13.864-0.295-4.795-0.409-6.727-1.932-1.795-1.409-2.318-4.659-0.364-2.318-0.364-8.909v-0.682q0-6.841 0.295-9.114 0.477-3.455 2.159-4.932 1.795-1.614 6.318-2.068 3.364-0.364 13.545-0.364h0.955zM17.455 34.909l14.545-8.727-14.545-8.727v17.455z" />
</svg>
