<?xml version="1.0" encoding="utf-8"?>
<!-- Generated by IcoMoon.io -->
<!DOCTYPE svg PUBLIC "-//W3C//DTD SVG 1.1//EN" "http://www.w3.org/Graphics/SVG/1.1/DTD/svg11.dtd">
<svg version="1.1" xmlns="http://www.w3.org/2000/svg" xmlns:xlink="http://www.w3.org/1999/xlink" width="47" height="64" viewBox="0 0 47 64">
	<path d="M32.886 49.455q-1.545 0-3.182-0.625t-2.5-1.182-2.773-1.943q-0.409-0.295-0.614-0.432-1.659-1.25-2.795-2t-2.909-1.636-3.807-1.318-4.352-0.432q-1.727 0-3.773 0.409-0.705-2.409 0.068-4.75t3.5-5.136q3.523-3.705 8.409-9.295t7.977-9.341q-3.977 0.614-7.409 0.614-1.182 0-2.193-0.136t-2.034-0.466-1.614-1.011-0.591-1.659q0-1.227 0.739-2.773t1.466-2.477l0.75-0.955q2.932 2.045 11.114 2.045 6.136 0 11.705-1.136 0.205 0.614 0.205 1.841 0 1.5-0.875 2.864t-3.307 4.068q-3.091 3.5-9.773 10.727t-9.25 10.364q1.75 0.205 3.25 0.591t2.852 1.011 2.136 1.068 2.125 1.284q1.386 0.932 2.136 1.375t2.045 1.057 2.682 0.875 3.023 0.261q1.5 0 2.614-0.409t2.477-1.636q0.568 2.295 0.114 4.193t-1.591 3.25-2.727 2.102-3.318 0.75z" />
</svg>
