<?xml version="1.0" encoding="utf-8"?>
<!-- Generated by IcoMoon.io -->
<!DOCTYPE svg PUBLIC "-//W3C//DTD SVG 1.1//EN" "http://www.w3.org/Graphics/SVG/1.1/DTD/svg11.dtd">
<svg version="1.1" xmlns="http://www.w3.org/2000/svg" xmlns:xlink="http://www.w3.org/1999/xlink" width="47" height="64" viewBox="0 0 47 64">
	<path d="M43.636 5.818q1.185 0 2.047 0.862t0.862 2.047v29.091q0 1.185-0.862 2.047t-2.047 0.862h-4.795l-5.818-5.818h7.704v-23.273h-34.909v23.273h7.704l-5.818 5.818h-4.795q-1.185 0-2.047-0.862t-0.862-2.047v-29.091q0-1.185 0.862-2.047t2.047-0.862h40.727zM36.849 46.545q0.646 0 0.916-0.593 0.215-0.646-0.215-1.077l-13.576-13.576q-0.7-0.7-1.401 0l-13.576 13.576q-0.431 0.431-0.216 1.077 0.269 0.593 0.916 0.593h27.151z" />
</svg>
