<?xml version="1.0" encoding="utf-8"?>
<!-- Generated by IcoMoon.io -->
<!DOCTYPE svg PUBLIC "-//W3C//DTD SVG 1.1//EN" "http://www.w3.org/Graphics/SVG/1.1/DTD/svg11.dtd">
<svg version="1.1" xmlns="http://www.w3.org/2000/svg" xmlns:xlink="http://www.w3.org/1999/xlink" width="47" height="64" viewBox="0 0 47 64">
	<path d="M8.727 18.432v0zM8.727 32v0zM8.727 18.909q0-1.205-0.852-2.057t-2.057-0.852-2.057 0.852-0.852 2.057v13.091q0 1.205 0.852 2.057t2.057 0.852 2.057-0.852 0.852-2.057v-13.091zM43.636 18.909q0-1.205-0.852-2.057t-2.057-0.852-2.057 0.852-0.852 2.057v13.091q0 1.205 0.852 2.057t2.057 0.852 2.057-0.852 0.852-2.057v-13.091zM36.841 16.477h-27.136v20.364q0 1.205 0.852 2.057t2.057 0.852h2.909v6.795q0 1.205 0.852 2.057t2.057 0.852 2.057-0.852 0.852-2.057v-6.795h3.864v6.795q0 1.205 0.852 2.057t2.057 0.852 2.057-0.852 0.852-2.057v-6.795h2.909q1.205 0 2.057-0.852t0.852-2.057v-20.364zM29.864 4.5q3.182 1.636 5.080 4.58t1.898 6.443h-27.136q0-3.5 1.898-6.443t5.080-4.58l-2.545-4.25q-0.25-0.409 0.159-0.659t0.659 0.159l2.614 4.318q2.659-1.159 5.705-1.159t5.705 1.159l2.614-4.318q0.25-0.409 0.659-0.159t0.159 0.659zM16.977 10.659q0.591 0 1.023-0.42t0.432-1.034q0-0.591-0.432-1.023t-1.023-0.432q-0.614 0-1.034 0.432t-0.42 1.023q0 0.614 0.42 1.034t1.034 0.42zM29.568 10.659q0.614 0 1.034-0.42t0.42-1.034q0-0.591-0.42-1.023t-1.034-0.432q-0.591 0-1.023 0.432t-0.432 1.023q0 0.614 0.432 1.034t1.023 0.42z" />
</svg>
