<?xml version="1.0" encoding="utf-8"?>
<!-- Generated by IcoMoon.io -->
<!DOCTYPE svg PUBLIC "-//W3C//DTD SVG 1.1//EN" "http://www.w3.org/Graphics/SVG/1.1/DTD/svg11.dtd">
<svg version="1.1" xmlns="http://www.w3.org/2000/svg" xmlns:xlink="http://www.w3.org/1999/xlink" width="47" height="64" viewBox="0 0 47 64">
	<path d="M22.795 13.205q-0.227-1.864 0.261-3.602t1.477-3.045 2.295-2.307 2.693-1.557 2.682-0.67q0.409 2.523-0.795 5.17t-3.568 4.375-5.045 1.636zM24.091 15q1.114 0 2.534-0.591t3.102-1.193 3.432-0.602q1.545 0 3.057 0.545t2.557 1.33 1.864 1.568 1.227 1.33l0.386 0.545q-0.227 0.114-0.591 0.352t-1.295 1.080-1.648 1.818-1.295 2.591-0.58 3.386q0 1.523 0.375 2.886t0.977 2.318 1.318 1.75 1.443 1.284 1.33 0.83 0.989 0.477l0.364 0.136q-0.114 0.273-0.318 0.727t-0.886 1.761-1.386 2.5-1.784 2.648-2.125 2.5-2.352 1.761-2.534 0.716q-1.114 0-2.068-0.307t-1.568-0.659-1.784-0.659-2.693-0.307q-1.659 0-3.080 0.489t-2.67 0.966-2.455 0.477q-1.659 0-3.523-1.341t-3.523-3.648-3.023-5.125-2.159-6.045-0.795-6.136q0-2.977 0.818-5.489t2.102-4.136 2.909-2.773 3.216-1.648 3.045-0.5q1.364 0 2.67 0.375t2.17 0.818 2.011 0.818 2.239 0.375z" />
</svg>
