<?xml version="1.0" encoding="utf-8"?>
<!-- Generated by IcoMoon.io -->
<!DOCTYPE svg PUBLIC "-//W3C//DTD SVG 1.1//EN" "http://www.w3.org/Graphics/SVG/1.1/DTD/svg11.dtd">
<svg version="1.1" xmlns="http://www.w3.org/2000/svg" xmlns:xlink="http://www.w3.org/1999/xlink" width="47" height="64" viewBox="0 0 47 64">
	<path d="M43.636 8.727q1.185 0 2.047 0.862t0.862 2.047v29.091q0 1.185-0.862 2.047t-2.047 0.862h-27.044q-0.323 0-0.7-0.269l-15.030-15.138q-0.862-0.862-0.862-2.047t0.862-2.047l15.030-15.138q0.377-0.269 0.7-0.269h27.044zM40.727 33.939l-7.758-7.758 7.758-7.758-3.879-3.879-7.758 7.758-7.758-7.758-3.879 3.879 7.758 7.758-7.758 7.758 3.879 3.879 7.758-7.758 7.758 7.758z" />
</svg>
