<?xml version="1.0" encoding="utf-8"?>
<!-- Generated by IcoMoon.io -->
<!DOCTYPE svg PUBLIC "-//W3C//DTD SVG 1.1//EN" "http://www.w3.org/Graphics/SVG/1.1/DTD/svg11.dtd">
<svg version="1.1" xmlns="http://www.w3.org/2000/svg" xmlns:xlink="http://www.w3.org/1999/xlink" width="47" height="64" viewBox="0 0 47 64">
	<path d="M18.424 44.606h9.697q0 2.047-1.401 3.448t-3.448 1.401-3.448-1.401-1.401-3.448zM8.727 21.333l19.394 19.394h-27.151q-0.646 0-0.916-0.593-0.215-0.646 0.216-1.077l8.458-8.404v-9.32zM45.737 48.646q-0.808 0.808-1.993 0.808t-1.993-0.808l-40.943-40.943q-0.808-0.808-0.808-1.966t0.808-2.020q0.808-0.808 1.966-0.808t2.020 0.808l6.088 6.141q1.993-3.178 5.253-5.064t7.138-1.885q6.034 0 10.29 4.256t4.256 10.29v13.199l8.458 8.404q0.431 0.431 0.215 1.077-0.269 0.593-0.916 0.593h-3.825l3.987 3.933q0.808 0.862 0.808 2.020t-0.808 1.966z" />
</svg>
