<?xml version="1.0" encoding="utf-8"?>
<!-- Generated by IcoMoon.io -->
<!DOCTYPE svg PUBLIC "-//W3C//DTD SVG 1.1//EN" "http://www.w3.org/Graphics/SVG/1.1/DTD/svg11.dtd">
<svg version="1.1" xmlns="http://www.w3.org/2000/svg" xmlns:xlink="http://www.w3.org/1999/xlink" width="47" height="64" viewBox="0 0 47 64">
	<path d="M23.273 2.909q4.727 0 9.034 1.841t7.432 4.966 4.966 7.432 1.841 9.034-1.841 9.034-4.966 7.432-7.432 4.966-9.034 1.841-9.034-1.841-7.432-4.966-4.966-7.432-1.841-9.034 1.841-9.034 4.966-7.432 7.432-4.966 9.034-1.841zM11.045 29.455q2.523 0 3.625-0.977t1.102-2.386q0-1.045-0.83-1.818t-2.807-0.773h-4.545l-1.273 5.955h4.727zM12.659 20.5q2.545 0 3.648-0.977t1.102-2.386q0-1.045-0.83-1.818t-2.807-0.773h-4.545l-1.273 5.955h4.705zM21.477 38.795q2.523 0 3.625-0.977t1.102-2.386q0-1.068-0.818-1.83t-2.818-0.761h-4.523l-1.295 5.955h4.727zM23.227 29.455q2.523 0 3.636-0.977t1.114-2.386q0-1.045-0.83-1.818t-2.83-0.773h-4.523l-1.295 5.955h4.727zM24.864 20.5q2.523 0 3.636-0.977t1.114-2.386q0-1.045-0.83-1.818t-2.83-0.773h-4.523l-1.273 5.955h4.705zM34.227 35.159q2.545 0 3.648-0.977t1.102-2.386q0-1.045-0.83-1.818t-2.807-0.773h-4.545l-1.273 5.955h4.705zM36 25.818q2.523 0 3.625-0.966t1.102-2.398q0-1.045-0.83-1.818t-2.807-0.773h-4.523l-1.295 5.955h4.727z" />
</svg>
