<?xml version="1.0" encoding="utf-8"?>
<!-- Generated by IcoMoon.io -->
<!DOCTYPE svg PUBLIC "-//W3C//DTD SVG 1.1//EN" "http://www.w3.org/Graphics/SVG/1.1/DTD/svg11.dtd">
<svg version="1.1" xmlns="http://www.w3.org/2000/svg" xmlns:xlink="http://www.w3.org/1999/xlink" width="47" height="64" viewBox="0 0 47 64">
	<path d="M12.606 49.455q0.431 0 0.7-0.269t0.269-0.7v-27.151q0-0.431-0.269-0.7t-0.7-0.269h-11.636q-0.431 0-0.7 0.269t-0.269 0.7v27.151q0 0.431 0.269 0.7t0.7 0.269h11.636zM45.576 2.909q0.431 0 0.7 0.269t0.269 0.7v44.606q0 0.431-0.269 0.7t-0.7 0.269h-10.667v-8.727h-5.818v8.727h-10.667q-0.431 0-0.7-0.269t-0.269-0.7v-44.606q0-0.431 0.269-0.7t0.7-0.269h27.151zM29.091 32v-5.818h-5.818v5.818h5.818zM29.091 17.455v-5.818h-5.818v5.818h5.818zM40.727 32v-5.818h-5.818v5.818h5.818zM40.727 17.455v-5.818h-5.818v5.818h5.818z" />
</svg>
