<?xml version="1.0" encoding="utf-8"?>
<!-- Generated by IcoMoon.io -->
<!DOCTYPE svg PUBLIC "-//W3C//DTD SVG 1.1//EN" "http://www.w3.org/Graphics/SVG/1.1/DTD/svg11.dtd">
<svg version="1.1" xmlns="http://www.w3.org/2000/svg" xmlns:xlink="http://www.w3.org/1999/xlink" width="47" height="64" viewBox="0 0 47 64">
	<path d="M46.545 25.212q0 0.431-0.269 0.7t-0.7 0.269h-21.333q-0.431 0-0.7-0.269t-0.269-0.7v-21.333q0-0.646 0.593-0.916 0.646-0.216 1.077 0.216l6.518 6.572 6.572-6.572q0.646-0.7 1.347 0l6.896 6.896q0.7 0.7 0 1.347l-6.572 6.572 6.519 6.518q0.323 0.215 0.323 0.7zM0 27.151q0-0.431 0.269-0.7t0.7-0.269h21.333q0.431 0 0.7 0.269t0.269 0.7v21.333q0 0.646-0.593 0.916-0.646 0.215-1.077-0.215l-6.518-6.572-6.572 6.572q-0.646 0.7-1.347 0l-6.896-6.896q-0.7-0.7 0-1.347l6.572-6.572-6.519-6.518q-0.323-0.269-0.323-0.7z" />
</svg>
