<?xml version="1.0" encoding="utf-8"?>
<!-- Generated by IcoMoon.io -->
<!DOCTYPE svg PUBLIC "-//W3C//DTD SVG 1.1//EN" "http://www.w3.org/Graphics/SVG/1.1/DTD/svg11.dtd">
<svg version="1.1" xmlns="http://www.w3.org/2000/svg" xmlns:xlink="http://www.w3.org/1999/xlink" width="47" height="64" viewBox="0 0 47 64">
	<path d="M37.818 44.606h-7.758v3.879q0 0.431 0.269 0.7t0.7 0.269h5.818q0.431 0 0.7-0.269t0.269-0.7v-3.879zM0.97 11.636q-0.431 0-0.7 0.269t-0.269 0.7v5.818q0 0.431 0.269 0.7t0.7 0.269h3.879v-7.758h-3.879zM45.576 32.97q0.431 0 0.7 0.269t0.269 0.7v5.818q0 0.431-0.269 0.7t-0.7 0.269h-35.879q-0.431 0-0.7-0.269t-0.269-0.7v-35.879q0-0.431 0.269-0.7t0.7-0.269h5.818q0.431 0 0.7 0.269t0.269 0.7v7.758h20.364q0.431 0 0.7 0.269t0.269 0.7v20.364h7.758zM16.485 32.97h13.576v-13.576h-13.576v13.576z" />
</svg>
