<?xml version="1.0" encoding="utf-8"?>
<!-- Generated by IcoMoon.io -->
<!DOCTYPE svg PUBLIC "-//W3C//DTD SVG 1.1//EN" "http://www.w3.org/Graphics/SVG/1.1/DTD/svg11.dtd">
<svg version="1.1" xmlns="http://www.w3.org/2000/svg" xmlns:xlink="http://www.w3.org/1999/xlink" width="47" height="64" viewBox="0 0 47 64">
	<path d="M27.151 30.061l-7.758-7.758-15.515 15.515q-0.97 0.97-0.97 2.909t-0.97 2.909l-1.67 1.67q-0.7 0.7 0 1.347l2.532 2.532q0.646 0.7 1.347 0l1.616-1.67 0.054-0.054q0.97-0.916 2.909-0.916t2.909-0.97zM25.212 14.545l9.643-9.643q1.993-1.993 4.822-1.993t4.875 1.993q1.993 2.047 1.993 4.875t-1.993 4.822l-9.643 9.643 2.64 2.586q0.7 0.7 0 1.401l-2.586 2.532q-0.7 0.7-1.347 0l-14.923-14.923q-0.7-0.646 0-1.347l2.532-2.586q0.7-0.7 1.401 0z" />
</svg>
