<?xml version="1.0" encoding="utf-8"?>
<!-- Generated by IcoMoon.io -->
<!DOCTYPE svg PUBLIC "-//W3C//DTD SVG 1.1//EN" "http://www.w3.org/Graphics/SVG/1.1/DTD/svg11.dtd">
<svg version="1.1" xmlns="http://www.w3.org/2000/svg" xmlns:xlink="http://www.w3.org/1999/xlink" width="47" height="64" viewBox="0 0 47 64">
	<path d="M0.97 49.455q-0.431 0-0.7-0.269t-0.269-0.7v-5.818q0-0.431 0.269-0.7t0.7-0.269h44.606q0.431 0 0.7 0.269t0.269 0.7v5.818q0 0.431-0.269 0.7t-0.7 0.269h-44.606zM0.97 32q-0.593 0-0.862-0.539-0.269-0.593 0.108-1.024l22.303-27.151q0.215-0.377 0.754-0.377 0.431 0 0.754 0.377l22.303 27.151q0.215 0.215 0.215 0.593 0 0.108-0.108 0.431-0.269 0.539-0.862 0.539h-44.606z" />
</svg>
