<?xml version="1.0" encoding="utf-8"?>
<!-- Generated by IcoMoon.io -->
<!DOCTYPE svg PUBLIC "-//W3C//DTD SVG 1.1//EN" "http://www.w3.org/Graphics/SVG/1.1/DTD/svg11.dtd">
<svg version="1.1" xmlns="http://www.w3.org/2000/svg" xmlns:xlink="http://www.w3.org/1999/xlink" width="47" height="64" viewBox="0 0 47 64">
	<path d="M24.619 33.024l-8.189 8.242 6.518 6.519q0.323 0.215 0.323 0.7 0 0.431-0.269 0.7t-0.7 0.269h-21.333q-0.431 0-0.7-0.269t-0.269-0.7v-21.333q0-0.646 0.593-0.916 0.646-0.215 1.077 0.215l6.519 6.572 8.242-8.189q0.7-0.7 1.347 0l6.842 6.842q0.323 0.215 0.323 0.7 0 0.377-0.323 0.646zM46.545 3.879v21.333q0 0.646-0.593 0.916-0.108 0.054-0.377 0.054-0.323 0-0.7-0.269l-6.519-6.572-8.242 8.242q-0.269 0.269-0.646 0.269-0.431 0-0.7-0.269l-6.896-6.896q-0.646-0.646 0-1.347l8.242-8.242-6.572-6.519q-0.431-0.431-0.215-1.077 0.269-0.593 0.916-0.593h21.333q0.431 0 0.7 0.269t0.269 0.7z" />
</svg>
