<?xml version="1.0" encoding="utf-8"?>
<!-- Generated by IcoMoon.io -->
<!DOCTYPE svg PUBLIC "-//W3C//DTD SVG 1.1//EN" "http://www.w3.org/Graphics/SVG/1.1/DTD/svg11.dtd">
<svg version="1.1" xmlns="http://www.w3.org/2000/svg" xmlns:xlink="http://www.w3.org/1999/xlink" width="47" height="64" viewBox="0 0 47 64">
	<path d="M37.549 5.118l8.727 8.727q0.269 0.377 0.269 0.7t-0.269 0.7l-8.727 8.727q-0.431 0.431-1.077 0.215-0.593-0.269-0.593-0.916v-4.849h-9.212q-1.455 0-2.317 1.185l-4.956 6.572 4.956 6.572q0.862 1.185 2.317 1.185h9.212v-4.849q0-0.646 0.593-0.916 0.646-0.215 1.077 0.215l8.727 8.727q0.269 0.377 0.269 0.7t-0.269 0.7l-8.727 8.727q-0.431 0.431-1.077 0.215-0.593-0.269-0.593-0.916v-4.849h-9.266q-5.279 0-8.458-4.202l-4.687-6.249q-0.862-1.185-2.316-1.185h-10.182q-0.431 0-0.7-0.269t-0.269-0.7v-5.818q0-0.431 0.269-0.7t0.7-0.269h10.182q1.455 0 2.316-1.185l4.687-6.249q3.178-4.202 8.458-4.202h9.266v-4.848q0-0.646 0.593-0.916 0.646-0.215 1.077 0.215z" />
</svg>
