<?xml version="1.0" encoding="utf-8"?>
<!-- Generated by IcoMoon.io -->
<!DOCTYPE svg PUBLIC "-//W3C//DTD SVG 1.1//EN" "http://www.w3.org/Graphics/SVG/1.1/DTD/svg11.dtd">
<svg version="1.1" xmlns="http://www.w3.org/2000/svg" xmlns:xlink="http://www.w3.org/1999/xlink" width="47" height="64" viewBox="0 0 47 64">
	<path d="M46.227 16.886l-22.114 22.136q-0.455 0.455-1.091 0.455h-0.023q-0.114 0-0.182-0.023-0.5-0.045-0.909-0.432l-12.318-12.341q-0.455-0.455-0.455-1.091t0.455-1.091l3.636-3.636q0.455-0.455 1.091-0.455 0.614 0 1.068 0.455l7.636 7.636 17.409-17.409q0.455-0.455 1.068-0.455 0.636 0 1.091 0.455l3.636 3.636q0.455 0.455 0.455 1.091t-0.455 1.068zM44.955 30.045l-17.818 17.818q-1.591 1.591-3.864 1.591t-3.864-1.591l-17.818-17.818q-1.591-1.591-1.591-3.864t1.591-3.864l17.818-17.818q1.591-1.591 3.864-1.591t3.864 1.591l8.045 8.045-12.068 12.091-5.682-5.705q-1.25-1.25-3.023-1.25t-3.023 1.25l-3.636 3.636q-1.25 1.205-1.25 3.023 0 1.773 1.25 3.023l12.318 12.341q0.864 0.864 2.023 1.136l0.182 0.114 0.841 0.023q1.727 0 3.023-1.25l18.727-18.75 0.091 0.091q1.591 1.591 1.591 3.864t-1.591 3.864z" />
</svg>
