<?xml version="1.0" encoding="utf-8"?>
<!-- Generated by IcoMoon.io -->
<!DOCTYPE svg PUBLIC "-//W3C//DTD SVG 1.1//EN" "http://www.w3.org/Graphics/SVG/1.1/DTD/svg11.dtd">
<svg version="1.1" xmlns="http://www.w3.org/2000/svg" xmlns:xlink="http://www.w3.org/1999/xlink" width="47" height="64" viewBox="0 0 47 64">
	<path d="M43.636 32q1.185 0 2.047 0.862t0.862 2.047v11.636q0 1.185-0.862 2.047t-2.047 0.862h-40.727q-1.185 0-2.047-0.862t-0.862-2.047v-11.636q0-1.185 0.862-2.047t2.047-0.862h40.727zM26.182 43.636q1.185 0 2.047-0.862t0.862-2.047-0.862-2.047-2.047-0.862-2.047 0.862-0.862 2.047 0.862 2.047 2.047 0.862zM37.818 43.636q1.185 0 2.047-0.862t0.862-2.047-0.862-2.047-2.047-0.862-2.047 0.862-0.862 2.047 0.862 2.047 2.047 0.862zM42.613 5.387l3.448 23.165q-1.185-0.431-2.424-0.431h-40.727q-1.239 0-2.424 0.431l3.394-23.165q0.162-1.077 0.997-1.778t1.912-0.7h32.97q1.077 0 1.886 0.7t0.97 1.778z" />
</svg>
