<?xml version="1.0" encoding="utf-8"?>
<!-- Generated by IcoMoon.io -->
<!DOCTYPE svg PUBLIC "-//W3C//DTD SVG 1.1//EN" "http://www.w3.org/Graphics/SVG/1.1/DTD/svg11.dtd">
<svg version="1.1" xmlns="http://www.w3.org/2000/svg" xmlns:xlink="http://www.w3.org/1999/xlink" width="47" height="64" viewBox="0 0 47 64">
	<path d="M42.828 24.458l-6.572 6.572q0.323-3.717-0.97-7.219l3.448-3.502q1.993-1.993 1.993-4.795t-1.993-4.795-4.795-1.993-4.795 1.993l-7.273 7.219q-1.993 1.993-1.993 4.795t1.993 4.849q0.862 0.862 0.862 2.047t-0.862 2.047-2.047 0.862-2.047-0.862q-3.663-3.717-3.663-8.943t3.663-8.889l7.219-7.219q3.717-3.717 8.943-3.717t8.889 3.717q3.717 3.663 3.717 8.889t-3.717 8.943zM28.768 38.519l-7.273 7.273q-3.663 3.663-8.889 3.663t-8.943-3.663q-3.663-3.717-3.663-8.943t3.663-8.889l6.626-6.626q-0.323 3.771 0.97 7.273l-3.448 3.448q-1.993 1.993-1.993 4.795t1.993 4.795 4.795 1.993 4.795-1.993l7.219-7.219q1.993-1.993 1.993-4.795t-1.993-4.795q-0.862-0.862-0.862-2.074t0.862-2.074 2.074-0.862 2.074 0.862q3.663 3.717 3.663 8.943t-3.663 8.889z" />
</svg>
