<?xml version="1.0" encoding="utf-8"?>
<!-- Generated by IcoMoon.io -->
<!DOCTYPE svg PUBLIC "-//W3C//DTD SVG 1.1//EN" "http://www.w3.org/Graphics/SVG/1.1/DTD/svg11.dtd">
<svg version="1.1" xmlns="http://www.w3.org/2000/svg" xmlns:xlink="http://www.w3.org/1999/xlink" width="47" height="64" viewBox="0 0 47 64">
	<path d="M37.818 23.273q1.185 0 2.047 0.862t0.862 2.047v20.364q0 1.185-0.862 2.047t-2.047 0.862h-29.091q-1.185 0-2.047-0.862t-0.862-2.047v-20.364q0-1.185 0.862-2.047t2.047-0.862h2.909v-8.727q0-4.795 3.421-8.216t8.216-3.421 8.215 3.421 3.421 8.216v8.727h2.909zM17.455 14.545v8.727h11.636v-8.727q0-2.424-1.697-4.121t-4.121-1.697-4.121 1.697-1.697 4.121z" />
</svg>
