<?xml version="1.0" encoding="utf-8"?>
<!-- Generated by IcoMoon.io -->
<!DOCTYPE svg PUBLIC "-//W3C//DTD SVG 1.1//EN" "http://www.w3.org/Graphics/SVG/1.1/DTD/svg11.dtd">
<svg version="1.1" xmlns="http://www.w3.org/2000/svg" xmlns:xlink="http://www.w3.org/1999/xlink" width="47" height="64" viewBox="0 0 47 64">
	<path d="M23.273 2.909q4.727 0 9.034 1.852t7.42 4.966 4.966 7.42 1.852 9.034q0 4.75-1.852 9.057t-4.966 7.42-7.42 4.955-9.034 1.841q-4.75 0-9.057-1.841t-7.42-4.955-4.955-7.42-1.841-9.057q0-4.727 1.841-9.034t4.955-7.42 7.42-4.966 9.057-1.852zM37.818 35.023v-13.909l-14.545 10.886-14.545-10.886v13.909q0 0.773 0.534 1.295t1.307 0.523h25.409q0.773 0 1.307-0.523t0.534-1.295zM23.273 28.227l14.545-10.886q0-0.773-0.534-1.295t-1.307-0.523h-25.409q-0.773 0-1.307 0.523t-0.534 1.295z" />
</svg>
