<?xml version="1.0" encoding="utf-8"?>
<!-- Generated by IcoMoon.io -->
<!DOCTYPE svg PUBLIC "-//W3C//DTD SVG 1.1//EN" "http://www.w3.org/Graphics/SVG/1.1/DTD/svg11.dtd">
<svg version="1.1" xmlns="http://www.w3.org/2000/svg" xmlns:xlink="http://www.w3.org/1999/xlink" width="47" height="64" viewBox="0 0 47 64">
	<path d="M46.114 8.027q0.431 0.269 0.431 0.754v32.97q0 0.754-0.7 0.916l-14.545 4.795q-0.054 0.054-0.269 0.054-0.269 0-0.377-0.054l-15.192-5.657-14.222 4.741q-0.431 0.162-0.862-0.108-0.377-0.377-0.377-0.808v-21.226q0.593-0.485 2.047-1.347l-2.047-3.34v-7.057q0-0.646 0.646-0.916l14.545-4.902q0.323-0.054 0.646 0l15.192 5.764 14.222-4.741q0.539-0.162 0.862 0.162zM5.226 21.387q2.64-1.077 5.172-1.562l-0.7-3.825q-3.178 0.593-5.98 1.832zM19.232 19.933l0.862-3.771q-3.125-0.646-6.249-0.593l0.108 3.879q2.748 0 5.279 0.485zM27.205 23.596l2.37-3.071q-2.586-1.993-5.495-3.125l-1.455 3.556q2.64 1.131 4.579 2.64zM29.845 25.966q0.916 1.024 1.697 2.074t1.077 1.589 0.296 0.593l1.778-0.862 1.724-0.808q-1.347-2.694-3.717-5.226zM37.818 39.811q1.616 0 2.748-1.131t1.131-2.748-1.131-2.748-2.748-1.131-2.748 1.131-1.131 2.748 1.131 2.748 2.748 1.131z" />
</svg>
