<?xml version="1.0" encoding="utf-8"?>
<!-- Generated by IcoMoon.io -->
<!DOCTYPE svg PUBLIC "-//W3C//DTD SVG 1.1//EN" "http://www.w3.org/Graphics/SVG/1.1/DTD/svg11.dtd">
<svg version="1.1" xmlns="http://www.w3.org/2000/svg" xmlns:xlink="http://www.w3.org/1999/xlink" width="47" height="64" viewBox="0 0 47 64">
	<path d="M43.636 2.909q1.185 0 2.047 0.862t0.862 2.047v32q0 1.185-0.862 2.047t-2.047 0.862h-14.545v2.801l8.135 4.094q0.593 0.162 0.593 0.862 0 0.431-0.269 0.7t-0.7 0.269h-27.151q-0.754 0-0.97-0.754-0.108-0.754 0.539-1.077l8.189-4.094v-2.801h-14.545q-1.185 0-2.047-0.862t-0.862-2.047v-32q0-1.185 0.862-2.047t2.047-0.862h40.727zM40.727 34.909v-26.182h-34.909v26.182h34.909z" />
</svg>
