<?xml version="1.0" encoding="utf-8"?>
<!-- Generated by IcoMoon.io -->
<!DOCTYPE svg PUBLIC "-//W3C//DTD SVG 1.1//EN" "http://www.w3.org/Graphics/SVG/1.1/DTD/svg11.dtd">
<svg version="1.1" xmlns="http://www.w3.org/2000/svg" xmlns:xlink="http://www.w3.org/1999/xlink" width="47" height="64" viewBox="0 0 47 64">
	<path d="M46.276 26.882l-8.727 8.727q-0.377 0.269-0.7 0.269-0.269 0-0.377-0.054-0.593-0.269-0.593-0.916v-4.849h-8.727v8.727h4.849q0.646 0 0.916 0.593 0.215 0.646-0.215 1.077l-8.727 8.727q-0.377 0.269-0.7 0.269t-0.7-0.269l-8.727-8.727q-0.431-0.431-0.216-1.077 0.269-0.593 0.916-0.593h4.848v-8.727h-8.727v4.849q0 0.646-0.593 0.916-0.108 0.054-0.377 0.054-0.323 0-0.7-0.269l-8.727-8.727q-0.7-0.7 0-1.401l8.727-8.727q0.431-0.431 1.077-0.215 0.593 0.269 0.593 0.916v4.849h8.727v-8.727h-4.848q-0.646 0-0.916-0.593-0.216-0.646 0.216-1.077l8.727-8.727q0.7-0.7 1.401 0l8.727 8.727q0.431 0.431 0.215 1.077-0.269 0.593-0.916 0.593h-4.849v8.727h8.727v-4.849q0-0.646 0.593-0.916 0.646-0.215 1.077 0.215l8.727 8.727q0.7 0.7 0 1.401z" />
</svg>
