<?xml version="1.0" encoding="utf-8"?>
<!-- Generated by IcoMoon.io -->
<!DOCTYPE svg PUBLIC "-//W3C//DTD SVG 1.1//EN" "http://www.w3.org/Graphics/SVG/1.1/DTD/svg11.dtd">
<svg version="1.1" xmlns="http://www.w3.org/2000/svg" xmlns:xlink="http://www.w3.org/1999/xlink" width="47" height="64" viewBox="0 0 47 64">
	<path d="M46.545 8.458q0 0.216-0.054 0.377-1.993 15.892-13.36 27.232t-27.205 13.333q-0.162 0.054-0.377 0.054-0.269 0-0.377-0.054-0.323-0.162-0.539-0.539l-4.579-11.529q-0.269-0.862 0.485-1.239l12.714-6.357q0.539-0.323 1.131 0.162l6.195 6.249q7.704-4.795 12.606-12.66l-6.195-6.195q-0.485-0.593-0.162-1.131l6.357-12.714q0.377-0.754 1.239-0.485l11.529 4.579q0.377 0.215 0.485 0.539 0.108 0.216 0.108 0.377z" />
</svg>
