<?xml version="1.0" encoding="utf-8"?>
<!-- Generated by IcoMoon.io -->
<!DOCTYPE svg PUBLIC "-//W3C//DTD SVG 1.1//EN" "http://www.w3.org/Graphics/SVG/1.1/DTD/svg11.dtd">
<svg version="1.1" xmlns="http://www.w3.org/2000/svg" xmlns:xlink="http://www.w3.org/1999/xlink" width="47" height="64" viewBox="0 0 47 64">
	<path d="M23.273 33.939q-1.616 0-2.909-0.215v13.791q0 0.215 0.081 0.539t0.808 0.862 2.020 0.539 2.020-0.485 0.781-0.97l0.108-0.485v-13.791q-1.293 0.215-2.909 0.215zM23.273 2.909q5.603 0 9.589 3.987t3.987 9.589-3.987 9.589-9.589 3.987-9.589-3.987-3.987-9.589 3.987-9.589 9.589-3.987zM26.667 17.455q1.832 0 3.098-1.266t1.266-3.098-1.266-3.098-3.098-1.266-3.098 1.266-1.266 3.098 1.266 3.098 3.098 1.266z" />
</svg>
