<?xml version="1.0" encoding="utf-8"?>
<!-- Generated by IcoMoon.io -->
<!DOCTYPE svg PUBLIC "-//W3C//DTD SVG 1.1//EN" "http://www.w3.org/Graphics/SVG/1.1/DTD/svg11.dtd">
<svg version="1.1" xmlns="http://www.w3.org/2000/svg" xmlns:xlink="http://www.w3.org/1999/xlink" width="47" height="64" viewBox="0 0 47 64">
	<path d="M23.273 2.909q9.589 0 16.431 6.842t6.842 16.431q0 9.643-6.815 16.458t-16.458 6.815-16.458-6.815-6.815-16.458 6.815-16.458 16.458-6.815zM23.273 43.636q1.616 0 2.747-1.131t1.131-2.748-1.131-2.748-2.747-1.131-2.747 1.131-1.131 2.748 1.131 2.748 2.747 1.131zM26.182 30.061q0-0.754 0.808-1.455t1.939-1.374 2.263-1.562 1.939-2.505 0.808-3.771q0-4.256-3.071-6.976t-7.596-2.721q-2.586 0-5.010 1.212t-3.556 2.451l-1.131 1.185 3.879 3.879q0.323-0.323 0.889-0.808t2.101-1.293 2.828-0.808q2.101 0 3.475 1.185t1.374 2.694q0 1.293-1.212 2.343t-2.667 1.778-2.667 2.182-1.212 3.394v1.939h5.818v-0.97z" />
</svg>
