<?xml version="1.0" encoding="utf-8"?>
<!-- Generated by IcoMoon.io -->
<!DOCTYPE svg PUBLIC "-//W3C//DTD SVG 1.1//EN" "http://www.w3.org/Graphics/SVG/1.1/DTD/svg11.dtd">
<svg version="1.1" xmlns="http://www.w3.org/2000/svg" xmlns:xlink="http://www.w3.org/1999/xlink" width="47" height="64" viewBox="0 0 47 64">
	<path d="M38.864 45.295h0.432l0.591 3.886q-1.523 0.636-3.386 0.636-2.659 0-4.989-1.5t-3.602-4.136q-2.682 0.614-5.295 0.614-4.523 0-8.182-1.42t-6.216-4.102-3.932-6.648-1.375-8.943q0-4.477 1.591-8.352t4.364-6.591 6.67-4.273 8.352-1.557q9.159 0 14.455 5.432t5.295 15.341q0 5.864-2.625 10.614t-7.216 7.5q1.068 1.864 2.273 2.682t2.795 0.818zM23.568 31.909q2.091 0 4 1.045t3.273 2.909q3.091-4.114 3.091-12.182 0-7.773-2.818-11.659t-7.864-3.886q-4.977 0-7.807 4.057t-2.83 11.489q0 3.5 0.477 6.205t1.364 4.523 2.216 2.977 2.943 1.67 3.636 0.511q1.409 0 2.636-0.341-0.864-1.659-1.852-2.386t-2.375-0.727q-0.091 0-0.33 0.034t-0.375 0.034l-0.636-3.568q1.659-0.705 3.25-0.705z" />
</svg>
