<?xml version="1.0" encoding="utf-8"?>
<!-- Generated by IcoMoon.io -->
<!DOCTYPE svg PUBLIC "-//W3C//DTD SVG 1.1//EN" "http://www.w3.org/Graphics/SVG/1.1/DTD/svg11.dtd">
<svg version="1.1" xmlns="http://www.w3.org/2000/svg" xmlns:xlink="http://www.w3.org/1999/xlink" width="47" height="64" viewBox="0 0 47 64">
	<path d="M46.545 40.727q0 3.614-2.557 6.17t-6.17 2.557-6.17-2.557-2.557-6.17v-0.023l-15.114-7.545q-2.341 1.75-5.25 1.75-3.614 0-6.17-2.557t-2.557-6.17 2.557-6.17 6.17-2.557q2.909 0 5.25 1.75l15.114-7.545v-0.023q0-3.614 2.557-6.17t6.17-2.557 6.17 2.557 2.557 6.17-2.557 6.17-6.17 2.557q-2.909 0-5.25-1.75l-15.159 7.568 15.159 7.568q2.341-1.75 5.25-1.75 3.614 0 6.17 2.557t2.557 6.17z" />
</svg>
