<?xml version="1.0" encoding="utf-8"?>
<!-- Generated by IcoMoon.io -->
<!DOCTYPE svg PUBLIC "-//W3C//DTD SVG 1.1//EN" "http://www.w3.org/Graphics/SVG/1.1/DTD/svg11.dtd">
<svg version="1.1" xmlns="http://www.w3.org/2000/svg" xmlns:xlink="http://www.w3.org/1999/xlink" width="47" height="64" viewBox="0 0 47 64">
	<path d="M46.276 22.034l-11.313 11.259 2.855 15.030q0.108 0.646-0.431 0.97-0.215 0.162-0.539 0.162t-0.539-0.162l-13.037-8.404-13.037 8.404q-0.539 0.377-1.077 0-0.539-0.323-0.431-0.97l2.855-15.030-11.313-11.259q-0.431-0.431-0.215-1.077 0.269-0.593 0.916-0.593h14.869l6.519-16.808q0.269-0.646 0.916-0.646t0.916 0.646l6.518 16.808h14.869q0.646 0 0.916 0.593 0.215 0.646-0.215 1.077z" />
</svg>
