<?xml version="1.0" encoding="utf-8"?>
<!-- Generated by IcoMoon.io -->
<!DOCTYPE svg PUBLIC "-//W3C//DTD SVG 1.1//EN" "http://www.w3.org/Graphics/SVG/1.1/DTD/svg11.dtd">
<svg version="1.1" xmlns="http://www.w3.org/2000/svg" xmlns:xlink="http://www.w3.org/1999/xlink" width="47" height="64" viewBox="0 0 47 64">
	<path d="M46.545 3.879v27.151q0 0.431-0.269 0.7t-0.7 0.269h-12.606v-13.576q0-0.808-0.566-1.374t-1.374-0.566h-13.576v-12.606q0-0.431 0.269-0.7t0.7-0.269h27.151q0.431 0 0.7 0.269t0.269 0.7zM28.121 20.364q0.431 0 0.7 0.269t0.269 0.7v27.151q0 0.431-0.269 0.7t-0.7 0.269h-27.151q-0.431 0-0.7-0.269t-0.269-0.7v-27.151q0-0.431 0.269-0.7t0.7-0.269h27.151zM5.818 43.636h17.455v-17.455h-17.455v17.455z" />
</svg>
