<?xml version="1.0" encoding="utf-8"?>
<!-- Generated by IcoMoon.io -->
<!DOCTYPE svg PUBLIC "-//W3C//DTD SVG 1.1//EN" "http://www.w3.org/Graphics/SVG/1.1/DTD/svg11.dtd">
<svg version="1.1" xmlns="http://www.w3.org/2000/svg" xmlns:xlink="http://www.w3.org/1999/xlink" width="47" height="64" viewBox="0 0 47 64">
	<path d="M43.25 27.045v5.591q-2.341 0.068-4.523-0.318-4.614 9.977-13.364 16.5-0.909 0.75-1.932 0.75-0.795 0-1.841-0.659-8.455-5.864-13.273-16.17t-4.818-23.034h6.682q0 10.295 3.443 18.75t9.693 13.568q5.795-5 9.136-12-2.932-1.75-5.023-4.511t-3.102-5.989-1.011-6.705q0-2 0.67-3.784t1.898-3.148 3.125-2.17 4.216-0.807 4.239 0.83 3.17 2.227 1.932 3.17 0.682 3.682q0 0.955-0.034 1.864t-0.148 2.034-0.17 1.682-0.25 2.034-0.239 1.864h-6.682q0.045-0.409 0.25-1.989t0.307-2.42 0.205-2.227 0.102-2.523q0-3.659-3.364-3.659-3.227 0-3.227 3.659 0 2.795 0.92 5.307t2.58 4.432 4.193 3.045 5.557 1.125z" />
</svg>
