<?xml version="1.0" encoding="utf-8"?>
<!-- Generated by IcoMoon.io -->
<!DOCTYPE svg PUBLIC "-//W3C//DTD SVG 1.1//EN" "http://www.w3.org/Graphics/SVG/1.1/DTD/svg11.dtd">
<svg version="1.1" xmlns="http://www.w3.org/2000/svg" xmlns:xlink="http://www.w3.org/1999/xlink" width="47" height="64" viewBox="0 0 47 64">
	<path d="M23.273 2.909q4.727 0 9.034 1.841t7.432 4.966 4.966 7.432 1.841 9.034-1.841 9.034-4.966 7.432-7.432 4.966-9.034 1.841-9.034-1.841-7.432-4.966-4.966-7.432-1.841-9.034 1.841-9.034 4.966-7.432 7.432-4.966 9.034-1.841zM18.432 37.114v-10.023l-9.705-0.159v8.205zM18.432 25.273v-10.023l-9.705 1.977v8.205zM34.909 40.5v-13.136l-14.545-0.227v10.364zM34.909 25v-13.136l-14.545 3v10.364z" />
</svg>
