<?xml version="1.0" encoding="utf-8"?>
<!-- Generated by IcoMoon.io -->
<!DOCTYPE svg PUBLIC "-//W3C//DTD SVG 1.1//EN" "http://www.w3.org/Graphics/SVG/1.1/DTD/svg11.dtd">
<svg version="1.1" xmlns="http://www.w3.org/2000/svg" xmlns:xlink="http://www.w3.org/1999/xlink" width="47" height="64" viewBox="0 0 47 64">
	<path d="M23.273 2.909q4.727 0 9.034 1.841t7.432 4.966 4.966 7.432 1.841 9.034-1.841 9.034-4.966 7.432-7.432 4.966-9.034 1.841-9.034-1.841-7.432-4.966-4.966-7.432-1.841-9.034 1.841-9.034 4.966-7.432 7.432-4.966 9.034-1.841zM14.659 10.364q-1.409 0.545-1.409 1.273 0 0.636 0.727 1.659l6.318 8.659q0.818 1.136 1.659 1.136 1.432 0 1.432-2.114l-0.068-10.386q0-1.364-0.455-2.034t-1.205-0.67q-0.318 0-1.25 0.341zM10.455 31.045q0.5 0 1.705-0.25l7.182-1.614q1.318-0.295 1.318-1.5 0-0.886-1.045-1.409l-6.591-3.341q-0.977-0.523-1.591-0.523-1.159 0-1.295 1.614l-0.409 5.273q-0.068 0.909 0.080 1.33t0.648 0.42zM23.273 40.273l0.114-8.341q0.023-0.523-0.295-0.886t-0.886-0.364q-0.614 0-1.273 0.727l-5.318 5.932q-0.568 0.614-0.568 1.25 0 0.545 0.307 0.864t1.011 0.545l4.568 1.455q0.818 0.25 1.182 0.25 0.614 0 0.886-0.341t0.273-1.091zM26.25 24.227q-0.364 0.545-0.364 1 0 0.523 0.318 0.83t0.864 0.307q0.432 0 1.159-0.227l6.727-1.977q1.864-0.545 1.864-1.545 0-0.432-0.17-0.773t-0.648-0.886l-3.023-3.614q-0.409-0.477-0.67-0.659t-0.602-0.182q-0.273 0-0.489 0.136t-0.341 0.284-0.307 0.443zM36.432 33.932q0.409-0.568 0.409-1.159 0-0.727-1.114-1.045l-7.5-2.432q-0.659-0.205-0.932-0.205-0.5 0-0.841 0.352t-0.341 0.807q0 0.409 0.25 0.841l3.955 6.682q0.5 0.818 0.841 1.125t0.818 0.307q0.795 0 1.386-0.818z" />
</svg>
