<?xml version="1.0" encoding="utf-8"?>
<!-- Generated by IcoMoon.io -->
<!DOCTYPE svg PUBLIC "-//W3C//DTD SVG 1.1//EN" "http://www.w3.org/Graphics/SVG/1.1/DTD/svg11.dtd">
<svg version="1.1" xmlns="http://www.w3.org/2000/svg" xmlns:xlink="http://www.w3.org/1999/xlink" width="47" height="64" viewBox="0 0 47 64">
	<path d="M23.273 2.909q4.727 0 9.034 1.841t7.432 4.966 4.966 7.432 1.841 9.034-1.841 9.034-4.966 7.432-7.432 4.966-9.034 1.841-9.034-1.841-7.432-4.966-4.966-7.432-1.841-9.034 1.841-9.034 4.966-7.432 7.432-4.966 9.034-1.841zM29.682 42.659q1.159 0 2.216-0.5t1.818-1.398 1.068-2.17-0.080-2.795q-0.909 0.818-1.659 1.091t-1.75 0.273q-1.091 0-2.011-0.17t-1.784-0.591-1.364-0.716-1.432-0.909q-1.182-0.727-1.898-1.114t-2.091-0.864-2.92-0.659q1.705-2.091 6.17-6.909t6.534-7.159q1.614-1.818 2.193-2.716t0.58-1.898q0-0.364-0.034-0.67t-0.057-0.42l-0.045-0.136q-3.705 0.75-7.795 0.75-5.5 0-7.409-1.364-0.227 0.25-0.557 0.693t-0.875 1.534-0.545 1.909q0 2.182 4.273 2.182 2.364 0 4.955-0.409-2.091 2.523-5.341 6.25t-5.591 6.182q-1.818 1.864-2.33 3.432t-0.034 3.159q1.318-0.273 2.5-0.273 1.568 0 2.909 0.284t2.534 0.886 1.955 1.102 1.852 1.341q2.25 1.659 3.25 2.114 1.386 0.659 2.795 0.659z" />
</svg>
