<?xml version="1.0" encoding="utf-8"?>
<!-- Generator: Adobe Illustrator 16.2.1, SVG Export Plug-In . SVG Version: 6.00 Build 0)  -->
<!DOCTYPE svg PUBLIC "-//W3C//DTD SVG 1.1//EN" "http://www.w3.org/Graphics/SVG/1.1/DTD/svg11.dtd">
<svg version="1.1" xmlns="http://www.w3.org/2000/svg" xmlns:xlink="http://www.w3.org/1999/xlink" x="0px" y="0px" width="128px"
	 height="129px" viewBox="0 0 128 129" enable-background="new 0 0 128 129" xml:space="preserve">
<g id="Layer_3">
</g>
<g id="Layer_2">
	<g>
		<path d="M64.001,0C36.131,0,13.54,22.599,13.54,50.465c0,27.874,22.591,50.462,50.461,50.462
			c27.885,0,50.462-22.588,50.462-50.462C114.463,22.599,91.887,0,64.001,0z M58.283,21.018H69.87v37.093H58.283V21.018z
			 M64.054,79.909c-4.183,0-7.441-3.422-7.441-7.258c0-4.179,3.586-7.284,7.441-7.284c3.743,0,7.336,3.031,7.336,7.284
			C71.39,76.744,67.96,79.909,64.054,79.909z"/>
	</g>
</g>
</svg>
