<?xml version="1.0" encoding="utf-8"?>
<!-- Generator: Adobe Illustrator 16.2.1, SVG Export Plug-In . SVG Version: 6.00 Build 0)  -->
<!DOCTYPE svg PUBLIC "-//W3C//DTD SVG 1.1//EN" "http://www.w3.org/Graphics/SVG/1.1/DTD/svg11.dtd">
<svg version="1.1" id="Layer_2" xmlns="http://www.w3.org/2000/svg" xmlns:xlink="http://www.w3.org/1999/xlink" x="0px" y="0px"
	 width="128px" height="129px" viewBox="0 0 128 129" enable-background="new 0 0 128 129" xml:space="preserve">
<g>
	<g>
		<path d="M48.115,76.343c0,1.53-1.252,2.78-2.768,2.78h-6.822c-1.544,0-2.784-1.25-2.784-2.78V69.92
			c0-1.538,1.24-2.783,2.784-2.783h6.822c1.516,0,2.768,1.245,2.768,2.783V76.343z M48.115,54.716c0,1.525-1.252,2.773-2.768,2.773
			h-6.822c-1.544,0-2.784-1.248-2.784-2.773v-6.441c0-1.518,1.24-2.768,2.784-2.768h6.822c1.516,0,2.768,1.25,2.768,2.768V54.716z"
			/>
		<path d="M70.182,76.343c0,1.53-1.249,2.78-2.769,2.78h-6.82c-1.543,0-2.781-1.25-2.781-2.78V69.92
			c0-1.538,1.237-2.783,2.781-2.783h6.82c1.52,0,2.769,1.245,2.769,2.783V76.343z M70.182,54.716c0,1.525-1.249,2.773-2.769,2.773
			h-6.82c-1.543,0-2.781-1.248-2.781-2.773v-6.441c0-1.518,1.237-2.768,2.781-2.768h6.82c1.52,0,2.769,1.25,2.769,2.768V54.716z"/>
		<path d="M92.25,76.718c0,1.513-1.248,2.764-2.775,2.764h-6.82c-1.542,0-2.768-1.251-2.768-2.764v-6.429
			c0-1.537,1.226-2.784,2.768-2.784h6.82c1.528,0,2.775,1.247,2.775,2.784V76.718z M92.25,55.078c0,1.533-1.248,2.779-2.775,2.779
			h-6.82c-1.542,0-2.768-1.246-2.768-2.779v-6.431c0-1.531,1.226-2.764,2.768-2.764h6.82c1.528,0,2.775,1.232,2.775,2.764V55.078z"
			/>
	</g>
	<g>
		<path d="M104.529,7.979h-7.118v9.368h7.118l0.011,75.773H23.47V17.347h7.117V7.979H23.47c-5.171,0-9.375,4.204-9.375,9.368V93.12
			c0,5.161,4.204,9.365,9.375,9.365h81.059c5.178,0,9.377-4.204,9.377-9.365V17.347C113.906,12.183,109.707,7.979,104.529,7.979z"/>
		<rect x="51.377" y="7.979" width="25.24" height="9.368"/>
		<g>
			<path d="M44.075,0h-6.183c-1.19,0-2.151,1.002-2.151,2.236v5.742v9.368v5.748c0,1.23,0.961,2.227,2.151,2.227h6.183
				c1.19,0,2.153-0.996,2.153-2.227v-5.748V7.979V2.236C46.228,1.002,45.265,0,44.075,0z"/>
			<path d="M90.097,0h-6.176c-1.199,0-2.147,1.002-2.147,2.236v5.742v9.368v5.748c0,1.23,0.948,2.227,2.147,2.227h6.176
				c1.191,0,2.153-0.996,2.153-2.227v-5.748V7.979V2.236C92.25,1.002,91.288,0,90.097,0z"/>
		</g>
	</g>
</g>
</svg>
