<?xml version="1.0" encoding="utf-8"?>
<!-- Generator: Adobe Illustrator 16.2.1, SVG Export Plug-In . SVG Version: 6.00 Build 0)  -->
<!DOCTYPE svg PUBLIC "-//W3C//DTD SVG 1.1//EN" "http://www.w3.org/Graphics/SVG/1.1/DTD/svg11.dtd">
<svg version="1.1" xmlns="http://www.w3.org/2000/svg" xmlns:xlink="http://www.w3.org/1999/xlink" x="0px" y="0px" width="128px"
	 height="129px" viewBox="0 0 128 129" enable-background="new 0 0 128 129" xml:space="preserve">
<g id="Layer_3">
</g>
<g id="Layer_2">
	<g>
		<g>
			<path d="M49.295,78.67c0,1.417-1.159,2.573-2.562,2.573h-6.315c-1.429,0-2.577-1.157-2.577-2.573v-5.945
				c0-1.424,1.148-2.577,2.577-2.577h6.315c1.403,0,2.562,1.152,2.562,2.577V78.67z M49.295,58.65c0,1.412-1.159,2.567-2.562,2.567
				h-6.315c-1.429,0-2.577-1.155-2.577-2.567v-5.962c0-1.405,1.148-2.562,2.577-2.562h6.315c1.403,0,2.562,1.157,2.562,2.562V58.65z
				"/>
			<path d="M69.722,78.67c0,1.417-1.156,2.573-2.562,2.573h-6.314c-1.429,0-2.574-1.157-2.574-2.573v-5.945
				c0-1.424,1.145-2.577,2.574-2.577h6.314c1.406,0,2.562,1.152,2.562,2.577V78.67z M69.722,58.65c0,1.412-1.156,2.567-2.562,2.567
				h-6.314c-1.429,0-2.574-1.155-2.574-2.567v-5.962c0-1.405,1.145-2.562,2.574-2.562h6.314c1.406,0,2.562,1.157,2.562,2.562V58.65z
				"/>
			<path d="M90.151,79.017c0,1.4-1.155,2.559-2.569,2.559h-6.313c-1.428,0-2.562-1.158-2.562-2.559v-5.951
				c0-1.423,1.135-2.577,2.562-2.577h6.313c1.415,0,2.569,1.154,2.569,2.577V79.017z M90.151,58.985
				c0,1.419-1.155,2.572-2.569,2.572h-6.313c-1.428,0-2.562-1.153-2.562-2.572v-5.953c0-1.418,1.135-2.559,2.562-2.559h6.313
				c1.415,0,2.569,1.141,2.569,2.559V58.985z"/>
		</g>
		<g>
			<path d="M101.517,15.385h-6.589v8.672h6.589l0.011,70.143H26.482V24.058h6.587v-8.672h-6.587c-4.787,0-8.679,3.892-8.679,8.672
				V94.2c0,4.778,3.892,8.669,8.679,8.669h75.035c4.793,0,8.68-3.892,8.68-8.669V24.058
				C110.197,19.277,106.311,15.385,101.517,15.385z"/>
			<rect x="52.315" y="15.385" width="23.364" height="8.672"/>
			<g>
				<path d="M45.556,8h-5.723c-1.103,0-1.992,0.928-1.992,2.07v5.315v8.672v5.321c0,1.139,0.889,2.062,1.992,2.062h5.723
					c1.101,0,1.993-0.922,1.993-2.062v-5.321v-8.672V10.07C47.548,8.928,46.657,8,45.556,8z"/>
				<path d="M88.158,8h-5.717c-1.109,0-1.987,0.928-1.987,2.07v5.315v8.672v5.321c0,1.139,0.878,2.062,1.987,2.062h5.717
					c1.102,0,1.993-0.922,1.993-2.062v-5.321v-8.672V10.07C90.151,8.928,89.26,8,88.158,8z"/>
			</g>
		</g>
	</g>
</g>
</svg>
