<?xml version="1.0" encoding="utf-8"?>
<!-- Generator: Adobe Illustrator 16.2.1, SVG Export Plug-In . SVG Version: 6.00 Build 0)  -->
<!DOCTYPE svg PUBLIC "-//W3C//DTD SVG 1.1//EN" "http://www.w3.org/Graphics/SVG/1.1/DTD/svg11.dtd">
<svg version="1.1" id="Layer_2" xmlns="http://www.w3.org/2000/svg" xmlns:xlink="http://www.w3.org/1999/xlink" x="0px" y="0px"
	 width="128px" height="129px" viewBox="0 0 128 129" enable-background="new 0 0 128 129" xml:space="preserve">
<g>
	<path d="M103.016,16.17C92.607,5.744,78.744,0,64.008,0C49.256,0,35.389,5.742,24.99,16.166
		C14.572,26.576,8.818,40.436,8.818,55.167c0,14.746,5.754,28.596,16.168,39.021c10.41,10.424,24.27,16.155,39.021,16.155
		c14.736,0,28.6-5.731,39.008-16.155c10.416-10.423,16.166-24.272,16.166-39.021C119.182,40.433,113.432,26.574,103.016,16.17z
		 M64.008,99.959c-11.973,0-23.215-4.66-31.668-13.111c-8.451-8.468-13.115-19.715-13.115-31.681c0-11.96,4.664-23.2,13.121-31.656
		c8.447-8.452,19.689-13.112,31.662-13.112c11.949,0,23.197,4.66,31.648,13.112c8.475,8.456,13.119,19.695,13.119,31.656
		c0,11.966-4.645,23.213-13.119,31.681C87.205,95.3,75.961,99.959,64.008,99.959z"/>
	<path d="M87.287,44.618c-0.938-1.72-3.082-2.379-4.812-1.528l-14.486,6.541l-1.432-21.351c-0.088-2.133-1.814-3.806-3.949-3.824
		c-0.008,0-0.016,0-0.025,0c-2.121,0-3.854,1.66-3.961,3.79l-1.389,32.82c-0.045,0.854,0.213,1.708,0.732,2.41
		c0.137,0.18,0.322,0.292,0.486,0.444c0.102,0.098,0.197,0.186,0.305,0.28c0.107,0.08,0.215,0.146,0.328,0.215
		c0.67,0.457,1.408,0.783,2.289,0.77c0.059,0,0.105-0.029,0.16-0.033c0.129,0.014,0.254,0.029,0.385,0.026
		c0.674-0.01,1.342-0.209,1.939-0.57l22.176-15.091C87.691,48.478,88.248,46.317,87.287,44.618z"/>
</g>
</svg>
