<?xml version="1.0" encoding="utf-8"?>
<!-- Generator: Adobe Illustrator 16.2.1, SVG Export Plug-In . SVG Version: 6.00 Build 0)  -->
<!DOCTYPE svg PUBLIC "-//W3C//DTD SVG 1.1//EN" "http://www.w3.org/Graphics/SVG/1.1/DTD/svg11.dtd">
<svg version="1.1" xmlns="http://www.w3.org/2000/svg" xmlns:xlink="http://www.w3.org/1999/xlink" x="0px" y="0px" width="128px"
	 height="129px" viewBox="0 0 128 129" enable-background="new 0 0 128 129" xml:space="preserve">
<g id="Layer_3">
</g>
<g id="Layer_2">
	<g>
		<path d="M100.188,16.927C90.508,7.238,77.617,1.899,63.93,1.899c-13.725,0-26.622,5.335-36.28,15.028
			c-9.688,9.681-15.027,22.567-15.027,36.258c0,13.713,5.339,26.589,15.027,36.277c9.673,9.696,22.556,15.02,36.28,15.02
			c13.688,0,26.578-5.324,36.259-15.02c9.688-9.688,15.027-22.563,15.027-36.277C115.216,39.486,109.876,26.607,100.188,16.927z
			 M63.93,94.827c-11.14,0-21.588-4.334-29.444-12.19C26.622,74.762,22.28,64.314,22.28,53.185c0-11.122,4.342-21.565,12.205-29.43
			c7.856-7.856,18.305-12.19,29.444-12.19c11.104,0,21.559,4.334,29.415,12.19c7.879,7.864,12.205,18.308,12.205,29.43
			c0,11.129-4.326,21.577-12.205,29.452C85.488,90.493,75.033,94.827,63.93,94.827z"/>
		<path d="M85.57,43.377c-0.871-1.597-2.867-2.212-4.476-1.418l-13.472,6.084L66.29,28.189c-0.074-1.98-1.683-3.541-3.663-3.552
			c0,0-0.015,0-0.03,0c-1.966,0-3.582,1.542-3.679,3.522L57.63,58.669c-0.045,0.793,0.201,1.59,0.678,2.246
			c0.134,0.164,0.306,0.268,0.454,0.406c0.097,0.093,0.179,0.175,0.291,0.264c0.097,0.075,0.193,0.134,0.298,0.201
			c0.617,0.424,1.311,0.73,2.122,0.711c0.06,0,0.097-0.026,0.156-0.026c0.111,0.011,0.224,0.026,0.35,0.022
			c0.634-0.011,1.259-0.197,1.81-0.529l20.613-14.03C85.942,46.967,86.456,44.956,85.57,43.377z"/>
	</g>
</g>
</svg>
