<?xml version="1.0" encoding="utf-8"?>
<!-- Generator: Adobe Illustrator 16.2.1, SVG Export Plug-In . SVG Version: 6.00 Build 0)  -->
<!DOCTYPE svg PUBLIC "-//W3C//DTD SVG 1.1//EN" "http://www.w3.org/Graphics/SVG/1.1/DTD/svg11.dtd">
<svg version="1.1" id="Layer_2" xmlns="http://www.w3.org/2000/svg" xmlns:xlink="http://www.w3.org/1999/xlink" x="0px" y="0px"
	 width="128px" height="129px" viewBox="0 0 128 129" enable-background="new 0 0 128 129" xml:space="preserve">
<path d="M91.744,80.887L74.687,63.018L92.45,45.243c1.616-1.594,1.201-4.169-0.394-5.796l-4.55-4.348
	c-1.526-1.532-4.291-1.526-5.839,0.01L67.405,49.345v0.005l-3.9,3.545l-3.909-3.545v-0.005L45.687,35.109
	c-1.561-1.536-4.114-1.542-5.633-0.01l-4.305,4.348c-1.572,1.627-1.617,4.202-0.039,5.796l14.172,14.218l0,0l3.652,3.557
	l-17.83,17.869c-1.588,1.6-1.56,4.191,0.006,5.785l4.393,4.348c1.516,1.549,4.219,1.544,5.769-0.006l17.875-17.881l17.853,17.881
	c1.56,1.55,4.276,1.555,5.779,0.006l4.382-4.348C93.337,85.078,93.319,82.486,91.744,80.887z"/>
</svg>
