<?xml version="1.0" encoding="utf-8"?>
<!-- Generator: Adobe Illustrator 17.1.0, SVG Export Plug-In . SVG Version: 6.00 Build 0)  -->
<!DOCTYPE svg PUBLIC "-//W3C//DTD SVG 1.1//EN" "http://www.w3.org/Graphics/SVG/1.1/DTD/svg11.dtd">
<svg version="1.1" id="Layer_1" xmlns="http://www.w3.org/2000/svg" xmlns:xlink="http://www.w3.org/1999/xlink" x="0px" y="0px"
	 viewBox="0 0 128 129" enable-background="new 0 0 128 129" xml:space="preserve">
<g>
	<defs>
		<rect id="SVGID_1_" x="7.3" y="7.8" width="113.4" height="113.4"/>
	</defs>
	<clipPath id="SVGID_2_">
		<use xlink:href="#SVGID_1_"  overflow="visible"/>
	</clipPath>
	<path clip-path="url(#SVGID_2_)" fill-rule="evenodd" clip-rule="evenodd" fill="#231F20" d="M107.4,55.7h-9.9
		c0.7,2.8,1.1,5.7,1.1,8.7c0,19.2-15.6,34.8-34.8,34.8c-19.2,0-34.8-15.6-34.8-34.8c0-3,0.4-5.9,1.1-8.7h-9.9v47.9
		c0,2.4,2,4.3,4.4,4.3h78.4c2.4,0,4.4-1.9,4.4-4.3V55.7z M107.4,25.2c0-2.4-2-4.4-4.4-4.4H90c-2.4,0-4.4,2-4.4,4.4v13.1
		c0,2.4,1.9,4.4,4.4,4.4h13.1c2.4,0,4.4-2,4.4-4.4V25.2z M63.9,42.6c-12,0-21.8,9.7-21.8,21.8c0,12,9.7,21.8,21.8,21.8
		s21.8-9.7,21.8-21.8C85.7,52.4,75.9,42.6,63.9,42.6 M107.4,121H20.4c-7.2,0-13.1-5.8-13.1-13.1V20.9c0-7.2,5.8-13.1,13.1-13.1h87.1
		c7.2,0,13.1,5.8,13.1,13.1v87.1C120.5,115.1,114.7,121,107.4,121"/>
</g>
</svg>
