<?xml version="1.0" encoding="utf-8"?>
<!-- Generator: Adobe Illustrator 17.1.0, SVG Export Plug-In . SVG Version: 6.00 Build 0)  -->
<!DOCTYPE svg PUBLIC "-//W3C//DTD SVG 1.1//EN" "http://www.w3.org/Graphics/SVG/1.1/DTD/svg11.dtd">
<svg version="1.1" id="All_glyphs" xmlns="http://www.w3.org/2000/svg" xmlns:xlink="http://www.w3.org/1999/xlink" x="0px" y="0px"
	 viewBox="0 0 128 129" enable-background="new 0 0 128 129" xml:space="preserve">
<path d="M110.8,3H17.2C12.7,3,9,6.6,9,11V105c0,4.4,3.6,7.9,8.1,7.9h93.7c4.5,0,8.1-3.6,8.1-7.9V11C119,6.6,115.3,3,110.8,3z
	 M41.6,96.7H25.3V44.3h16.3V96.7z M33.5,37.1c-5.2,0-9.4-4.2-9.4-9.5c0-5.2,4.2-9.4,9.4-9.4c5.2,0,9.4,4.2,9.4,9.4
	C42.9,32.8,38.7,37.1,33.5,37.1z M102.7,96.7H86.4V71.2c0-6.1-0.1-13.9-8.5-13.9c-8.5,0-9.8,6.6-9.8,13.5v25.9H51.9V44.3h15.6v7.2
	h0.2c2.2-4.1,7.5-8.5,15.4-8.5c16.5,0,19.5,10.9,19.5,25V96.7z"/>
</svg>
