<?xml version="1.0" encoding="utf-8"?>
<!-- Generator: Adobe Illustrator 16.2.1, SVG Export Plug-In . SVG Version: 6.00 Build 0)  -->
<!DOCTYPE svg PUBLIC "-//W3C//DTD SVG 1.1//EN" "http://www.w3.org/Graphics/SVG/1.1/DTD/svg11.dtd">
<svg version="1.1" xmlns="http://www.w3.org/2000/svg" xmlns:xlink="http://www.w3.org/1999/xlink" x="0px" y="0px" width="128px"
	 height="129px" viewBox="0 0 128 129" enable-background="new 0 0 128 129" xml:space="preserve">
<g id="Layer_3">
</g>
<g id="Layer_2">
	<path d="M104.729,0H23.356c-3.912,0-7.129,3.13-7.129,6.956v81.72c0,3.825,3.13,6.868,7.042,6.868h81.459
		c3.912,0,7.043-3.13,7.043-6.868V6.956C111.858,3.13,108.641,0,104.729,0z M44.568,81.46h-14.17V35.905h14.17V81.46z
		 M37.527,29.646c-4.521,0-8.172-3.651-8.172-8.259c0-4.521,3.65-8.172,8.172-8.172c4.521,0,8.172,3.651,8.172,8.172
		C45.699,25.907,42.048,29.646,37.527,29.646z M97.688,81.46H83.517V59.291c0-5.303-0.087-12.084-7.39-12.084
		c-7.39,0-8.521,5.738-8.521,11.737V81.46H53.524V35.905h13.562v6.26h0.173c1.913-3.565,6.521-7.39,13.389-7.39
		c14.345,0,16.953,9.476,16.953,21.734V81.46H97.688z"/>
</g>
</svg>
