<?xml version="1.0" encoding="utf-8"?>
<!-- Generator: Adobe Illustrator 17.1.0, SVG Export Plug-In . SVG Version: 6.00 Build 0)  -->
<!DOCTYPE svg PUBLIC "-//W3C//DTD SVG 1.1//EN" "http://www.w3.org/Graphics/SVG/1.1/DTD/svg11.dtd">
<svg version="1.1" id="Layer_1" xmlns="http://www.w3.org/2000/svg" xmlns:xlink="http://www.w3.org/1999/xlink" x="0px" y="0px"
	 viewBox="0 0 128 129" enable-background="new 0 0 128 129" xml:space="preserve">
<path d="M88.6,31.7c-10.3,0-17.1,5.6-20,11h-0.3v-9.3H48.1v67.9h21.1V67.7c0-8.9,1.7-17.4,12.6-17.4c10.8,0,11,10.1,11,18v33h21.1
	V64.1C113.9,45.8,109.9,31.7,88.6,31.7z"/>
<rect x="13.8" y="33.4" width="21.1" height="67.9"/>
<path d="M24.3-0.3c-6.8,0-12.2,5.5-12.2,12.2c0,6.8,5.5,12.2,12.2,12.2c6.7,0,12.2-5.5,12.2-12.2C36.6,5.2,31.1-0.3,24.3-0.3z"/>
</svg>
