<?xml version="1.0" encoding="utf-8"?>
<!-- Generator: Adobe Illustrator 16.2.1, SVG Export Plug-In . SVG Version: 6.00 Build 0)  -->
<!DOCTYPE svg PUBLIC "-//W3C//DTD SVG 1.1//EN" "http://www.w3.org/Graphics/SVG/1.1/DTD/svg11.dtd">
<svg version="1.1" xmlns="http://www.w3.org/2000/svg" xmlns:xlink="http://www.w3.org/1999/xlink" x="0px" y="0px" width="128px"
	 height="129px" viewBox="0 0 128 129" enable-background="new 0 0 128 129" xml:space="preserve">
<g id="Layer_3">
</g>
<g id="Layer_2">
	<g>
		<g>
			<path d="M64.55,66.707c-0.78,0-1.559-0.271-2.186-0.8L19.403,29.575c-1.375-1.176-1.598-3.229-0.49-4.667
				c1.106-1.425,3.159-1.739,4.629-0.695l40.624,28.615l40.604-27.234c1.497-1.014,3.515-0.667,4.602,0.787
				c1.073,1.445,0.83,3.487-0.554,4.64L66.706,65.928C66.095,66.439,65.322,66.707,64.55,66.707z"/>
		</g>
		<g>
			<path d="M117.759,96.183H10.49c-5.076,0-9.204-4.129-9.204-9.213V12.541c0-5.079,4.127-9.208,9.204-9.208h107.269
				c5.08,0,9.205,4.129,9.205,9.208v74.428C126.964,92.053,122.839,96.183,117.759,96.183z M10.49,12.541v74.428h107.275
				l-0.006-74.428H10.49z"/>
		</g>
	</g>
</g>
</svg>
