<?xml version="1.0" encoding="utf-8"?>
<!-- Generator: Adobe Illustrator 16.2.1, SVG Export Plug-In . SVG Version: 6.00 Build 0)  -->
<!DOCTYPE svg PUBLIC "-//W3C//DTD SVG 1.1//EN" "http://www.w3.org/Graphics/SVG/1.1/DTD/svg11.dtd">
<svg version="1.1" id="Layer_2" xmlns="http://www.w3.org/2000/svg" xmlns:xlink="http://www.w3.org/1999/xlink" x="0px" y="0px"
	 width="128px" height="129px" viewBox="0 0 128 129" enable-background="new 0 0 128 129" xml:space="preserve">
<g>
	<g>
		<path d="M64.398,70.417c-0.794,0-1.587-0.276-2.225-0.815L18.442,32.62c-1.399-1.197-1.626-3.287-0.499-4.75
			c1.125-1.451,3.215-1.77,4.712-0.708L64.007,56.29l41.331-27.723c1.525-1.033,3.578-0.679,4.686,0.8
			c1.092,1.472,0.844,3.549-0.564,4.723L66.592,69.625C65.971,70.146,65.184,70.417,64.398,70.417z"/>
	</g>
	<g>
		<path d="M118.561,100.422H9.369C4.201,100.422,0,96.219,0,91.043V15.281c0-5.171,4.201-9.374,9.369-9.374h109.192
			c5.172,0,9.371,4.203,9.371,9.374v75.762C127.932,96.219,123.732,100.422,118.561,100.422z M9.369,15.281v75.762h109.198
			l-0.006-75.762H9.369z"/>
	</g>
</g>
</svg>
