<?xml version="1.0" encoding="utf-8"?>
<!-- Generator: Adobe Illustrator 16.2.1, SVG Export Plug-In . SVG Version: 6.00 Build 0)  -->
<!DOCTYPE svg PUBLIC "-//W3C//DTD SVG 1.1//EN" "http://www.w3.org/Graphics/SVG/1.1/DTD/svg11.dtd">
<svg version="1.1" id="Layer_2" xmlns="http://www.w3.org/2000/svg" xmlns:xlink="http://www.w3.org/1999/xlink" x="0px" y="0px"
	 width="128px" height="129px" viewBox="0 0 128 129" enable-background="new 0 0 128 129" xml:space="preserve">
<path d="M41.482,63.519c0-0.135,0.039-0.382,0.057-0.487c0.027-0.775,0.441-1.702,1.121-2.425l19.379-19.357
	c0.052-0.026,0.096-0.044,0.125-0.083L75.18,28.149c1.611-1.6,4.197-1.616,5.812-0.029l4.371,4.394c1.549,1.527,1.531,4.236,0,5.785
	L60.121,63.53l25.096,25.095c1.543,1.55,1.549,4.264,0,5.774l-4.369,4.393c-1.601,1.588-4.197,1.571-5.809-0.028L62.164,85.887
	c-0.029-0.016-0.073-0.033-0.125-0.061L42.66,66.446c-0.68-0.711-1.094-1.643-1.121-2.406c-0.018-0.123-0.057-0.366-0.057-0.5v-0.01
	V63.519z"/>
</svg>
