<?xml version="1.0" encoding="utf-8"?>
<!-- Generator: Adobe Illustrator 16.2.1, SVG Export Plug-In . SVG Version: 6.00 Build 0)  -->
<!DOCTYPE svg PUBLIC "-//W3C//DTD SVG 1.1//EN" "http://www.w3.org/Graphics/SVG/1.1/DTD/svg11.dtd">
<svg version="1.1" id="Layer_2" xmlns="http://www.w3.org/2000/svg" xmlns:xlink="http://www.w3.org/1999/xlink" x="0px" y="0px"
	 width="128px" height="129px" viewBox="0 0 128 129" enable-background="new 0 0 128 129" xml:space="preserve">
<path d="M86.518,63.519c0-0.135-0.038-0.382-0.066-0.487c-0.018-0.775-0.433-1.702-1.111-2.425L65.96,41.249
	c-0.05-0.026-0.095-0.044-0.123-0.083L52.813,28.149c-1.604-1.6-4.194-1.616-5.807-0.029l-4.37,4.394
	c-1.548,1.527-1.531,4.236,0,5.785L67.872,63.53l-25.09,25.095c-1.543,1.55-1.555,4.264,0,5.774l4.37,4.393
	c1.594,1.588,4.191,1.571,5.809-0.028l12.876-12.877c0.028-0.016,0.073-0.033,0.123-0.061l19.38-19.38
	c0.679-0.711,1.094-1.643,1.111-2.406c0.028-0.123,0.066-0.366,0.066-0.5v-0.01V63.519z"/>
</svg>
