<?xml version="1.0" encoding="utf-8"?>
<!-- Generator: Adobe Illustrator 16.2.1, SVG Export Plug-In . SVG Version: 6.00 Build 0)  -->
<!DOCTYPE svg PUBLIC "-//W3C//DTD SVG 1.1//EN" "http://www.w3.org/Graphics/SVG/1.1/DTD/svg11.dtd">
<svg version="1.1" xmlns="http://www.w3.org/2000/svg" xmlns:xlink="http://www.w3.org/1999/xlink" x="0px" y="0px" width="128px"
	 height="129px" viewBox="0 0 128 129" enable-background="new 0 0 128 129" xml:space="preserve">
<g id="Layer_3">
</g>
<g id="Layer_2">
	<path d="M57.452,62.735c-2.456,13.043-5.505,25.579-14.568,32.1c-2.795-19.734,4.066-34.557,7.284-50.31
		c-5.505-9.147,0.593-27.527,12.112-23.038c14.144,5.59-12.197,34.048,5.42,37.605c18.464,3.727,26.002-32.016,14.568-43.619
		c-16.517-16.77-48.108-0.423-44.212,23.63c0.932,5.844,7.03,7.623,2.456,15.754C29.84,52.487,26.707,44.187,27.13,33.007
		c0.593-18.21,16.347-30.915,32.1-32.694C79.134-1.889,97.853,7.597,100.479,26.4c2.879,21.174-8.979,44.043-30.322,42.434
		C64.397,68.325,61.941,65.446,57.452,62.735z"/>
</g>
</svg>
