<?xml version="1.0" encoding="utf-8"?>
<!-- Generator: Adobe Illustrator 17.1.0, SVG Export Plug-In . SVG Version: 6.00 Build 0)  -->
<!DOCTYPE svg PUBLIC "-//W3C//DTD SVG 1.1//EN" "http://www.w3.org/Graphics/SVG/1.1/DTD/svg11.dtd">
<svg version="1.1" id="All_glyphs" xmlns="http://www.w3.org/2000/svg" xmlns:xlink="http://www.w3.org/1999/xlink" x="0px" y="0px"
	 viewBox="0 0 128 129" enable-background="new 0 0 128 129" xml:space="preserve">
<path d="M56.3,82.6c-2.9,15.4-6.5,30.2-17.2,37.9c-3.3-23.3,4.8-40.8,8.6-59.4C41.2,50.3,48.4,28.6,62,33.9
	c16.7,6.6-14.4,40.2,6.4,44.4c21.8,4.4,30.7-37.8,17.2-51.5C66.1,7,28.8,26.3,33.4,54.7c1.1,6.9,8.3,9,2.9,18.6
	C23.7,70.5,20,60.7,20.5,47.5C21.2,26,39.8,11,58.4,8.9c23.5-2.6,45.6,8.6,48.7,30.8c3.4,25-10.6,52-35.8,50.1
	C64.5,89.2,61.6,85.8,56.3,82.6z"/>
</svg>
