<?xml version="1.0" encoding="utf-8"?>
<!-- Generator: Adobe Illustrator 16.2.1, SVG Export Plug-In . SVG Version: 6.00 Build 0)  -->
<!DOCTYPE svg PUBLIC "-//W3C//DTD SVG 1.1//EN" "http://www.w3.org/Graphics/SVG/1.1/DTD/svg11.dtd">
<svg version="1.1" xmlns="http://www.w3.org/2000/svg" xmlns:xlink="http://www.w3.org/1999/xlink" x="0px" y="0px" width="128px"
	 height="129px" viewBox="0 0 128 129" enable-background="new 0 0 128 129" xml:space="preserve">
<g id="Layer_3">
</g>
<g id="Layer_2">
	<path d="M100.565,49.782c0.01-2.195-1.896-4.096-4.086-4.114l-20.198,0.018h-5.027h-0.068v-0.079v-5.044V20.375
		c0-2.243-1.828-4.083-4.083-4.101l-6.171,0.017c-2.213-0.017-4.119,1.902-4.119,4.083v20.198v5.034v0.079H31.54
		c-2.245,0-4.105,1.834-4.116,4.096l0.011,6.182c-0.011,2.177,1.908,4.097,4.105,4.085h25.272v25.258c0,2.25,1.853,4.114,4.119,4.13
		l6.181-0.016c2.156,0.016,4.099-1.903,4.073-4.114V60.049h0.068h5.037h20.188c2.244,0,4.086-1.829,4.096-4.09L100.565,49.782z"/>
</g>
</svg>
