<?xml version="1.0" encoding="utf-8"?>
<!-- Generator: Adobe Illustrator 16.2.1, SVG Export Plug-In . SVG Version: 6.00 Build 0)  -->
<!DOCTYPE svg PUBLIC "-//W3C//DTD SVG 1.1//EN" "http://www.w3.org/Graphics/SVG/1.1/DTD/svg11.dtd">
<svg version="1.1" xmlns="http://www.w3.org/2000/svg" xmlns:xlink="http://www.w3.org/1999/xlink" x="0px" y="0px" width="128px"
	 height="129px" viewBox="0 0 128 129" enable-background="new 0 0 128 129" xml:space="preserve">
<g id="Layer_3">
</g>
<g id="Layer_2">
	<g>
		<g>
			<g>
				<path d="M108.067,90.915h-15.83c0-18.591-7.225-36.027-20.346-49.133c-13.149-13.156-30.6-20.39-49.184-20.39V5.555
					c22.812,0,44.254,8.877,60.357,25.025C99.19,46.668,108.067,68.096,108.067,90.915z"/>
			</g>
		</g>
		<g>
			<g>
				<path d="M78.948,90.915H63.111c0-10.794-4.205-20.952-11.825-28.549c-7.633-7.641-17.777-11.839-28.579-11.839V34.705
					c15.023,0,29.143,5.842,39.759,16.465C73.091,61.766,78.948,75.893,78.948,90.915z"/>
			</g>
		</g>
		<path d="M45.579,79.698c0,6.442-5.212,11.646-11.639,11.646c-6.449,0-11.662-5.205-11.662-11.646
			c0-6.433,5.213-11.646,11.662-11.646C40.366,68.052,45.579,73.265,45.579,79.698z"/>
	</g>
</g>
</svg>
