<?xml version="1.0" encoding="utf-8"?>
<!-- Generator: Adobe Illustrator 16.2.1, SVG Export Plug-In . SVG Version: 6.00 Build 0)  -->
<!DOCTYPE svg PUBLIC "-//W3C//DTD SVG 1.1//EN" "http://www.w3.org/Graphics/SVG/1.1/DTD/svg11.dtd">
<svg version="1.1" id="Layer_2" xmlns="http://www.w3.org/2000/svg" xmlns:xlink="http://www.w3.org/1999/xlink" x="0px" y="0px"
	 width="128px" height="129px" viewBox="0 0 128 129" enable-background="new 0 0 128 129" xml:space="preserve">
<path d="M106.642,91.174l-4.17-4.153l-2.902-2.894l-8.25-8.261L80.323,64.864c4.979-6.346,7.982-14.331,7.982-23.014
	c0-20.611-16.762-37.385-37.387-37.385c-20.614,0-37.388,16.773-37.388,37.385c0,20.611,16.773,37.382,37.388,37.382
	c7.714,0,14.909-2.353,20.865-6.377l11.275,11.272l8.261,8.253l2.897,2.908l4.142,4.15c1.301,1.301,3.416,1.317,4.733,0.017
	l3.544-3.558C107.903,94.632,107.886,92.43,106.642,91.174z M23.846,41.85c0-14.929,12.146-27.069,27.072-27.069
	c14.937,0,27.083,12.141,27.083,27.069c0,14.934-12.146,27.078-27.083,27.078C35.992,68.928,23.846,56.784,23.846,41.85z"/>
</svg>
