<?xml version="1.0" encoding="utf-8"?>
<!-- Generator: Adobe Illustrator 16.2.1, SVG Export Plug-In . SVG Version: 6.00 Build 0)  -->
<!DOCTYPE svg PUBLIC "-//W3C//DTD SVG 1.1//EN" "http://www.w3.org/Graphics/SVG/1.1/DTD/svg11.dtd">
<svg version="1.1" id="Layer_2" xmlns="http://www.w3.org/2000/svg" xmlns:xlink="http://www.w3.org/1999/xlink" x="0px" y="0px"
	 width="128px" height="129px" viewBox="0 0 128 129" enable-background="new 0 0 128 129" xml:space="preserve">
<g>
	<g>
		<g>
			<path d="M64.003,86.571c-12.273,0-22.26-9.989-22.26-22.263c0-12.271,9.986-22.261,22.26-22.261
				c12.272,0,22.258,9.991,22.258,22.261C86.262,76.583,76.276,86.571,64.003,86.571z M64.003,51.428
				c-7.112,0-12.882,5.781-12.882,12.881c0,7.112,5.771,12.894,12.882,12.894c7.105,0,12.882-5.782,12.882-12.894
				C76.886,57.209,71.108,51.428,64.003,51.428z"/>
		</g>
	</g>
	<g>
		<path d="M71.675,128.15H56.334c-5.247,0-9.519-4.271-9.519-9.52v-3.685c-7.408-2.504-14.163-6.604-19.77-11.982l-3.268,1.711
			c-4.594,2.377-10.509,0.441-12.837-4.06L3.845,87.033c-2.418-4.666-0.603-10.425,4.047-12.849l3.401-1.77
			c-0.803-5.354-0.788-10.834,0.049-16.181l-3.446-1.805c-2.244-1.157-3.916-3.14-4.68-5.572c-0.761-2.421-0.549-4.987,0.622-7.246
			l7.115-13.62c2.342-4.49,8.296-6.382,12.817-4.037l3.5,1.817c5.625-5.362,12.28-9.392,19.547-11.882V9.984
			c0-5.241,4.272-9.504,9.519-9.504h15.341c5.242,0,9.51,4.264,9.51,9.504v3.799c7.394,2.477,14.149,6.527,19.768,11.87l3.267-1.695
			c4.555-2.369,10.485-0.46,12.83,4.039l7.106,13.599c1.172,2.27,1.392,4.839,0.63,7.265c-0.766,2.428-2.437,4.408-4.697,5.574
			l-3.246,1.705c0.832,5.4,0.832,10.94,0,16.343l3.268,1.701c4.649,2.431,6.455,8.189,4.05,12.84l-7.104,13.606
			c-2.323,4.482-8.285,6.404-12.812,4.055l-3.306-1.728c-5.765,5.487-12.46,9.526-19.753,11.988v3.685
			C81.186,123.88,76.917,128.15,71.675,128.15z M57.124,117.843h13.757v-6.735c0-2.353,1.591-4.402,3.868-4.997
			c7.458-1.908,14.234-5.75,19.625-11.112c0.075-0.096,0.16-0.187,0.252-0.276c0.325-0.324,0.616-0.666,0.908-0.998l0.497-0.569
			c1.577-1.755,4.132-2.236,6.232-1.136l6.017,3.141l6.363-12.203l-5.963-3.106c-2.089-1.09-3.179-3.451-2.64-5.744
			c1.499-6.408,1.499-13.186,0-19.599c-0.539-2.292,0.549-4.651,2.637-5.741l5.964-3.112l-6.407-12.267l-5.97,3.207
			c-2.078,1.081-4.626,0.635-6.2-1.111l-0.589-0.661c-0.281-0.325-0.562-0.652-0.872-0.953c-5.438-5.44-12.301-9.331-19.837-11.232
			c-2.286-0.584-3.886-2.644-3.886-5.003v-6.841H57.124v6.911c0,2.346-1.576,4.397-3.849,4.994
			c-7.433,1.935-14.193,5.804-19.558,11.168c-0.047,0.05-0.094,0.096-0.145,0.148l0.008,0.007c-0.271,0.266-0.527,0.564-0.783,0.855
			l-0.666,0.745c-1.582,1.728-4.115,2.174-6.19,1.086l-6.218-3.243L13.36,45.655l6.152,3.209c2.085,1.09,3.17,3.454,2.637,5.749
			c-1.493,6.356-1.516,13.088-0.063,19.46c0.514,2.283-0.573,4.635-2.649,5.715l-6.08,3.171l6.403,12.273l5.989-3.22
			c2.106-1.092,4.665-0.62,6.238,1.142l0.524,0.611c0.338,0.375,0.673,0.771,1.035,1.134c5.419,5.422,12.215,9.289,19.71,11.21
			c2.281,0.595,3.867,2.645,3.867,4.997V117.843z"/>
	</g>
</g>
</svg>
