<?xml version="1.0" encoding="utf-8"?>
<!-- Generator: Adobe Illustrator 16.2.1, SVG Export Plug-In . SVG Version: 6.00 Build 0)  -->
<!DOCTYPE svg PUBLIC "-//W3C//DTD SVG 1.1//EN" "http://www.w3.org/Graphics/SVG/1.1/DTD/svg11.dtd">
<svg version="1.1" xmlns="http://www.w3.org/2000/svg" xmlns:xlink="http://www.w3.org/1999/xlink" x="0px" y="0px" width="128px"
	 height="129px" viewBox="0 0 128 129" enable-background="new 0 0 128 129" xml:space="preserve">
<g id="Layer_3">
</g>
<g id="Layer_2">
	<g id="layer1" transform="translate(-282.32053,-396.30734)" inkscape:groupmode="layer" inkscape:label="Layer 1">
		<path id="path5" inkscape:connector-curvature="0" d="M409.805,408.281c-4.502,1.977-9.445,3.405-14.496,3.954
			c5.272-3.185,9.225-8.127,11.092-14.058c-4.941,2.855-10.323,5.052-16.033,6.149c-4.613-4.942-11.203-8.017-18.451-8.017
			c-13.949,0-25.262,11.312-25.262,25.261c0,1.976,0.221,3.954,0.66,5.82c-21.088-1.099-39.648-11.093-52.169-26.468
			c-2.196,3.733-3.404,8.127-3.404,12.739c0,8.786,4.504,16.584,11.312,21.086c-4.173-0.109-8.017-1.318-11.422-3.184
			c0,0.109,0,0.22,0,0.329c0,12.301,8.677,22.514,20.317,24.821c-2.086,0.55-4.391,0.879-6.698,0.879
			c-1.647,0-3.185-0.11-4.723-0.439c3.185,10.104,12.521,17.353,23.612,17.572c-8.674,6.81-19.549,10.874-31.411,10.874
			c-2.086,0-4.061-0.111-6.039-0.33c11.203,7.139,24.491,11.422,38.77,11.422c46.566,0,72.045-38.549,72.045-72.047
			c0-1.098,0-2.197-0.107-3.294C402.119,417.725,406.511,413.333,409.805,408.281L409.805,408.281z"/>
	</g>
</g>
</svg>
