<?xml version="1.0" encoding="utf-8"?>
<!-- Generator: Adobe Illustrator 17.1.0, SVG Export Plug-In . SVG Version: 6.00 Build 0)  -->
<!DOCTYPE svg PUBLIC "-//W3C//DTD SVG 1.1//EN" "http://www.w3.org/Graphics/SVG/1.1/DTD/svg11.dtd">
<svg version="1.1"
	 id="svg2" xmlns:inkscape="http://www.inkscape.org/namespaces/inkscape" xmlns:sodipodi="http://sodipodi.sourceforge.net/DTD/sodipodi-0.dtd" sodipodi:docname="Twitter_bird_logo_2012.svg" inkscape:version="0.48.4 r9939" xmlns:rdf="http://www.w3.org/1999/02/22-rdf-syntax-ns#" xmlns:cc="http://creativecommons.org/ns#" xmlns:svg="http://www.w3.org/2000/svg" xmlns:dc="http://purl.org/dc/elements/1.1/"
	 xmlns="http://www.w3.org/2000/svg" xmlns:xlink="http://www.w3.org/1999/xlink" x="0px" y="0px" viewBox="21.8 5.2 128 129"
	 enable-background="new 21.8 5.2 128 129" xml:space="preserve">
<sodipodi:namedview  id="base" fit-margin-bottom="0" fit-margin-right="0" inkscape:window-width="1280" inkscape:window-maximized="1" inkscape:pageshadow="2" inkscape:pageopacity="0.0" inkscape:window-y="-8" inkscape:window-x="-8" inkscape:window-height="962" inkscape:document-units="px" inkscape:current-layer="layer1" inkscape:cx="101.29413" showgrid="false" inkscape:cy="50.181142" inkscape:zoom="3.7200571" fit-margin-left="0" fit-margin-top="0" borderopacity="1.0" pagecolor="#ffffff" bordercolor="#666666">
	</sodipodi:namedview>
<g id="layer1" transform="translate(-282.32053,-396.30734)" inkscape:groupmode="layer" inkscape:label="Layer 1">
	<path id="path5" inkscape:connector-curvature="0" d="M424.2,431.2c-4.1,1.8-8.6,3.1-13.2,3.6c4.8-2.9,8.4-7.4,10.1-12.8
		c-4.5,2.6-9.4,4.6-14.6,5.6c-4.2-4.5-10.2-7.3-16.8-7.3c-12.7,0-23,10.3-23,23c0,1.8,0.2,3.6,0.6,5.3c-19.2-1-36.1-10.1-47.5-24.1
		c-2,3.4-3.1,7.4-3.1,11.6c0,8,4.1,15.1,10.3,19.2c-3.8-0.1-7.3-1.2-10.4-2.9c0,0.1,0,0.2,0,0.3c0,11.2,7.9,20.5,18.5,22.6
		c-1.9,0.5-4,0.8-6.1,0.8c-1.5,0-2.9-0.1-4.3-0.4c2.9,9.2,11.4,15.8,21.5,16c-7.9,6.2-17.8,9.9-28.6,9.9c-1.9,0-3.7-0.1-5.5-0.3
		c10.2,6.5,22.3,10.4,35.3,10.4c42.4,0,65.6-35.1,65.6-65.6c0-1,0-2-0.1-3C417.2,439.8,421.2,435.8,424.2,431.2L424.2,431.2z"/>
</g>
</svg>
