<?xml version="1.0" encoding="utf-8"?>
<!-- Generator: Adobe Illustrator 17.1.0, SVG Export Plug-In . SVG Version: 6.00 Build 0)  -->
<!DOCTYPE svg PUBLIC "-//W3C//DTD SVG 1.1//EN" "http://www.w3.org/Graphics/SVG/1.1/DTD/svg11.dtd">
<svg version="1.1" id="All_glyphs" xmlns="http://www.w3.org/2000/svg" xmlns:xlink="http://www.w3.org/1999/xlink" x="0px" y="0px"
	 viewBox="0 0 128 129" enable-background="new 0 0 128 129" xml:space="preserve">
<path d="M115.9,35.4c-6.1,34.9-40.1,64.4-50.3,71.2c-10.2,6.7-19.5-2.7-22.9-9.9c-3.9-8.1-15.5-52.3-18.5-56
	C21.1,37,12,44.4,12,44.4l-4.4-5.9c0,0,18.5-22.5,32.6-25.3c14.9-3,14.9,23.4,18.5,38c3.5,14.1,5.8,22.2,8.8,22.2
	c3,0,8.8-7.9,15.2-20c6.4-12.1-0.3-22.8-12.7-15.2C75,7.8,121.9,0.5,115.9,35.4z"/>
</svg>
