<?xml version="1.0" encoding="utf-8"?>
<!-- Generator: Adobe Illustrator 16.2.1, SVG Export Plug-In . SVG Version: 6.00 Build 0)  -->
<!DOCTYPE svg PUBLIC "-//W3C//DTD SVG 1.1//EN" "http://www.w3.org/Graphics/SVG/1.1/DTD/svg11.dtd">
<svg version="1.1" xmlns="http://www.w3.org/2000/svg" xmlns:xlink="http://www.w3.org/1999/xlink" x="0px" y="0px" width="128px"
	 height="129px" viewBox="0 0 128 129" enable-background="new 0 0 128 129" xml:space="preserve">
<g id="Layer_3">
</g>
<g id="Layer_2">
	<path d="M101.314,47.807c-2.139,0.475-4.279,0.713-6.103,0.713c-10.62,0-18.783-7.37-18.783-20.29c0-6.34,2.457-9.59,5.865-9.59
		c3.25,0,5.468,2.932,5.468,8.876c0,3.408-0.871,7.134-1.585,9.353c0,0,3.249,5.706,12.206,3.963
		c1.902-4.201,2.932-9.669,2.932-14.425c0-12.839-6.578-20.369-18.625-20.369c-12.363,0-19.576,9.511-19.576,22.033
		c0,12.443,5.787,23.063,15.376,27.898c-4.043,8.084-9.194,15.217-14.504,20.527c-9.668-11.73-18.466-27.343-22.033-57.857H27.686
		C34.264,69.444,54,85.612,59.151,88.704c2.932,1.744,5.468,1.664,8.163,0.158c4.2-2.377,16.882-15.059,23.937-29.958
		c2.93,0,6.498-0.317,10.063-1.11V47.807L101.314,47.807z"/>
</g>
</svg>
