<?xml version="1.0" encoding="utf-8"?>
<!-- Generator: Adobe Illustrator 17.1.0, SVG Export Plug-In . SVG Version: 6.00 Build 0)  -->
<!DOCTYPE svg PUBLIC "-//W3C//DTD SVG 1.1//EN" "http://www.w3.org/Graphics/SVG/1.1/DTD/svg11.dtd">
<svg version="1.1" id="Layer_1" xmlns="http://www.w3.org/2000/svg" xmlns:xlink="http://www.w3.org/1999/xlink" x="0px" y="0px"
	 viewBox="0 0 128 129" enable-background="new 0 0 128 129" xml:space="preserve">
<path d="M110.4,60.7c-2.7,0.6-5.4,0.9-7.7,0.9c-13.4,0-23.7-9.3-23.7-25.6c0-8,3.1-12.1,7.4-12.1c4.1,0,6.9,3.7,6.9,11.2
	c0,4.3-1.1,9-2,11.8c0,0,4.1,7.2,15.4,5c2.4-5.3,3.7-12.2,3.7-18.2c0-16.2-8.3-25.7-23.5-25.7C71.3,8,62.2,20,62.2,35.8
	c0,15.7,7.3,29.1,19.4,35.2C76.5,81.2,70,90.2,63.3,96.9C51.1,82.1,40,62.4,35.5,23.9h-18c8.3,64.1,33.2,84.5,39.7,88.4
	c3.7,2.2,6.9,2.1,10.3,0.2c5.3-3,21.3-19,30.2-37.8c3.7,0,8.2-0.4,12.7-1.4V60.7z"/>
</svg>
