<?xml version="1.0" encoding="utf-8"?>
<!-- Generator: Adobe Illustrator 17.1.0, SVG Export Plug-In . SVG Version: 6.00 Build 0)  -->
<!DOCTYPE svg PUBLIC "-//W3C//DTD SVG 1.1//EN" "http://www.w3.org/Graphics/SVG/1.1/DTD/svg11.dtd">
<svg version="1.1" id="Layer_1" xmlns="http://www.w3.org/2000/svg" xmlns:xlink="http://www.w3.org/1999/xlink" x="0px" y="0px"
	 viewBox="0 0 128 129" enable-background="new 0 0 128 129" xml:space="preserve">
<path d="M64.6,2.1c-33.1,0-60,26.9-60,60c0,33.1,26.9,60,60,60c33.1,0,60-26.9,60-60C124.6,29,97.7,2.1,64.6,2.1z M10.7,62.1
	c0-7.8,1.7-15.2,4.7-22l25.7,70.5C23.1,101.9,10.7,83.5,10.7,62.1z M64.6,116.1c-5.3,0-10.4-0.8-15.2-2.2l16.2-47l16.6,45.4
	c0.1,0.3,0.2,0.5,0.4,0.7C76.9,115,70.9,116.1,64.6,116.1z M72,36.8c3.2-0.2,6.2-0.5,6.2-0.5c2.9-0.3,2.6-4.6-0.3-4.4
	c0,0-8.7,0.7-14.4,0.7c-5.3,0-14.2-0.7-14.2-0.7c-2.9-0.2-3.2,4.3-0.3,4.4c0,0,2.8,0.3,5.7,0.5l8.4,23L51.2,95.2L31.6,36.8
	c3.2-0.2,6.2-0.5,6.2-0.5c2.9-0.3,2.6-4.6-0.3-4.4c0,0-8.7,0.7-14.4,0.7c-1,0-2.2,0-3.5-0.1C29.2,17.8,45.8,8.2,64.6,8.2
	c14,0,26.8,5.4,36.4,14.2c-0.2,0-0.5,0-0.7,0c-5.3,0-9.1,4.6-9.1,9.6c0,4.4,2.6,8.2,5.3,12.7c2.1,3.6,4.4,8.2,4.4,14.9
	c0,4.6-1.8,10-4.1,17.4l-5.4,18L72,36.8z M91.7,108.7l16.5-47.6c3.1-7.7,4.1-13.8,4.1-19.3c0-2-0.1-3.8-0.4-5.5
	c4.2,7.7,6.6,16.5,6.6,25.9C118.6,82,107.8,99.4,91.7,108.7z"/>
</svg>
