<?xml version="1.0" encoding="utf-8"?>
<!-- Generator: Adobe Illustrator 17.1.0, SVG Export Plug-In . SVG Version: 6.00 Build 0)  -->
<!DOCTYPE svg PUBLIC "-//W3C//DTD SVG 1.1//EN" "http://www.w3.org/Graphics/SVG/1.1/DTD/svg11.dtd">
<svg version="1.1" id="YouTube_Icon" xmlns="http://www.w3.org/2000/svg" xmlns:xlink="http://www.w3.org/1999/xlink" x="0px"
	 y="0px" viewBox="0 0 128 129" enable-background="new 0 0 128 129" xml:space="preserve">
<g id="Lozenge">
	<g>
		<path fill="#282928" d="M123.8,40.3c0,0-1.2-8.3-4.8-12c-4.6-4.8-9.8-4.8-12.1-5.1c-16.9-1.2-42.3-1.2-42.3-1.2h-0.1
			c0,0-25.4,0-42.3,1.2c-2.4,0.3-7.5,0.3-12.1,5.1c-3.6,3.7-4.8,12-4.8,12S4,50.1,4,59.9v9.2c0,9.8,1.2,19.6,1.2,19.6
			s1.2,8.3,4.8,12c4.6,4.8,10.7,4.7,13.3,5.2c9.7,0.9,41.1,1.2,41.1,1.2s25.4,0,42.4-1.3c2.4-0.3,7.5-0.3,12.1-5.1
			c3.6-3.7,4.8-12,4.8-12s1.2-9.8,1.2-19.6v-9.2C125,50.1,123.8,40.3,123.8,40.3z M52,80.2l0-34l32.7,17.1L52,80.2z"/>
	</g>
</g>
</svg>
