<?xml version="1.0" encoding="utf-8"?>
<!-- Generator: Adobe Illustrator 16.2.1, SVG Export Plug-In . SVG Version: 6.00 Build 0)  -->
<!DOCTYPE svg PUBLIC "-//W3C//DTD SVG 1.1//EN" "http://www.w3.org/Graphics/SVG/1.1/DTD/svg11.dtd">
<svg version="1.1" xmlns="http://www.w3.org/2000/svg" xmlns:xlink="http://www.w3.org/1999/xlink" x="0px" y="0px" width="128px"
	 height="129px" viewBox="0 0 128 129" enable-background="new 0 0 128 129" xml:space="preserve">
<g id="Layer_3">
</g>
<g id="Layer_2">
	<g id="Lozenge">
		<g>
			<path fill="#282928" d="M126.802,24.475c0,0-1.27-8.785-5.08-12.701c-4.869-5.081-10.374-5.081-12.807-5.398
				c-17.889-1.27-44.773-1.27-44.773-1.27h-0.105c0,0-26.885,0-44.773,1.27c-2.54,0.318-7.938,0.318-12.807,5.398
				C2.646,15.69,1.375,24.475,1.375,24.475S0,34.848,0,45.221v9.738c0,10.373,1.27,20.745,1.27,20.745s1.27,8.786,5.081,12.702
				c4.868,5.081,11.325,4.974,14.077,5.503c10.267,0.953,43.502,1.271,43.502,1.271s26.884,0,44.878-1.377
				c2.54-0.316,7.939-0.316,12.807-5.397c3.811-3.916,5.082-12.702,5.082-12.702s1.27-10.372,1.27-20.745v-9.738
				C128.072,34.848,126.802,24.475,126.802,24.475z M50.806,66.707V30.719L85.417,48.82L50.806,66.707z"/>
		</g>
	</g>
</g>
</svg>
