<?xml version="1.0" encoding="utf-8"?>
<!-- Generated by IcoMoon.io -->
<!DOCTYPE svg PUBLIC "-//W3C//DTD SVG 1.1//EN" "http://www.w3.org/Graphics/SVG/1.1/DTD/svg11.dtd">
<svg version="1.1" xmlns="http://www.w3.org/2000/svg" xmlns:xlink="http://www.w3.org/1999/xlink" width="47" height="64" viewBox="0 0 47 64">
	<path d="M43.421 38.088q0.269 0.377 0.269 0.7t-0.269 0.7l-6.842 6.842q-0.377 0.269-0.7 0.269t-0.7-0.269l-11.906-11.906-11.906 11.906q-0.377 0.269-0.7 0.269t-0.7-0.269l-6.842-6.842q-0.269-0.377-0.269-0.7t0.269-0.7l11.906-11.906-11.906-11.906q-0.269-0.377-0.269-0.7t0.269-0.7l6.842-6.842q0.377-0.269 0.7-0.269t0.7 0.269l11.906 11.906 11.906-11.906q0.377-0.269 0.7-0.269t0.7 0.269l6.842 6.842q0.269 0.377 0.269 0.7t-0.269 0.7l-11.906 11.906z" />
</svg>
