<svg style="width:0;height:0;visibility:hidden;position:absolute;"><symbol viewBox="0 0 128 129" id="alert"><title>alert</title><path d="M64 14c-27.9 0-50.5 22.6-50.5 50.5S36.1 115 64 115s50.5-22.6 50.5-50.5S91.9 14 64 14zm-5.7 21.1h11.6v37.1H58.3V35.1zm5.8 58.8c-4.2 0-7.4-3.4-7.4-7.3 0-4.2 3.6-7.3 7.4-7.3 3.7 0 7.3 3 7.3 7.3 0 4.2-3.4 7.3-7.3 7.3z"/></symbol><symbol viewBox="0 0 128 129" id="calendar"><title>calendar</title><path d="M49.3 85.7c0 1.4-1.2 2.6-2.6 2.6h-6.3c-1.4 0-2.6-1.2-2.6-2.6v-5.9c0-1.4 1.1-2.6 2.6-2.6h6.3c1.4 0 2.6 1.2 2.6 2.6v5.9zm0-20c0 1.4-1.2 2.6-2.6 2.6h-6.3c-1.4 0-2.6-1.2-2.6-2.6v-6c0-1.4 1.1-2.6 2.6-2.6h6.3c1.4 0 2.6 1.2 2.6 2.6v6zM69.7 85.7c0 1.4-1.2 2.6-2.6 2.6h-6.3c-1.4 0-2.6-1.2-2.6-2.6v-5.9c0-1.4 1.1-2.6 2.6-2.6h6.3c1.4 0 2.6 1.2 2.6 2.6v5.9zm0-20c0 1.4-1.2 2.6-2.6 2.6h-6.3c-1.4 0-2.6-1.2-2.6-2.6v-6c0-1.4 1.1-2.6 2.6-2.6h6.3c1.4 0 2.6 1.2 2.6 2.6v6zM90.1 86.1c0 1.4-1.2 2.6-2.6 2.6h-6.3c-1.4 0-2.6-1.2-2.6-2.6v-6c0-1.4 1.1-2.6 2.6-2.6h6.3c1.4 0 2.6 1.2 2.6 2.6v6zm0-20c0 1.4-1.2 2.6-2.6 2.6h-6.3c-1.4 0-2.6-1.2-2.6-2.6v-6c0-1.4 1.1-2.6 2.6-2.6h6.3c1.4 0 2.6 1.1 2.6 2.6v6z"/><g><path d="M101.5 22.5h-6.6v8.7h6.6v70.1h-75V31.1h6.6v-8.7h-6.6c-4.8 0-8.7 3.9-8.7 8.7v70.1c0 4.8 3.9 8.7 8.7 8.7h75c4.8 0 8.7-3.9 8.7-8.7V31.1c0-4.8-3.9-8.6-8.7-8.6z"/><path d="M52.3 22.5h23.4v8.7H52.3zM45.6 15.1h-5.7c-1.1 0-2 .9-2 2.1v19.3c0 1.1.9 2.1 2 2.1h5.7c1.1 0 2-.9 2-2.1V17.2c-.1-1.2-.9-2.1-2-2.1zM88.2 15.1h-5.7c-1.1 0-2 .9-2 2.1v19.3c0 1.1.9 2.1 2 2.1h5.7c1.1 0 2-.9 2-2.1V17.2c-.1-1.2-.9-2.1-2-2.1z"/></g></symbol><symbol viewBox="0 0 128 129" id="check"><title>check</title><path d="M95.8 40.8l-4.4-4.4c-1.6-1.5-4.3-1.5-5.8 0L46.9 75.1 34.8 63c-1.6-1.6-4.2-1.6-5.8 0l-4.4 4.4c-.8.8-1.2 1.8-1.2 2.9 0 1.1.4 2.1 1.2 2.9L44 92.6c.7.7 1.6 1.1 2.4 1.1.1 0 .4.1.5.1h.2c1.1 0 2-.4 2.7-1.2l45.9-45.9c1.7-1.7 1.7-4.3.1-5.9z"/></symbol><symbol viewBox="0 0 128 129" id="clock"><title>clock</title><path d="M100.3 26.2c-9.7-9.7-22.6-15-36.3-15-13.7 0-26.6 5.3-36.3 15-9.7 9.7-15 22.6-15 36.3 0 13.7 5.3 26.6 15 36.3 9.7 9.7 22.6 15 36.3 15 13.7 0 26.6-5.3 36.3-15 9.7-9.7 15-22.6 15-36.3 0-13.7-5.3-26.6-15-36.3zM64 104.1c-11.1 0-21.6-4.3-29.4-12.2-7.9-7.9-12.2-18.3-12.2-29.5 0-11.1 4.3-21.6 12.2-29.4 7.9-7.9 18.3-12.2 29.4-12.2 11.1 0 21.6 4.3 29.4 12.2 7.9 7.9 12.2 18.3 12.2 29.4 0 11.1-4.3 21.6-12.2 29.5-7.8 7.9-18.3 12.2-29.4 12.2z"/><path d="M85.7 52.7c-.9-1.6-2.9-2.2-4.5-1.4l-13.5 6.1-1.3-19.9c-.1-2-1.7-3.5-3.7-3.6-2 0-3.6 1.5-3.7 3.5L57.7 68c0 .8.2 1.6.7 2.2.1.2.3.3.5.4l.3.3c.1.1.2.1.3.2.6.4 1.3.7 2.1.7h.5c.6 0 1.3-.2 1.8-.5l20.6-14c1.5-1 2-3 1.2-4.6z"/></symbol><symbol viewBox="0 0 128 129" id="delete"><title>delete</title><path d="M91.7 82.3l-17-17.8 17.8-17.8c1.6-1.6 1.2-4.2-.4-5.8l-4.6-4.3c-1.5-1.5-4.3-1.5-5.8 0L67.4 50.8l-3.9 3.5-3.9-3.5-13.9-14.3c-1.6-1.5-4.1-1.5-5.6 0l-4.3 4.3c-1.6 1.6-1.6 4.2 0 5.8L50 60.8l3.7 3.6-18 17.9c-1.6 1.6-1.6 4.2 0 5.8l4.4 4.3c1.5 1.5 4.2 1.5 5.8 0l17.9-17.9 17.9 17.9c1.6 1.6 4.3 1.6 5.8 0l4.4-4.3c1.4-1.6 1.4-4.2-.2-5.8z"/></symbol><symbol viewBox="0 0 128 129" id="facebook-sq"><title>facebook-sq</title><path d="M99.5 17.7H29.4c-6.5 0-11.7 5.3-11.7 11.7v70.2c0 6.5 5.3 11.7 11.7 11.7h35.5V77.7H53.7V63.1h11.2v-7.3c0-11.3 8.3-20.2 19-20.2h10.3v16.5H85c-2.4 0-3.1 1.4-3.1 3.3v7.7h12.3v14.6H81.8v33.5h17.8c6.5 0 11.7-5.3 11.7-11.7V29.4c-.1-6.4-5.3-11.7-11.8-11.7z"/></symbol><symbol viewBox="0 0 128 129" id="facebook"><title>facebook</title><path d="M70.6 106.4H54.8V64.5H44.3V50h10.5v-8.5c0-11.8 3.2-18.9 17.1-18.9h11.6V37h-7.2c-5.4 0-5.7 2-5.7 5.8V50h13L82 64.4H70.6v42z"/></symbol><symbol viewBox="0 0 128 129" id="flickr"><title>flickr</title><path d="M50.2 74.2c-7.6 0-13.8-6.3-13.8-14 0-7.8 6.2-14 13.8-14S64 52.4 64 60.1c0 7.8-6.2 14.1-13.8 14.1zm35.6 0c-7.6 0-13.8-6.3-13.8-14 0-7.8 6.2-14 13.8-14 7.6 0 13.8 6.3 13.8 14s-6.2 14-13.8 14z"/></symbol><symbol viewBox="0 0 128 129" id="google-plus"><title>google-plus</title><path d="M17.4 38.8c0 8.7 2.9 15 8.6 18.7 4.7 3 10.1 3.5 13 3.5.7 0 1.2 0 1.6-.1 0 0-.9 5.8 3.4 11.6h-.2c-7.5 0-32 1.6-32 21.7 0 20.5 22.5 21.5 27 21.5h1.5c2.9 0 10.4-.4 17.3-3.7 9-4.4 13.6-12 13.6-22.6 0-10.3-7-16.4-12-20.8-3.1-2.7-5.8-5.1-5.8-7.4 0-2.3 2-4.1 4.4-6.3 4-3.6 7.8-8.7 7.8-18.3 0-8.5-1.1-14.2-7.9-17.8.7-.4 3.2-.6 4.4-.8 3.7-.5 9-1.1 9-4.1v-.6H44.5c-.3 0-27.1 1-27.1 25.5zm43.2 52.5c.5 8.2-6.5 14.2-17 15-10.7.8-19.5-4-20-12.2-.2-3.9 1.5-7.8 4.9-10.8 3.4-3.1 8.1-5 13.3-5.4.6 0 1.2-.1 1.8-.1 9.8 0 16.5 5.8 17 13.5zm-7-58.1c2.6 9.2-1.3 18.9-7.7 20.7-.7.2-1.5.3-2.2.3-5.8 0-11.5-5.9-13.6-13.9-1.2-4.5-1.1-8.5.3-12.3 1.3-3.7 3.7-6.3 6.8-7.1.7-.2 1.5-.3 2.2-.3 6.9 0 11.4 2.9 14.2 12.6zm45.1 20.1V35.9H87.6v17.5H70.2v11.1h17.5V82h11.1V64.4h17.5V53.3H98.7z"/></symbol><symbol viewBox="0 0 128 129" id="home"><title>home</title><path d="M117.7 65.1l-.5-.8-11-10.5-17.8-17.1-5.1-4.9-11.5-10.9C70 19 67.5 18.1 65 18.2c-2.5-.1-5 .9-6.8 2.7L12.8 64.3l-.5.8c-.8 1.2-1.6 3.1-1.6 5.1 0 5.4 4.4 9.7 9.7 9.7h2.5v25.3c0 4.5 3.6 8.1 8.1 8.1h68.1c4.5 0 8.1-3.6 8.1-8.1V79.9h2.5c5.3 0 9.7-4.3 9.7-9.7-.1-2-.9-3.9-1.7-5.1zm-13.6 5.1h-6.9v33.2h-25V84.8c0-2.2-1.8-4.1-4.1-4.1h-6.2c-2.2 0-4.1 1.9-4.1 4.1v18.6h-25V70.2H20.7L65 27.9l14.1 13.5 8.1 7.8L98 59.5l8.1 7.8 3.1 3c.1-.1-5.1-.1-5.1-.1z"/></symbol><symbol viewBox="0 0 128 129" id="info"><title>info</title><path d="M99.7 28.8C90.2 19.3 77.5 14 64 14c-13.5 0-26.2 5.3-35.7 14.8-9.5 9.5-14.8 22.2-14.8 35.7 0 13.5 5.3 26.2 14.8 35.7C37.9 109.7 50.5 115 64 115c13.5 0 26.2-5.2 35.7-14.8 9.5-9.5 14.8-22.2 14.8-35.7 0-13.5-5.3-26.2-14.8-35.7zM64 105.5c-10.9 0-21.2-4.3-29-12-7.7-7.7-12-18-12-29 0-10.9 4.3-21.2 12-29 7.7-7.7 18-12 29-12s21.2 4.3 29 12c7.7 7.7 12 18 12 29 0 10.9-4.3 21.2-12 29-7.8 7.7-18.1 12-29 12z"/><path d="M73.3 85l-.7 3c-2.2.9-4 1.5-5.3 2-1.3.5-2.8.7-4.6.7-2.7 0-4.8-.6-6.2-2-1.5-1.3-2.2-3-2.2-5 0-.8.1-1.6.2-2.4.1-.8.3-1.7.5-2.8l2.8-9.8c.3-.9.5-1.8.6-2.7.2-.8.2-1.6.2-2.3 0-1.3-.3-2.1-.8-2.6s-1.5-.7-3-.7c-.7 0-1.4.1-2.2.3-.7.2-1.4.4-1.9.6l.7-3c1.8-.7 3.5-1.4 5.2-1.9 1.7-.5 3.2-.8 4.7-.8 2.7 0 4.7.6 6.1 1.9 1.4 1.3 2.2 3 2.2 5 0 .4-.1 1.2-.1 2.2-.1 1.1-.3 2.1-.6 2.9l-2.8 9.7c-.2.8-.4 1.7-.6 2.7-.2 1-.3 1.8-.3 2.3 0 1.3.3 2.2.9 2.7.6.5 1.6.7 3 .7.7 0 1.4-.1 2.3-.4.9.1 1.5-.1 1.9-.3zm.7-40.9c0 1.7-.6 3.1-1.9 4.3-1.3 1.2-2.8 1.8-4.6 1.8-1.8 0-3.4-.6-4.7-1.8-1.3-1.2-1.9-2.6-1.9-4.3 0-1.7.6-3.1 1.9-4.3 1.3-1.2 2.8-1.8 4.7-1.8 1.8 0 3.3.6 4.6 1.8 1.2 1.2 1.9 2.6 1.9 4.3z"/></symbol><symbol viewBox="0 0 128 129" id="instagram"><title>instagram</title><path d="M100 57.3h-8.2c.6 2.3.9 4.7.9 7.2 0 15.9-12.9 28.8-28.8 28.8S35.1 80.4 35.1 64.5c0-2.5.3-4.9.9-7.2h-8.2V97c0 2 1.7 3.6 3.6 3.6h64.9c2 0 3.6-1.6 3.6-3.6.1 0 .1-39.7.1-39.7zm0-25.3c0-2-1.7-3.6-3.6-3.6H85.6c-2 0-3.6 1.7-3.6 3.6v10.8c0 2 1.6 3.6 3.6 3.6h10.8c2 0 3.6-1.7 3.6-3.6V32zM64 46.4c-9.9 0-18.1 8-18.1 18.1 0 9.9 8 18.1 18.1 18.1 10 0 18.1-8 18.1-18.1-.1-9.9-8.2-18.1-18.1-18.1m36 65H27.9c-6 0-10.8-4.8-10.8-10.8v-72c0-6 4.8-10.8 10.8-10.8H100c6 0 10.8 4.8 10.8 10.8v72.1c0 5.8-4.8 10.7-10.8 10.7"/></symbol><symbol viewBox="0 0 128 129" id="linkedin-sq"><title>linkedin-sq</title><path d="M104.7 16.7H23.4c-3.9 0-7.1 3.1-7.1 7v81.7c0 3.8 3.1 6.9 7 6.9h81.5c3.9 0 7-3.1 7-6.9V23.7c.1-3.8-3.2-7-7.1-7zM44.6 98.2H30.4V52.6h14.2v45.6zm-7.1-51.8c-4.5 0-8.2-3.7-8.2-8.3 0-4.5 3.7-8.2 8.2-8.2 4.5 0 8.2 3.7 8.2 8.2 0 4.5-3.7 8.3-8.2 8.3zm60.2 51.8H83.5V76c0-5.3-.1-12.1-7.4-12.1-7.4 0-8.5 5.7-8.5 11.7v22.5H53.5V52.6h13.6v6.3h.2c1.9-3.6 6.5-7.4 13.4-7.4 14.3 0 17 9.5 17 21.7v25z"/></symbol><symbol viewBox="0 0 128 129" id="linkedin"><title>linkedin</title><path d="M83.8 41.9c-8 0-13.2 4.3-15.5 8.5h-.2v-7.2H52.5v52.5h16.3v-26c0-6.9 1.3-13.4 9.7-13.4 8.3 0 8.5 7.8 8.5 13.9v25.5h16.3V66.9c0-14.1-3.1-25-19.5-25zM26 43.2h16.3v52.5H26zM34.1 17.1c-5.3 0-9.4 4.2-9.4 9.4 0 5.3 4.2 9.4 9.4 9.4s9.4-4.3 9.4-9.4c.1-5.1-4.1-9.4-9.4-9.4z"/></symbol><symbol viewBox="0 0 128 129" id="list"><title>list</title><path d="M17.5 104.2c0 2.1-1.8 3.9-3.9 3.9H4c-2.1 0-3.9-1.7-3.9-3.9v-9c0-2.1 1.8-3.9 3.9-3.9h9.6c2.1 0 3.9 1.7 3.9 3.9v9zm0-35.2c0 2.1-1.8 3.9-3.9 3.9H4C1.9 72.9.1 71.1.1 69v-9c0-2.1 1.8-3.9 3.9-3.9h9.6c2.1 0 3.9 1.7 3.9 3.9v9zm0-35.2c0 2.2-1.8 3.9-3.9 3.9H4C1.9 37.7.1 36 .1 33.8v-9c0-2.2 1.8-3.9 3.9-3.9h9.6c2.1 0 3.9 1.7 3.9 3.9v9zm110.4 70.4c0 2.1-1.8 3.9-3.9 3.9H41c-2.2 0-3.9-1.7-3.9-3.9v-9c0-2.1 1.7-3.9 3.9-3.9h83c2.1 0 3.9 1.7 3.9 3.9v9zm0-35.2c0 2.1-1.8 3.9-3.9 3.9H41c-2.2 0-3.9-1.8-3.9-3.9v-9c0-2.1 1.7-3.9 3.9-3.9h83c2.1 0 3.9 1.7 3.9 3.9v9zm0-35.2c0 2.2-1.8 3.9-3.9 3.9H41c-2.2 0-3.9-1.7-3.9-3.9v-9c0-2.2 1.7-3.9 3.9-3.9h83c2.1 0 3.9 1.7 3.9 3.9v9z"/></symbol><symbol viewBox="0 0 128 129" id="location"><title>location</title><path d="M64 114.8c-.8 0-1.6-.2-2.3-.7-11.2-7.8-35.9-34-35.9-60.8 0-27.2 24.7-39 37.4-39h1.7c12.6 0 37.4 11.8 37.4 39 0 26.9-24.6 53-35.9 60.8-.8.4-1.6.7-2.4.7zm-.8-92.4C55.7 22.4 34 30 34 53.2c0 22.2 20.1 44.3 30 52.4 9.9-8.1 30.1-30.1 30.1-52.4 0-23.3-21.7-30.9-29.2-30.9h-1.7z"/><path d="M64 72.8c-11.3 0-20.5-9.2-20.5-20.5S52.7 31.8 64 31.8 84.5 41 84.5 52.3c0 11.4-9.2 20.5-20.5 20.5zm0-32.7c-6.8 0-12.3 5.5-12.3 12.3 0 6.8 5.5 12.3 12.3 12.3s12.3-5.5 12.3-12.3c0-6.8-5.5-12.3-12.3-12.3z"/></symbol><symbol viewBox="0 0 128 129" id="mail"><title>mail</title><path d="M64.6 81.4c-.8 0-1.6-.3-2.2-.8l-43-36.3c-1.4-1.2-1.6-3.2-.5-4.7 1.1-1.4 3.2-1.7 4.6-.7l40.6 28.6 40.6-27.2c1.5-1 3.5-.7 4.6.8 1.1 1.4.8 3.5-.6 4.6l-42 35c-.6.5-1.4.7-2.1.7z"/><path d="M117.8 110.9H10.5c-5.1 0-9.2-4.1-9.2-9.2V27.3c0-5.1 4.1-9.2 9.2-9.2h107.3c5.1 0 9.2 4.1 9.2 9.2v74.4c0 5.1-4.2 9.2-9.2 9.2zM10.5 27.3v74.4h107.3V27.3H10.5z"/></symbol><symbol viewBox="0 0 128 129" id="minus"><title>minus</title><path d="M71.3 71.7h25.2c2.2 0 4.1-1.8 4.1-4.1v-6.2c0-2.2-1.9-4.1-4.1-4.1h-65c-2.2 0-4.1 1.8-4.1 4.1v6.2c0 2.2 1.9 4.1 4.1 4.1h39.8z"/></symbol><symbol viewBox="0 0 128 129" id="nav-down"><title>nav-down</title><path d="M64.1 87c-.1 0-.4 0-.5-.1-.8 0-1.7-.4-2.4-1.1L41.8 66.5c0-.1-.1-.1-.1-.1l-13-13c-1.6-1.6-1.6-4.2 0-5.8l4.4-4.4c1.5-1.5 4.2-1.5 5.8 0l25.2 25.2 25.1-25.1c1.6-1.5 4.3-1.5 5.8 0l4.4 4.4c1.6 1.6 1.6 4.2 0 5.8l-13 12.8s0 .1-.1.1L67 85.8c-.7.7-1.6 1.1-2.4 1.1-.1.1-.4.1-.5.1z"/></symbol><symbol viewBox="0 0 128 129" id="nav-left"><title>nav-left</title><path d="M41.5 64.6c0-.1 0-.4.1-.5 0-.8.4-1.7 1.1-2.4L62 42.3c.1 0 .1 0 .1-.1l13-13c1.6-1.6 4.2-1.6 5.8 0l4.4 4.4c1.5 1.5 1.5 4.2 0 5.8L60.1 64.6l25.1 25.1c1.5 1.6 1.5 4.3 0 5.8l-4.4 4.4c-1.6 1.6-4.2 1.6-5.8 0l-12.8-13s-.1 0-.1-.1L42.7 67.5c-.7-.7-1.1-1.6-1.1-2.4-.1-.1-.1-.4-.1-.5z"/></symbol><symbol viewBox="0 0 128 129" id="nav-right"><title>nav-right</title><path d="M86.5 64.6c0-.1 0-.4-.1-.5 0-.8-.4-1.7-1.1-2.4L66 42.3c-.1 0-.1 0-.1-.1l-13-13c-1.6-1.6-4.2-1.6-5.8 0l-4.4 4.4c-1.5 1.5-1.5 4.2 0 5.8l25.2 25.2-25.1 25.1c-1.5 1.6-1.6 4.3 0 5.8l4.4 4.4c1.6 1.6 4.2 1.6 5.8 0L65.9 87s.1 0 .1-.1l19.4-19.4c.7-.7 1.1-1.6 1.1-2.4v-.5z"/></symbol><symbol viewBox="0 0 128 129" id="nav-up"><title>nav-up</title><path d="M64.4 42c.1 0 .4 0 .5.1.8 0 1.7.4 2.4 1.1l19.4 19.4c0 .1.1.1.1.1l13 13c1.6 1.6 1.6 4.2 0 5.8l-4.4 4.4c-1.5 1.5-4.2 1.5-5.8 0L64.4 60.6 39.3 85.7c-1.6 1.6-4.3 1.6-5.8 0l-4.4-4.4c-1.6-1.6-1.6-4.2 0-5.8L42 62.6s0-.1.1-.1l19.4-19.4c.7-.7 1.6-1.1 2.4-1.1h.5z"/></symbol><symbol viewBox="0 0 128 129" id="pinterest"><title>pinterest</title><path d="M57.5 79.8c-2.5 13-5.5 25.6-14.6 32.1-2.8-19.7 4.1-34.6 7.3-50.3-5.5-9.1.6-27.5 12.1-23 14.1 5.6-12.2 34 5.4 37.6 18.5 3.7 26-32 14.6-43.6-16.5-16.8-48.1-.4-44.2 23.6.9 5.8 7 7.6 2.5 15.8-10.7-2.4-13.8-10.7-13.4-21.8.6-18.2 16.3-30.9 32.1-32.7 19.9-2.2 38.6 7.3 41.2 26.1 2.9 21.2-9 44-30.3 42.4-5.8-.6-8.3-3.5-12.7-6.2z"/></symbol><symbol viewBox="0 0 128 129" id="plus"><title>plus</title><path d="M100.6 61.4c0-2.2-1.9-4.1-4.1-4.1H71.2V32c0-2.2-1.8-4.1-4.1-4.1h-6.2c-2.2 0-4.1 1.9-4.1 4.1v25.3H31.5c-2.2 0-4.1 1.8-4.1 4.1v6.2c0 2.2 1.9 4.1 4.1 4.1h25.3V97c0 2.3 1.9 4.1 4.1 4.1h6.2c2.2 0 4.1-1.9 4.1-4.1V71.7H96.5c2.2 0 4.1-1.8 4.1-4.1v-6.2z"/></symbol><symbol viewBox="0 0 128 129" id="rows"><title>rows</title><path d="M124 92.1H4C1.9 92.1.1 93.8.1 96v9c0 2.1 1.8 3.9 3.9 3.9h120c2.1 0 3.9-1.7 3.9-3.9v-9c0-2.2-1.8-3.9-3.9-3.9zM124 53.8H4c-2.1 0-3.9 1.7-3.9 3.9v9c0 2.1 1.8 3.9 3.9 3.9h120c2.1 0 3.9-1.8 3.9-3.9v-9c0-2.2-1.8-3.9-3.9-3.9zM124 15.4H4c-2.1 0-3.9 1.7-3.9 3.9v9c0 2.1 1.8 3.9 3.9 3.9h120c2.1 0 3.9-1.7 3.9-3.9v-9c0-2.2-1.8-3.9-3.9-3.9z"/></symbol><symbol viewBox="0 0 128 129" id="rss"><title>rss</title><path d="M108.3 105.3H92.5c0-18.6-7.2-36-20.3-49.1C59 43 41.5 35.8 22.9 35.8V19.9c22.8 0 44.3 8.9 60.4 25s25 37.6 25 60.4z"/><path d="M79.2 105.3H63.3c0-10.8-4.2-21-11.8-28.5C43.9 69.2 33.7 65 22.9 65V49.1c15 0 29.1 5.8 39.8 16.5 10.6 10.5 16.5 24.7 16.5 39.7z"/><path d="M45.8 94.1c0 6.4-5.2 11.6-11.6 11.6-6.4 0-11.7-5.2-11.7-11.6 0-6.4 5.2-11.6 11.7-11.6 6.4-.1 11.6 5.1 11.6 11.6z"/></symbol><symbol viewBox="0 0 128 129" id="search"><title>search</title><path d="M106.6 103.2l-4.2-4.2-2.9-2.9-8.3-8.3-11-11c5-6.3 8-14.3 8-23 0-20.6-16.8-37.4-37.4-37.4-20.6 0-37.4 16.8-37.4 37.4 0 20.6 16.8 37.4 37.4 37.4 7.7 0 14.9-2.4 20.9-6.4L83 96.1l8.3 8.3 2.9 2.9 4.1 4.2c1.3 1.3 3.4 1.3 4.7 0l3.5-3.6c1.4-1.2 1.4-3.4.1-4.7zM23.8 53.9C23.8 39 36 26.8 50.9 26.8 65.9 26.8 78 39 78 53.9 78 68.8 65.9 81 50.9 81 36 81 23.8 68.8 23.8 53.9z"/></symbol><symbol viewBox="0 0 128 129" id="settings"><title>settings</title><path d="M64 82c-9.7 0-17.5-7.9-17.5-17.5C46.5 54.8 54.3 47 64 47s17.5 7.9 17.5 17.5C81.5 74.2 73.7 82 64 82zm0-27.7c-5.6 0-10.1 4.6-10.1 10.1 0 5.6 4.5 10.2 10.1 10.2S74.1 70 74.1 64.4c.1-5.5-4.5-10.1-10.1-10.1z"/><path d="M70 114.8H58c-4.1 0-7.5-3.4-7.5-7.5v-2.9c-5.8-2-11.2-5.2-15.6-9.4l-2.6 1.3c-3.6 1.9-8.3.3-10.1-3.2l-5.6-10.7c-1.9-3.7-.5-8.2 3.2-10.1l2.7-1.4c-.6-4.2-.6-8.5 0-12.7l-2.7-1.4c-1.8-.9-3.1-2.5-3.7-4.4-.6-1.9-.4-3.9.5-5.7L22.2 36c1.8-3.5 6.5-5 10.1-3.2l2.8 1.4c4.4-4.2 9.7-7.4 15.4-9.4v-3.1c0-4.1 3.4-7.5 7.5-7.5h12c4.1 0 7.5 3.4 7.5 7.5v3c5.8 2 11.1 5.1 15.6 9.4l2.6-1.3c3.6-1.9 8.3-.4 10.1 3.2l5.6 10.7c.9 1.8 1.1 3.8.5 5.7-.6 1.9-1.9 3.5-3.7 4.4l-2.6 1.3c.7 4.3.7 8.6 0 12.9l2.6 1.3c3.7 1.9 5.1 6.5 3.2 10.1l-5.6 10.7c-1.8 3.5-6.5 5-10.1 3.2l-2.6-1.4c-4.5 4.3-9.8 7.5-15.6 9.4v2.9c0 4.2-3.3 7.6-7.5 7.6zm-11.4-8.1h10.8v-5.3c0-1.9 1.3-3.5 3-3.9 5.9-1.5 11.2-4.5 15.5-8.8l.2-.2c.3-.3.5-.5.7-.8l.4-.4c1.2-1.4 3.3-1.8 4.9-.9l4.7 2.5 5-9.6-4.7-2.4c-1.6-.9-2.5-2.7-2.1-4.5 1.2-5 1.2-10.4 0-15.4-.4-1.8.4-3.7 2.1-4.5l4.7-2.5-5-9.7-4.7 2.5c-1.6.9-3.6.5-4.9-.9l-.5-.5c-.2-.3-.4-.5-.7-.8-4.3-4.3-9.7-7.3-15.6-8.8-1.8-.5-3.1-2.1-3.1-3.9v-5.4H58.6v5.4c0 1.8-1.2 3.5-3 3.9-5.9 1.5-11.2 4.6-15.4 8.8l-.1.1c-.2.2-.4.4-.6.7l-.5.6c-1.2 1.4-3.2 1.7-4.9.9l-4.9-2.6-5 9.6 4.8 2.5c1.6.9 2.5 2.7 2.1 4.5-1.2 5-1.2 10.3 0 15.3.4 1.8-.5 3.7-2.1 4.5l-4.8 2.5 5 9.7 4.7-2.5c1.7-.9 3.7-.5 4.9.9l.4.5c.3.3.5.6.8.9 4.3 4.3 9.6 7.3 15.5 8.8 1.8.5 3 2.1 3 3.9l.1 5.3z"/></symbol><symbol viewBox="0 0 128 129" id="tumblr"><title>tumblr</title><path d="M84.1 89.7c-1.6.7-4.5 1.4-6.8 1.5-6.8.2-8.1-4.8-8.2-8.3V56.6h17V43.8H69.3V22.3H56.9c-.2 0-.6.2-.6.7-.7 6.6-3.8 18.1-16.6 22.7v10.9h8.6v27.6c0 9.5 7 22.8 25.4 22.6 6.2-.1 13.1-2.7 14.6-4.9l-4.2-12.2z"/></symbol><symbol viewBox="0 0 128 129" id="twitter"><title>twitter</title><path d="M101 45.5c3.4-2.4 6.6-5.7 9.5-9.8-3.5 1.5-7.2 2.5-11 3 4-2.4 6.8-5.9 8.2-10.6-3.7 2.2-7.7 3.7-11.9 4.7-3.7-4-8.3-6-13.8-6-5.3 0-9.8 1.9-13.5 5.6C64.8 36.1 63 40.6 63 46c0 1.6.2 3.1.5 4.3-7.8-.4-15.2-2.4-22-5.9-6.8-3.5-12.7-8.3-17.5-14.2-1.7 3.1-2.5 6.3-2.5 9.6s.8 6.3 2.3 9.1c1.5 2.8 3.6 5 6.1 6.8-3 0-5.9-.8-8.6-2.4v.2c0 4.6 1.4 8.6 4.3 12.1s6.5 5.7 11 6.7c-1.4.4-3 .6-5 .6-1.2 0-2.4-.1-3.6-.3 1.2 3.8 3.4 6.9 6.7 9.3 3.3 2.4 7 3.6 11.1 3.7-7.5 5.8-15.4 8.7-23.7 8.7-.7 0-2.1-.1-4.5-.3 8.6 5.6 18.4 8.4 29.2 8.4 6.8 0 13.1-1.1 19.1-3.2s11-5 15.3-8.6S88.9 82.7 92 78c3-4.7 5.3-9.6 6.8-14.7S101 53.1 101 48v-2.5z"/></symbol><symbol viewBox="0 0 128 129" id="vimeo"><title>vimeo</title><path d="M116.7 39.9c-6 34.1-39.2 63-49.2 69.7-10 6.6-19.1-2.6-22.4-9.7C41.3 92 29.9 48.7 27 45.1c-3-3.6-11.9 3.6-11.9 3.6l-4.3-5.8s18.1-22 31.9-24.8C57.3 15.2 57.3 41 60.8 55.3 64.2 69.1 66.5 77 69.4 77s8.6-7.7 14.9-19.6c6.3-11.8-.3-22.3-12.4-14.9 4.8-29.6 50.7-36.7 44.8-2.6z"/></symbol><symbol viewBox="0 0 128 129" id="vine"><title>vine</title><path d="M101.3 64.3c-2.1.5-4.3.7-6.1.7-10.6 0-18.8-7.4-18.8-20.3 0-6.3 2.5-9.6 5.9-9.6 3.3 0 5.5 2.9 5.5 8.9 0 3.4-.9 7.1-1.6 9.4 0 0 3.2 5.7 12.2 4 1.9-4.2 2.9-9.7 2.9-14.4 0-12.8-6.6-20.4-18.6-20.4-12.4 0-19.6 9.5-19.6 22 0 12.4 5.8 23.1 15.4 27.9-4 8.1-9.2 15.2-14.5 20.5-9.7-11.7-18.5-27.3-22-57.9H27.7c6.6 50.8 26.3 67 31.5 70.1 2.9 1.7 5.5 1.7 8.2.2 4.2-2.4 16.9-15.1 23.9-30 2.9 0 6.5-.3 10.1-1.1l-.1-10z"/></symbol><symbol viewBox="0 0 128 129" id="wordpress"><title>wordpress</title><path d="M65.2 14.5c-27.6 0-50 22.4-50 50s22.4 50 50 50 50-22.4 50-50c-.1-27.6-22.5-50-50-50zm-44.9 50c0-6.5 1.4-12.7 3.9-18.3l21.4 58.7c-15-7.2-25.3-22.6-25.3-40.4zm44.9 45c-4.4 0-8.7-.7-12.7-1.8L66 68.5l13.8 37.8c.1.3.2.4.3.6-4.7 1.7-9.7 2.6-14.9 2.6zm6.1-66.1c2.7-.2 5.2-.4 5.2-.4 2.4-.3 2.2-3.8-.3-3.7 0 0-7.2.6-12 .6-4.4 0-11.8-.6-11.8-.6-2.4-.2-2.7 3.6-.3 3.7 0 0 2.3.3 4.7.4l7 19.2L54 92.1 37.7 43.4c2.7-.2 5.2-.4 5.2-.4 2.4-.3 2.2-3.8-.3-3.7 0 0-7.2.6-12 .6-.8 0-1.8 0-2.9-.1 8-12.2 21.8-20.2 37.5-20.2 11.7 0 22.3 4.5 30.3 11.8h-.6c-4.4 0-7.6 3.8-7.6 8 0 3.7 2.2 6.8 4.4 10.6 1.7 3 3.7 6.8 3.7 12.4 0 3.8-1.5 8.3-3.4 14.5l-4.5 15-16.2-48.5zm16.4 59.9l13.7-39.6c2.6-6.4 3.4-11.5 3.4-16.1 0-1.7-.1-3.2-.3-4.6 3.5 6.4 5.5 13.7 5.5 21.6.1 16.5-8.9 31-22.3 38.7z"/></symbol><symbol viewBox="0 0 128 129" id="youtube"><title>youtube</title><style>.st0{fill:#282928}</style><g id="youtube-Layer_2"><path class="st0" d="M126.8 38.8s-1.3-8.8-5.1-12.7c-4.9-5.1-10.4-5.1-12.8-5.4-17.9-1.3-44.8-1.3-44.8-1.3H64s-26.9 0-44.8 1.3c-2.5.3-7.9.3-12.8 5.4-3.7 3.9-5 12.7-5 12.7S0 49.2 0 59.6v9.7C0 79.7 1.3 90 1.3 90s1.3 8.8 5.1 12.7c4.9 5.1 11.3 5 14.1 5.5 10.3 1 43.5 1.3 43.5 1.3s26.9 0 44.9-1.4c2.5-.3 7.9-.3 12.8-5.4 3.8-3.9 5.1-12.7 5.1-12.7s1.3-10.4 1.3-20.7v-9.7c0-10.4-1.3-20.8-1.3-20.8zm-76 42.3v-36l34.6 18.1-34.6 17.9z" id="youtube-Lozenge"/></g></symbol></svg>